<?xml version="1.0" encoding="utf-8" standalone="no"?>
<!DOCTYPE svg PUBLIC "-//W3C//DTD SVG 1.1//EN"
  "http://www.w3.org/Graphics/SVG/1.1/DTD/svg11.dtd">
<svg xmlns:xlink="http://www.w3.org/1999/xlink" width="229.425pt" height="185.031849pt" viewBox="0 0 229.425 185.031849" xmlns="http://www.w3.org/2000/svg" version="1.1">
 <metadata>
  <rdf:RDF xmlns:dc="http://purl.org/dc/elements/1.1/" xmlns:cc="http://creativecommons.org/ns#" xmlns:rdf="http://www.w3.org/1999/02/22-rdf-syntax-ns#">
   <cc:Work>
    <dc:type rdf:resource="http://purl.org/dc/dcmitype/StillImage"/>
    <dc:date>2025-08-06T11:52:10.369620</dc:date>
    <dc:format>image/svg+xml</dc:format>
    <dc:creator>
     <cc:Agent>
      <dc:title>Matplotlib v3.7.2, https://matplotlib.org/</dc:title>
     </cc:Agent>
    </dc:creator>
   </cc:Work>
  </rdf:RDF>
 </metadata>
 <defs>
  <style type="text/css">*{stroke-linejoin: round; stroke-linecap: butt}</style>
 </defs>
 <g id="figure_1">
  <g id="patch_1">
   <path d="M 0 185.031849 
L 229.425 185.031849 
L 229.425 0 
L 0 0 
z
" style="fill: #ffffff"/>
  </g>
  <g id="axes_1">
   <g id="patch_2">
    <path d="M 20.5625 147.475599 
L 215.8625 147.475599 
L 215.8625 8.875599 
L 20.5625 8.875599 
z
" style="fill: #ffffff"/>
   </g>
   <g id="matplotlib.axis_1">
    <g id="xtick_1">
     <g id="line2d_1">
      <path d="M 20.5625 147.475599 
L 20.5625 8.875599 
" clip-path="url(#p7e99b248a6)" style="fill: none; stroke: #b0b0b0; stroke-width: 0.8; stroke-linecap: square"/>
     </g>
     <g id="line2d_2">
      <defs>
       <path id="m42475ffd41" d="M 0 0 
L 0 3.5 
" style="stroke: #000000; stroke-width: 0.8"/>
      </defs>
      <g>
       <use xlink:href="#m42475ffd41" x="20.5625" y="147.475599" style="stroke: #000000; stroke-width: 0.8"/>
      </g>
     </g>
     <g id="text_1">
      <!-- 0 -->
      <g transform="translate(17.38125 162.074036) scale(0.1 -0.1)">
       <defs>
        <path id="DejaVuSans-30" d="M 2034 4250 
Q 1547 4250 1301 3770 
Q 1056 3291 1056 2328 
Q 1056 1369 1301 889 
Q 1547 409 2034 409 
Q 2525 409 2770 889 
Q 3016 1369 3016 2328 
Q 3016 3291 2770 3770 
Q 2525 4250 2034 4250 
z
M 2034 4750 
Q 2819 4750 3233 4129 
Q 3647 3509 3647 2328 
Q 3647 1150 3233 529 
Q 2819 -91 2034 -91 
Q 1250 -91 836 529 
Q 422 1150 422 2328 
Q 422 3509 836 4129 
Q 1250 4750 2034 4750 
z
" transform="scale(0.015625)"/>
       </defs>
       <use xlink:href="#DejaVuSans-30"/>
      </g>
     </g>
    </g>
    <g id="xtick_2">
     <g id="line2d_3">
      <path d="M 53.1125 147.475599 
L 53.1125 8.875599 
" clip-path="url(#p7e99b248a6)" style="fill: none; stroke: #b0b0b0; stroke-width: 0.8; stroke-linecap: square"/>
     </g>
     <g id="line2d_4">
      <g>
       <use xlink:href="#m42475ffd41" x="53.1125" y="147.475599" style="stroke: #000000; stroke-width: 0.8"/>
      </g>
     </g>
     <g id="text_2">
      <!-- 5 -->
      <g transform="translate(49.93125 162.074036) scale(0.1 -0.1)">
       <defs>
        <path id="DejaVuSans-35" d="M 691 4666 
L 3169 4666 
L 3169 4134 
L 1269 4134 
L 1269 2991 
Q 1406 3038 1543 3061 
Q 1681 3084 1819 3084 
Q 2600 3084 3056 2656 
Q 3513 2228 3513 1497 
Q 3513 744 3044 326 
Q 2575 -91 1722 -91 
Q 1428 -91 1123 -41 
Q 819 9 494 109 
L 494 744 
Q 775 591 1075 516 
Q 1375 441 1709 441 
Q 2250 441 2565 725 
Q 2881 1009 2881 1497 
Q 2881 1984 2565 2268 
Q 2250 2553 1709 2553 
Q 1456 2553 1204 2497 
Q 953 2441 691 2322 
L 691 4666 
z
" transform="scale(0.015625)"/>
       </defs>
       <use xlink:href="#DejaVuSans-35"/>
      </g>
     </g>
    </g>
    <g id="xtick_3">
     <g id="line2d_5">
      <path d="M 85.6625 147.475599 
L 85.6625 8.875599 
" clip-path="url(#p7e99b248a6)" style="fill: none; stroke: #b0b0b0; stroke-width: 0.8; stroke-linecap: square"/>
     </g>
     <g id="line2d_6">
      <g>
       <use xlink:href="#m42475ffd41" x="85.6625" y="147.475599" style="stroke: #000000; stroke-width: 0.8"/>
      </g>
     </g>
     <g id="text_3">
      <!-- 10 -->
      <g transform="translate(79.3 162.074036) scale(0.1 -0.1)">
       <defs>
        <path id="DejaVuSans-31" d="M 794 531 
L 1825 531 
L 1825 4091 
L 703 3866 
L 703 4441 
L 1819 4666 
L 2450 4666 
L 2450 531 
L 3481 531 
L 3481 0 
L 794 0 
L 794 531 
z
" transform="scale(0.015625)"/>
       </defs>
       <use xlink:href="#DejaVuSans-31"/>
       <use xlink:href="#DejaVuSans-30" x="63.623047"/>
      </g>
     </g>
    </g>
    <g id="xtick_4">
     <g id="line2d_7">
      <path d="M 118.2125 147.475599 
L 118.2125 8.875599 
" clip-path="url(#p7e99b248a6)" style="fill: none; stroke: #b0b0b0; stroke-width: 0.8; stroke-linecap: square"/>
     </g>
     <g id="line2d_8">
      <g>
       <use xlink:href="#m42475ffd41" x="118.2125" y="147.475599" style="stroke: #000000; stroke-width: 0.8"/>
      </g>
     </g>
     <g id="text_4">
      <!-- 15 -->
      <g transform="translate(111.85 162.074036) scale(0.1 -0.1)">
       <use xlink:href="#DejaVuSans-31"/>
       <use xlink:href="#DejaVuSans-35" x="63.623047"/>
      </g>
     </g>
    </g>
    <g id="xtick_5">
     <g id="line2d_9">
      <path d="M 150.7625 147.475599 
L 150.7625 8.875599 
" clip-path="url(#p7e99b248a6)" style="fill: none; stroke: #b0b0b0; stroke-width: 0.8; stroke-linecap: square"/>
     </g>
     <g id="line2d_10">
      <g>
       <use xlink:href="#m42475ffd41" x="150.7625" y="147.475599" style="stroke: #000000; stroke-width: 0.8"/>
      </g>
     </g>
     <g id="text_5">
      <!-- 20 -->
      <g transform="translate(144.4 162.074036) scale(0.1 -0.1)">
       <defs>
        <path id="DejaVuSans-32" d="M 1228 531 
L 3431 531 
L 3431 0 
L 469 0 
L 469 531 
Q 828 903 1448 1529 
Q 2069 2156 2228 2338 
Q 2531 2678 2651 2914 
Q 2772 3150 2772 3378 
Q 2772 3750 2511 3984 
Q 2250 4219 1831 4219 
Q 1534 4219 1204 4116 
Q 875 4013 500 3803 
L 500 4441 
Q 881 4594 1212 4672 
Q 1544 4750 1819 4750 
Q 2544 4750 2975 4387 
Q 3406 4025 3406 3419 
Q 3406 3131 3298 2873 
Q 3191 2616 2906 2266 
Q 2828 2175 2409 1742 
Q 1991 1309 1228 531 
z
" transform="scale(0.015625)"/>
       </defs>
       <use xlink:href="#DejaVuSans-32"/>
       <use xlink:href="#DejaVuSans-30" x="63.623047"/>
      </g>
     </g>
    </g>
    <g id="xtick_6">
     <g id="line2d_11">
      <path d="M 183.3125 147.475599 
L 183.3125 8.875599 
" clip-path="url(#p7e99b248a6)" style="fill: none; stroke: #b0b0b0; stroke-width: 0.8; stroke-linecap: square"/>
     </g>
     <g id="line2d_12">
      <g>
       <use xlink:href="#m42475ffd41" x="183.3125" y="147.475599" style="stroke: #000000; stroke-width: 0.8"/>
      </g>
     </g>
     <g id="text_6">
      <!-- 25 -->
      <g transform="translate(176.95 162.074036) scale(0.1 -0.1)">
       <use xlink:href="#DejaVuSans-32"/>
       <use xlink:href="#DejaVuSans-35" x="63.623047"/>
      </g>
     </g>
    </g>
    <g id="xtick_7">
     <g id="line2d_13">
      <path d="M 215.8625 147.475599 
L 215.8625 8.875599 
" clip-path="url(#p7e99b248a6)" style="fill: none; stroke: #b0b0b0; stroke-width: 0.8; stroke-linecap: square"/>
     </g>
     <g id="line2d_14">
      <g>
       <use xlink:href="#m42475ffd41" x="215.8625" y="147.475599" style="stroke: #000000; stroke-width: 0.8"/>
      </g>
     </g>
     <g id="text_7">
      <!-- 30 -->
      <g transform="translate(209.5 162.074036) scale(0.1 -0.1)">
       <defs>
        <path id="DejaVuSans-33" d="M 2597 2516 
Q 3050 2419 3304 2112 
Q 3559 1806 3559 1356 
Q 3559 666 3084 287 
Q 2609 -91 1734 -91 
Q 1441 -91 1130 -33 
Q 819 25 488 141 
L 488 750 
Q 750 597 1062 519 
Q 1375 441 1716 441 
Q 2309 441 2620 675 
Q 2931 909 2931 1356 
Q 2931 1769 2642 2001 
Q 2353 2234 1838 2234 
L 1294 2234 
L 1294 2753 
L 1863 2753 
Q 2328 2753 2575 2939 
Q 2822 3125 2822 3475 
Q 2822 3834 2567 4026 
Q 2313 4219 1838 4219 
Q 1578 4219 1281 4162 
Q 984 4106 628 3988 
L 628 4550 
Q 988 4650 1302 4700 
Q 1616 4750 1894 4750 
Q 2613 4750 3031 4423 
Q 3450 4097 3450 3541 
Q 3450 3153 3228 2886 
Q 3006 2619 2597 2516 
z
" transform="scale(0.015625)"/>
       </defs>
       <use xlink:href="#DejaVuSans-33"/>
       <use xlink:href="#DejaVuSans-30" x="63.623047"/>
      </g>
     </g>
    </g>
    <g id="text_8">
     <!-- epoch -->
     <g transform="translate(102.984375 175.752161) scale(0.1 -0.1)">
      <defs>
       <path id="DejaVuSans-65" d="M 3597 1894 
L 3597 1613 
L 953 1613 
Q 991 1019 1311 708 
Q 1631 397 2203 397 
Q 2534 397 2845 478 
Q 3156 559 3463 722 
L 3463 178 
Q 3153 47 2828 -22 
Q 2503 -91 2169 -91 
Q 1331 -91 842 396 
Q 353 884 353 1716 
Q 353 2575 817 3079 
Q 1281 3584 2069 3584 
Q 2775 3584 3186 3129 
Q 3597 2675 3597 1894 
z
M 3022 2063 
Q 3016 2534 2758 2815 
Q 2500 3097 2075 3097 
Q 1594 3097 1305 2825 
Q 1016 2553 972 2059 
L 3022 2063 
z
" transform="scale(0.015625)"/>
       <path id="DejaVuSans-70" d="M 1159 525 
L 1159 -1331 
L 581 -1331 
L 581 3500 
L 1159 3500 
L 1159 2969 
Q 1341 3281 1617 3432 
Q 1894 3584 2278 3584 
Q 2916 3584 3314 3078 
Q 3713 2572 3713 1747 
Q 3713 922 3314 415 
Q 2916 -91 2278 -91 
Q 1894 -91 1617 61 
Q 1341 213 1159 525 
z
M 3116 1747 
Q 3116 2381 2855 2742 
Q 2594 3103 2138 3103 
Q 1681 3103 1420 2742 
Q 1159 2381 1159 1747 
Q 1159 1113 1420 752 
Q 1681 391 2138 391 
Q 2594 391 2855 752 
Q 3116 1113 3116 1747 
z
" transform="scale(0.015625)"/>
       <path id="DejaVuSans-6f" d="M 1959 3097 
Q 1497 3097 1228 2736 
Q 959 2375 959 1747 
Q 959 1119 1226 758 
Q 1494 397 1959 397 
Q 2419 397 2687 759 
Q 2956 1122 2956 1747 
Q 2956 2369 2687 2733 
Q 2419 3097 1959 3097 
z
M 1959 3584 
Q 2709 3584 3137 3096 
Q 3566 2609 3566 1747 
Q 3566 888 3137 398 
Q 2709 -91 1959 -91 
Q 1206 -91 779 398 
Q 353 888 353 1747 
Q 353 2609 779 3096 
Q 1206 3584 1959 3584 
z
" transform="scale(0.015625)"/>
       <path id="DejaVuSans-63" d="M 3122 3366 
L 3122 2828 
Q 2878 2963 2633 3030 
Q 2388 3097 2138 3097 
Q 1578 3097 1268 2742 
Q 959 2388 959 1747 
Q 959 1106 1268 751 
Q 1578 397 2138 397 
Q 2388 397 2633 464 
Q 2878 531 3122 666 
L 3122 134 
Q 2881 22 2623 -34 
Q 2366 -91 2075 -91 
Q 1284 -91 818 406 
Q 353 903 353 1747 
Q 353 2603 823 3093 
Q 1294 3584 2113 3584 
Q 2378 3584 2631 3529 
Q 2884 3475 3122 3366 
z
" transform="scale(0.015625)"/>
       <path id="DejaVuSans-68" d="M 3513 2113 
L 3513 0 
L 2938 0 
L 2938 2094 
Q 2938 2591 2744 2837 
Q 2550 3084 2163 3084 
Q 1697 3084 1428 2787 
Q 1159 2491 1159 1978 
L 1159 0 
L 581 0 
L 581 4863 
L 1159 4863 
L 1159 2956 
Q 1366 3272 1645 3428 
Q 1925 3584 2291 3584 
Q 2894 3584 3203 3211 
Q 3513 2838 3513 2113 
z
" transform="scale(0.015625)"/>
      </defs>
      <use xlink:href="#DejaVuSans-65"/>
      <use xlink:href="#DejaVuSans-70" x="61.523438"/>
      <use xlink:href="#DejaVuSans-6f" x="125"/>
      <use xlink:href="#DejaVuSans-63" x="186.181641"/>
      <use xlink:href="#DejaVuSans-68" x="241.162109"/>
     </g>
    </g>
   </g>
   <g id="matplotlib.axis_2">
    <g id="ytick_1">
     <g id="line2d_15">
      <path d="M 20.5625 144.513455 
L 215.8625 144.513455 
" clip-path="url(#p7e99b248a6)" style="fill: none; stroke: #b0b0b0; stroke-width: 0.8; stroke-linecap: square"/>
     </g>
     <g id="line2d_16">
      <defs>
       <path id="m591793064d" d="M 0 0 
L -3.5 0 
" style="stroke: #000000; stroke-width: 0.8"/>
      </defs>
      <g>
       <use xlink:href="#m591793064d" x="20.5625" y="144.513455" style="stroke: #000000; stroke-width: 0.8"/>
      </g>
     </g>
     <g id="text_9">
      <!-- 0 -->
      <g transform="translate(7.2 148.312674) scale(0.1 -0.1)">
       <use xlink:href="#DejaVuSans-30"/>
      </g>
     </g>
    </g>
    <g id="ytick_2">
     <g id="line2d_17">
      <path d="M 20.5625 111.134896 
L 215.8625 111.134896 
" clip-path="url(#p7e99b248a6)" style="fill: none; stroke: #b0b0b0; stroke-width: 0.8; stroke-linecap: square"/>
     </g>
     <g id="line2d_18">
      <g>
       <use xlink:href="#m591793064d" x="20.5625" y="111.134896" style="stroke: #000000; stroke-width: 0.8"/>
      </g>
     </g>
     <g id="text_10">
      <!-- 1 -->
      <g transform="translate(7.2 114.934115) scale(0.1 -0.1)">
       <use xlink:href="#DejaVuSans-31"/>
      </g>
     </g>
    </g>
    <g id="ytick_3">
     <g id="line2d_19">
      <path d="M 20.5625 77.756337 
L 215.8625 77.756337 
" clip-path="url(#p7e99b248a6)" style="fill: none; stroke: #b0b0b0; stroke-width: 0.8; stroke-linecap: square"/>
     </g>
     <g id="line2d_20">
      <g>
       <use xlink:href="#m591793064d" x="20.5625" y="77.756337" style="stroke: #000000; stroke-width: 0.8"/>
      </g>
     </g>
     <g id="text_11">
      <!-- 2 -->
      <g transform="translate(7.2 81.555556) scale(0.1 -0.1)">
       <use xlink:href="#DejaVuSans-32"/>
      </g>
     </g>
    </g>
    <g id="ytick_4">
     <g id="line2d_21">
      <path d="M 20.5625 44.377778 
L 215.8625 44.377778 
" clip-path="url(#p7e99b248a6)" style="fill: none; stroke: #b0b0b0; stroke-width: 0.8; stroke-linecap: square"/>
     </g>
     <g id="line2d_22">
      <g>
       <use xlink:href="#m591793064d" x="20.5625" y="44.377778" style="stroke: #000000; stroke-width: 0.8"/>
      </g>
     </g>
     <g id="text_12">
      <!-- 3 -->
      <g transform="translate(7.2 48.176997) scale(0.1 -0.1)">
       <use xlink:href="#DejaVuSans-33"/>
      </g>
     </g>
    </g>
    <g id="ytick_5">
     <g id="line2d_23">
      <path d="M 20.5625 10.999219 
L 215.8625 10.999219 
" clip-path="url(#p7e99b248a6)" style="fill: none; stroke: #b0b0b0; stroke-width: 0.8; stroke-linecap: square"/>
     </g>
     <g id="line2d_24">
      <g>
       <use xlink:href="#m591793064d" x="20.5625" y="10.999219" style="stroke: #000000; stroke-width: 0.8"/>
      </g>
     </g>
     <g id="text_13">
      <!-- 4 -->
      <g transform="translate(7.2 14.798437) scale(0.1 -0.1)">
       <defs>
        <path id="DejaVuSans-34" d="M 2419 4116 
L 825 1625 
L 2419 1625 
L 2419 4116 
z
M 2253 4666 
L 3047 4666 
L 3047 1625 
L 3713 1625 
L 3713 1100 
L 3047 1100 
L 3047 0 
L 2419 0 
L 2419 1100 
L 313 1100 
L 313 1709 
L 2253 4666 
z
" transform="scale(0.015625)"/>
       </defs>
       <use xlink:href="#DejaVuSans-34"/>
      </g>
     </g>
    </g>
   </g>
   <g id="line2d_25">
    <path d="M 21.919904 68.260422 
L 23.305011 71.137887 
L 24.690117 79.046189 
L 26.075223 88.641587 
L 28.429904 123.933614 
L 29.815011 124.99064 
L 31.200117 125.572498 
L 32.585223 126.131743 
L 34.939904 128.848602 
L 36.325011 129.256644 
L 37.710117 129.485146 
L 39.095223 129.791363 
L 41.449904 130.986535 
L 42.835011 131.17323 
L 44.220117 131.249565 
L 45.605223 131.453352 
L 47.959904 132.204143 
L 49.345011 132.342897 
L 50.730117 132.336896 
L 52.115223 132.48526 
L 54.469904 133.062841 
L 55.855011 133.186425 
L 57.240117 133.12394 
L 58.625223 133.234147 
L 60.979904 133.708636 
L 62.365011 133.812006 
L 63.750117 133.748734 
L 65.135223 133.828256 
L 67.489904 134.253986 
L 68.875011 134.334916 
L 70.260117 134.258117 
L 71.645223 134.305681 
L 73.999904 134.680874 
L 75.385011 134.751699 
L 76.770117 134.673877 
L 78.155223 134.707345 
L 80.509904 134.983537 
L 81.895011 135.100681 
L 83.280117 135.017388 
L 84.665223 135.045833 
L 87.019904 135.275153 
L 88.405011 135.384504 
L 89.790117 135.317852 
L 91.175223 135.340661 
L 93.529904 135.522755 
L 94.915011 135.648897 
L 96.300117 135.592049 
L 97.685223 135.613685 
L 100.039904 135.8338 
L 101.425011 135.945911 
L 102.810117 135.86861 
L 104.195223 135.878828 
L 106.549904 136.00224 
L 107.935011 136.133892 
L 109.320117 136.078113 
L 110.705223 136.098473 
L 113.059904 136.196573 
L 114.445011 136.377827 
L 115.830117 136.311431 
L 117.215223 136.323695 
L 119.569904 136.378837 
L 120.955011 136.632157 
L 122.340117 136.55947 
L 123.725223 136.578574 
L 126.079904 136.666141 
L 127.465011 136.834693 
L 128.850117 136.753271 
L 130.235223 136.793435 
L 132.589904 136.836431 
L 133.975011 137.058685 
L 135.360117 137.002391 
L 136.745223 136.992688 
L 139.099904 136.928227 
L 140.485011 137.210649 
L 141.870117 137.16214 
L 143.255223 137.196644 
L 145.609904 137.146079 
L 146.995011 137.425321 
L 148.380117 137.354946 
L 149.765223 137.378837 
L 152.119904 137.378824 
L 153.505011 137.662997 
L 154.890117 137.549407 
L 156.275223 137.570139 
L 158.629904 137.538933 
L 160.015011 137.803219 
L 161.400117 137.743322 
L 162.785223 137.766158 
L 165.139904 137.778756 
L 166.525011 138.022525 
L 167.910117 137.912224 
L 169.295223 137.938914 
L 171.649904 15.175599 
L 173.035011 41.399405 
L 174.420117 50.143124 
L 175.805223 54.516841 
L 178.159904 67.636241 
L 179.545011 67.641342 
L 180.930117 67.638967 
L 182.315223 67.638723 
L 184.669904 67.636321 
L 186.055011 67.641443 
L 187.440117 67.639074 
L 188.825223 67.638836 
L 191.179904 67.636439 
L 192.565011 67.641559 
L 193.950117 67.639189 
L 195.335223 67.638953 
L 197.689904 67.63655 
L 199.075011 67.641667 
L 200.460117 67.639297 
L 201.845223 67.639063 
L 204.199904 67.636655 
L 205.585011 67.641769 
L 206.970117 67.639399 
L 208.355223 67.639167 
L 210.709904 67.636754 
L 212.095011 67.641864 
L 213.480117 67.639494 
L 214.865223 67.639264 
" clip-path="url(#p7e99b248a6)" style="fill: none; stroke: #1f77b4; stroke-width: 1.5; stroke-linecap: square"/>
   </g>
   <g id="line2d_26">
    <path d="M 21.919904 138.29409 
L 23.305011 136.879413 
L 24.690117 134.322563 
L 26.075223 130.977536 
L 28.429904 118.402555 
L 29.815011 118.076593 
L 31.200117 117.799308 
L 32.585223 117.549838 
L 34.939904 116.34508 
L 36.325011 116.20948 
L 37.710117 116.128641 
L 39.095223 115.946754 
L 41.449904 115.479324 
L 42.835011 115.438904 
L 44.220117 115.379362 
L 45.605223 115.260277 
L 47.959904 114.97343 
L 49.345011 114.926491 
L 50.730117 114.904761 
L 52.115223 114.813708 
L 54.469904 114.689191 
L 55.855011 114.605744 
L 57.240117 114.597052 
L 58.625223 114.523602 
L 60.979904 114.352797 
L 62.365011 114.305859 
L 63.750117 114.330197 
L 65.135223 114.264788 
L 67.489904 114.068558 
L 68.875011 114.050304 
L 70.260117 114.065081 
L 71.645223 114.019012 
L 73.999904 113.878196 
L 75.385011 113.892538 
L 76.770117 113.915573 
L 78.155223 113.877544 
L 80.509904 113.747811 
L 81.895011 113.732165 
L 83.280117 113.751288 
L 84.665223 113.728253 
L 87.019904 113.653934 
L 88.405011 113.650022 
L 89.790117 113.659149 
L 91.175223 113.624597 
L 93.529904 113.536587 
L 94.915011 113.497472 
L 96.300117 113.528764 
L 97.685223 113.50008 
L 100.039904 113.411418 
L 101.425011 113.364479 
L 102.810117 113.400118 
L 104.195223 113.372954 
L 106.549904 113.299287 
L 107.935011 113.278425 
L 109.320117 113.301025 
L 110.705223 113.285596 
L 113.059904 113.262779 
L 114.445011 113.191067 
L 115.830117 113.208886 
L 117.215223 113.196283 
L 119.569904 113.18194 
L 120.955011 113.078936 
L 122.340117 113.101971 
L 123.725223 113.088715 
L 126.079904 113.168902 
L 127.465011 113.04634 
L 128.850117 113.048078 
L 130.235223 113.016351 
L 132.589904 112.996793 
L 133.975011 112.896397 
L 135.360117 112.907262 
L 136.745223 112.911391 
L 139.099904 112.994186 
L 140.485011 112.862497 
L 141.870117 112.866408 
L 143.255223 112.843591 
L 145.609904 112.858585 
L 146.995011 112.754277 
L 148.380117 112.765577 
L 149.765223 112.745802 
L 152.119904 112.793393 
L 153.505011 112.652577 
L 154.890117 112.6604 
L 156.275223 112.653229 
L 158.629904 112.699516 
L 160.015011 112.578258 
L 161.400117 112.571738 
L 162.785223 112.566523 
L 165.139904 112.636931 
L 166.525011 112.496115 
L 167.910117 112.530015 
L 169.295223 112.522192 
L 171.649904 127.133135 
L 173.035011 134.061793 
L 174.420117 136.334839 
L 175.805223 137.475925 
L 178.159904 140.99306 
L 179.545011 140.963071 
L 180.930117 140.955683 
L 182.315223 140.916785 
L 184.669904 140.974806 
L 186.055011 140.957856 
L 187.440117 140.952206 
L 188.825223 140.918088 
L 191.179904 141.011314 
L 192.565011 140.97611 
L 193.950117 140.964375 
L 195.335223 140.927215 
L 197.689904 141.011314 
L 199.075011 140.97611 
L 200.460117 140.964375 
L 201.845223 140.927215 
L 204.199904 141.011314 
L 205.585011 140.97611 
L 206.970117 140.95916 
L 208.355223 140.923304 
L 210.709904 141.029568 
L 212.095011 140.985237 
L 213.480117 140.965244 
L 214.865223 140.931127 
" clip-path="url(#p7e99b248a6)" style="fill: none; stroke-dasharray: 5.55,2.4; stroke-dashoffset: 0; stroke: #bf00bf; stroke-width: 1.5"/>
   </g>
   <g id="line2d_27">
    <path d="M 27.0725 119.870065 
L 33.5825 117.410065 
L 40.0925 116.351965 
L 46.6025 115.8613 
L 53.1125 115.75115 
L 59.6225 115.630988 
L 66.1325 115.540866 
L 72.6425 115.547541 
L 79.1525 115.587596 
L 85.6625 115.747813 
L 92.1725 115.494136 
L 98.6825 115.390662 
L 105.1925 115.333918 
L 111.7025 115.257148 
L 118.2125 115.337256 
L 124.7225 115.267161 
L 131.2325 115.223769 
L 137.7425 115.280513 
L 144.2525 115.006809 
L 150.7625 115.096931 
L 157.2725 115.380648 
L 163.7825 115.103606 
L 170.2925 115.497473 
L 176.8025 141.175599 
L 183.3125 141.175599 
L 189.8225 141.175599 
L 196.3325 141.175599 
L 202.8425 141.175599 
L 209.3525 141.175599 
L 215.8625 141.175599 
" clip-path="url(#p7e99b248a6)" style="fill: none; stroke-dasharray: 9.6,2.4,1.5,2.4; stroke-dashoffset: 0; stroke: #008000; stroke-width: 1.5"/>
   </g>
   <g id="patch_3">
    <path d="M 20.5625 147.475599 
L 20.5625 8.875599 
" style="fill: none; stroke: #000000; stroke-width: 0.8; stroke-linejoin: miter; stroke-linecap: square"/>
   </g>
   <g id="patch_4">
    <path d="M 215.8625 147.475599 
L 215.8625 8.875599 
" style="fill: none; stroke: #000000; stroke-width: 0.8; stroke-linejoin: miter; stroke-linecap: square"/>
   </g>
   <g id="patch_5">
    <path d="M 20.5625 147.475599 
L 215.8625 147.475599 
" style="fill: none; stroke: #000000; stroke-width: 0.8; stroke-linejoin: miter; stroke-linecap: square"/>
   </g>
   <g id="patch_6">
    <path d="M 20.5625 8.875599 
L 215.8625 8.875599 
" style="fill: none; stroke: #000000; stroke-width: 0.8; stroke-linejoin: miter; stroke-linecap: square"/>
   </g>
   <g id="legend_1">
    <g id="patch_7">
     <path d="M 27.5625 60.909974 
L 105.33125 60.909974 
Q 107.33125 60.909974 107.33125 58.909974 
L 107.33125 15.875599 
Q 107.33125 13.875599 105.33125 13.875599 
L 27.5625 13.875599 
Q 25.5625 13.875599 25.5625 15.875599 
L 25.5625 58.909974 
Q 25.5625 60.909974 27.5625 60.909974 
z
" style="fill: #ffffff; opacity: 0.8; stroke: #cccccc; stroke-linejoin: miter"/>
    </g>
    <g id="line2d_28">
     <path d="M 29.5625 21.974036 
L 39.5625 21.974036 
L 49.5625 21.974036 
" style="fill: none; stroke: #1f77b4; stroke-width: 1.5; stroke-linecap: square"/>
    </g>
    <g id="text_14">
     <!-- train loss -->
     <g transform="translate(57.5625 25.474036) scale(0.1 -0.1)">
      <defs>
       <path id="DejaVuSans-74" d="M 1172 4494 
L 1172 3500 
L 2356 3500 
L 2356 3053 
L 1172 3053 
L 1172 1153 
Q 1172 725 1289 603 
Q 1406 481 1766 481 
L 2356 481 
L 2356 0 
L 1766 0 
Q 1100 0 847 248 
Q 594 497 594 1153 
L 594 3053 
L 172 3053 
L 172 3500 
L 594 3500 
L 594 4494 
L 1172 4494 
z
" transform="scale(0.015625)"/>
       <path id="DejaVuSans-72" d="M 2631 2963 
Q 2534 3019 2420 3045 
Q 2306 3072 2169 3072 
Q 1681 3072 1420 2755 
Q 1159 2438 1159 1844 
L 1159 0 
L 581 0 
L 581 3500 
L 1159 3500 
L 1159 2956 
Q 1341 3275 1631 3429 
Q 1922 3584 2338 3584 
Q 2397 3584 2469 3576 
Q 2541 3569 2628 3553 
L 2631 2963 
z
" transform="scale(0.015625)"/>
       <path id="DejaVuSans-61" d="M 2194 1759 
Q 1497 1759 1228 1600 
Q 959 1441 959 1056 
Q 959 750 1161 570 
Q 1363 391 1709 391 
Q 2188 391 2477 730 
Q 2766 1069 2766 1631 
L 2766 1759 
L 2194 1759 
z
M 3341 1997 
L 3341 0 
L 2766 0 
L 2766 531 
Q 2569 213 2275 61 
Q 1981 -91 1556 -91 
Q 1019 -91 701 211 
Q 384 513 384 1019 
Q 384 1609 779 1909 
Q 1175 2209 1959 2209 
L 2766 2209 
L 2766 2266 
Q 2766 2663 2505 2880 
Q 2244 3097 1772 3097 
Q 1472 3097 1187 3025 
Q 903 2953 641 2809 
L 641 3341 
Q 956 3463 1253 3523 
Q 1550 3584 1831 3584 
Q 2591 3584 2966 3190 
Q 3341 2797 3341 1997 
z
" transform="scale(0.015625)"/>
       <path id="DejaVuSans-69" d="M 603 3500 
L 1178 3500 
L 1178 0 
L 603 0 
L 603 3500 
z
M 603 4863 
L 1178 4863 
L 1178 4134 
L 603 4134 
L 603 4863 
z
" transform="scale(0.015625)"/>
       <path id="DejaVuSans-6e" d="M 3513 2113 
L 3513 0 
L 2938 0 
L 2938 2094 
Q 2938 2591 2744 2837 
Q 2550 3084 2163 3084 
Q 1697 3084 1428 2787 
Q 1159 2491 1159 1978 
L 1159 0 
L 581 0 
L 581 3500 
L 1159 3500 
L 1159 2956 
Q 1366 3272 1645 3428 
Q 1925 3584 2291 3584 
Q 2894 3584 3203 3211 
Q 3513 2838 3513 2113 
z
" transform="scale(0.015625)"/>
       <path id="DejaVuSans-20" transform="scale(0.015625)"/>
       <path id="DejaVuSans-6c" d="M 603 4863 
L 1178 4863 
L 1178 0 
L 603 0 
L 603 4863 
z
" transform="scale(0.015625)"/>
       <path id="DejaVuSans-73" d="M 2834 3397 
L 2834 2853 
Q 2591 2978 2328 3040 
Q 2066 3103 1784 3103 
Q 1356 3103 1142 2972 
Q 928 2841 928 2578 
Q 928 2378 1081 2264 
Q 1234 2150 1697 2047 
L 1894 2003 
Q 2506 1872 2764 1633 
Q 3022 1394 3022 966 
Q 3022 478 2636 193 
Q 2250 -91 1575 -91 
Q 1294 -91 989 -36 
Q 684 19 347 128 
L 347 722 
Q 666 556 975 473 
Q 1284 391 1588 391 
Q 1994 391 2212 530 
Q 2431 669 2431 922 
Q 2431 1156 2273 1281 
Q 2116 1406 1581 1522 
L 1381 1569 
Q 847 1681 609 1914 
Q 372 2147 372 2553 
Q 372 3047 722 3315 
Q 1072 3584 1716 3584 
Q 2034 3584 2315 3537 
Q 2597 3491 2834 3397 
z
" transform="scale(0.015625)"/>
      </defs>
      <use xlink:href="#DejaVuSans-74"/>
      <use xlink:href="#DejaVuSans-72" x="39.208984"/>
      <use xlink:href="#DejaVuSans-61" x="80.322266"/>
      <use xlink:href="#DejaVuSans-69" x="141.601562"/>
      <use xlink:href="#DejaVuSans-6e" x="169.384766"/>
      <use xlink:href="#DejaVuSans-20" x="232.763672"/>
      <use xlink:href="#DejaVuSans-6c" x="264.550781"/>
      <use xlink:href="#DejaVuSans-6f" x="292.333984"/>
      <use xlink:href="#DejaVuSans-73" x="353.515625"/>
      <use xlink:href="#DejaVuSans-73" x="405.615234"/>
     </g>
    </g>
    <g id="line2d_29">
     <path d="M 29.5625 36.652161 
L 39.5625 36.652161 
L 49.5625 36.652161 
" style="fill: none; stroke-dasharray: 5.55,2.4; stroke-dashoffset: 0; stroke: #bf00bf; stroke-width: 1.5"/>
    </g>
    <g id="text_15">
     <!-- train acc -->
     <g transform="translate(57.5625 40.152161) scale(0.1 -0.1)">
      <use xlink:href="#DejaVuSans-74"/>
      <use xlink:href="#DejaVuSans-72" x="39.208984"/>
      <use xlink:href="#DejaVuSans-61" x="80.322266"/>
      <use xlink:href="#DejaVuSans-69" x="141.601562"/>
      <use xlink:href="#DejaVuSans-6e" x="169.384766"/>
      <use xlink:href="#DejaVuSans-20" x="232.763672"/>
      <use xlink:href="#DejaVuSans-61" x="264.550781"/>
      <use xlink:href="#DejaVuSans-63" x="325.830078"/>
      <use xlink:href="#DejaVuSans-63" x="380.810547"/>
     </g>
    </g>
    <g id="line2d_30">
     <path d="M 29.5625 51.330286 
L 39.5625 51.330286 
L 49.5625 51.330286 
" style="fill: none; stroke-dasharray: 9.6,2.4,1.5,2.4; stroke-dashoffset: 0; stroke: #008000; stroke-width: 1.5"/>
    </g>
    <g id="text_16">
     <!-- test acc -->
     <g transform="translate(57.5625 54.830286) scale(0.1 -0.1)">
      <use xlink:href="#DejaVuSans-74"/>
      <use xlink:href="#DejaVuSans-65" x="39.208984"/>
      <use xlink:href="#DejaVuSans-73" x="100.732422"/>
      <use xlink:href="#DejaVuSans-74" x="152.832031"/>
      <use xlink:href="#DejaVuSans-20" x="192.041016"/>
      <use xlink:href="#DejaVuSans-61" x="223.828125"/>
      <use xlink:href="#DejaVuSans-63" x="285.107422"/>
      <use xlink:href="#DejaVuSans-63" x="340.087891"/>
     </g>
    </g>
   </g>
  </g>
 </g>
 <defs>
  <clipPath id="p7e99b248a6">
   <rect x="20.5625" y="8.875599" width="195.3" height="138.6"/>
  </clipPath>
 </defs>
</svg>
