<?xml version="1.0" encoding="utf-8" standalone="no"?>
<!DOCTYPE svg PUBLIC "-//W3C//DTD SVG 1.1//EN"
  "http://www.w3.org/Graphics/SVG/1.1/DTD/svg11.dtd">
<svg xmlns:xlink="http://www.w3.org/1999/xlink" width="223.948487pt" height="169.678125pt" viewBox="0 0 223.948487 169.678125" xmlns="http://www.w3.org/2000/svg" version="1.1">
 <metadata>
  <rdf:RDF xmlns:dc="http://purl.org/dc/elements/1.1/" xmlns:cc="http://creativecommons.org/ns#" xmlns:rdf="http://www.w3.org/1999/02/22-rdf-syntax-ns#">
   <cc:Work>
    <dc:type rdf:resource="http://purl.org/dc/dcmitype/StillImage"/>
    <dc:date>2025-06-02T19:38:34.823462</dc:date>
    <dc:format>image/svg+xml</dc:format>
    <dc:creator>
     <cc:Agent>
      <dc:title>Matplotlib v3.7.2, https://matplotlib.org/</dc:title>
     </cc:Agent>
    </dc:creator>
   </cc:Work>
  </rdf:RDF>
 </metadata>
 <defs>
  <style type="text/css">*{stroke-linejoin: round; stroke-linecap: butt}</style>
 </defs>
 <g id="figure_1">
  <g id="patch_1">
   <path d="M 0 169.678125 
L 223.948487 169.678125 
L 223.948487 0 
L 0 0 
z
" style="fill: #ffffff"/>
  </g>
  <g id="axes_1">
   <g id="patch_2">
    <path d="M 20.5625 145.8 
L 215.8625 145.8 
L 215.8625 7.2 
L 20.5625 7.2 
z
" style="fill: #ffffff"/>
   </g>
   <g id="matplotlib.axis_1">
    <g id="xtick_1">
     <g id="line2d_1">
      <defs>
       <path id="m3434b7dade" d="M 0 0 
L 0 3.5 
" style="stroke: #000000; stroke-width: 0.8"/>
      </defs>
      <g>
       <use xlink:href="#m3434b7dade" x="27.628084" y="145.8" style="stroke: #000000; stroke-width: 0.8"/>
      </g>
     </g>
     <g id="text_1">
      <!-- 0.0 -->
      <g transform="translate(19.676522 160.398438) scale(0.1 -0.1)">
       <defs>
        <path id="DejaVuSans-30" d="M 2034 4250 
Q 1547 4250 1301 3770 
Q 1056 3291 1056 2328 
Q 1056 1369 1301 889 
Q 1547 409 2034 409 
Q 2525 409 2770 889 
Q 3016 1369 3016 2328 
Q 3016 3291 2770 3770 
Q 2525 4250 2034 4250 
z
M 2034 4750 
Q 2819 4750 3233 4129 
Q 3647 3509 3647 2328 
Q 3647 1150 3233 529 
Q 2819 -91 2034 -91 
Q 1250 -91 836 529 
Q 422 1150 422 2328 
Q 422 3509 836 4129 
Q 1250 4750 2034 4750 
z
" transform="scale(0.015625)"/>
        <path id="DejaVuSans-2e" d="M 684 794 
L 1344 794 
L 1344 0 
L 684 0 
L 684 794 
z
" transform="scale(0.015625)"/>
       </defs>
       <use xlink:href="#DejaVuSans-30"/>
       <use xlink:href="#DejaVuSans-2e" x="63.623047"/>
       <use xlink:href="#DejaVuSans-30" x="95.410156"/>
      </g>
     </g>
    </g>
    <g id="xtick_2">
     <g id="line2d_2">
      <g>
       <use xlink:href="#m3434b7dade" x="63.861852" y="145.8" style="stroke: #000000; stroke-width: 0.8"/>
      </g>
     </g>
     <g id="text_2">
      <!-- 0.2 -->
      <g transform="translate(55.91029 160.398438) scale(0.1 -0.1)">
       <defs>
        <path id="DejaVuSans-32" d="M 1228 531 
L 3431 531 
L 3431 0 
L 469 0 
L 469 531 
Q 828 903 1448 1529 
Q 2069 2156 2228 2338 
Q 2531 2678 2651 2914 
Q 2772 3150 2772 3378 
Q 2772 3750 2511 3984 
Q 2250 4219 1831 4219 
Q 1534 4219 1204 4116 
Q 875 4013 500 3803 
L 500 4441 
Q 881 4594 1212 4672 
Q 1544 4750 1819 4750 
Q 2544 4750 2975 4387 
Q 3406 4025 3406 3419 
Q 3406 3131 3298 2873 
Q 3191 2616 2906 2266 
Q 2828 2175 2409 1742 
Q 1991 1309 1228 531 
z
" transform="scale(0.015625)"/>
       </defs>
       <use xlink:href="#DejaVuSans-30"/>
       <use xlink:href="#DejaVuSans-2e" x="63.623047"/>
       <use xlink:href="#DejaVuSans-32" x="95.410156"/>
      </g>
     </g>
    </g>
    <g id="xtick_3">
     <g id="line2d_3">
      <g>
       <use xlink:href="#m3434b7dade" x="100.095621" y="145.8" style="stroke: #000000; stroke-width: 0.8"/>
      </g>
     </g>
     <g id="text_3">
      <!-- 0.4 -->
      <g transform="translate(92.144058 160.398438) scale(0.1 -0.1)">
       <defs>
        <path id="DejaVuSans-34" d="M 2419 4116 
L 825 1625 
L 2419 1625 
L 2419 4116 
z
M 2253 4666 
L 3047 4666 
L 3047 1625 
L 3713 1625 
L 3713 1100 
L 3047 1100 
L 3047 0 
L 2419 0 
L 2419 1100 
L 313 1100 
L 313 1709 
L 2253 4666 
z
" transform="scale(0.015625)"/>
       </defs>
       <use xlink:href="#DejaVuSans-30"/>
       <use xlink:href="#DejaVuSans-2e" x="63.623047"/>
       <use xlink:href="#DejaVuSans-34" x="95.410156"/>
      </g>
     </g>
    </g>
    <g id="xtick_4">
     <g id="line2d_4">
      <g>
       <use xlink:href="#m3434b7dade" x="136.329389" y="145.8" style="stroke: #000000; stroke-width: 0.8"/>
      </g>
     </g>
     <g id="text_4">
      <!-- 0.6 -->
      <g transform="translate(128.377826 160.398438) scale(0.1 -0.1)">
       <defs>
        <path id="DejaVuSans-36" d="M 2113 2584 
Q 1688 2584 1439 2293 
Q 1191 2003 1191 1497 
Q 1191 994 1439 701 
Q 1688 409 2113 409 
Q 2538 409 2786 701 
Q 3034 994 3034 1497 
Q 3034 2003 2786 2293 
Q 2538 2584 2113 2584 
z
M 3366 4563 
L 3366 3988 
Q 3128 4100 2886 4159 
Q 2644 4219 2406 4219 
Q 1781 4219 1451 3797 
Q 1122 3375 1075 2522 
Q 1259 2794 1537 2939 
Q 1816 3084 2150 3084 
Q 2853 3084 3261 2657 
Q 3669 2231 3669 1497 
Q 3669 778 3244 343 
Q 2819 -91 2113 -91 
Q 1303 -91 875 529 
Q 447 1150 447 2328 
Q 447 3434 972 4092 
Q 1497 4750 2381 4750 
Q 2619 4750 2861 4703 
Q 3103 4656 3366 4563 
z
" transform="scale(0.015625)"/>
       </defs>
       <use xlink:href="#DejaVuSans-30"/>
       <use xlink:href="#DejaVuSans-2e" x="63.623047"/>
       <use xlink:href="#DejaVuSans-36" x="95.410156"/>
      </g>
     </g>
    </g>
    <g id="xtick_5">
     <g id="line2d_5">
      <g>
       <use xlink:href="#m3434b7dade" x="172.563157" y="145.8" style="stroke: #000000; stroke-width: 0.8"/>
      </g>
     </g>
     <g id="text_5">
      <!-- 0.8 -->
      <g transform="translate(164.611594 160.398438) scale(0.1 -0.1)">
       <defs>
        <path id="DejaVuSans-38" d="M 2034 2216 
Q 1584 2216 1326 1975 
Q 1069 1734 1069 1313 
Q 1069 891 1326 650 
Q 1584 409 2034 409 
Q 2484 409 2743 651 
Q 3003 894 3003 1313 
Q 3003 1734 2745 1975 
Q 2488 2216 2034 2216 
z
M 1403 2484 
Q 997 2584 770 2862 
Q 544 3141 544 3541 
Q 544 4100 942 4425 
Q 1341 4750 2034 4750 
Q 2731 4750 3128 4425 
Q 3525 4100 3525 3541 
Q 3525 3141 3298 2862 
Q 3072 2584 2669 2484 
Q 3125 2378 3379 2068 
Q 3634 1759 3634 1313 
Q 3634 634 3220 271 
Q 2806 -91 2034 -91 
Q 1263 -91 848 271 
Q 434 634 434 1313 
Q 434 1759 690 2068 
Q 947 2378 1403 2484 
z
M 1172 3481 
Q 1172 3119 1398 2916 
Q 1625 2713 2034 2713 
Q 2441 2713 2670 2916 
Q 2900 3119 2900 3481 
Q 2900 3844 2670 4047 
Q 2441 4250 2034 4250 
Q 1625 4250 1398 4047 
Q 1172 3844 1172 3481 
z
" transform="scale(0.015625)"/>
       </defs>
       <use xlink:href="#DejaVuSans-30"/>
       <use xlink:href="#DejaVuSans-2e" x="63.623047"/>
       <use xlink:href="#DejaVuSans-38" x="95.410156"/>
      </g>
     </g>
    </g>
    <g id="xtick_6">
     <g id="line2d_6">
      <g>
       <use xlink:href="#m3434b7dade" x="208.796925" y="145.8" style="stroke: #000000; stroke-width: 0.8"/>
      </g>
     </g>
     <g id="text_6">
      <!-- 1.0 -->
      <g transform="translate(200.845362 160.398438) scale(0.1 -0.1)">
       <defs>
        <path id="DejaVuSans-31" d="M 794 531 
L 1825 531 
L 1825 4091 
L 703 3866 
L 703 4441 
L 1819 4666 
L 2450 4666 
L 2450 531 
L 3481 531 
L 3481 0 
L 794 0 
L 794 531 
z
" transform="scale(0.015625)"/>
       </defs>
       <use xlink:href="#DejaVuSans-31"/>
       <use xlink:href="#DejaVuSans-2e" x="63.623047"/>
       <use xlink:href="#DejaVuSans-30" x="95.410156"/>
      </g>
     </g>
    </g>
   </g>
   <g id="matplotlib.axis_2">
    <g id="ytick_1">
     <g id="line2d_7">
      <defs>
       <path id="m7b045264be" d="M 0 0 
L -3.5 0 
" style="stroke: #000000; stroke-width: 0.8"/>
      </defs>
      <g>
       <use xlink:href="#m7b045264be" x="20.5625" y="139.5" style="stroke: #000000; stroke-width: 0.8"/>
      </g>
     </g>
     <g id="text_7">
      <!-- 0 -->
      <g transform="translate(7.2 143.299219) scale(0.1 -0.1)">
       <use xlink:href="#DejaVuSans-30"/>
      </g>
     </g>
    </g>
    <g id="ytick_2">
     <g id="line2d_8">
      <g>
       <use xlink:href="#m7b045264be" x="20.5625" y="112.139448" style="stroke: #000000; stroke-width: 0.8"/>
      </g>
     </g>
     <g id="text_8">
      <!-- 1 -->
      <g transform="translate(7.2 115.938667) scale(0.1 -0.1)">
       <use xlink:href="#DejaVuSans-31"/>
      </g>
     </g>
    </g>
    <g id="ytick_3">
     <g id="line2d_9">
      <g>
       <use xlink:href="#m7b045264be" x="20.5625" y="84.778896" style="stroke: #000000; stroke-width: 0.8"/>
      </g>
     </g>
     <g id="text_9">
      <!-- 2 -->
      <g transform="translate(7.2 88.578115) scale(0.1 -0.1)">
       <use xlink:href="#DejaVuSans-32"/>
      </g>
     </g>
    </g>
    <g id="ytick_4">
     <g id="line2d_10">
      <g>
       <use xlink:href="#m7b045264be" x="20.5625" y="57.418344" style="stroke: #000000; stroke-width: 0.8"/>
      </g>
     </g>
     <g id="text_10">
      <!-- 3 -->
      <g transform="translate(7.2 61.217563) scale(0.1 -0.1)">
       <defs>
        <path id="DejaVuSans-33" d="M 2597 2516 
Q 3050 2419 3304 2112 
Q 3559 1806 3559 1356 
Q 3559 666 3084 287 
Q 2609 -91 1734 -91 
Q 1441 -91 1130 -33 
Q 819 25 488 141 
L 488 750 
Q 750 597 1062 519 
Q 1375 441 1716 441 
Q 2309 441 2620 675 
Q 2931 909 2931 1356 
Q 2931 1769 2642 2001 
Q 2353 2234 1838 2234 
L 1294 2234 
L 1294 2753 
L 1863 2753 
Q 2328 2753 2575 2939 
Q 2822 3125 2822 3475 
Q 2822 3834 2567 4026 
Q 2313 4219 1838 4219 
Q 1578 4219 1281 4162 
Q 984 4106 628 3988 
L 628 4550 
Q 988 4650 1302 4700 
Q 1616 4750 1894 4750 
Q 2613 4750 3031 4423 
Q 3450 4097 3450 3541 
Q 3450 3153 3228 2886 
Q 3006 2619 2597 2516 
z
" transform="scale(0.015625)"/>
       </defs>
       <use xlink:href="#DejaVuSans-33"/>
      </g>
     </g>
    </g>
    <g id="ytick_5">
     <g id="line2d_11">
      <g>
       <use xlink:href="#m7b045264be" x="20.5625" y="30.057792" style="stroke: #000000; stroke-width: 0.8"/>
      </g>
     </g>
     <g id="text_11">
      <!-- 4 -->
      <g transform="translate(7.2 33.857011) scale(0.1 -0.1)">
       <use xlink:href="#DejaVuSans-34"/>
      </g>
     </g>
    </g>
   </g>
   <g id="line2d_12">
    <path d="M 29.439773 13.5 
L 31.251461 32.464896 
L 33.063149 43.558639 
L 34.874838 51.429786 
L 36.686526 57.53511 
L 38.498215 62.523529 
L 40.309903 66.741178 
L 42.121591 70.394675 
L 43.933279 73.617278 
L 45.744967 76.5 
L 47.556657 79.10774 
L 49.368345 81.488418 
L 51.180033 83.678434 
L 52.991722 85.70607 
L 54.803409 87.59375 
L 56.615098 89.359561 
L 58.426788 91.018287 
L 60.238474 92.582171 
L 62.050164 94.061478 
L 63.86185 95.464893 
L 65.67354 96.799817 
L 67.485229 98.072633 
L 69.296916 99.288856 
L 71.108605 100.453308 
L 72.920294 101.570221 
L 74.731981 102.643321 
L 76.543668 103.675918 
L 78.35536 104.670957 
L 80.167047 105.631073 
L 81.978733 106.558639 
L 83.790425 107.455787 
L 85.602112 108.324451 
L 87.413799 109.166379 
L 89.225491 109.983173 
L 91.037177 110.776288 
L 92.848864 111.547057 
L 94.660556 112.296711 
L 96.472243 113.026367 
L 98.28393 113.73707 
L 100.095616 114.429779 
L 101.907308 115.105385 
L 103.718995 115.764706 
L 105.530682 116.408513 
L 107.342374 117.037521 
L 109.15406 117.652389 
L 110.965747 118.253744 
L 112.777439 118.842167 
L 114.589126 119.418199 
L 116.400812 119.982354 
L 118.212505 120.53511 
L 120.024191 121.076921 
L 121.835878 121.60821 
L 123.647565 122.129378 
L 125.459251 122.640805 
L 127.270949 123.14285 
L 129.082635 123.635846 
L 130.894322 124.120115 
L 132.706009 124.595963 
L 134.517695 125.063676 
L 136.329382 125.523527 
L 138.14108 125.975781 
L 139.952766 126.420677 
L 141.764453 126.858455 
L 143.57614 127.289338 
L 145.387826 127.713542 
L 147.199513 128.131268 
L 149.0112 128.542711 
L 150.822897 128.948062 
L 152.634584 129.347493 
L 154.44627 129.741177 
L 156.257957 130.129276 
L 158.069644 130.511946 
L 159.881331 130.889339 
L 161.693028 131.261599 
L 163.504715 131.62886 
L 165.316401 131.991256 
L 167.128088 132.348915 
L 168.939775 132.701959 
L 170.751461 133.050506 
L 172.563148 133.394668 
L 174.374846 133.734557 
L 176.186532 134.070273 
L 177.998219 134.40192 
L 179.809906 134.729594 
L 181.621592 135.053391 
L 183.433279 135.373401 
L 185.244976 135.689713 
L 187.056663 136.002409 
L 188.86835 136.31157 
L 190.680036 136.617278 
L 192.491723 136.919607 
L 194.30341 137.218632 
L 196.115107 137.514426 
L 197.926794 137.807055 
L 199.738481 138.096587 
L 201.550167 138.383087 
L 203.361854 138.666618 
L 205.173541 138.947242 
L 206.985227 139.225016 
" clip-path="url(#p8bda42db74)" style="fill: none; stroke: #1f77b4; stroke-width: 1.5; stroke-linecap: square"/>
   </g>
   <g id="line2d_13">
    <path d="M 29.439773 14.759995 
L 31.251461 34.605596 
L 33.063149 46.436879 
L 34.874838 54.952596 
L 36.686526 61.633358 
L 38.498215 67.142117 
L 40.309903 71.834294 
L 42.121591 75.923102 
L 43.933279 79.546723 
L 45.744967 82.799999 
L 47.556657 85.750888 
L 49.368345 88.449807 
L 51.180033 90.935236 
L 52.991722 93.237221 
L 54.803409 95.379686 
L 56.615098 97.382031 
L 58.426788 99.26018 
L 60.238474 101.027381 
L 62.050164 102.694796 
L 63.86185 104.271912 
L 65.67354 105.766855 
L 67.485229 107.186653 
L 69.296916 108.537419 
L 71.108605 109.824515 
L 72.920294 111.052666 
L 74.731981 112.226057 
L 76.543668 113.348419 
L 78.35536 114.423088 
L 80.167047 115.453061 
L 81.978733 116.441046 
L 83.790425 117.389493 
L 85.602112 118.300627 
L 87.413799 119.176473 
L 89.225491 120.018895 
L 91.037177 120.829589 
L 92.848864 121.610117 
L 94.660556 122.361928 
L 96.472243 123.086348 
L 98.28393 123.784612 
L 100.095616 124.457867 
L 101.907308 125.107176 
L 103.718995 125.733529 
L 105.530682 126.337851 
L 107.342374 126.921012 
L 109.15406 127.483814 
L 110.965747 128.027021 
L 112.777439 128.551349 
L 114.589126 129.057464 
L 116.400812 129.546001 
L 118.212505 130.017555 
L 120.024191 130.472692 
L 121.835878 130.91194 
L 123.647565 131.335807 
L 125.459251 131.74477 
L 127.270949 132.139283 
L 129.082635 132.519772 
L 130.894322 132.886649 
L 132.706009 133.240304 
L 134.517695 133.581107 
L 136.329382 133.90941 
L 138.14108 134.225555 
L 139.952766 134.529858 
L 141.764453 134.822628 
L 143.57614 135.104162 
L 145.387826 135.374739 
L 147.199513 135.634631 
L 149.0112 135.884094 
L 150.822897 136.12338 
L 152.634584 136.352723 
L 154.44627 136.572353 
L 156.257957 136.78249 
L 158.069644 136.983345 
L 159.881331 137.175121 
L 161.693028 137.358016 
L 163.504715 137.532215 
L 165.316401 137.697901 
L 167.128088 137.85525 
L 168.939775 138.004431 
L 170.751461 138.145606 
L 172.563148 138.278933 
L 174.374846 138.404566 
L 176.186532 138.522649 
L 177.998219 138.633326 
L 179.809906 138.736735 
L 181.621592 138.833009 
L 183.433279 138.922276 
L 185.244976 139.004663 
L 187.056663 139.080289 
L 188.86835 139.149273 
L 190.680036 139.211728 
L 192.491723 139.267765 
L 194.30341 139.31749 
L 196.115107 139.36101 
L 197.926794 139.398423 
L 199.738481 139.429829 
L 201.550167 139.455323 
L 203.361854 139.474999 
L 205.173541 139.488945 
L 206.985227 139.49725 
" clip-path="url(#p8bda42db74)" style="fill: none; stroke-dasharray: 5.55,2.4; stroke-dashoffset: 0; stroke: #ff7f0e; stroke-width: 1.5"/>
   </g>
   <g id="line2d_14">
    <path d="M 29.439773 19.675248 
L 31.251461 42.748737 
L 33.063149 57.111881 
L 34.874838 67.68996 
L 36.686526 76.077129 
L 38.498215 83.006662 
L 40.309903 88.882528 
L 42.121591 93.953955 
L 43.933279 98.387061 
L 45.744967 102.299134 
L 47.556657 105.776607 
L 49.368345 108.885438 
L 51.180033 111.677363 
L 52.991722 114.19388 
L 54.803409 116.468917 
L 56.615098 118.530665 
L 58.426788 120.402856 
L 60.238474 122.105691 
L 62.050164 123.656566 
L 63.86185 125.070574 
L 65.67354 126.36091 
L 67.485229 127.539198 
L 69.296916 128.615712 
L 71.108605 129.599612 
L 72.920294 130.499085 
L 74.731981 131.321477 
L 76.543668 132.07341 
L 78.35536 132.760865 
L 80.167047 133.389267 
L 81.978733 133.963543 
L 83.790425 134.488184 
L 85.602112 134.967282 
L 87.413799 135.404581 
L 89.225491 135.803512 
L 91.037177 136.167215 
L 92.848864 136.498576 
L 94.660556 136.800246 
L 96.472243 137.074663 
L 98.28393 137.324072 
L 100.095616 137.550539 
L 101.907308 137.755969 
L 103.718995 137.942117 
L 105.530682 138.110603 
L 107.342374 138.26292 
L 109.15406 138.400444 
L 110.965747 138.524446 
L 112.777439 138.636099 
L 114.589126 138.736482 
L 116.400812 138.826592 
L 118.212505 138.907347 
L 120.024191 138.979594 
L 121.835878 139.04411 
L 123.647565 139.101613 
L 125.459251 139.152763 
L 127.270949 139.198165 
L 129.082635 139.238374 
L 130.894322 139.273903 
L 132.706009 139.305217 
L 134.517695 139.332746 
L 136.329382 139.356881 
L 138.14108 139.377979 
L 139.952766 139.396366 
L 141.764453 139.412339 
L 143.57614 139.426167 
L 145.387826 139.438095 
L 147.199513 139.448346 
L 149.0112 139.457118 
L 150.822897 139.464594 
L 152.634584 139.470934 
L 154.44627 139.476286 
L 156.257957 139.48078 
L 158.069644 139.484531 
L 159.881331 139.487645 
L 161.693028 139.490212 
L 163.504715 139.492313 
L 165.316401 139.494021 
L 167.128088 139.495397 
L 168.939775 139.496497 
L 170.751461 139.497366 
L 172.563148 139.498046 
L 174.374846 139.498572 
L 176.186532 139.498974 
L 177.998219 139.499276 
L 179.809906 139.4995 
L 181.621592 139.499662 
L 183.433279 139.499778 
L 185.244976 139.499859 
L 187.056663 139.499913 
L 188.86835 139.499949 
L 190.680036 139.499971 
L 192.491723 139.499985 
L 194.30341 139.499993 
L 196.115107 139.499997 
L 197.926794 139.499999 
L 199.738481 139.5 
L 201.550167 139.5 
L 203.361854 139.5 
L 205.173541 139.5 
L 206.985227 139.5 
" clip-path="url(#p8bda42db74)" style="fill: none; stroke-dasharray: 9.6,2.4,1.5,2.4; stroke-dashoffset: 0; stroke: #2ca02c; stroke-width: 1.5"/>
   </g>
   <g id="patch_3">
    <path d="M 20.5625 145.8 
L 20.5625 7.2 
" style="fill: none; stroke: #000000; stroke-width: 0.8; stroke-linejoin: miter; stroke-linecap: square"/>
   </g>
   <g id="patch_4">
    <path d="M 215.8625 145.8 
L 215.8625 7.2 
" style="fill: none; stroke: #000000; stroke-width: 0.8; stroke-linejoin: miter; stroke-linecap: square"/>
   </g>
   <g id="patch_5">
    <path d="M 20.5625 145.8 
L 215.8625 145.8 
" style="fill: none; stroke: #000000; stroke-width: 0.8; stroke-linejoin: miter; stroke-linecap: square"/>
   </g>
   <g id="patch_6">
    <path d="M 20.5625 7.2 
L 215.8625 7.2 
" style="fill: none; stroke: #000000; stroke-width: 0.8; stroke-linejoin: miter; stroke-linecap: square"/>
   </g>
   <g id="legend_1">
    <g id="patch_7">
     <path d="M 114.49375 59.234375 
L 208.8625 59.234375 
Q 210.8625 59.234375 210.8625 57.234375 
L 210.8625 14.2 
Q 210.8625 12.2 208.8625 12.2 
L 114.49375 12.2 
Q 112.49375 12.2 112.49375 14.2 
L 112.49375 57.234375 
Q 112.49375 59.234375 114.49375 59.234375 
z
" style="fill: #ffffff; opacity: 0.8; stroke: #cccccc; stroke-linejoin: miter"/>
    </g>
    <g id="line2d_15">
     <path d="M 116.49375 20.298438 
L 126.49375 20.298438 
L 136.49375 20.298438 
" style="fill: none; stroke: #1f77b4; stroke-width: 1.5; stroke-linecap: square"/>
    </g>
    <g id="text_12">
     <!-- gamma=0.0 -->
     <g transform="translate(144.49375 23.798438) scale(0.1 -0.1)">
      <defs>
       <path id="DejaVuSans-67" d="M 2906 1791 
Q 2906 2416 2648 2759 
Q 2391 3103 1925 3103 
Q 1463 3103 1205 2759 
Q 947 2416 947 1791 
Q 947 1169 1205 825 
Q 1463 481 1925 481 
Q 2391 481 2648 825 
Q 2906 1169 2906 1791 
z
M 3481 434 
Q 3481 -459 3084 -895 
Q 2688 -1331 1869 -1331 
Q 1566 -1331 1297 -1286 
Q 1028 -1241 775 -1147 
L 775 -588 
Q 1028 -725 1275 -790 
Q 1522 -856 1778 -856 
Q 2344 -856 2625 -561 
Q 2906 -266 2906 331 
L 2906 616 
Q 2728 306 2450 153 
Q 2172 0 1784 0 
Q 1141 0 747 490 
Q 353 981 353 1791 
Q 353 2603 747 3093 
Q 1141 3584 1784 3584 
Q 2172 3584 2450 3431 
Q 2728 3278 2906 2969 
L 2906 3500 
L 3481 3500 
L 3481 434 
z
" transform="scale(0.015625)"/>
       <path id="DejaVuSans-61" d="M 2194 1759 
Q 1497 1759 1228 1600 
Q 959 1441 959 1056 
Q 959 750 1161 570 
Q 1363 391 1709 391 
Q 2188 391 2477 730 
Q 2766 1069 2766 1631 
L 2766 1759 
L 2194 1759 
z
M 3341 1997 
L 3341 0 
L 2766 0 
L 2766 531 
Q 2569 213 2275 61 
Q 1981 -91 1556 -91 
Q 1019 -91 701 211 
Q 384 513 384 1019 
Q 384 1609 779 1909 
Q 1175 2209 1959 2209 
L 2766 2209 
L 2766 2266 
Q 2766 2663 2505 2880 
Q 2244 3097 1772 3097 
Q 1472 3097 1187 3025 
Q 903 2953 641 2809 
L 641 3341 
Q 956 3463 1253 3523 
Q 1550 3584 1831 3584 
Q 2591 3584 2966 3190 
Q 3341 2797 3341 1997 
z
" transform="scale(0.015625)"/>
       <path id="DejaVuSans-6d" d="M 3328 2828 
Q 3544 3216 3844 3400 
Q 4144 3584 4550 3584 
Q 5097 3584 5394 3201 
Q 5691 2819 5691 2113 
L 5691 0 
L 5113 0 
L 5113 2094 
Q 5113 2597 4934 2840 
Q 4756 3084 4391 3084 
Q 3944 3084 3684 2787 
Q 3425 2491 3425 1978 
L 3425 0 
L 2847 0 
L 2847 2094 
Q 2847 2600 2669 2842 
Q 2491 3084 2119 3084 
Q 1678 3084 1418 2786 
Q 1159 2488 1159 1978 
L 1159 0 
L 581 0 
L 581 3500 
L 1159 3500 
L 1159 2956 
Q 1356 3278 1631 3431 
Q 1906 3584 2284 3584 
Q 2666 3584 2933 3390 
Q 3200 3197 3328 2828 
z
" transform="scale(0.015625)"/>
       <path id="DejaVuSans-3d" d="M 678 2906 
L 4684 2906 
L 4684 2381 
L 678 2381 
L 678 2906 
z
M 678 1631 
L 4684 1631 
L 4684 1100 
L 678 1100 
L 678 1631 
z
" transform="scale(0.015625)"/>
      </defs>
      <use xlink:href="#DejaVuSans-67"/>
      <use xlink:href="#DejaVuSans-61" x="63.476562"/>
      <use xlink:href="#DejaVuSans-6d" x="124.755859"/>
      <use xlink:href="#DejaVuSans-6d" x="222.167969"/>
      <use xlink:href="#DejaVuSans-61" x="319.580078"/>
      <use xlink:href="#DejaVuSans-3d" x="380.859375"/>
      <use xlink:href="#DejaVuSans-30" x="464.648438"/>
      <use xlink:href="#DejaVuSans-2e" x="528.271484"/>
      <use xlink:href="#DejaVuSans-30" x="560.058594"/>
     </g>
    </g>
    <g id="line2d_16">
     <path d="M 116.49375 34.976563 
L 126.49375 34.976563 
L 136.49375 34.976563 
" style="fill: none; stroke-dasharray: 5.55,2.4; stroke-dashoffset: 0; stroke: #ff7f0e; stroke-width: 1.5"/>
    </g>
    <g id="text_13">
     <!-- gamma=1.0 -->
     <g transform="translate(144.49375 38.476563) scale(0.1 -0.1)">
      <use xlink:href="#DejaVuSans-67"/>
      <use xlink:href="#DejaVuSans-61" x="63.476562"/>
      <use xlink:href="#DejaVuSans-6d" x="124.755859"/>
      <use xlink:href="#DejaVuSans-6d" x="222.167969"/>
      <use xlink:href="#DejaVuSans-61" x="319.580078"/>
      <use xlink:href="#DejaVuSans-3d" x="380.859375"/>
      <use xlink:href="#DejaVuSans-31" x="464.648438"/>
      <use xlink:href="#DejaVuSans-2e" x="528.271484"/>
      <use xlink:href="#DejaVuSans-30" x="560.058594"/>
     </g>
    </g>
    <g id="line2d_17">
     <path d="M 116.49375 49.654688 
L 126.49375 49.654688 
L 136.49375 49.654688 
" style="fill: none; stroke-dasharray: 9.6,2.4,1.5,2.4; stroke-dashoffset: 0; stroke: #2ca02c; stroke-width: 1.5"/>
    </g>
    <g id="text_14">
     <!-- gamma=5.0 -->
     <g transform="translate(144.49375 53.154688) scale(0.1 -0.1)">
      <defs>
       <path id="DejaVuSans-35" d="M 691 4666 
L 3169 4666 
L 3169 4134 
L 1269 4134 
L 1269 2991 
Q 1406 3038 1543 3061 
Q 1681 3084 1819 3084 
Q 2600 3084 3056 2656 
Q 3513 2228 3513 1497 
Q 3513 744 3044 326 
Q 2575 -91 1722 -91 
Q 1428 -91 1123 -41 
Q 819 9 494 109 
L 494 744 
Q 775 591 1075 516 
Q 1375 441 1709 441 
Q 2250 441 2565 725 
Q 2881 1009 2881 1497 
Q 2881 1984 2565 2268 
Q 2250 2553 1709 2553 
Q 1456 2553 1204 2497 
Q 953 2441 691 2322 
L 691 4666 
z
" transform="scale(0.015625)"/>
      </defs>
      <use xlink:href="#DejaVuSans-67"/>
      <use xlink:href="#DejaVuSans-61" x="63.476562"/>
      <use xlink:href="#DejaVuSans-6d" x="124.755859"/>
      <use xlink:href="#DejaVuSans-6d" x="222.167969"/>
      <use xlink:href="#DejaVuSans-61" x="319.580078"/>
      <use xlink:href="#DejaVuSans-3d" x="380.859375"/>
      <use xlink:href="#DejaVuSans-35" x="464.648438"/>
      <use xlink:href="#DejaVuSans-2e" x="528.271484"/>
      <use xlink:href="#DejaVuSans-30" x="560.058594"/>
     </g>
    </g>
   </g>
  </g>
 </g>
 <defs>
  <clipPath id="p8bda42db74">
   <rect x="20.5625" y="7.2" width="195.3" height="138.6"/>
  </clipPath>
 </defs>
</svg>
