<?xml version="1.0" encoding="utf-8" standalone="no"?>
<!DOCTYPE svg PUBLIC "-//W3C//DTD SVG 1.1//EN"
  "http://www.w3.org/Graphics/SVG/1.1/DTD/svg11.dtd">
<svg xmlns:xlink="http://www.w3.org/1999/xlink" width="245.120313pt" height="183.35625pt" viewBox="0 0 245.120313 183.35625" xmlns="http://www.w3.org/2000/svg" version="1.1">
 <metadata>
  <rdf:RDF xmlns:dc="http://purl.org/dc/elements/1.1/" xmlns:cc="http://creativecommons.org/ns#" xmlns:rdf="http://www.w3.org/1999/02/22-rdf-syntax-ns#">
   <cc:Work>
    <dc:type rdf:resource="http://purl.org/dc/dcmitype/StillImage"/>
    <dc:date>2025-06-08T17:21:22.277727</dc:date>
    <dc:format>image/svg+xml</dc:format>
    <dc:creator>
     <cc:Agent>
      <dc:title>Matplotlib v3.7.2, https://matplotlib.org/</dc:title>
     </cc:Agent>
    </dc:creator>
   </cc:Work>
  </rdf:RDF>
 </metadata>
 <defs>
  <style type="text/css">*{stroke-linejoin: round; stroke-linecap: butt}</style>
 </defs>
 <g id="figure_1">
  <g id="patch_1">
   <path d="M 0 183.35625 
L 245.120313 183.35625 
L 245.120313 0 
L 0 0 
z
" style="fill: #ffffff"/>
  </g>
  <g id="axes_1">
   <g id="patch_2">
    <path d="M 42.620312 145.8 
L 237.920313 145.8 
L 237.920313 7.2 
L 42.620312 7.2 
z
" style="fill: #ffffff"/>
   </g>
   <g id="matplotlib.axis_1">
    <g id="xtick_1">
     <g id="line2d_1">
      <defs>
       <path id="m9cc47112f3" d="M 0 0 
L 0 3.5 
" style="stroke: #000000; stroke-width: 0.8"/>
      </defs>
      <g>
       <use xlink:href="#m9cc47112f3" x="88.393794" y="145.8" style="stroke: #000000; stroke-width: 0.8"/>
      </g>
     </g>
     <g id="text_1">
      <!-- −4 -->
      <g transform="translate(81.0227 160.398438) scale(0.1 -0.1)">
       <defs>
        <path id="DejaVuSans-2212" d="M 678 2272 
L 4684 2272 
L 4684 1741 
L 678 1741 
L 678 2272 
z
" transform="scale(0.015625)"/>
        <path id="DejaVuSans-34" d="M 2419 4116 
L 825 1625 
L 2419 1625 
L 2419 4116 
z
M 2253 4666 
L 3047 4666 
L 3047 1625 
L 3713 1625 
L 3713 1100 
L 3047 1100 
L 3047 0 
L 2419 0 
L 2419 1100 
L 313 1100 
L 313 1709 
L 2253 4666 
z
" transform="scale(0.015625)"/>
       </defs>
       <use xlink:href="#DejaVuSans-2212"/>
       <use xlink:href="#DejaVuSans-34" x="83.789062"/>
      </g>
     </g>
    </g>
    <g id="xtick_2">
     <g id="line2d_2">
      <g>
       <use xlink:href="#m9cc47112f3" x="149.425102" y="145.8" style="stroke: #000000; stroke-width: 0.8"/>
      </g>
     </g>
     <g id="text_2">
      <!-- −2 -->
      <g transform="translate(142.054008 160.398438) scale(0.1 -0.1)">
       <defs>
        <path id="DejaVuSans-32" d="M 1228 531 
L 3431 531 
L 3431 0 
L 469 0 
L 469 531 
Q 828 903 1448 1529 
Q 2069 2156 2228 2338 
Q 2531 2678 2651 2914 
Q 2772 3150 2772 3378 
Q 2772 3750 2511 3984 
Q 2250 4219 1831 4219 
Q 1534 4219 1204 4116 
Q 875 4013 500 3803 
L 500 4441 
Q 881 4594 1212 4672 
Q 1544 4750 1819 4750 
Q 2544 4750 2975 4387 
Q 3406 4025 3406 3419 
Q 3406 3131 3298 2873 
Q 3191 2616 2906 2266 
Q 2828 2175 2409 1742 
Q 1991 1309 1228 531 
z
" transform="scale(0.015625)"/>
       </defs>
       <use xlink:href="#DejaVuSans-2212"/>
       <use xlink:href="#DejaVuSans-32" x="83.789062"/>
      </g>
     </g>
    </g>
    <g id="xtick_3">
     <g id="line2d_3">
      <g>
       <use xlink:href="#m9cc47112f3" x="210.45641" y="145.8" style="stroke: #000000; stroke-width: 0.8"/>
      </g>
     </g>
     <g id="text_3">
      <!-- 0 -->
      <g transform="translate(207.27516 160.398438) scale(0.1 -0.1)">
       <defs>
        <path id="DejaVuSans-30" d="M 2034 4250 
Q 1547 4250 1301 3770 
Q 1056 3291 1056 2328 
Q 1056 1369 1301 889 
Q 1547 409 2034 409 
Q 2525 409 2770 889 
Q 3016 1369 3016 2328 
Q 3016 3291 2770 3770 
Q 2525 4250 2034 4250 
z
M 2034 4750 
Q 2819 4750 3233 4129 
Q 3647 3509 3647 2328 
Q 3647 1150 3233 529 
Q 2819 -91 2034 -91 
Q 1250 -91 836 529 
Q 422 1150 422 2328 
Q 422 3509 836 4129 
Q 1250 4750 2034 4750 
z
" transform="scale(0.015625)"/>
       </defs>
       <use xlink:href="#DejaVuSans-30"/>
      </g>
     </g>
    </g>
    <g id="text_4">
     <!-- x1 -->
     <g transform="translate(134.129687 174.076563) scale(0.1 -0.1)">
      <defs>
       <path id="DejaVuSans-78" d="M 3513 3500 
L 2247 1797 
L 3578 0 
L 2900 0 
L 1881 1375 
L 863 0 
L 184 0 
L 1544 1831 
L 300 3500 
L 978 3500 
L 1906 2253 
L 2834 3500 
L 3513 3500 
z
" transform="scale(0.015625)"/>
       <path id="DejaVuSans-31" d="M 794 531 
L 1825 531 
L 1825 4091 
L 703 3866 
L 703 4441 
L 1819 4666 
L 2450 4666 
L 2450 531 
L 3481 531 
L 3481 0 
L 794 0 
L 794 531 
z
" transform="scale(0.015625)"/>
      </defs>
      <use xlink:href="#DejaVuSans-78"/>
      <use xlink:href="#DejaVuSans-31" x="59.179688"/>
     </g>
    </g>
   </g>
   <g id="matplotlib.axis_2">
    <g id="ytick_1">
     <g id="line2d_4">
      <defs>
       <path id="m80b21d7cb1" d="M 0 0 
L -3.5 0 
" style="stroke: #000000; stroke-width: 0.8"/>
      </defs>
      <g>
       <use xlink:href="#m80b21d7cb1" x="42.620312" y="123.041379" style="stroke: #000000; stroke-width: 0.8"/>
      </g>
     </g>
     <g id="text_5">
      <!-- −2 -->
      <g transform="translate(20.878125 126.840598) scale(0.1 -0.1)">
       <use xlink:href="#DejaVuSans-2212"/>
       <use xlink:href="#DejaVuSans-32" x="83.789062"/>
      </g>
     </g>
    </g>
    <g id="ytick_2">
     <g id="line2d_5">
      <g>
       <use xlink:href="#m80b21d7cb1" x="42.620312" y="77.524138" style="stroke: #000000; stroke-width: 0.8"/>
      </g>
     </g>
     <g id="text_6">
      <!-- 0 -->
      <g transform="translate(29.257812 81.323357) scale(0.1 -0.1)">
       <use xlink:href="#DejaVuSans-30"/>
      </g>
     </g>
    </g>
    <g id="ytick_3">
     <g id="line2d_6">
      <g>
       <use xlink:href="#m80b21d7cb1" x="42.620312" y="32.006897" style="stroke: #000000; stroke-width: 0.8"/>
      </g>
     </g>
     <g id="text_7">
      <!-- 2 -->
      <g transform="translate(29.257812 35.806115) scale(0.1 -0.1)">
       <use xlink:href="#DejaVuSans-32"/>
      </g>
     </g>
    </g>
    <g id="text_8">
     <!-- x2 -->
     <g transform="translate(14.798437 82.640625) rotate(-90) scale(0.1 -0.1)">
      <use xlink:href="#DejaVuSans-78"/>
      <use xlink:href="#DejaVuSans-32" x="59.179688"/>
     </g>
    </g>
   </g>
   <g id="line2d_7">
    <path d="M 57.87814 123.041379 
L 76.187532 13.8 
L 101.454494 112.117241 
L 127.168204 78.252414 
L 150.019644 59.572138 
L 168.697776 93.3168 
L 183.047878 72.286742 
L 193.511953 74.341463 
L 200.777325 83.007243 
L 205.571502 74.180681 
L 208.554779 77.791697 
L 210.274613 78.955064 
L 211.156346 76.102525 
L 211.51322 78.088126 
L 211.56484 77.727355 
L 211.457638 77.059249 
L 211.28389 77.84093 
L 211.097718 77.47147 
L 210.927675 77.413143 
L 210.786102 77.650367 
L 210.675753 77.466029 
" clip-path="url(#pd16c3cb650)" style="fill: none; stroke: #ff7f0e; stroke-width: 1.5; stroke-linecap: square"/>
    <defs>
     <path id="m506e0ada64" d="M 0 3 
C 0.795609 3 1.55874 2.683901 2.12132 2.12132 
C 2.683901 1.55874 3 0.795609 3 0 
C 3 -0.795609 2.683901 -1.55874 2.12132 -2.12132 
C 1.55874 -2.683901 0.795609 -3 0 -3 
C -0.795609 -3 -1.55874 -2.683901 -2.12132 -2.12132 
C -2.683901 -1.55874 -3 -0.795609 -3 0 
C -3 0.795609 -2.683901 1.55874 -2.12132 2.12132 
C -1.55874 2.683901 -0.795609 3 0 3 
z
" style="stroke: #ff7f0e"/>
    </defs>
    <g clip-path="url(#pd16c3cb650)">
     <use xlink:href="#m506e0ada64" x="57.87814" y="123.041379" style="fill: #ff7f0e; stroke: #ff7f0e"/>
     <use xlink:href="#m506e0ada64" x="76.187532" y="13.8" style="fill: #ff7f0e; stroke: #ff7f0e"/>
     <use xlink:href="#m506e0ada64" x="101.454494" y="112.117241" style="fill: #ff7f0e; stroke: #ff7f0e"/>
     <use xlink:href="#m506e0ada64" x="127.168204" y="78.252414" style="fill: #ff7f0e; stroke: #ff7f0e"/>
     <use xlink:href="#m506e0ada64" x="150.019644" y="59.572138" style="fill: #ff7f0e; stroke: #ff7f0e"/>
     <use xlink:href="#m506e0ada64" x="168.697776" y="93.3168" style="fill: #ff7f0e; stroke: #ff7f0e"/>
     <use xlink:href="#m506e0ada64" x="183.047878" y="72.286742" style="fill: #ff7f0e; stroke: #ff7f0e"/>
     <use xlink:href="#m506e0ada64" x="193.511953" y="74.341463" style="fill: #ff7f0e; stroke: #ff7f0e"/>
     <use xlink:href="#m506e0ada64" x="200.777325" y="83.007243" style="fill: #ff7f0e; stroke: #ff7f0e"/>
     <use xlink:href="#m506e0ada64" x="205.571502" y="74.180681" style="fill: #ff7f0e; stroke: #ff7f0e"/>
     <use xlink:href="#m506e0ada64" x="208.554779" y="77.791697" style="fill: #ff7f0e; stroke: #ff7f0e"/>
     <use xlink:href="#m506e0ada64" x="210.274613" y="78.955064" style="fill: #ff7f0e; stroke: #ff7f0e"/>
     <use xlink:href="#m506e0ada64" x="211.156346" y="76.102525" style="fill: #ff7f0e; stroke: #ff7f0e"/>
     <use xlink:href="#m506e0ada64" x="211.51322" y="78.088126" style="fill: #ff7f0e; stroke: #ff7f0e"/>
     <use xlink:href="#m506e0ada64" x="211.56484" y="77.727355" style="fill: #ff7f0e; stroke: #ff7f0e"/>
     <use xlink:href="#m506e0ada64" x="211.457638" y="77.059249" style="fill: #ff7f0e; stroke: #ff7f0e"/>
     <use xlink:href="#m506e0ada64" x="211.28389" y="77.84093" style="fill: #ff7f0e; stroke: #ff7f0e"/>
     <use xlink:href="#m506e0ada64" x="211.097718" y="77.47147" style="fill: #ff7f0e; stroke: #ff7f0e"/>
     <use xlink:href="#m506e0ada64" x="210.927675" y="77.413143" style="fill: #ff7f0e; stroke: #ff7f0e"/>
     <use xlink:href="#m506e0ada64" x="210.786102" y="77.650367" style="fill: #ff7f0e; stroke: #ff7f0e"/>
     <use xlink:href="#m506e0ada64" x="210.675753" y="77.466029" style="fill: #ff7f0e; stroke: #ff7f0e"/>
    </g>
   </g>
   <g id="PathCollection_1"/>
   <g id="PathCollection_2">
    <path d="M 97.100384 57.041464 
L 94.496875 57.469783 
L 91.445312 57.9852 
L 88.39375 58.514006 
L 85.342187 59.056198 
L 83.907937 59.317324 
L 82.290625 59.65104 
L 79.239062 60.295871 
L 76.1875 60.955873 
L 73.307067 61.593184 
L 73.135937 61.636872 
L 70.084375 62.433429 
L 67.032812 63.247491 
L 64.751933 63.869044 
L 63.98125 64.117244 
L 60.929687 65.120699 
L 57.878125 66.144839 
L 57.877938 66.144904 
L 54.826562 67.421848 
L 52.485908 68.420763 
L 51.775 68.81084 
L 48.723437 70.517747 
L 48.409625 70.696623 
L 45.671875 72.881395 
L 45.559826 72.972483 
L 43.880101 75.248343 
L 43.320215 77.524203 
L 43.880168 79.800063 
L 45.559953 82.075923 
L 45.671875 82.166906 
L 48.409823 84.351783 
L 48.723437 84.530544 
L 51.775 86.237425 
L 52.486176 86.627643 
L 54.826562 87.626431 
L 57.878125 88.903436 
L 57.878287 88.903503 
L 60.929687 89.927579 
L 63.98125 90.931024 
L 64.75237 91.179362 
L 67.032812 91.80079 
L 70.084375 92.614845 
L 73.135937 93.411394 
L 73.307615 93.455222 
L 76.1875 94.092407 
L 79.239062 94.752405 
L 82.290625 95.397231 
L 83.908608 95.731082 
L 85.342187 95.992084 
L 88.39375 96.534273 
L 91.445312 97.063075 
L 94.496875 97.578487 
L 97.10122 98.006942 
L 97.548437 98.072772 
L 100.6 98.509975 
L 103.651562 98.935201 
L 106.703125 99.348448 
L 109.754687 99.749717 
L 112.80625 100.139008 
L 113.969193 100.282802 
L 115.857812 100.494083 
L 118.909375 100.824623 
L 121.960937 101.144327 
L 125.0125 101.453194 
L 128.064062 101.751223 
L 131.115625 102.038414 
L 134.167187 102.314769 
L 136.970225 102.558662 
L 137.21875 102.578406 
L 140.270312 102.810939 
L 143.321875 103.033577 
L 146.373437 103.246321 
L 149.425 103.44917 
L 152.476562 103.642123 
L 155.528125 103.825181 
L 158.579687 103.998344 
L 161.63125 104.161613 
L 164.682812 104.314986 
L 167.734375 104.458465 
L 170.785937 104.592047 
L 173.8375 104.715736 
L 176.889062 104.829529 
L 177.035715 104.834522 
L 179.940625 104.925515 
L 182.992188 105.011998 
L 186.04375 105.089378 
L 189.095312 105.157653 
L 192.146875 105.216826 
L 195.198437 105.266895 
L 198.25 105.307862 
L 201.301562 105.339724 
L 204.353125 105.362483 
L 207.404687 105.376138 
L 210.45625 105.380691 
L 213.507812 105.376139 
L 216.559375 105.362485 
L 219.610937 105.339727 
L 222.6625 105.307865 
L 225.714062 105.2669 
L 228.765625 105.216832 
L 231.817187 105.157661 
L 234.86875 105.089385 
L 237.920312 105.012006 
" clip-path="url(#pd16c3cb650)" style="fill: none; stroke: #1f77b4; stroke-width: 1.5"/>
   </g>
   <g id="PathCollection_3">
    <path d="M 42.620312 105.266897 
L 45.671875 105.763035 
L 48.723437 106.250067 
L 51.775 106.727996 
L 54.263921 107.110382 
L 54.826562 107.19042 
L 57.878125 107.616091 
L 60.929687 108.03333 
L 63.98125 108.442142 
L 67.032812 108.842525 
L 70.084375 109.234476 
L 71.291907 109.386242 
L 73.135937 109.60202 
L 76.1875 109.951246 
L 79.239062 110.292624 
L 82.290625 110.626156 
L 85.342187 110.951838 
L 88.39375 111.269673 
L 91.445312 111.579661 
L 92.277949 111.662102 
L 94.496875 111.867627 
L 97.548437 112.142932 
L 100.6 112.410896 
L 103.651562 112.671519 
L 106.703125 112.924799 
L 109.754687 113.170738 
L 112.80625 113.409336 
L 115.857812 113.640594 
L 118.909375 113.864508 
L 119.944344 113.937961 
L 121.960937 114.072408 
L 125.0125 114.26896 
L 128.064062 114.458615 
L 131.115625 114.641374 
L 134.167187 114.817236 
L 137.21875 114.986201 
L 140.270312 115.148271 
L 143.321875 115.303443 
L 146.373437 115.451719 
L 149.425 115.593098 
L 152.476562 115.727581 
L 155.528125 115.855167 
L 158.579687 115.975857 
L 161.63125 116.089651 
L 164.682812 116.196547 
L 165.209954 116.213821 
L 167.734375 116.29182 
L 170.785937 116.379603 
L 173.8375 116.460884 
L 176.889062 116.535663 
L 179.940625 116.603939 
L 182.992188 116.665712 
L 186.04375 116.720984 
L 189.095312 116.769752 
L 192.146875 116.812018 
L 195.198437 116.847782 
L 198.25 116.877044 
L 201.301562 116.899802 
L 204.353125 116.916059 
L 207.404687 116.925813 
L 210.45625 116.929064 
L 213.507812 116.925813 
L 216.559375 116.91606 
L 219.610937 116.899804 
L 222.6625 116.877047 
L 225.714062 116.847785 
L 228.765625 116.812022 
L 231.817187 116.769756 
L 234.86875 116.720988 
L 237.920312 116.665718 
" clip-path="url(#pd16c3cb650)" style="fill: none; stroke: #1f77b4; stroke-width: 1.5"/>
   </g>
   <g id="PathCollection_4">
    <path d="M 42.620312 116.847784 
L 45.671875 117.202167 
L 48.723437 117.550048 
L 51.775 117.891425 
L 54.826562 118.226303 
L 57.274129 118.489681 
L 57.878125 118.551163 
L 60.929687 118.855636 
L 63.98125 119.153959 
L 67.032812 119.446128 
L 70.084375 119.73215 
L 73.135937 120.012018 
L 76.1875 120.285735 
L 79.239062 120.553302 
L 81.716563 120.765541 
L 82.290625 120.812197 
L 85.342187 121.054372 
L 88.39375 121.290712 
L 91.445312 121.521215 
L 94.496875 121.745883 
L 97.548437 121.964716 
L 100.6 122.177713 
L 103.651562 122.384875 
L 106.703125 122.586201 
L 109.754687 122.78169 
L 112.80625 122.971346 
L 113.969225 123.041401 
L 115.857812 123.149615 
L 118.909375 123.318917 
L 121.960937 123.482668 
L 125.0125 123.640868 
L 128.064062 123.793519 
L 131.115625 123.940615 
L 134.167187 124.082165 
L 137.21875 124.21816 
L 140.270312 124.348606 
L 143.321875 124.473501 
L 146.373437 124.592846 
L 149.425 124.706637 
L 152.476562 124.81488 
L 155.528125 124.917571 
L 158.579687 125.014711 
L 161.63125 125.1063 
L 164.682812 125.192339 
L 167.734375 125.272828 
L 169.543734 125.317261 
L 170.785937 125.346347 
L 173.8375 125.412505 
L 176.889062 125.473371 
L 179.940625 125.528944 
L 182.992188 125.579227 
L 186.04375 125.624213 
L 189.095312 125.663909 
L 192.146875 125.698313 
L 195.198437 125.727422 
L 198.25 125.751239 
L 201.301562 125.769766 
L 204.353125 125.782995 
L 207.404687 125.790935 
L 210.45625 125.793582 
L 213.507812 125.790938 
L 216.559375 125.782998 
L 219.610937 125.769766 
L 222.6625 125.751241 
L 225.714062 125.727425 
L 228.765625 125.698316 
L 231.817187 125.663914 
L 234.86875 125.624218 
L 237.920312 125.57923 
" clip-path="url(#pd16c3cb650)" style="fill: none; stroke: #1f77b4; stroke-width: 1.5"/>
   </g>
   <g id="PathCollection_5">
    <path d="M 42.620312 125.727422 
L 45.671875 126.015875 
L 48.723437 126.299036 
L 51.775 126.576902 
L 54.826562 126.849475 
L 57.878125 127.116756 
L 60.929687 127.378745 
L 63.478147 127.593121 
L 63.98125 127.633561 
L 67.032812 127.873791 
L 70.084375 128.108962 
L 73.135937 128.339078 
L 76.1875 128.564135 
L 79.239062 128.784135 
L 82.290625 128.999077 
L 85.342187 129.208963 
L 88.39375 129.413788 
L 91.445312 129.61356 
L 94.496875 129.808271 
L 95.473695 129.868981 
L 97.548437 129.992439 
L 100.6 130.169181 
L 103.651562 130.341082 
L 106.703125 130.50814 
L 109.754687 130.670354 
L 112.80625 130.827729 
L 115.857812 130.980259 
L 118.909375 131.127948 
L 121.960937 131.270795 
L 125.0125 131.408799 
L 128.064062 131.541962 
L 131.115625 131.670281 
L 134.167187 131.793758 
L 137.21875 131.912394 
L 140.270312 132.026187 
L 143.321875 132.135138 
L 143.606261 132.144841 
L 146.373437 132.235394 
L 149.425 132.330607 
L 152.476562 132.421178 
L 155.528125 132.507103 
L 158.579687 132.588384 
L 161.63125 132.66502 
L 164.682812 132.737011 
L 167.734375 132.804359 
L 170.785937 132.867062 
L 173.8375 132.925119 
L 176.889062 132.978532 
L 179.940625 133.027302 
L 182.992188 133.071426 
L 186.04375 133.110903 
L 189.095312 133.145739 
L 192.146875 133.17593 
L 195.198437 133.201475 
L 198.25 133.222375 
L 201.301562 133.238633 
L 204.353125 133.250243 
L 207.404687 133.25721 
L 210.45625 133.259534 
L 213.507812 133.257213 
L 216.559375 133.250245 
L 219.610937 133.238633 
L 222.6625 133.222377 
L 225.714062 133.201477 
L 228.765625 133.175932 
L 231.817187 133.145743 
L 234.86875 133.110908 
L 237.920312 133.071428 
" clip-path="url(#pd16c3cb650)" style="fill: none; stroke: #1f77b4; stroke-width: 1.5"/>
   </g>
   <g id="PathCollection_6">
    <path d="M 42.620312 133.201477 
L 45.671875 133.454607 
L 48.723437 133.703094 
L 51.775 133.946935 
L 54.826562 134.186132 
L 57.878125 134.420687 
L 57.878301 134.420701 
L 60.929687 134.641578 
L 63.98125 134.858009 
L 67.032812 135.069977 
L 70.084375 135.277481 
L 73.135937 135.480525 
L 76.1875 135.679104 
L 79.239062 135.873222 
L 82.290625 136.062877 
L 85.342187 136.24807 
L 88.39375 136.428799 
L 91.445312 136.605068 
L 93.070381 136.69656 
L 94.496875 136.773842 
L 97.548437 136.93487 
L 100.6 137.091603 
L 103.651562 137.244043 
L 106.703125 137.392189 
L 109.754687 137.53604 
L 112.80625 137.675598 
L 115.857812 137.810861 
L 118.909375 137.94183 
L 121.960937 138.068506 
L 125.0125 138.190887 
L 128.064062 138.308975 
L 131.115625 138.422767 
L 134.167187 138.532265 
L 137.21875 138.637472 
L 140.270312 138.738382 
L 143.321875 138.834999 
L 146.373437 138.927322 
L 147.936803 138.97242 
L 149.425 139.013789 
L 152.476562 139.094479 
L 155.528125 139.171031 
L 158.579687 139.243444 
L 161.63125 139.31172 
L 164.682812 139.375858 
L 167.734375 139.435858 
L 170.785937 139.491721 
L 173.8375 139.543445 
L 176.889062 139.59103 
L 179.940625 139.63448 
L 182.992188 139.673791 
L 186.04375 139.708962 
L 189.095312 139.739997 
L 192.146875 139.766894 
L 195.198437 139.789652 
L 198.25 139.808273 
L 201.301562 139.822757 
L 204.353125 139.8331 
L 207.404687 139.839308 
L 210.45625 139.841378 
L 213.507812 139.83931 
L 216.559375 139.833102 
L 219.610937 139.822757 
L 222.6625 139.808275 
L 225.714062 139.789654 
L 228.765625 139.766896 
L 231.817187 139.740001 
L 234.86875 139.708966 
L 237.920312 139.673793 
" clip-path="url(#pd16c3cb650)" style="fill: none; stroke: #1f77b4; stroke-width: 1.5"/>
   </g>
   <g id="PathCollection_7">
    <path d="M 42.620312 139.789654 
L 45.671875 140.015171 
L 48.723437 140.236549 
L 51.775 140.453792 
L 54.826562 140.666893 
L 57.878125 140.875858 
L 60.929687 141.080687 
L 63.477997 141.24828 
L 63.98125 141.280216 
L 67.032812 141.46987 
L 70.084375 141.655533 
L 73.135937 141.837202 
L 76.1875 142.014877 
L 79.239062 142.188562 
L 82.290625 142.358253 
L 85.342187 142.523953 
L 88.39375 142.68566 
L 91.445312 142.843371 
L 94.496875 142.997091 
L 97.548437 143.14682 
L 100.6 143.292555 
L 103.651562 143.434299 
L 105.641848 143.52414 
L 106.703125 143.570422 
L 109.754687 143.699647 
L 112.80625 143.82501 
L 115.857812 143.94652 
L 118.909375 144.064169 
L 121.960937 144.177963 
L 125.0125 144.287897 
L 128.064062 144.393976 
L 131.115625 144.496199 
L 134.167187 144.59456 
L 137.21875 144.689066 
L 140.270312 144.779717 
L 143.321875 144.866508 
L 146.373437 144.949441 
L 149.425 145.028518 
L 152.476562 145.103736 
L 155.528125 145.175099 
L 158.579687 145.242604 
L 161.63125 145.306252 
L 164.682812 145.366042 
L 167.734375 145.421973 
L 170.785937 145.474049 
L 173.8375 145.522266 
L 176.889062 145.566627 
L 179.940625 145.60713 
L 182.992188 145.643773 
L 186.04375 145.676561 
L 189.095312 145.705494 
L 192.146875 145.730565 
L 195.198437 145.751783 
L 198.25 145.769139 
L 201.301562 145.78264 
L 204.353125 145.792286 
L 207.404687 145.798072 
L 210.45625 145.8 
" clip-path="url(#pd16c3cb650)" style="fill: none; stroke: #1f77b4; stroke-width: 1.5"/>
    <path d="M 210.45625 145.8 
L 213.507812 145.798072 
L 216.559375 145.792286 
L 219.610937 145.782644 
L 222.6625 145.769143 
L 225.714062 145.751783 
L 228.765625 145.730568 
L 231.817187 145.705494 
L 234.86875 145.676565 
L 237.920312 145.643777 
" clip-path="url(#pd16c3cb650)" style="fill: none; stroke: #1f77b4; stroke-width: 1.5"/>
   </g>
   <g id="PathCollection_8">
    <path d="M 42.620312 145.751783 
L 43.320206 145.8 
" clip-path="url(#pd16c3cb650)" style="fill: none; stroke: #1f77b4; stroke-width: 1.5"/>
   </g>
   <g id="PathCollection_9"/>
   <g id="patch_3">
    <path d="M 42.620312 145.8 
L 42.620312 7.2 
" style="fill: none; stroke: #000000; stroke-width: 0.8; stroke-linejoin: miter; stroke-linecap: square"/>
   </g>
   <g id="patch_4">
    <path d="M 237.920313 145.8 
L 237.920313 7.2 
" style="fill: none; stroke: #000000; stroke-width: 0.8; stroke-linejoin: miter; stroke-linecap: square"/>
   </g>
   <g id="patch_5">
    <path d="M 42.620312 145.8 
L 237.920312 145.8 
" style="fill: none; stroke: #000000; stroke-width: 0.8; stroke-linejoin: miter; stroke-linecap: square"/>
   </g>
   <g id="patch_6">
    <path d="M 42.620312 7.2 
L 237.920312 7.2 
" style="fill: none; stroke: #000000; stroke-width: 0.8; stroke-linejoin: miter; stroke-linecap: square"/>
   </g>
  </g>
 </g>
 <defs>
  <clipPath id="pd16c3cb650">
   <rect x="42.620312" y="7.2" width="195.3" height="138.6"/>
  </clipPath>
 </defs>
</svg>
