<?xml version="1.0" encoding="utf-8" standalone="no"?>
<!DOCTYPE svg PUBLIC "-//W3C//DTD SVG 1.1//EN"
  "http://www.w3.org/Graphics/SVG/1.1/DTD/svg11.dtd">
<svg xmlns:xlink="http://www.w3.org/1999/xlink" width="261.023438pt" height="183.35625pt" viewBox="0 0 261.023438 183.35625" xmlns="http://www.w3.org/2000/svg" version="1.1">
 <metadata>
  <rdf:RDF xmlns:dc="http://purl.org/dc/elements/1.1/" xmlns:cc="http://creativecommons.org/ns#" xmlns:rdf="http://www.w3.org/1999/02/22-rdf-syntax-ns#">
   <cc:Work>
    <dc:type rdf:resource="http://purl.org/dc/dcmitype/StillImage"/>
    <dc:date>2025-06-08T12:29:53.524899</dc:date>
    <dc:format>image/svg+xml</dc:format>
    <dc:creator>
     <cc:Agent>
      <dc:title>Matplotlib v3.7.2, https://matplotlib.org/</dc:title>
     </cc:Agent>
    </dc:creator>
   </cc:Work>
  </rdf:RDF>
 </metadata>
 <defs>
  <style type="text/css">*{stroke-linejoin: round; stroke-linecap: butt}</style>
 </defs>
 <g id="figure_1">
  <g id="patch_1">
   <path d="M 0 183.35625 
L 261.023438 183.35625 
L 261.023438 0 
L 0 0 
z
" style="fill: #ffffff"/>
  </g>
  <g id="axes_1">
   <g id="patch_2">
    <path d="M 58.523438 145.8 
L 253.823438 145.8 
L 253.823438 7.2 
L 58.523438 7.2 
z
" style="fill: #ffffff"/>
   </g>
   <g id="matplotlib.axis_1">
    <g id="xtick_1">
     <g id="line2d_1">
      <path d="M 85.334612 145.8 
L 85.334612 7.2 
" clip-path="url(#pbb5f28e0c1)" style="fill: none; stroke: #b0b0b0; stroke-width: 0.8; stroke-linecap: square"/>
     </g>
     <g id="line2d_2">
      <defs>
       <path id="mbe374969f3" d="M 0 0 
L 0 3.5 
" style="stroke: #000000; stroke-width: 0.8"/>
      </defs>
      <g>
       <use xlink:href="#mbe374969f3" x="85.334612" y="145.8" style="stroke: #000000; stroke-width: 0.8"/>
      </g>
     </g>
     <g id="text_1">
      <!-- 0.6 -->
      <g transform="translate(77.383049 160.398438) scale(0.1 -0.1)">
       <defs>
        <path id="DejaVuSans-30" d="M 2034 4250 
Q 1547 4250 1301 3770 
Q 1056 3291 1056 2328 
Q 1056 1369 1301 889 
Q 1547 409 2034 409 
Q 2525 409 2770 889 
Q 3016 1369 3016 2328 
Q 3016 3291 2770 3770 
Q 2525 4250 2034 4250 
z
M 2034 4750 
Q 2819 4750 3233 4129 
Q 3647 3509 3647 2328 
Q 3647 1150 3233 529 
Q 2819 -91 2034 -91 
Q 1250 -91 836 529 
Q 422 1150 422 2328 
Q 422 3509 836 4129 
Q 1250 4750 2034 4750 
z
" transform="scale(0.015625)"/>
        <path id="DejaVuSans-2e" d="M 684 794 
L 1344 794 
L 1344 0 
L 684 0 
L 684 794 
z
" transform="scale(0.015625)"/>
        <path id="DejaVuSans-36" d="M 2113 2584 
Q 1688 2584 1439 2293 
Q 1191 2003 1191 1497 
Q 1191 994 1439 701 
Q 1688 409 2113 409 
Q 2538 409 2786 701 
Q 3034 994 3034 1497 
Q 3034 2003 2786 2293 
Q 2538 2584 2113 2584 
z
M 3366 4563 
L 3366 3988 
Q 3128 4100 2886 4159 
Q 2644 4219 2406 4219 
Q 1781 4219 1451 3797 
Q 1122 3375 1075 2522 
Q 1259 2794 1537 2939 
Q 1816 3084 2150 3084 
Q 2853 3084 3261 2657 
Q 3669 2231 3669 1497 
Q 3669 778 3244 343 
Q 2819 -91 2113 -91 
Q 1303 -91 875 529 
Q 447 1150 447 2328 
Q 447 3434 972 4092 
Q 1497 4750 2381 4750 
Q 2619 4750 2861 4703 
Q 3103 4656 3366 4563 
z
" transform="scale(0.015625)"/>
       </defs>
       <use xlink:href="#DejaVuSans-30"/>
       <use xlink:href="#DejaVuSans-2e" x="63.623047"/>
       <use xlink:href="#DejaVuSans-36" x="95.410156"/>
      </g>
     </g>
    </g>
    <g id="xtick_2">
     <g id="line2d_3">
      <path d="M 121.202414 145.8 
L 121.202414 7.2 
" clip-path="url(#pbb5f28e0c1)" style="fill: none; stroke: #b0b0b0; stroke-width: 0.8; stroke-linecap: square"/>
     </g>
     <g id="line2d_4">
      <g>
       <use xlink:href="#mbe374969f3" x="121.202414" y="145.8" style="stroke: #000000; stroke-width: 0.8"/>
      </g>
     </g>
     <g id="text_2">
      <!-- 0.8 -->
      <g transform="translate(113.250852 160.398438) scale(0.1 -0.1)">
       <defs>
        <path id="DejaVuSans-38" d="M 2034 2216 
Q 1584 2216 1326 1975 
Q 1069 1734 1069 1313 
Q 1069 891 1326 650 
Q 1584 409 2034 409 
Q 2484 409 2743 651 
Q 3003 894 3003 1313 
Q 3003 1734 2745 1975 
Q 2488 2216 2034 2216 
z
M 1403 2484 
Q 997 2584 770 2862 
Q 544 3141 544 3541 
Q 544 4100 942 4425 
Q 1341 4750 2034 4750 
Q 2731 4750 3128 4425 
Q 3525 4100 3525 3541 
Q 3525 3141 3298 2862 
Q 3072 2584 2669 2484 
Q 3125 2378 3379 2068 
Q 3634 1759 3634 1313 
Q 3634 634 3220 271 
Q 2806 -91 2034 -91 
Q 1263 -91 848 271 
Q 434 634 434 1313 
Q 434 1759 690 2068 
Q 947 2378 1403 2484 
z
M 1172 3481 
Q 1172 3119 1398 2916 
Q 1625 2713 2034 2713 
Q 2441 2713 2670 2916 
Q 2900 3119 2900 3481 
Q 2900 3844 2670 4047 
Q 2441 4250 2034 4250 
Q 1625 4250 1398 4047 
Q 1172 3844 1172 3481 
z
" transform="scale(0.015625)"/>
       </defs>
       <use xlink:href="#DejaVuSans-30"/>
       <use xlink:href="#DejaVuSans-2e" x="63.623047"/>
       <use xlink:href="#DejaVuSans-38" x="95.410156"/>
      </g>
     </g>
    </g>
    <g id="xtick_3">
     <g id="line2d_5">
      <path d="M 157.070217 145.8 
L 157.070217 7.2 
" clip-path="url(#pbb5f28e0c1)" style="fill: none; stroke: #b0b0b0; stroke-width: 0.8; stroke-linecap: square"/>
     </g>
     <g id="line2d_6">
      <g>
       <use xlink:href="#mbe374969f3" x="157.070217" y="145.8" style="stroke: #000000; stroke-width: 0.8"/>
      </g>
     </g>
     <g id="text_3">
      <!-- 1.0 -->
      <g transform="translate(149.118655 160.398438) scale(0.1 -0.1)">
       <defs>
        <path id="DejaVuSans-31" d="M 794 531 
L 1825 531 
L 1825 4091 
L 703 3866 
L 703 4441 
L 1819 4666 
L 2450 4666 
L 2450 531 
L 3481 531 
L 3481 0 
L 794 0 
L 794 531 
z
" transform="scale(0.015625)"/>
       </defs>
       <use xlink:href="#DejaVuSans-31"/>
       <use xlink:href="#DejaVuSans-2e" x="63.623047"/>
       <use xlink:href="#DejaVuSans-30" x="95.410156"/>
      </g>
     </g>
    </g>
    <g id="xtick_4">
     <g id="line2d_7">
      <path d="M 192.93802 145.8 
L 192.93802 7.2 
" clip-path="url(#pbb5f28e0c1)" style="fill: none; stroke: #b0b0b0; stroke-width: 0.8; stroke-linecap: square"/>
     </g>
     <g id="line2d_8">
      <g>
       <use xlink:href="#mbe374969f3" x="192.93802" y="145.8" style="stroke: #000000; stroke-width: 0.8"/>
      </g>
     </g>
     <g id="text_4">
      <!-- 1.2 -->
      <g transform="translate(184.986458 160.398438) scale(0.1 -0.1)">
       <defs>
        <path id="DejaVuSans-32" d="M 1228 531 
L 3431 531 
L 3431 0 
L 469 0 
L 469 531 
Q 828 903 1448 1529 
Q 2069 2156 2228 2338 
Q 2531 2678 2651 2914 
Q 2772 3150 2772 3378 
Q 2772 3750 2511 3984 
Q 2250 4219 1831 4219 
Q 1534 4219 1204 4116 
Q 875 4013 500 3803 
L 500 4441 
Q 881 4594 1212 4672 
Q 1544 4750 1819 4750 
Q 2544 4750 2975 4387 
Q 3406 4025 3406 3419 
Q 3406 3131 3298 2873 
Q 3191 2616 2906 2266 
Q 2828 2175 2409 1742 
Q 1991 1309 1228 531 
z
" transform="scale(0.015625)"/>
       </defs>
       <use xlink:href="#DejaVuSans-31"/>
       <use xlink:href="#DejaVuSans-2e" x="63.623047"/>
       <use xlink:href="#DejaVuSans-32" x="95.410156"/>
      </g>
     </g>
    </g>
    <g id="xtick_5">
     <g id="line2d_9">
      <path d="M 228.805823 145.8 
L 228.805823 7.2 
" clip-path="url(#pbb5f28e0c1)" style="fill: none; stroke: #b0b0b0; stroke-width: 0.8; stroke-linecap: square"/>
     </g>
     <g id="line2d_10">
      <g>
       <use xlink:href="#mbe374969f3" x="228.805823" y="145.8" style="stroke: #000000; stroke-width: 0.8"/>
      </g>
     </g>
     <g id="text_5">
      <!-- 1.4 -->
      <g transform="translate(220.85426 160.398438) scale(0.1 -0.1)">
       <defs>
        <path id="DejaVuSans-34" d="M 2419 4116 
L 825 1625 
L 2419 1625 
L 2419 4116 
z
M 2253 4666 
L 3047 4666 
L 3047 1625 
L 3713 1625 
L 3713 1100 
L 3047 1100 
L 3047 0 
L 2419 0 
L 2419 1100 
L 313 1100 
L 313 1709 
L 2253 4666 
z
" transform="scale(0.015625)"/>
       </defs>
       <use xlink:href="#DejaVuSans-31"/>
       <use xlink:href="#DejaVuSans-2e" x="63.623047"/>
       <use xlink:href="#DejaVuSans-34" x="95.410156"/>
      </g>
     </g>
    </g>
    <g id="text_6">
     <!-- x -->
     <g transform="translate(153.214063 174.076563) scale(0.1 -0.1)">
      <defs>
       <path id="DejaVuSans-78" d="M 3513 3500 
L 2247 1797 
L 3578 0 
L 2900 0 
L 1881 1375 
L 863 0 
L 184 0 
L 1544 1831 
L 300 3500 
L 978 3500 
L 1906 2253 
L 2834 3500 
L 3513 3500 
z
" transform="scale(0.015625)"/>
      </defs>
      <use xlink:href="#DejaVuSans-78"/>
     </g>
    </g>
   </g>
   <g id="matplotlib.axis_2">
    <g id="ytick_1">
     <g id="line2d_11">
      <path d="M 58.523438 143.859369 
L 253.823438 143.859369 
" clip-path="url(#pbb5f28e0c1)" style="fill: none; stroke: #b0b0b0; stroke-width: 0.8; stroke-linecap: square"/>
     </g>
     <g id="line2d_12">
      <defs>
       <path id="ma8f5468f16" d="M 0 0 
L -3.5 0 
" style="stroke: #000000; stroke-width: 0.8"/>
      </defs>
      <g>
       <use xlink:href="#ma8f5468f16" x="58.523438" y="143.859369" style="stroke: #000000; stroke-width: 0.8"/>
      </g>
     </g>
     <g id="text_7">
      <!-- −1.25 -->
      <g transform="translate(20.878125 147.658588) scale(0.1 -0.1)">
       <defs>
        <path id="DejaVuSans-2212" d="M 678 2272 
L 4684 2272 
L 4684 1741 
L 678 1741 
L 678 2272 
z
" transform="scale(0.015625)"/>
        <path id="DejaVuSans-35" d="M 691 4666 
L 3169 4666 
L 3169 4134 
L 1269 4134 
L 1269 2991 
Q 1406 3038 1543 3061 
Q 1681 3084 1819 3084 
Q 2600 3084 3056 2656 
Q 3513 2228 3513 1497 
Q 3513 744 3044 326 
Q 2575 -91 1722 -91 
Q 1428 -91 1123 -41 
Q 819 9 494 109 
L 494 744 
Q 775 591 1075 516 
Q 1375 441 1709 441 
Q 2250 441 2565 725 
Q 2881 1009 2881 1497 
Q 2881 1984 2565 2268 
Q 2250 2553 1709 2553 
Q 1456 2553 1204 2497 
Q 953 2441 691 2322 
L 691 4666 
z
" transform="scale(0.015625)"/>
       </defs>
       <use xlink:href="#DejaVuSans-2212"/>
       <use xlink:href="#DejaVuSans-31" x="83.789062"/>
       <use xlink:href="#DejaVuSans-2e" x="147.412109"/>
       <use xlink:href="#DejaVuSans-32" x="179.199219"/>
       <use xlink:href="#DejaVuSans-35" x="242.822266"/>
      </g>
     </g>
    </g>
    <g id="ytick_2">
     <g id="line2d_13">
      <path d="M 58.523438 117.787495 
L 253.823438 117.787495 
" clip-path="url(#pbb5f28e0c1)" style="fill: none; stroke: #b0b0b0; stroke-width: 0.8; stroke-linecap: square"/>
     </g>
     <g id="line2d_14">
      <g>
       <use xlink:href="#ma8f5468f16" x="58.523438" y="117.787495" style="stroke: #000000; stroke-width: 0.8"/>
      </g>
     </g>
     <g id="text_8">
      <!-- −1.00 -->
      <g transform="translate(20.878125 121.586714) scale(0.1 -0.1)">
       <use xlink:href="#DejaVuSans-2212"/>
       <use xlink:href="#DejaVuSans-31" x="83.789062"/>
       <use xlink:href="#DejaVuSans-2e" x="147.412109"/>
       <use xlink:href="#DejaVuSans-30" x="179.199219"/>
       <use xlink:href="#DejaVuSans-30" x="242.822266"/>
      </g>
     </g>
    </g>
    <g id="ytick_3">
     <g id="line2d_15">
      <path d="M 58.523438 91.715622 
L 253.823438 91.715622 
" clip-path="url(#pbb5f28e0c1)" style="fill: none; stroke: #b0b0b0; stroke-width: 0.8; stroke-linecap: square"/>
     </g>
     <g id="line2d_16">
      <g>
       <use xlink:href="#ma8f5468f16" x="58.523438" y="91.715622" style="stroke: #000000; stroke-width: 0.8"/>
      </g>
     </g>
     <g id="text_9">
      <!-- −0.75 -->
      <g transform="translate(20.878125 95.51484) scale(0.1 -0.1)">
       <defs>
        <path id="DejaVuSans-37" d="M 525 4666 
L 3525 4666 
L 3525 4397 
L 1831 0 
L 1172 0 
L 2766 4134 
L 525 4134 
L 525 4666 
z
" transform="scale(0.015625)"/>
       </defs>
       <use xlink:href="#DejaVuSans-2212"/>
       <use xlink:href="#DejaVuSans-30" x="83.789062"/>
       <use xlink:href="#DejaVuSans-2e" x="147.412109"/>
       <use xlink:href="#DejaVuSans-37" x="179.199219"/>
       <use xlink:href="#DejaVuSans-35" x="242.822266"/>
      </g>
     </g>
    </g>
    <g id="ytick_4">
     <g id="line2d_17">
      <path d="M 58.523438 65.643748 
L 253.823438 65.643748 
" clip-path="url(#pbb5f28e0c1)" style="fill: none; stroke: #b0b0b0; stroke-width: 0.8; stroke-linecap: square"/>
     </g>
     <g id="line2d_18">
      <g>
       <use xlink:href="#ma8f5468f16" x="58.523438" y="65.643748" style="stroke: #000000; stroke-width: 0.8"/>
      </g>
     </g>
     <g id="text_10">
      <!-- −0.50 -->
      <g transform="translate(20.878125 69.442967) scale(0.1 -0.1)">
       <use xlink:href="#DejaVuSans-2212"/>
       <use xlink:href="#DejaVuSans-30" x="83.789062"/>
       <use xlink:href="#DejaVuSans-2e" x="147.412109"/>
       <use xlink:href="#DejaVuSans-35" x="179.199219"/>
       <use xlink:href="#DejaVuSans-30" x="242.822266"/>
      </g>
     </g>
    </g>
    <g id="ytick_5">
     <g id="line2d_19">
      <path d="M 58.523438 39.571874 
L 253.823438 39.571874 
" clip-path="url(#pbb5f28e0c1)" style="fill: none; stroke: #b0b0b0; stroke-width: 0.8; stroke-linecap: square"/>
     </g>
     <g id="line2d_20">
      <g>
       <use xlink:href="#ma8f5468f16" x="58.523438" y="39.571874" style="stroke: #000000; stroke-width: 0.8"/>
      </g>
     </g>
     <g id="text_11">
      <!-- −0.25 -->
      <g transform="translate(20.878125 43.371093) scale(0.1 -0.1)">
       <use xlink:href="#DejaVuSans-2212"/>
       <use xlink:href="#DejaVuSans-30" x="83.789062"/>
       <use xlink:href="#DejaVuSans-2e" x="147.412109"/>
       <use xlink:href="#DejaVuSans-32" x="179.199219"/>
       <use xlink:href="#DejaVuSans-35" x="242.822266"/>
      </g>
     </g>
    </g>
    <g id="ytick_6">
     <g id="line2d_21">
      <path d="M 58.523438 13.500001 
L 253.823438 13.500001 
" clip-path="url(#pbb5f28e0c1)" style="fill: none; stroke: #b0b0b0; stroke-width: 0.8; stroke-linecap: square"/>
     </g>
     <g id="line2d_22">
      <g>
       <use xlink:href="#ma8f5468f16" x="58.523438" y="13.500001" style="stroke: #000000; stroke-width: 0.8"/>
      </g>
     </g>
     <g id="text_12">
      <!-- 0.00 -->
      <g transform="translate(29.257812 17.299219) scale(0.1 -0.1)">
       <use xlink:href="#DejaVuSans-30"/>
       <use xlink:href="#DejaVuSans-2e" x="63.623047"/>
       <use xlink:href="#DejaVuSans-30" x="95.410156"/>
       <use xlink:href="#DejaVuSans-30" x="159.033203"/>
      </g>
     </g>
    </g>
    <g id="text_13">
     <!-- risk -->
     <g transform="translate(14.798437 85.444531) rotate(-90) scale(0.1 -0.1)">
      <defs>
       <path id="DejaVuSans-72" d="M 2631 2963 
Q 2534 3019 2420 3045 
Q 2306 3072 2169 3072 
Q 1681 3072 1420 2755 
Q 1159 2438 1159 1844 
L 1159 0 
L 581 0 
L 581 3500 
L 1159 3500 
L 1159 2956 
Q 1341 3275 1631 3429 
Q 1922 3584 2338 3584 
Q 2397 3584 2469 3576 
Q 2541 3569 2628 3553 
L 2631 2963 
z
" transform="scale(0.015625)"/>
       <path id="DejaVuSans-69" d="M 603 3500 
L 1178 3500 
L 1178 0 
L 603 0 
L 603 3500 
z
M 603 4863 
L 1178 4863 
L 1178 4134 
L 603 4134 
L 603 4863 
z
" transform="scale(0.015625)"/>
       <path id="DejaVuSans-73" d="M 2834 3397 
L 2834 2853 
Q 2591 2978 2328 3040 
Q 2066 3103 1784 3103 
Q 1356 3103 1142 2972 
Q 928 2841 928 2578 
Q 928 2378 1081 2264 
Q 1234 2150 1697 2047 
L 1894 2003 
Q 2506 1872 2764 1633 
Q 3022 1394 3022 966 
Q 3022 478 2636 193 
Q 2250 -91 1575 -91 
Q 1294 -91 989 -36 
Q 684 19 347 128 
L 347 722 
Q 666 556 975 473 
Q 1284 391 1588 391 
Q 1994 391 2212 530 
Q 2431 669 2431 922 
Q 2431 1156 2273 1281 
Q 2116 1406 1581 1522 
L 1381 1569 
Q 847 1681 609 1914 
Q 372 2147 372 2553 
Q 372 3047 722 3315 
Q 1072 3584 1716 3584 
Q 2034 3584 2315 3537 
Q 2597 3491 2834 3397 
z
" transform="scale(0.015625)"/>
       <path id="DejaVuSans-6b" d="M 581 4863 
L 1159 4863 
L 1159 1991 
L 2875 3500 
L 3609 3500 
L 1753 1863 
L 3688 0 
L 2938 0 
L 1159 1709 
L 1159 0 
L 581 0 
L 581 4863 
z
" transform="scale(0.015625)"/>
      </defs>
      <use xlink:href="#DejaVuSans-72"/>
      <use xlink:href="#DejaVuSans-69" x="41.113281"/>
      <use xlink:href="#DejaVuSans-73" x="68.896484"/>
      <use xlink:href="#DejaVuSans-6b" x="120.996094"/>
     </g>
    </g>
   </g>
   <g id="line2d_23">
    <path d="M 67.40071 13.500003 
L 69.194099 15.170636 
L 70.987487 16.905095 
L 72.780876 18.701588 
L 74.574264 20.558171 
L 76.367652 22.47278 
L 78.161041 24.443248 
L 79.954429 26.467271 
L 81.747818 28.542428 
L 83.541206 30.666204 
L 85.334595 32.835944 
L 87.127983 35.048917 
L 88.921371 37.302266 
L 90.71476 39.593034 
L 92.508148 41.918185 
L 94.301537 44.274566 
L 96.094925 46.658956 
L 97.888314 49.068031 
L 99.681702 51.498382 
L 101.47509 53.946564 
L 103.268479 56.409012 
L 105.061867 58.882121 
L 106.855256 61.362213 
L 108.648644 63.845531 
L 110.442033 66.328324 
L 112.235421 68.806738 
L 114.028809 71.276903 
L 115.822198 73.734897 
L 117.615586 76.176761 
L 119.408975 78.598535 
L 121.202363 80.996215 
L 122.995752 83.365798 
L 124.78914 85.70327 
L 126.582528 88.004577 
L 128.375917 90.26571 
L 130.169305 92.482641 
L 131.962694 94.651373 
L 133.756082 96.767921 
L 135.549471 98.828308 
L 137.342859 100.828598 
L 139.136247 102.7649 
L 140.929636 104.633348 
L 142.723024 106.430157 
L 144.516413 108.15154 
L 146.309801 109.7938 
L 148.10319 111.3533 
L 149.896578 112.826484 
L 151.689966 114.209865 
L 153.483355 115.500019 
L 155.276743 116.693631 
L 157.070132 117.787445 
L 158.86352 118.778353 
L 160.656909 119.663291 
L 162.450297 120.439361 
L 164.243685 121.103729 
L 166.037074 121.653697 
L 167.830462 122.08668 
L 169.623851 122.400216 
L 171.417239 122.591993 
L 173.210628 122.659822 
L 175.004016 122.60164 
L 176.797404 122.415533 
L 178.590793 122.099759 
L 180.384181 121.652703 
L 182.17757 121.072885 
L 183.970958 120.359012 
L 185.764347 119.509929 
L 187.557735 118.524665 
L 189.351123 117.402419 
L 191.144512 116.142538 
L 192.9379 114.744524 
L 194.731289 113.208079 
L 196.524677 111.533074 
L 198.318066 109.719581 
L 200.111454 107.767788 
L 201.904842 105.678149 
L 203.698231 103.451186 
L 205.491619 101.0877 
L 207.285008 98.58863 
L 209.078396 95.955102 
L 210.871785 93.188433 
L 212.665173 90.290121 
L 214.458561 87.26185 
L 216.25195 84.105517 
L 218.045338 80.823055 
L 219.838727 77.416745 
L 221.632115 73.888986 
L 223.425504 70.242353 
L 225.218892 66.479597 
L 227.01228 62.60363 
L 228.805669 58.61757 
L 230.599057 54.524676 
L 232.392446 50.328381 
L 234.185834 46.032282 
L 235.979223 41.640214 
L 237.772611 37.15595 
L 239.565999 32.583633 
L 241.359388 27.927483 
L 243.152776 23.191871 
L 244.946165 18.381308 
" clip-path="url(#pbb5f28e0c1)" style="fill: none; stroke: #1f77b4; stroke-width: 1.5; stroke-linecap: square"/>
   </g>
   <g id="line2d_24">
    <path d="M 67.40071 13.5 
L 69.194099 18.433456 
L 70.987487 23.350408 
L 72.780876 28.170685 
L 74.574264 32.817894 
L 76.367652 37.22124 
L 78.161041 41.317304 
L 79.954429 45.051429 
L 81.747818 48.379081 
L 83.541206 51.266904 
L 85.334595 53.693445 
L 87.127983 55.649632 
L 88.921371 57.138938 
L 90.71476 58.177218 
L 92.508148 58.79229 
L 94.301537 59.023085 
L 96.094925 58.91873 
L 97.888314 58.537182 
L 99.681702 57.943769 
L 101.47509 57.209462 
L 103.268479 56.409078 
L 105.061867 55.619354 
L 106.855256 54.91695 
L 108.648644 54.376498 
L 110.442033 54.068656 
L 112.235421 54.058313 
L 114.028809 54.402879 
L 115.822198 55.150772 
L 117.615586 56.34013 
L 119.408975 57.997839 
L 121.202363 60.138717 
L 122.995752 62.765072 
L 124.78914 65.866574 
L 126.582528 69.420359 
L 128.375917 73.391574 
L 130.169305 77.734085 
L 131.962694 82.391543 
L 133.756082 87.298705 
L 135.549471 92.382874 
L 137.342859 97.565648 
L 139.136247 102.764763 
L 140.929636 107.896043 
L 142.723024 112.875348 
L 144.516413 117.620527 
L 146.309801 122.053425 
L 148.10319 126.101669 
L 149.896578 129.700471 
L 151.689966 132.79396 
L 153.483355 135.336635 
L 155.276743 137.294308 
L 157.070132 138.644949 
L 158.86352 139.379086 
L 160.656909 139.5 
L 162.450297 139.023617 
L 164.243685 137.977908 
L 166.037074 136.402309 
L 167.830462 134.34656 
L 169.623851 131.869476 
L 171.417239 129.037483 
L 173.210628 125.922822 
L 175.004016 122.601852 
L 176.797404 119.152906 
L 178.590793 115.654636 
L 180.384181 112.183779 
L 182.17757 108.813323 
L 183.970958 105.610674 
L 185.764347 102.635974 
L 187.557735 99.94059 
L 189.351123 97.565822 
L 191.144512 95.541867 
L 192.9379 93.887026 
L 194.731289 92.607334 
L 196.524677 91.696339 
L 198.318066 91.135306 
L 200.111454 90.893578 
L 201.904842 90.929506 
L 203.698231 91.191269 
L 205.491619 91.618391 
L 207.285008 92.143054 
L 209.078396 92.692009 
L 210.871785 93.188172 
L 212.665173 93.552691 
L 214.458561 93.706923 
L 216.25195 93.574391 
L 218.045338 93.082574 
L 219.838727 92.16504 
L 221.632115 90.762886 
L 223.425504 88.826385 
L 225.218892 86.31617 
L 227.01228 83.204294 
L 228.805669 79.475068 
L 230.599057 75.125427 
L 232.392446 70.165131 
L 234.185834 64.616582 
L 235.979223 58.514453 
L 237.772611 51.904661 
L 239.565999 44.843624 
L 241.359388 37.396877 
L 243.152776 29.637496 
L 244.946165 21.644454 
" clip-path="url(#pbb5f28e0c1)" style="fill: none; stroke-dasharray: 5.55,2.4; stroke-dashoffset: 0; stroke: #bf00bf; stroke-width: 1.5"/>
   </g>
   <g id="patch_3">
    <path d="M 58.523438 145.8 
L 58.523438 7.2 
" style="fill: none; stroke: #000000; stroke-width: 0.8; stroke-linejoin: miter; stroke-linecap: square"/>
   </g>
   <g id="patch_4">
    <path d="M 253.823438 145.8 
L 253.823438 7.2 
" style="fill: none; stroke: #000000; stroke-width: 0.8; stroke-linejoin: miter; stroke-linecap: square"/>
   </g>
   <g id="patch_5">
    <path d="M 58.523437 145.8 
L 253.823438 145.8 
" style="fill: none; stroke: #000000; stroke-width: 0.8; stroke-linejoin: miter; stroke-linecap: square"/>
   </g>
   <g id="patch_6">
    <path d="M 58.523437 7.2 
L 253.823438 7.2 
" style="fill: none; stroke: #000000; stroke-width: 0.8; stroke-linejoin: miter; stroke-linecap: square"/>
   </g>
   <g id="patch_7">
    <path d="M 138.673468 132.470875 
Q 146.921913 135.239129 154.110423 137.65166 
" style="fill: none; stroke: #000000; stroke-linecap: round"/>
    <path d="M 150.954625 134.482916 
L 154.110423 137.65166 
L 149.681949 138.275052 
" style="fill: none; stroke: #000000; stroke-linecap: round"/>
   </g>
   <g id="text_14">
    <!-- min of -->
    <g transform="translate(67.40071 117.018432) scale(0.1 -0.1)">
     <defs>
      <path id="DejaVuSans-6d" d="M 3328 2828 
Q 3544 3216 3844 3400 
Q 4144 3584 4550 3584 
Q 5097 3584 5394 3201 
Q 5691 2819 5691 2113 
L 5691 0 
L 5113 0 
L 5113 2094 
Q 5113 2597 4934 2840 
Q 4756 3084 4391 3084 
Q 3944 3084 3684 2787 
Q 3425 2491 3425 1978 
L 3425 0 
L 2847 0 
L 2847 2094 
Q 2847 2600 2669 2842 
Q 2491 3084 2119 3084 
Q 1678 3084 1418 2786 
Q 1159 2488 1159 1978 
L 1159 0 
L 581 0 
L 581 3500 
L 1159 3500 
L 1159 2956 
Q 1356 3278 1631 3431 
Q 1906 3584 2284 3584 
Q 2666 3584 2933 3390 
Q 3200 3197 3328 2828 
z
" transform="scale(0.015625)"/>
      <path id="DejaVuSans-6e" d="M 3513 2113 
L 3513 0 
L 2938 0 
L 2938 2094 
Q 2938 2591 2744 2837 
Q 2550 3084 2163 3084 
Q 1697 3084 1428 2787 
Q 1159 2491 1159 1978 
L 1159 0 
L 581 0 
L 581 3500 
L 1159 3500 
L 1159 2956 
Q 1366 3272 1645 3428 
Q 1925 3584 2291 3584 
Q 2894 3584 3203 3211 
Q 3513 2838 3513 2113 
z
" transform="scale(0.015625)"/>
      <path id="DejaVuSans-20" transform="scale(0.015625)"/>
      <path id="DejaVuSans-6f" d="M 1959 3097 
Q 1497 3097 1228 2736 
Q 959 2375 959 1747 
Q 959 1119 1226 758 
Q 1494 397 1959 397 
Q 2419 397 2687 759 
Q 2956 1122 2956 1747 
Q 2956 2369 2687 2733 
Q 2419 3097 1959 3097 
z
M 1959 3584 
Q 2709 3584 3137 3096 
Q 3566 2609 3566 1747 
Q 3566 888 3137 398 
Q 2709 -91 1959 -91 
Q 1206 -91 779 398 
Q 353 888 353 1747 
Q 353 2609 779 3096 
Q 1206 3584 1959 3584 
z
" transform="scale(0.015625)"/>
      <path id="DejaVuSans-66" d="M 2375 4863 
L 2375 4384 
L 1825 4384 
Q 1516 4384 1395 4259 
Q 1275 4134 1275 3809 
L 1275 3500 
L 2222 3500 
L 2222 3053 
L 1275 3053 
L 1275 0 
L 697 0 
L 697 3053 
L 147 3053 
L 147 3500 
L 697 3500 
L 697 3744 
Q 697 4328 969 4595 
Q 1241 4863 1831 4863 
L 2375 4863 
z
" transform="scale(0.015625)"/>
     </defs>
     <use xlink:href="#DejaVuSans-6d"/>
     <use xlink:href="#DejaVuSans-69" x="97.412109"/>
     <use xlink:href="#DejaVuSans-6e" x="125.195312"/>
     <use xlink:href="#DejaVuSans-20" x="188.574219"/>
     <use xlink:href="#DejaVuSans-6f" x="220.361328"/>
     <use xlink:href="#DejaVuSans-66" x="281.542969"/>
    </g>
    <!-- empirical risk -->
    <g transform="translate(67.40071 128.216245) scale(0.1 -0.1)">
     <defs>
      <path id="DejaVuSans-65" d="M 3597 1894 
L 3597 1613 
L 953 1613 
Q 991 1019 1311 708 
Q 1631 397 2203 397 
Q 2534 397 2845 478 
Q 3156 559 3463 722 
L 3463 178 
Q 3153 47 2828 -22 
Q 2503 -91 2169 -91 
Q 1331 -91 842 396 
Q 353 884 353 1716 
Q 353 2575 817 3079 
Q 1281 3584 2069 3584 
Q 2775 3584 3186 3129 
Q 3597 2675 3597 1894 
z
M 3022 2063 
Q 3016 2534 2758 2815 
Q 2500 3097 2075 3097 
Q 1594 3097 1305 2825 
Q 1016 2553 972 2059 
L 3022 2063 
z
" transform="scale(0.015625)"/>
      <path id="DejaVuSans-70" d="M 1159 525 
L 1159 -1331 
L 581 -1331 
L 581 3500 
L 1159 3500 
L 1159 2969 
Q 1341 3281 1617 3432 
Q 1894 3584 2278 3584 
Q 2916 3584 3314 3078 
Q 3713 2572 3713 1747 
Q 3713 922 3314 415 
Q 2916 -91 2278 -91 
Q 1894 -91 1617 61 
Q 1341 213 1159 525 
z
M 3116 1747 
Q 3116 2381 2855 2742 
Q 2594 3103 2138 3103 
Q 1681 3103 1420 2742 
Q 1159 2381 1159 1747 
Q 1159 1113 1420 752 
Q 1681 391 2138 391 
Q 2594 391 2855 752 
Q 3116 1113 3116 1747 
z
" transform="scale(0.015625)"/>
      <path id="DejaVuSans-63" d="M 3122 3366 
L 3122 2828 
Q 2878 2963 2633 3030 
Q 2388 3097 2138 3097 
Q 1578 3097 1268 2742 
Q 959 2388 959 1747 
Q 959 1106 1268 751 
Q 1578 397 2138 397 
Q 2388 397 2633 464 
Q 2878 531 3122 666 
L 3122 134 
Q 2881 22 2623 -34 
Q 2366 -91 2075 -91 
Q 1284 -91 818 406 
Q 353 903 353 1747 
Q 353 2603 823 3093 
Q 1294 3584 2113 3584 
Q 2378 3584 2631 3529 
Q 2884 3475 3122 3366 
z
" transform="scale(0.015625)"/>
      <path id="DejaVuSans-61" d="M 2194 1759 
Q 1497 1759 1228 1600 
Q 959 1441 959 1056 
Q 959 750 1161 570 
Q 1363 391 1709 391 
Q 2188 391 2477 730 
Q 2766 1069 2766 1631 
L 2766 1759 
L 2194 1759 
z
M 3341 1997 
L 3341 0 
L 2766 0 
L 2766 531 
Q 2569 213 2275 61 
Q 1981 -91 1556 -91 
Q 1019 -91 701 211 
Q 384 513 384 1019 
Q 384 1609 779 1909 
Q 1175 2209 1959 2209 
L 2766 2209 
L 2766 2266 
Q 2766 2663 2505 2880 
Q 2244 3097 1772 3097 
Q 1472 3097 1187 3025 
Q 903 2953 641 2809 
L 641 3341 
Q 956 3463 1253 3523 
Q 1550 3584 1831 3584 
Q 2591 3584 2966 3190 
Q 3341 2797 3341 1997 
z
" transform="scale(0.015625)"/>
      <path id="DejaVuSans-6c" d="M 603 4863 
L 1178 4863 
L 1178 0 
L 603 0 
L 603 4863 
z
" transform="scale(0.015625)"/>
     </defs>
     <use xlink:href="#DejaVuSans-65"/>
     <use xlink:href="#DejaVuSans-6d" x="61.523438"/>
     <use xlink:href="#DejaVuSans-70" x="158.935547"/>
     <use xlink:href="#DejaVuSans-69" x="222.412109"/>
     <use xlink:href="#DejaVuSans-72" x="250.195312"/>
     <use xlink:href="#DejaVuSans-69" x="291.308594"/>
     <use xlink:href="#DejaVuSans-63" x="319.091797"/>
     <use xlink:href="#DejaVuSans-61" x="374.072266"/>
     <use xlink:href="#DejaVuSans-6c" x="435.351562"/>
     <use xlink:href="#DejaVuSans-20" x="463.134766"/>
     <use xlink:href="#DejaVuSans-72" x="494.921875"/>
     <use xlink:href="#DejaVuSans-69" x="536.035156"/>
     <use xlink:href="#DejaVuSans-73" x="563.818359"/>
     <use xlink:href="#DejaVuSans-6b" x="615.917969"/>
    </g>
   </g>
   <g id="patch_8">
    <path d="M 174.551556 71.720255 
Q 174.769012 96.361034 174.976602 119.883821 
" style="fill: none; stroke: #000000; stroke-linecap: round"/>
    <path d="M 176.941225 115.866328 
L 174.976602 119.883821 
L 172.941381 115.901626 
" style="fill: none; stroke: #000000; stroke-linecap: round"/>
   </g>
   <g id="text_15">
    <!-- min of risk -->
    <g transform="translate(148.103267 65.643748) scale(0.1 -0.1)">
     <use xlink:href="#DejaVuSans-6d"/>
     <use xlink:href="#DejaVuSans-69" x="97.412109"/>
     <use xlink:href="#DejaVuSans-6e" x="125.195312"/>
     <use xlink:href="#DejaVuSans-20" x="188.574219"/>
     <use xlink:href="#DejaVuSans-6f" x="220.361328"/>
     <use xlink:href="#DejaVuSans-66" x="281.542969"/>
     <use xlink:href="#DejaVuSans-20" x="316.748047"/>
     <use xlink:href="#DejaVuSans-72" x="348.535156"/>
     <use xlink:href="#DejaVuSans-69" x="389.648438"/>
     <use xlink:href="#DejaVuSans-73" x="417.431641"/>
     <use xlink:href="#DejaVuSans-6b" x="469.53125"/>
    </g>
   </g>
  </g>
 </g>
 <defs>
  <clipPath id="pbb5f28e0c1">
   <rect x="58.523438" y="7.2" width="195.3" height="138.6"/>
  </clipPath>
 </defs>
</svg>
