<?xml version="1.0" encoding="utf-8" standalone="no"?>
<!DOCTYPE svg PUBLIC "-//W3C//DTD SVG 1.1//EN"
  "http://www.w3.org/Graphics/SVG/1.1/DTD/svg11.dtd">
<svg xmlns:xlink="http://www.w3.org/1999/xlink" width="238.965625pt" height="183.35625pt" viewBox="0 0 238.965625 183.35625" xmlns="http://www.w3.org/2000/svg" version="1.1">
 <metadata>
  <rdf:RDF xmlns:dc="http://purl.org/dc/elements/1.1/" xmlns:cc="http://creativecommons.org/ns#" xmlns:rdf="http://www.w3.org/1999/02/22-rdf-syntax-ns#">
   <cc:Work>
    <dc:type rdf:resource="http://purl.org/dc/dcmitype/StillImage"/>
    <dc:date>2025-06-06T19:12:05.664374</dc:date>
    <dc:format>image/svg+xml</dc:format>
    <dc:creator>
     <cc:Agent>
      <dc:title>Matplotlib v3.7.2, https://matplotlib.org/</dc:title>
     </cc:Agent>
    </dc:creator>
   </cc:Work>
  </rdf:RDF>
 </metadata>
 <defs>
  <style type="text/css">*{stroke-linejoin: round; stroke-linecap: butt}</style>
 </defs>
 <g id="figure_1">
  <g id="patch_1">
   <path d="M 0 183.35625 
L 238.965625 183.35625 
L 238.965625 0 
L 0 0 
z
" style="fill: #ffffff"/>
  </g>
  <g id="axes_1">
   <g id="patch_2">
    <path d="M 30.103125 145.8 
L 225.403125 145.8 
L 225.403125 7.2 
L 30.103125 7.2 
z
" style="fill: #ffffff"/>
   </g>
   <g id="matplotlib.axis_1">
    <g id="xtick_1">
     <g id="line2d_1">
      <path d="M 71.218914 145.8 
L 71.218914 7.2 
" clip-path="url(#p6afbc3c072)" style="fill: none; stroke: #b0b0b0; stroke-width: 0.8; stroke-linecap: square"/>
     </g>
     <g id="line2d_2">
      <defs>
       <path id="mabb018c345" d="M 0 0 
L 0 3.5 
" style="stroke: #000000; stroke-width: 0.8"/>
      </defs>
      <g>
       <use xlink:href="#mabb018c345" x="71.218914" y="145.8" style="stroke: #000000; stroke-width: 0.8"/>
      </g>
     </g>
     <g id="text_1">
      <!-- 5 -->
      <g transform="translate(68.037664 160.398438) scale(0.1 -0.1)">
       <defs>
        <path id="DejaVuSans-35" d="M 691 4666 
L 3169 4666 
L 3169 4134 
L 1269 4134 
L 1269 2991 
Q 1406 3038 1543 3061 
Q 1681 3084 1819 3084 
Q 2600 3084 3056 2656 
Q 3513 2228 3513 1497 
Q 3513 744 3044 326 
Q 2575 -91 1722 -91 
Q 1428 -91 1123 -41 
Q 819 9 494 109 
L 494 744 
Q 775 591 1075 516 
Q 1375 441 1709 441 
Q 2250 441 2565 725 
Q 2881 1009 2881 1497 
Q 2881 1984 2565 2268 
Q 2250 2553 1709 2553 
Q 1456 2553 1204 2497 
Q 953 2441 691 2322 
L 691 4666 
z
" transform="scale(0.015625)"/>
       </defs>
       <use xlink:href="#DejaVuSans-35"/>
      </g>
     </g>
    </g>
    <g id="xtick_2">
     <g id="line2d_3">
      <path d="M 122.613651 145.8 
L 122.613651 7.2 
" clip-path="url(#p6afbc3c072)" style="fill: none; stroke: #b0b0b0; stroke-width: 0.8; stroke-linecap: square"/>
     </g>
     <g id="line2d_4">
      <g>
       <use xlink:href="#mabb018c345" x="122.613651" y="145.8" style="stroke: #000000; stroke-width: 0.8"/>
      </g>
     </g>
     <g id="text_2">
      <!-- 10 -->
      <g transform="translate(116.251151 160.398438) scale(0.1 -0.1)">
       <defs>
        <path id="DejaVuSans-31" d="M 794 531 
L 1825 531 
L 1825 4091 
L 703 3866 
L 703 4441 
L 1819 4666 
L 2450 4666 
L 2450 531 
L 3481 531 
L 3481 0 
L 794 0 
L 794 531 
z
" transform="scale(0.015625)"/>
        <path id="DejaVuSans-30" d="M 2034 4250 
Q 1547 4250 1301 3770 
Q 1056 3291 1056 2328 
Q 1056 1369 1301 889 
Q 1547 409 2034 409 
Q 2525 409 2770 889 
Q 3016 1369 3016 2328 
Q 3016 3291 2770 3770 
Q 2525 4250 2034 4250 
z
M 2034 4750 
Q 2819 4750 3233 4129 
Q 3647 3509 3647 2328 
Q 3647 1150 3233 529 
Q 2819 -91 2034 -91 
Q 1250 -91 836 529 
Q 422 1150 422 2328 
Q 422 3509 836 4129 
Q 1250 4750 2034 4750 
z
" transform="scale(0.015625)"/>
       </defs>
       <use xlink:href="#DejaVuSans-31"/>
       <use xlink:href="#DejaVuSans-30" x="63.623047"/>
      </g>
     </g>
    </g>
    <g id="xtick_3">
     <g id="line2d_5">
      <path d="M 174.008388 145.8 
L 174.008388 7.2 
" clip-path="url(#p6afbc3c072)" style="fill: none; stroke: #b0b0b0; stroke-width: 0.8; stroke-linecap: square"/>
     </g>
     <g id="line2d_6">
      <g>
       <use xlink:href="#mabb018c345" x="174.008388" y="145.8" style="stroke: #000000; stroke-width: 0.8"/>
      </g>
     </g>
     <g id="text_3">
      <!-- 15 -->
      <g transform="translate(167.645888 160.398438) scale(0.1 -0.1)">
       <use xlink:href="#DejaVuSans-31"/>
       <use xlink:href="#DejaVuSans-35" x="63.623047"/>
      </g>
     </g>
    </g>
    <g id="xtick_4">
     <g id="line2d_7">
      <path d="M 225.403125 145.8 
L 225.403125 7.2 
" clip-path="url(#p6afbc3c072)" style="fill: none; stroke: #b0b0b0; stroke-width: 0.8; stroke-linecap: square"/>
     </g>
     <g id="line2d_8">
      <g>
       <use xlink:href="#mabb018c345" x="225.403125" y="145.8" style="stroke: #000000; stroke-width: 0.8"/>
      </g>
     </g>
     <g id="text_4">
      <!-- 20 -->
      <g transform="translate(219.040625 160.398438) scale(0.1 -0.1)">
       <defs>
        <path id="DejaVuSans-32" d="M 1228 531 
L 3431 531 
L 3431 0 
L 469 0 
L 469 531 
Q 828 903 1448 1529 
Q 2069 2156 2228 2338 
Q 2531 2678 2651 2914 
Q 2772 3150 2772 3378 
Q 2772 3750 2511 3984 
Q 2250 4219 1831 4219 
Q 1534 4219 1204 4116 
Q 875 4013 500 3803 
L 500 4441 
Q 881 4594 1212 4672 
Q 1544 4750 1819 4750 
Q 2544 4750 2975 4387 
Q 3406 4025 3406 3419 
Q 3406 3131 3298 2873 
Q 3191 2616 2906 2266 
Q 2828 2175 2409 1742 
Q 1991 1309 1228 531 
z
" transform="scale(0.015625)"/>
       </defs>
       <use xlink:href="#DejaVuSans-32"/>
       <use xlink:href="#DejaVuSans-30" x="63.623047"/>
      </g>
     </g>
    </g>
    <g id="text_5">
     <!-- epoch -->
     <g transform="translate(112.525 174.076563) scale(0.1 -0.1)">
      <defs>
       <path id="DejaVuSans-65" d="M 3597 1894 
L 3597 1613 
L 953 1613 
Q 991 1019 1311 708 
Q 1631 397 2203 397 
Q 2534 397 2845 478 
Q 3156 559 3463 722 
L 3463 178 
Q 3153 47 2828 -22 
Q 2503 -91 2169 -91 
Q 1331 -91 842 396 
Q 353 884 353 1716 
Q 353 2575 817 3079 
Q 1281 3584 2069 3584 
Q 2775 3584 3186 3129 
Q 3597 2675 3597 1894 
z
M 3022 2063 
Q 3016 2534 2758 2815 
Q 2500 3097 2075 3097 
Q 1594 3097 1305 2825 
Q 1016 2553 972 2059 
L 3022 2063 
z
" transform="scale(0.015625)"/>
       <path id="DejaVuSans-70" d="M 1159 525 
L 1159 -1331 
L 581 -1331 
L 581 3500 
L 1159 3500 
L 1159 2969 
Q 1341 3281 1617 3432 
Q 1894 3584 2278 3584 
Q 2916 3584 3314 3078 
Q 3713 2572 3713 1747 
Q 3713 922 3314 415 
Q 2916 -91 2278 -91 
Q 1894 -91 1617 61 
Q 1341 213 1159 525 
z
M 3116 1747 
Q 3116 2381 2855 2742 
Q 2594 3103 2138 3103 
Q 1681 3103 1420 2742 
Q 1159 2381 1159 1747 
Q 1159 1113 1420 752 
Q 1681 391 2138 391 
Q 2594 391 2855 752 
Q 3116 1113 3116 1747 
z
" transform="scale(0.015625)"/>
       <path id="DejaVuSans-6f" d="M 1959 3097 
Q 1497 3097 1228 2736 
Q 959 2375 959 1747 
Q 959 1119 1226 758 
Q 1494 397 1959 397 
Q 2419 397 2687 759 
Q 2956 1122 2956 1747 
Q 2956 2369 2687 2733 
Q 2419 3097 1959 3097 
z
M 1959 3584 
Q 2709 3584 3137 3096 
Q 3566 2609 3566 1747 
Q 3566 888 3137 398 
Q 2709 -91 1959 -91 
Q 1206 -91 779 398 
Q 353 888 353 1747 
Q 353 2609 779 3096 
Q 1206 3584 1959 3584 
z
" transform="scale(0.015625)"/>
       <path id="DejaVuSans-63" d="M 3122 3366 
L 3122 2828 
Q 2878 2963 2633 3030 
Q 2388 3097 2138 3097 
Q 1578 3097 1268 2742 
Q 959 2388 959 1747 
Q 959 1106 1268 751 
Q 1578 397 2138 397 
Q 2388 397 2633 464 
Q 2878 531 3122 666 
L 3122 134 
Q 2881 22 2623 -34 
Q 2366 -91 2075 -91 
Q 1284 -91 818 406 
Q 353 903 353 1747 
Q 353 2603 823 3093 
Q 1294 3584 2113 3584 
Q 2378 3584 2631 3529 
Q 2884 3475 3122 3366 
z
" transform="scale(0.015625)"/>
       <path id="DejaVuSans-68" d="M 3513 2113 
L 3513 0 
L 2938 0 
L 2938 2094 
Q 2938 2591 2744 2837 
Q 2550 3084 2163 3084 
Q 1697 3084 1428 2787 
Q 1159 2491 1159 1978 
L 1159 0 
L 581 0 
L 581 4863 
L 1159 4863 
L 1159 2956 
Q 1366 3272 1645 3428 
Q 1925 3584 2291 3584 
Q 2894 3584 3203 3211 
Q 3513 2838 3513 2113 
z
" transform="scale(0.015625)"/>
      </defs>
      <use xlink:href="#DejaVuSans-65"/>
      <use xlink:href="#DejaVuSans-70" x="61.523438"/>
      <use xlink:href="#DejaVuSans-6f" x="125"/>
      <use xlink:href="#DejaVuSans-63" x="186.181641"/>
      <use xlink:href="#DejaVuSans-68" x="241.162109"/>
     </g>
    </g>
   </g>
   <g id="matplotlib.axis_2">
    <g id="ytick_1">
     <g id="line2d_9">
      <path d="M 30.103125 121.179808 
L 225.403125 121.179808 
" clip-path="url(#p6afbc3c072)" style="fill: none; stroke: #b0b0b0; stroke-width: 0.8; stroke-linecap: square"/>
     </g>
     <g id="line2d_10">
      <defs>
       <path id="md1f58b1923" d="M 0 0 
L -3.5 0 
" style="stroke: #000000; stroke-width: 0.8"/>
      </defs>
      <g>
       <use xlink:href="#md1f58b1923" x="30.103125" y="121.179808" style="stroke: #000000; stroke-width: 0.8"/>
      </g>
     </g>
     <g id="text_6">
      <!-- 0.5 -->
      <g transform="translate(7.2 124.979027) scale(0.1 -0.1)">
       <defs>
        <path id="DejaVuSans-2e" d="M 684 794 
L 1344 794 
L 1344 0 
L 684 0 
L 684 794 
z
" transform="scale(0.015625)"/>
       </defs>
       <use xlink:href="#DejaVuSans-30"/>
       <use xlink:href="#DejaVuSans-2e" x="63.623047"/>
       <use xlink:href="#DejaVuSans-35" x="95.410156"/>
      </g>
     </g>
    </g>
    <g id="ytick_2">
     <g id="line2d_11">
      <path d="M 30.103125 96.408844 
L 225.403125 96.408844 
" clip-path="url(#p6afbc3c072)" style="fill: none; stroke: #b0b0b0; stroke-width: 0.8; stroke-linecap: square"/>
     </g>
     <g id="line2d_12">
      <g>
       <use xlink:href="#md1f58b1923" x="30.103125" y="96.408844" style="stroke: #000000; stroke-width: 0.8"/>
      </g>
     </g>
     <g id="text_7">
      <!-- 1.0 -->
      <g transform="translate(7.2 100.208063) scale(0.1 -0.1)">
       <use xlink:href="#DejaVuSans-31"/>
       <use xlink:href="#DejaVuSans-2e" x="63.623047"/>
       <use xlink:href="#DejaVuSans-30" x="95.410156"/>
      </g>
     </g>
    </g>
    <g id="ytick_3">
     <g id="line2d_13">
      <path d="M 30.103125 71.63788 
L 225.403125 71.63788 
" clip-path="url(#p6afbc3c072)" style="fill: none; stroke: #b0b0b0; stroke-width: 0.8; stroke-linecap: square"/>
     </g>
     <g id="line2d_14">
      <g>
       <use xlink:href="#md1f58b1923" x="30.103125" y="71.63788" style="stroke: #000000; stroke-width: 0.8"/>
      </g>
     </g>
     <g id="text_8">
      <!-- 1.5 -->
      <g transform="translate(7.2 75.437099) scale(0.1 -0.1)">
       <use xlink:href="#DejaVuSans-31"/>
       <use xlink:href="#DejaVuSans-2e" x="63.623047"/>
       <use xlink:href="#DejaVuSans-35" x="95.410156"/>
      </g>
     </g>
    </g>
    <g id="ytick_4">
     <g id="line2d_15">
      <path d="M 30.103125 46.866917 
L 225.403125 46.866917 
" clip-path="url(#p6afbc3c072)" style="fill: none; stroke: #b0b0b0; stroke-width: 0.8; stroke-linecap: square"/>
     </g>
     <g id="line2d_16">
      <g>
       <use xlink:href="#md1f58b1923" x="30.103125" y="46.866917" style="stroke: #000000; stroke-width: 0.8"/>
      </g>
     </g>
     <g id="text_9">
      <!-- 2.0 -->
      <g transform="translate(7.2 50.666135) scale(0.1 -0.1)">
       <use xlink:href="#DejaVuSans-32"/>
       <use xlink:href="#DejaVuSans-2e" x="63.623047"/>
       <use xlink:href="#DejaVuSans-30" x="95.410156"/>
      </g>
     </g>
    </g>
    <g id="ytick_5">
     <g id="line2d_17">
      <path d="M 30.103125 22.095953 
L 225.403125 22.095953 
" clip-path="url(#p6afbc3c072)" style="fill: none; stroke: #b0b0b0; stroke-width: 0.8; stroke-linecap: square"/>
     </g>
     <g id="line2d_18">
      <g>
       <use xlink:href="#md1f58b1923" x="30.103125" y="22.095953" style="stroke: #000000; stroke-width: 0.8"/>
      </g>
     </g>
     <g id="text_10">
      <!-- 2.5 -->
      <g transform="translate(7.2 25.895171) scale(0.1 -0.1)">
       <use xlink:href="#DejaVuSans-32"/>
       <use xlink:href="#DejaVuSans-2e" x="63.623047"/>
       <use xlink:href="#DejaVuSans-35" x="95.410156"/>
      </g>
     </g>
    </g>
   </g>
   <g id="line2d_19">
    <path d="M 21.813651 13.5 
L 23.803125 16.753355 
L 25.792599 20.801393 
L 27.782072 21.947421 
L 29.771546 23.760696 
L 30.103125 23.874162 
L 32.092599 27.094476 
L 34.082072 33.492824 
L 36.071546 37.305789 
L 38.06102 38.753223 
L 40.050493 38.650732 
L 40.382072 38.319174 
L 42.371546 42.776978 
L 44.36102 44.366808 
L 46.350493 45.737295 
L 48.339967 47.936793 
L 50.329441 48.475263 
L 50.66102 48.649875 
L 52.650493 51.768238 
L 54.639967 52.784418 
L 56.629441 53.796113 
L 58.618914 55.300188 
L 60.608388 55.545595 
L 60.939967 55.886265 
L 62.929441 57.680992 
L 64.918914 60.069801 
L 66.908388 61.150445 
L 68.897862 62.687237 
L 70.887336 61.767279 
L 71.218914 61.821926 
L 73.208388 63.500602 
L 75.197862 64.769123 
L 77.187336 64.652168 
L 79.176809 66.779168 
L 81.166283 66.512233 
L 81.497862 66.670758 
L 83.487336 66.574537 
L 85.476809 67.275734 
L 87.466283 67.462785 
L 89.455757 69.707051 
L 91.44523 69.689741 
L 91.776809 69.801805 
L 93.766283 71.600586 
L 95.755757 73.679664 
L 97.74523 73.651763 
L 99.734704 75.426212 
L 101.724178 74.592324 
L 102.055757 74.886383 
L 104.04523 72.752612 
L 106.034704 76.107507 
L 108.024178 77.212101 
L 110.013651 78.588009 
L 112.003125 78.984398 
L 112.334704 79.248153 
L 114.324178 81.573929 
L 116.313651 82.449495 
L 118.303125 82.963012 
L 120.292599 83.847431 
L 122.282072 84.016854 
L 122.613651 84.113573 
L 124.603125 85.572371 
L 126.592599 85.458425 
L 128.582072 85.054375 
L 130.571546 85.610931 
L 132.56102 86.23716 
L 132.892599 86.51113 
L 134.882072 86.401854 
L 136.871546 87.827217 
L 138.86102 87.157294 
L 140.850493 88.776706 
L 142.839967 89.048489 
L 143.171546 89.342244 
L 145.16102 90.353287 
L 147.150493 88.994573 
L 149.139967 89.600626 
L 151.129441 91.725467 
L 153.118914 92.89981 
L 153.450493 92.96825 
L 155.439967 98.571954 
L 157.429441 99.142552 
L 159.418914 99.111733 
L 161.408388 100.57718 
L 163.397862 100.612736 
L 163.729441 100.568328 
L 165.718914 97.398817 
L 167.708388 98.260834 
L 169.697862 98.654246 
L 171.687336 99.509882 
L 173.676809 100.61889 
L 174.008388 100.917262 
L 175.997862 102.59855 
L 177.987336 101.284753 
L 179.976809 102.986905 
L 181.966283 104.295481 
L 183.955757 105.353316 
L 184.287336 105.543156 
L 186.276809 106.125811 
L 188.266283 108.124429 
L 190.255757 108.310472 
L 192.24523 108.728043 
L 194.234704 109.52992 
L 194.566283 109.406487 
L 196.555757 109.633433 
L 198.54523 112.505656 
L 200.534704 111.308556 
L 202.524178 112.331798 
L 204.513651 113.132786 
L 204.84523 113.10935 
L 206.834704 114.41901 
L 208.824178 114.010763 
L 210.813651 115.908476 
L 212.803125 115.635878 
L 214.792599 116.601385 
L 215.124178 116.523533 
L 217.113651 113.122787 
L 219.103125 115.432988 
L 221.092599 117.079005 
L 223.082072 117.112155 
L 225.071546 117.87738 
L 225.403125 117.837239 
" clip-path="url(#p6afbc3c072)" style="fill: none; stroke: #1f77b4; stroke-width: 1.5; stroke-linecap: square"/>
   </g>
   <g id="line2d_20">
    <path d="M 21.813651 139.5 
L 23.803125 138.08083 
L 25.792599 137.435753 
L 27.782072 136.790676 
L 29.771546 136.506842 
L 30.103125 136.561777 
L 32.092599 137.435753 
L 34.082072 134.855444 
L 36.071546 134.511403 
L 38.06102 134.274875 
L 40.050493 134.184564 
L 40.382072 134.164587 
L 42.371546 133.307259 
L 44.36102 132.14612 
L 46.350493 131.759074 
L 48.339967 131.372027 
L 50.329441 131.088194 
L 50.66102 131.118158 
L 52.650493 131.243012 
L 54.639967 130.72695 
L 56.629441 130.72695 
L 58.618914 130.017365 
L 60.608388 129.901252 
L 60.939967 129.81968 
L 62.929441 128.146642 
L 64.918914 127.888611 
L 66.908388 128.232652 
L 68.897862 127.566072 
L 70.887336 127.63058 
L 71.218914 127.572315 
L 73.208388 126.082395 
L 75.197862 125.695348 
L 77.187336 126.856487 
L 79.176809 126.598456 
L 81.166283 126.495244 
L 81.497862 126.473603 
L 83.487336 125.566333 
L 85.476809 124.921256 
L 87.466283 125.996384 
L 89.455757 124.985763 
L 91.44523 124.740634 
L 91.776809 124.825535 
L 93.766283 123.760117 
L 95.755757 122.986024 
L 97.74523 123.674106 
L 99.734704 122.405455 
L 101.724178 122.418356 
L 102.055757 122.178637 
L 104.04523 122.986024 
L 106.034704 121.953901 
L 108.024178 121.523849 
L 110.013651 120.792762 
L 112.003125 120.61214 
L 112.334704 120.330803 
L 114.324178 120.921777 
L 116.313651 119.631623 
L 118.303125 119.889654 
L 120.292599 120.147685 
L 122.282072 119.52841 
L 122.613651 119.481798 
L 124.603125 117.825407 
L 126.592599 118.728515 
L 128.582072 118.77152 
L 130.571546 118.85753 
L 132.56102 118.289862 
L 132.892599 118.18332 
L 134.882072 118.599499 
L 136.871546 118.470484 
L 138.86102 118.427479 
L 140.850493 118.083438 
L 142.839967 117.670588 
L 143.171546 117.48414 
L 145.16102 115.76116 
L 147.150493 116.664268 
L 149.139967 116.105201 
L 151.129441 115.890175 
L 153.118914 115.193492 
L 153.450493 115.186833 
L 155.439967 112.148727 
L 157.429441 113.180851 
L 159.418914 113.696913 
L 161.408388 113.116343 
L 163.397862 113.077639 
L 163.729441 113.089292 
L 165.718914 113.954944 
L 167.708388 114.600021 
L 169.697862 114.212974 
L 171.687336 113.76142 
L 173.676809 113.180851 
L 174.008388 112.939467 
L 175.997862 110.858573 
L 177.987336 112.535774 
L 179.976809 112.062717 
L 181.966283 111.439143 
L 183.955757 110.858573 
L 184.287336 110.64216 
L 186.276809 109.568419 
L 188.266283 109.697434 
L 190.255757 109.482408 
L 192.24523 109.568419 
L 194.234704 109.000751 
L 194.566283 109.093975 
L 196.555757 109.82645 
L 198.54523 108.020233 
L 200.534704 109.482408 
L 202.524178 108.923342 
L 204.513651 108.536295 
L 204.84523 108.444736 
L 206.834704 107.246141 
L 208.824178 106.472048 
L 210.813651 105.783966 
L 212.803125 106.407541 
L 214.792599 106.007593 
L 215.124178 105.947663 
L 217.113651 106.98811 
L 219.103125 106.214017 
L 221.092599 105.783966 
L 223.082072 105.633448 
L 225.071546 105.491531 
L 225.403125 105.398307 
" clip-path="url(#p6afbc3c072)" style="fill: none; stroke-dasharray: 5.55,2.4; stroke-dashoffset: 0; stroke: #bf00bf; stroke-width: 1.5"/>
   </g>
   <g id="line2d_21"/>
   <g id="patch_3">
    <path d="M 30.103125 145.8 
L 30.103125 7.2 
" style="fill: none; stroke: #000000; stroke-width: 0.8; stroke-linejoin: miter; stroke-linecap: square"/>
   </g>
   <g id="patch_4">
    <path d="M 225.403125 145.8 
L 225.403125 7.2 
" style="fill: none; stroke: #000000; stroke-width: 0.8; stroke-linejoin: miter; stroke-linecap: square"/>
   </g>
   <g id="patch_5">
    <path d="M 30.103125 145.8 
L 225.403125 145.8 
" style="fill: none; stroke: #000000; stroke-width: 0.8; stroke-linejoin: miter; stroke-linecap: square"/>
   </g>
   <g id="patch_6">
    <path d="M 30.103125 7.2 
L 225.403125 7.2 
" style="fill: none; stroke: #000000; stroke-width: 0.8; stroke-linejoin: miter; stroke-linecap: square"/>
   </g>
   <g id="legend_1">
    <g id="patch_7">
     <path d="M 140.634375 44.55625 
L 218.403125 44.55625 
Q 220.403125 44.55625 220.403125 42.55625 
L 220.403125 14.2 
Q 220.403125 12.2 218.403125 12.2 
L 140.634375 12.2 
Q 138.634375 12.2 138.634375 14.2 
L 138.634375 42.55625 
Q 138.634375 44.55625 140.634375 44.55625 
z
" style="fill: #ffffff; opacity: 0.8; stroke: #cccccc; stroke-linejoin: miter"/>
    </g>
    <g id="line2d_22">
     <path d="M 142.634375 20.298438 
L 152.634375 20.298438 
L 162.634375 20.298438 
" style="fill: none; stroke: #1f77b4; stroke-width: 1.5; stroke-linecap: square"/>
    </g>
    <g id="text_11">
     <!-- train loss -->
     <g transform="translate(170.634375 23.798438) scale(0.1 -0.1)">
      <defs>
       <path id="DejaVuSans-74" d="M 1172 4494 
L 1172 3500 
L 2356 3500 
L 2356 3053 
L 1172 3053 
L 1172 1153 
Q 1172 725 1289 603 
Q 1406 481 1766 481 
L 2356 481 
L 2356 0 
L 1766 0 
Q 1100 0 847 248 
Q 594 497 594 1153 
L 594 3053 
L 172 3053 
L 172 3500 
L 594 3500 
L 594 4494 
L 1172 4494 
z
" transform="scale(0.015625)"/>
       <path id="DejaVuSans-72" d="M 2631 2963 
Q 2534 3019 2420 3045 
Q 2306 3072 2169 3072 
Q 1681 3072 1420 2755 
Q 1159 2438 1159 1844 
L 1159 0 
L 581 0 
L 581 3500 
L 1159 3500 
L 1159 2956 
Q 1341 3275 1631 3429 
Q 1922 3584 2338 3584 
Q 2397 3584 2469 3576 
Q 2541 3569 2628 3553 
L 2631 2963 
z
" transform="scale(0.015625)"/>
       <path id="DejaVuSans-61" d="M 2194 1759 
Q 1497 1759 1228 1600 
Q 959 1441 959 1056 
Q 959 750 1161 570 
Q 1363 391 1709 391 
Q 2188 391 2477 730 
Q 2766 1069 2766 1631 
L 2766 1759 
L 2194 1759 
z
M 3341 1997 
L 3341 0 
L 2766 0 
L 2766 531 
Q 2569 213 2275 61 
Q 1981 -91 1556 -91 
Q 1019 -91 701 211 
Q 384 513 384 1019 
Q 384 1609 779 1909 
Q 1175 2209 1959 2209 
L 2766 2209 
L 2766 2266 
Q 2766 2663 2505 2880 
Q 2244 3097 1772 3097 
Q 1472 3097 1187 3025 
Q 903 2953 641 2809 
L 641 3341 
Q 956 3463 1253 3523 
Q 1550 3584 1831 3584 
Q 2591 3584 2966 3190 
Q 3341 2797 3341 1997 
z
" transform="scale(0.015625)"/>
       <path id="DejaVuSans-69" d="M 603 3500 
L 1178 3500 
L 1178 0 
L 603 0 
L 603 3500 
z
M 603 4863 
L 1178 4863 
L 1178 4134 
L 603 4134 
L 603 4863 
z
" transform="scale(0.015625)"/>
       <path id="DejaVuSans-6e" d="M 3513 2113 
L 3513 0 
L 2938 0 
L 2938 2094 
Q 2938 2591 2744 2837 
Q 2550 3084 2163 3084 
Q 1697 3084 1428 2787 
Q 1159 2491 1159 1978 
L 1159 0 
L 581 0 
L 581 3500 
L 1159 3500 
L 1159 2956 
Q 1366 3272 1645 3428 
Q 1925 3584 2291 3584 
Q 2894 3584 3203 3211 
Q 3513 2838 3513 2113 
z
" transform="scale(0.015625)"/>
       <path id="DejaVuSans-20" transform="scale(0.015625)"/>
       <path id="DejaVuSans-6c" d="M 603 4863 
L 1178 4863 
L 1178 0 
L 603 0 
L 603 4863 
z
" transform="scale(0.015625)"/>
       <path id="DejaVuSans-73" d="M 2834 3397 
L 2834 2853 
Q 2591 2978 2328 3040 
Q 2066 3103 1784 3103 
Q 1356 3103 1142 2972 
Q 928 2841 928 2578 
Q 928 2378 1081 2264 
Q 1234 2150 1697 2047 
L 1894 2003 
Q 2506 1872 2764 1633 
Q 3022 1394 3022 966 
Q 3022 478 2636 193 
Q 2250 -91 1575 -91 
Q 1294 -91 989 -36 
Q 684 19 347 128 
L 347 722 
Q 666 556 975 473 
Q 1284 391 1588 391 
Q 1994 391 2212 530 
Q 2431 669 2431 922 
Q 2431 1156 2273 1281 
Q 2116 1406 1581 1522 
L 1381 1569 
Q 847 1681 609 1914 
Q 372 2147 372 2553 
Q 372 3047 722 3315 
Q 1072 3584 1716 3584 
Q 2034 3584 2315 3537 
Q 2597 3491 2834 3397 
z
" transform="scale(0.015625)"/>
      </defs>
      <use xlink:href="#DejaVuSans-74"/>
      <use xlink:href="#DejaVuSans-72" x="39.208984"/>
      <use xlink:href="#DejaVuSans-61" x="80.322266"/>
      <use xlink:href="#DejaVuSans-69" x="141.601562"/>
      <use xlink:href="#DejaVuSans-6e" x="169.384766"/>
      <use xlink:href="#DejaVuSans-20" x="232.763672"/>
      <use xlink:href="#DejaVuSans-6c" x="264.550781"/>
      <use xlink:href="#DejaVuSans-6f" x="292.333984"/>
      <use xlink:href="#DejaVuSans-73" x="353.515625"/>
      <use xlink:href="#DejaVuSans-73" x="405.615234"/>
     </g>
    </g>
    <g id="line2d_23">
     <path d="M 142.634375 34.976562 
L 152.634375 34.976562 
L 162.634375 34.976562 
" style="fill: none; stroke-dasharray: 5.55,2.4; stroke-dashoffset: 0; stroke: #bf00bf; stroke-width: 1.5"/>
    </g>
    <g id="text_12">
     <!-- train acc -->
     <g transform="translate(170.634375 38.476562) scale(0.1 -0.1)">
      <use xlink:href="#DejaVuSans-74"/>
      <use xlink:href="#DejaVuSans-72" x="39.208984"/>
      <use xlink:href="#DejaVuSans-61" x="80.322266"/>
      <use xlink:href="#DejaVuSans-69" x="141.601562"/>
      <use xlink:href="#DejaVuSans-6e" x="169.384766"/>
      <use xlink:href="#DejaVuSans-20" x="232.763672"/>
      <use xlink:href="#DejaVuSans-61" x="264.550781"/>
      <use xlink:href="#DejaVuSans-63" x="325.830078"/>
      <use xlink:href="#DejaVuSans-63" x="380.810547"/>
     </g>
    </g>
   </g>
  </g>
 </g>
 <defs>
  <clipPath id="p6afbc3c072">
   <rect x="30.103125" y="7.2" width="195.3" height="138.6"/>
  </clipPath>
 </defs>
</svg>
