<?xml version="1.0" encoding="utf-8" standalone="no"?>
<!DOCTYPE svg PUBLIC "-//W3C//DTD SVG 1.1//EN"
  "http://www.w3.org/Graphics/SVG/1.1/DTD/svg11.dtd">
<svg xmlns:xlink="http://www.w3.org/1999/xlink" width="406.885938pt" height="211.07625pt" viewBox="0 0 406.885938 211.07625" xmlns="http://www.w3.org/2000/svg" version="1.1">
 <metadata>
  <rdf:RDF xmlns:dc="http://purl.org/dc/elements/1.1/" xmlns:cc="http://creativecommons.org/ns#" xmlns:rdf="http://www.w3.org/1999/02/22-rdf-syntax-ns#">
   <cc:Work>
    <dc:type rdf:resource="http://purl.org/dc/dcmitype/StillImage"/>
    <dc:date>2025-06-01T16:30:27.110276</dc:date>
    <dc:format>image/svg+xml</dc:format>
    <dc:creator>
     <cc:Agent>
      <dc:title>Matplotlib v3.7.2, https://matplotlib.org/</dc:title>
     </cc:Agent>
    </dc:creator>
   </cc:Work>
  </rdf:RDF>
 </metadata>
 <defs>
  <style type="text/css">*{stroke-linejoin: round; stroke-linecap: butt}</style>
 </defs>
 <g id="figure_1">
  <g id="patch_1">
   <path d="M 0 211.07625 
L 406.885938 211.07625 
L 406.885938 0 
L 0 0 
z
" style="fill: #ffffff"/>
  </g>
  <g id="axes_1">
   <g id="patch_2">
    <path d="M 52.160938 173.52 
L 386.960938 173.52 
L 386.960938 7.2 
L 52.160938 7.2 
z
" style="fill: #ffffff"/>
   </g>
   <g id="matplotlib.axis_1">
    <g id="xtick_1">
     <g id="line2d_1">
      <path d="M 118.852829 173.52 
L 118.852829 7.2 
" clip-path="url(#p557c35164c)" style="fill: none; stroke: #b0b0b0; stroke-width: 0.8; stroke-linecap: square"/>
     </g>
     <g id="line2d_2">
      <defs>
       <path id="m10d9924237" d="M 0 0 
L 0 3.5 
" style="stroke: #000000; stroke-width: 0.8"/>
      </defs>
      <g>
       <use xlink:href="#m10d9924237" x="118.852829" y="173.52" style="stroke: #000000; stroke-width: 0.8"/>
      </g>
     </g>
     <g id="text_1">
      <!-- 200 -->
      <g transform="translate(109.309079 188.118438) scale(0.1 -0.1)">
       <defs>
        <path id="DejaVuSans-32" d="M 1228 531 
L 3431 531 
L 3431 0 
L 469 0 
L 469 531 
Q 828 903 1448 1529 
Q 2069 2156 2228 2338 
Q 2531 2678 2651 2914 
Q 2772 3150 2772 3378 
Q 2772 3750 2511 3984 
Q 2250 4219 1831 4219 
Q 1534 4219 1204 4116 
Q 875 4013 500 3803 
L 500 4441 
Q 881 4594 1212 4672 
Q 1544 4750 1819 4750 
Q 2544 4750 2975 4387 
Q 3406 4025 3406 3419 
Q 3406 3131 3298 2873 
Q 3191 2616 2906 2266 
Q 2828 2175 2409 1742 
Q 1991 1309 1228 531 
z
" transform="scale(0.015625)"/>
        <path id="DejaVuSans-30" d="M 2034 4250 
Q 1547 4250 1301 3770 
Q 1056 3291 1056 2328 
Q 1056 1369 1301 889 
Q 1547 409 2034 409 
Q 2525 409 2770 889 
Q 3016 1369 3016 2328 
Q 3016 3291 2770 3770 
Q 2525 4250 2034 4250 
z
M 2034 4750 
Q 2819 4750 3233 4129 
Q 3647 3509 3647 2328 
Q 3647 1150 3233 529 
Q 2819 -91 2034 -91 
Q 1250 -91 836 529 
Q 422 1150 422 2328 
Q 422 3509 836 4129 
Q 1250 4750 2034 4750 
z
" transform="scale(0.015625)"/>
       </defs>
       <use xlink:href="#DejaVuSans-32"/>
       <use xlink:href="#DejaVuSans-30" x="63.623047"/>
       <use xlink:href="#DejaVuSans-30" x="127.246094"/>
      </g>
     </g>
    </g>
    <g id="xtick_2">
     <g id="line2d_3">
      <path d="M 185.879856 173.52 
L 185.879856 7.2 
" clip-path="url(#p557c35164c)" style="fill: none; stroke: #b0b0b0; stroke-width: 0.8; stroke-linecap: square"/>
     </g>
     <g id="line2d_4">
      <g>
       <use xlink:href="#m10d9924237" x="185.879856" y="173.52" style="stroke: #000000; stroke-width: 0.8"/>
      </g>
     </g>
     <g id="text_2">
      <!-- 400 -->
      <g transform="translate(176.336106 188.118438) scale(0.1 -0.1)">
       <defs>
        <path id="DejaVuSans-34" d="M 2419 4116 
L 825 1625 
L 2419 1625 
L 2419 4116 
z
M 2253 4666 
L 3047 4666 
L 3047 1625 
L 3713 1625 
L 3713 1100 
L 3047 1100 
L 3047 0 
L 2419 0 
L 2419 1100 
L 313 1100 
L 313 1709 
L 2253 4666 
z
" transform="scale(0.015625)"/>
       </defs>
       <use xlink:href="#DejaVuSans-34"/>
       <use xlink:href="#DejaVuSans-30" x="63.623047"/>
       <use xlink:href="#DejaVuSans-30" x="127.246094"/>
      </g>
     </g>
    </g>
    <g id="xtick_3">
     <g id="line2d_5">
      <path d="M 252.906883 173.52 
L 252.906883 7.2 
" clip-path="url(#p557c35164c)" style="fill: none; stroke: #b0b0b0; stroke-width: 0.8; stroke-linecap: square"/>
     </g>
     <g id="line2d_6">
      <g>
       <use xlink:href="#m10d9924237" x="252.906883" y="173.52" style="stroke: #000000; stroke-width: 0.8"/>
      </g>
     </g>
     <g id="text_3">
      <!-- 600 -->
      <g transform="translate(243.363133 188.118438) scale(0.1 -0.1)">
       <defs>
        <path id="DejaVuSans-36" d="M 2113 2584 
Q 1688 2584 1439 2293 
Q 1191 2003 1191 1497 
Q 1191 994 1439 701 
Q 1688 409 2113 409 
Q 2538 409 2786 701 
Q 3034 994 3034 1497 
Q 3034 2003 2786 2293 
Q 2538 2584 2113 2584 
z
M 3366 4563 
L 3366 3988 
Q 3128 4100 2886 4159 
Q 2644 4219 2406 4219 
Q 1781 4219 1451 3797 
Q 1122 3375 1075 2522 
Q 1259 2794 1537 2939 
Q 1816 3084 2150 3084 
Q 2853 3084 3261 2657 
Q 3669 2231 3669 1497 
Q 3669 778 3244 343 
Q 2819 -91 2113 -91 
Q 1303 -91 875 529 
Q 447 1150 447 2328 
Q 447 3434 972 4092 
Q 1497 4750 2381 4750 
Q 2619 4750 2861 4703 
Q 3103 4656 3366 4563 
z
" transform="scale(0.015625)"/>
       </defs>
       <use xlink:href="#DejaVuSans-36"/>
       <use xlink:href="#DejaVuSans-30" x="63.623047"/>
       <use xlink:href="#DejaVuSans-30" x="127.246094"/>
      </g>
     </g>
    </g>
    <g id="xtick_4">
     <g id="line2d_7">
      <path d="M 319.93391 173.52 
L 319.93391 7.2 
" clip-path="url(#p557c35164c)" style="fill: none; stroke: #b0b0b0; stroke-width: 0.8; stroke-linecap: square"/>
     </g>
     <g id="line2d_8">
      <g>
       <use xlink:href="#m10d9924237" x="319.93391" y="173.52" style="stroke: #000000; stroke-width: 0.8"/>
      </g>
     </g>
     <g id="text_4">
      <!-- 800 -->
      <g transform="translate(310.39016 188.118438) scale(0.1 -0.1)">
       <defs>
        <path id="DejaVuSans-38" d="M 2034 2216 
Q 1584 2216 1326 1975 
Q 1069 1734 1069 1313 
Q 1069 891 1326 650 
Q 1584 409 2034 409 
Q 2484 409 2743 651 
Q 3003 894 3003 1313 
Q 3003 1734 2745 1975 
Q 2488 2216 2034 2216 
z
M 1403 2484 
Q 997 2584 770 2862 
Q 544 3141 544 3541 
Q 544 4100 942 4425 
Q 1341 4750 2034 4750 
Q 2731 4750 3128 4425 
Q 3525 4100 3525 3541 
Q 3525 3141 3298 2862 
Q 3072 2584 2669 2484 
Q 3125 2378 3379 2068 
Q 3634 1759 3634 1313 
Q 3634 634 3220 271 
Q 2806 -91 2034 -91 
Q 1263 -91 848 271 
Q 434 634 434 1313 
Q 434 1759 690 2068 
Q 947 2378 1403 2484 
z
M 1172 3481 
Q 1172 3119 1398 2916 
Q 1625 2713 2034 2713 
Q 2441 2713 2670 2916 
Q 2900 3119 2900 3481 
Q 2900 3844 2670 4047 
Q 2441 4250 2034 4250 
Q 1625 4250 1398 4047 
Q 1172 3844 1172 3481 
z
" transform="scale(0.015625)"/>
       </defs>
       <use xlink:href="#DejaVuSans-38"/>
       <use xlink:href="#DejaVuSans-30" x="63.623047"/>
       <use xlink:href="#DejaVuSans-30" x="127.246094"/>
      </g>
     </g>
    </g>
    <g id="xtick_5">
     <g id="line2d_9">
      <path d="M 386.960938 173.52 
L 386.960938 7.2 
" clip-path="url(#p557c35164c)" style="fill: none; stroke: #b0b0b0; stroke-width: 0.8; stroke-linecap: square"/>
     </g>
     <g id="line2d_10">
      <g>
       <use xlink:href="#m10d9924237" x="386.960938" y="173.52" style="stroke: #000000; stroke-width: 0.8"/>
      </g>
     </g>
     <g id="text_5">
      <!-- 1000 -->
      <g transform="translate(374.235937 188.118438) scale(0.1 -0.1)">
       <defs>
        <path id="DejaVuSans-31" d="M 794 531 
L 1825 531 
L 1825 4091 
L 703 3866 
L 703 4441 
L 1819 4666 
L 2450 4666 
L 2450 531 
L 3481 531 
L 3481 0 
L 794 0 
L 794 531 
z
" transform="scale(0.015625)"/>
       </defs>
       <use xlink:href="#DejaVuSans-31"/>
       <use xlink:href="#DejaVuSans-30" x="63.623047"/>
       <use xlink:href="#DejaVuSans-30" x="127.246094"/>
       <use xlink:href="#DejaVuSans-30" x="190.869141"/>
      </g>
     </g>
    </g>
    <g id="text_6">
     <!-- time -->
     <g transform="translate(208.264844 201.796563) scale(0.1 -0.1)">
      <defs>
       <path id="DejaVuSans-74" d="M 1172 4494 
L 1172 3500 
L 2356 3500 
L 2356 3053 
L 1172 3053 
L 1172 1153 
Q 1172 725 1289 603 
Q 1406 481 1766 481 
L 2356 481 
L 2356 0 
L 1766 0 
Q 1100 0 847 248 
Q 594 497 594 1153 
L 594 3053 
L 172 3053 
L 172 3500 
L 594 3500 
L 594 4494 
L 1172 4494 
z
" transform="scale(0.015625)"/>
       <path id="DejaVuSans-69" d="M 603 3500 
L 1178 3500 
L 1178 0 
L 603 0 
L 603 3500 
z
M 603 4863 
L 1178 4863 
L 1178 4134 
L 603 4134 
L 603 4863 
z
" transform="scale(0.015625)"/>
       <path id="DejaVuSans-6d" d="M 3328 2828 
Q 3544 3216 3844 3400 
Q 4144 3584 4550 3584 
Q 5097 3584 5394 3201 
Q 5691 2819 5691 2113 
L 5691 0 
L 5113 0 
L 5113 2094 
Q 5113 2597 4934 2840 
Q 4756 3084 4391 3084 
Q 3944 3084 3684 2787 
Q 3425 2491 3425 1978 
L 3425 0 
L 2847 0 
L 2847 2094 
Q 2847 2600 2669 2842 
Q 2491 3084 2119 3084 
Q 1678 3084 1418 2786 
Q 1159 2488 1159 1978 
L 1159 0 
L 581 0 
L 581 3500 
L 1159 3500 
L 1159 2956 
Q 1356 3278 1631 3431 
Q 1906 3584 2284 3584 
Q 2666 3584 2933 3390 
Q 3200 3197 3328 2828 
z
" transform="scale(0.015625)"/>
       <path id="DejaVuSans-65" d="M 3597 1894 
L 3597 1613 
L 953 1613 
Q 991 1019 1311 708 
Q 1631 397 2203 397 
Q 2534 397 2845 478 
Q 3156 559 3463 722 
L 3463 178 
Q 3153 47 2828 -22 
Q 2503 -91 2169 -91 
Q 1331 -91 842 396 
Q 353 884 353 1716 
Q 353 2575 817 3079 
Q 1281 3584 2069 3584 
Q 2775 3584 3186 3129 
Q 3597 2675 3597 1894 
z
M 3022 2063 
Q 3016 2534 2758 2815 
Q 2500 3097 2075 3097 
Q 1594 3097 1305 2825 
Q 1016 2553 972 2059 
L 3022 2063 
z
" transform="scale(0.015625)"/>
      </defs>
      <use xlink:href="#DejaVuSans-74"/>
      <use xlink:href="#DejaVuSans-69" x="39.208984"/>
      <use xlink:href="#DejaVuSans-6d" x="66.992188"/>
      <use xlink:href="#DejaVuSans-65" x="164.404297"/>
     </g>
    </g>
   </g>
   <g id="matplotlib.axis_2">
    <g id="ytick_1">
     <g id="line2d_11">
      <path d="M 52.160938 167.322659 
L 386.960938 167.322659 
" clip-path="url(#p557c35164c)" style="fill: none; stroke: #b0b0b0; stroke-width: 0.8; stroke-linecap: square"/>
     </g>
     <g id="line2d_12">
      <defs>
       <path id="mc3dc379a7c" d="M 0 0 
L -3.5 0 
" style="stroke: #000000; stroke-width: 0.8"/>
      </defs>
      <g>
       <use xlink:href="#mc3dc379a7c" x="52.160938" y="167.322659" style="stroke: #000000; stroke-width: 0.8"/>
      </g>
     </g>
     <g id="text_7">
      <!-- −1.5 -->
      <g transform="translate(20.878125 171.121878) scale(0.1 -0.1)">
       <defs>
        <path id="DejaVuSans-2212" d="M 678 2272 
L 4684 2272 
L 4684 1741 
L 678 1741 
L 678 2272 
z
" transform="scale(0.015625)"/>
        <path id="DejaVuSans-2e" d="M 684 794 
L 1344 794 
L 1344 0 
L 684 0 
L 684 794 
z
" transform="scale(0.015625)"/>
        <path id="DejaVuSans-35" d="M 691 4666 
L 3169 4666 
L 3169 4134 
L 1269 4134 
L 1269 2991 
Q 1406 3038 1543 3061 
Q 1681 3084 1819 3084 
Q 2600 3084 3056 2656 
Q 3513 2228 3513 1497 
Q 3513 744 3044 326 
Q 2575 -91 1722 -91 
Q 1428 -91 1123 -41 
Q 819 9 494 109 
L 494 744 
Q 775 591 1075 516 
Q 1375 441 1709 441 
Q 2250 441 2565 725 
Q 2881 1009 2881 1497 
Q 2881 1984 2565 2268 
Q 2250 2553 1709 2553 
Q 1456 2553 1204 2497 
Q 953 2441 691 2322 
L 691 4666 
z
" transform="scale(0.015625)"/>
       </defs>
       <use xlink:href="#DejaVuSans-2212"/>
       <use xlink:href="#DejaVuSans-31" x="83.789062"/>
       <use xlink:href="#DejaVuSans-2e" x="147.412109"/>
       <use xlink:href="#DejaVuSans-35" x="179.199219"/>
      </g>
     </g>
    </g>
    <g id="ytick_2">
     <g id="line2d_13">
      <path d="M 52.160938 142.69153 
L 386.960938 142.69153 
" clip-path="url(#p557c35164c)" style="fill: none; stroke: #b0b0b0; stroke-width: 0.8; stroke-linecap: square"/>
     </g>
     <g id="line2d_14">
      <g>
       <use xlink:href="#mc3dc379a7c" x="52.160938" y="142.69153" style="stroke: #000000; stroke-width: 0.8"/>
      </g>
     </g>
     <g id="text_8">
      <!-- −1.0 -->
      <g transform="translate(20.878125 146.490749) scale(0.1 -0.1)">
       <use xlink:href="#DejaVuSans-2212"/>
       <use xlink:href="#DejaVuSans-31" x="83.789062"/>
       <use xlink:href="#DejaVuSans-2e" x="147.412109"/>
       <use xlink:href="#DejaVuSans-30" x="179.199219"/>
      </g>
     </g>
    </g>
    <g id="ytick_3">
     <g id="line2d_15">
      <path d="M 52.160938 118.060401 
L 386.960938 118.060401 
" clip-path="url(#p557c35164c)" style="fill: none; stroke: #b0b0b0; stroke-width: 0.8; stroke-linecap: square"/>
     </g>
     <g id="line2d_16">
      <g>
       <use xlink:href="#mc3dc379a7c" x="52.160938" y="118.060401" style="stroke: #000000; stroke-width: 0.8"/>
      </g>
     </g>
     <g id="text_9">
      <!-- −0.5 -->
      <g transform="translate(20.878125 121.85962) scale(0.1 -0.1)">
       <use xlink:href="#DejaVuSans-2212"/>
       <use xlink:href="#DejaVuSans-30" x="83.789062"/>
       <use xlink:href="#DejaVuSans-2e" x="147.412109"/>
       <use xlink:href="#DejaVuSans-35" x="179.199219"/>
      </g>
     </g>
    </g>
    <g id="ytick_4">
     <g id="line2d_17">
      <path d="M 52.160938 93.429272 
L 386.960938 93.429272 
" clip-path="url(#p557c35164c)" style="fill: none; stroke: #b0b0b0; stroke-width: 0.8; stroke-linecap: square"/>
     </g>
     <g id="line2d_18">
      <g>
       <use xlink:href="#mc3dc379a7c" x="52.160938" y="93.429272" style="stroke: #000000; stroke-width: 0.8"/>
      </g>
     </g>
     <g id="text_10">
      <!-- 0.0 -->
      <g transform="translate(29.257812 97.228491) scale(0.1 -0.1)">
       <use xlink:href="#DejaVuSans-30"/>
       <use xlink:href="#DejaVuSans-2e" x="63.623047"/>
       <use xlink:href="#DejaVuSans-30" x="95.410156"/>
      </g>
     </g>
    </g>
    <g id="ytick_5">
     <g id="line2d_19">
      <path d="M 52.160938 68.798143 
L 386.960938 68.798143 
" clip-path="url(#p557c35164c)" style="fill: none; stroke: #b0b0b0; stroke-width: 0.8; stroke-linecap: square"/>
     </g>
     <g id="line2d_20">
      <g>
       <use xlink:href="#mc3dc379a7c" x="52.160938" y="68.798143" style="stroke: #000000; stroke-width: 0.8"/>
      </g>
     </g>
     <g id="text_11">
      <!-- 0.5 -->
      <g transform="translate(29.257812 72.597362) scale(0.1 -0.1)">
       <use xlink:href="#DejaVuSans-30"/>
       <use xlink:href="#DejaVuSans-2e" x="63.623047"/>
       <use xlink:href="#DejaVuSans-35" x="95.410156"/>
      </g>
     </g>
    </g>
    <g id="ytick_6">
     <g id="line2d_21">
      <path d="M 52.160938 44.167014 
L 386.960938 44.167014 
" clip-path="url(#p557c35164c)" style="fill: none; stroke: #b0b0b0; stroke-width: 0.8; stroke-linecap: square"/>
     </g>
     <g id="line2d_22">
      <g>
       <use xlink:href="#mc3dc379a7c" x="52.160938" y="44.167014" style="stroke: #000000; stroke-width: 0.8"/>
      </g>
     </g>
     <g id="text_12">
      <!-- 1.0 -->
      <g transform="translate(29.257812 47.966232) scale(0.1 -0.1)">
       <use xlink:href="#DejaVuSans-31"/>
       <use xlink:href="#DejaVuSans-2e" x="63.623047"/>
       <use xlink:href="#DejaVuSans-30" x="95.410156"/>
      </g>
     </g>
    </g>
    <g id="ytick_7">
     <g id="line2d_23">
      <path d="M 52.160938 19.535885 
L 386.960938 19.535885 
" clip-path="url(#p557c35164c)" style="fill: none; stroke: #b0b0b0; stroke-width: 0.8; stroke-linecap: square"/>
     </g>
     <g id="line2d_24">
      <g>
       <use xlink:href="#mc3dc379a7c" x="52.160938" y="19.535885" style="stroke: #000000; stroke-width: 0.8"/>
      </g>
     </g>
     <g id="text_13">
      <!-- 1.5 -->
      <g transform="translate(29.257812 23.335103) scale(0.1 -0.1)">
       <use xlink:href="#DejaVuSans-31"/>
       <use xlink:href="#DejaVuSans-2e" x="63.623047"/>
       <use xlink:href="#DejaVuSans-35" x="95.410156"/>
      </g>
     </g>
    </g>
    <g id="text_14">
     <!-- x -->
     <g transform="translate(14.798438 93.319375) rotate(-90) scale(0.1 -0.1)">
      <defs>
       <path id="DejaVuSans-78" d="M 3513 3500 
L 2247 1797 
L 3578 0 
L 2900 0 
L 1881 1375 
L 863 0 
L 184 0 
L 1544 1831 
L 300 3500 
L 978 3500 
L 1906 2253 
L 2834 3500 
L 3513 3500 
z
" transform="scale(0.015625)"/>
      </defs>
      <use xlink:href="#DejaVuSans-78"/>
     </g>
    </g>
   </g>
   <g id="line2d_25">
    <path d="M 52.160938 88.55462 
L 52.496073 111.101038 
L 52.831208 84.244074 
L 53.166343 102.721095 
L 54.171748 81.350584 
L 54.506883 75.238448 
L 54.842019 87.687628 
L 55.177154 89.692147 
L 55.512289 68.626871 
L 55.847424 95.712639 
L 56.182559 83.938674 
L 56.517694 67.603138 
L 56.852829 84.818503 
L 57.187965 92.218572 
L 57.5231 76.794483 
L 57.858235 77.194369 
L 58.19337 68.320411 
L 58.528505 91.10488 
L 58.86364 83.442973 
L 59.198775 83.084583 
L 59.53391 92.235988 
L 59.869046 92.250219 
L 60.204181 58.373882 
L 60.539316 67.046003 
L 60.874451 86.197744 
L 61.209586 79.417912 
L 61.544721 90.238826 
L 61.879856 85.106997 
L 62.214992 57.890635 
L 62.550127 71.79518 
L 62.885262 68.73171 
L 63.220397 75.826572 
L 63.555532 60.049972 
L 63.890667 78.411641 
L 64.225802 64.03605 
L 64.896073 88.76732 
L 65.231208 68.147048 
L 65.566343 66.473139 
L 65.901478 76.107925 
L 66.236613 80.07708 
L 66.571748 65.570777 
L 66.906883 77.868266 
L 67.242019 77.113198 
L 67.577154 60.878825 
L 67.912289 85.494044 
L 68.247424 74.801105 
L 68.582559 52.047044 
L 68.917694 64.436324 
L 69.252829 87.688207 
L 69.587965 101.139196 
L 70.258235 65.464596 
L 70.59337 84.504014 
L 70.928505 67.09604 
L 71.26364 99.306788 
L 71.598775 69.741164 
L 71.93391 59.953448 
L 72.269046 92.931112 
L 72.604181 57.023267 
L 72.939316 59.410654 
L 73.274451 80.218006 
L 73.944721 57.592273 
L 74.279856 58.138649 
L 74.614992 61.962748 
L 75.285262 46.162249 
L 75.620397 62.880461 
L 75.955532 53.452364 
L 76.290667 67.128095 
L 76.625802 54.457026 
L 76.960938 72.548112 
L 77.296073 47.531092 
L 77.631208 61.165806 
L 77.966343 61.723537 
L 78.301478 43.223952 
L 78.636613 54.889543 
L 78.971748 61.153354 
L 79.306883 57.722875 
L 79.642019 63.154743 
L 79.977154 50.935365 
L 80.312289 44.711578 
L 80.647424 65.087888 
L 80.982559 59.875379 
L 81.317694 34.249627 
L 81.652829 56.713142 
L 81.987965 32.09335 
L 82.3231 58.551161 
L 82.658235 52.864449 
L 82.99337 44.05459 
L 83.328505 53.387394 
L 83.66364 53.921928 
L 83.998775 32.823292 
L 84.33391 51.615018 
L 84.669046 59.629262 
L 85.004181 46.918941 
L 85.339316 45.260911 
L 85.674451 47.743947 
L 86.009586 54.777155 
L 86.344721 46.246009 
L 87.014992 60.366157 
L 87.350127 52.013906 
L 87.685262 53.849617 
L 88.020397 32.776171 
L 88.355532 54.208037 
L 88.690667 62.127751 
L 89.360938 41.874829 
L 89.696073 53.77478 
L 90.031208 41.784785 
L 90.701478 64.930132 
L 91.036613 45.432512 
L 91.371748 48.024642 
L 91.706883 33.932811 
L 92.042019 45.972323 
L 92.377154 47.719415 
L 92.712289 36.719368 
L 93.047424 42.861283 
L 93.382559 28.771959 
L 93.717694 34.26405 
L 94.052829 34.4063 
L 94.387965 69.963419 
L 95.058235 49.039575 
L 95.39337 64.727263 
L 96.06364 51.343663 
L 96.398775 23.959401 
L 96.73391 46.558474 
L 97.069046 52.079546 
L 97.404181 79.993912 
L 97.739316 54.26878 
L 98.074451 45.789282 
L 98.409586 43.093793 
L 98.744721 56.560586 
L 99.079856 45.19607 
L 99.414992 47.050761 
L 99.750127 52.989707 
L 100.085262 49.339367 
L 100.420397 28.843199 
L 100.755532 33.41028 
L 101.090667 35.109822 
L 101.425802 59.336029 
L 101.760938 43.809278 
L 102.096073 39.432348 
L 102.431208 49.766396 
L 102.766343 30.518599 
L 103.101478 39.799351 
L 103.436613 42.639002 
L 103.771748 63.749926 
L 104.106883 38.441649 
L 104.442019 36.858594 
L 104.777154 36.209492 
L 105.112289 47.518046 
L 105.447424 50.967969 
L 105.782559 41.005496 
L 106.117694 38.869373 
L 106.452829 59.620518 
L 106.787965 40.433395 
L 107.1231 46.9872 
L 107.458235 39.869493 
L 107.79337 47.858761 
L 108.128505 46.507494 
L 108.46364 33.740451 
L 108.798775 40.690947 
L 109.13391 34.410863 
L 109.469046 47.658088 
L 109.804181 54.999251 
L 110.139316 14.76 
L 110.474451 68.056679 
L 110.809586 50.662434 
L 111.144721 46.131392 
L 111.479856 36.307646 
L 111.814992 56.404673 
L 112.150127 50.88507 
L 112.485262 53.411119 
L 112.820397 57.447692 
L 113.155532 36.514388 
L 113.490667 29.024031 
L 113.825802 62.816151 
L 114.160938 48.312152 
L 114.831208 49.975645 
L 115.166343 47.336033 
L 115.836613 60.428021 
L 116.171748 40.020152 
L 116.506883 50.506195 
L 116.842019 31.286648 
L 117.177154 52.530984 
L 117.512289 43.856839 
L 117.847424 51.232887 
L 118.182559 48.683806 
L 118.852829 41.588262 
L 119.187965 62.208584 
L 119.5231 53.568599 
L 119.858235 49.419873 
L 120.19337 52.209123 
L 120.528505 43.596822 
L 120.86364 40.869412 
L 121.198775 27.877533 
L 121.53391 48.892697 
L 121.869046 52.675451 
L 122.204181 35.120974 
L 122.874451 49.091044 
L 123.209586 49.374581 
L 123.544721 58.770327 
L 123.879856 54.445886 
L 124.214992 43.934104 
L 124.550127 45.193909 
L 124.885262 64.470998 
L 125.220397 50.829474 
L 125.555532 50.268352 
L 125.890667 56.687791 
L 126.560938 36.992152 
L 126.896073 46.503231 
L 127.231208 69.137034 
L 127.566343 62.902501 
L 127.901478 70.706386 
L 128.236613 54.092263 
L 128.571748 46.87704 
L 128.906883 46.405553 
L 129.242019 57.162014 
L 129.577154 49.861915 
L 129.912289 62.551932 
L 130.247424 37.885903 
L 130.582559 62.410686 
L 130.917694 66.674878 
L 131.252829 58.936366 
L 131.587965 57.58889 
L 131.9231 47.278133 
L 132.258235 49.635603 
L 132.59337 69.804064 
L 133.26364 60.340386 
L 133.598775 70.891272 
L 133.93391 74.109645 
L 134.269046 75.240437 
L 134.604181 62.21004 
L 134.939316 53.983913 
L 135.274451 69.564076 
L 135.609586 52.055794 
L 135.944721 48.500842 
L 136.279856 65.060845 
L 136.950127 61.785058 
L 137.285262 71.644321 
L 137.620397 65.52086 
L 137.955532 79.615336 
L 138.290667 71.675793 
L 138.625802 48.549622 
L 138.960938 48.763889 
L 139.631208 76.68257 
L 139.966343 78.520057 
L 140.301478 73.617321 
L 140.636613 81.247806 
L 140.971748 75.655135 
L 141.306883 80.700957 
L 141.642019 62.440184 
L 141.977154 78.106462 
L 142.312289 73.789677 
L 142.982559 88.497372 
L 143.317694 70.445349 
L 143.652829 71.419735 
L 143.987965 88.855368 
L 144.3231 67.663058 
L 144.658235 90.830239 
L 144.99337 91.287989 
L 145.328505 79.335422 
L 145.66364 73.915307 
L 145.998775 82.717721 
L 146.669046 74.478529 
L 147.004181 73.180516 
L 147.674451 77.862558 
L 148.009586 72.018685 
L 148.679856 86.160499 
L 149.014992 55.447377 
L 149.350127 84.75657 
L 149.685262 83.613316 
L 150.020397 69.560049 
L 150.690667 92.659562 
L 151.025802 94.381767 
L 151.360938 86.36736 
L 151.696073 82.382368 
L 152.031208 76.017298 
L 152.701478 90.282663 
L 153.036613 89.098944 
L 153.371748 86.743563 
L 153.706883 92.255817 
L 154.042019 102.923068 
L 154.377154 86.947142 
L 154.712289 83.102926 
L 155.047424 86.095507 
L 155.382559 97.532095 
L 155.717694 84.274922 
L 156.052829 86.017712 
L 156.387965 99.724101 
L 156.7231 87.456606 
L 157.058235 104.254633 
L 157.728505 89.063334 
L 158.06364 91.886988 
L 158.398775 92.164137 
L 158.73391 81.826576 
L 159.069046 108.633987 
L 159.404181 98.835041 
L 159.739316 101.334758 
L 160.074451 97.222625 
L 160.409586 72.022482 
L 160.744721 96.505273 
L 161.414992 90.010975 
L 161.750127 94.233465 
L 162.085262 115.744294 
L 162.420397 79.813978 
L 162.755532 111.78148 
L 163.090667 97.41416 
L 163.425802 96.922832 
L 163.760938 107.024131 
L 164.096073 98.133388 
L 164.431208 96.93502 
L 164.766343 97.981367 
L 165.101478 94.737495 
L 165.436613 122.816707 
L 165.771748 127.959964 
L 166.106883 117.733079 
L 166.442019 101.556025 
L 166.777154 113.018208 
L 167.112289 115.026733 
L 167.447424 124.473362 
L 167.782559 121.671016 
L 168.117694 123.523147 
L 168.452829 93.460802 
L 168.787965 105.13446 
L 169.1231 110.632044 
L 169.458235 98.422525 
L 169.79337 123.914486 
L 170.128505 100.936304 
L 170.46364 106.853201 
L 170.798775 121.104013 
L 171.13391 122.667847 
L 171.469046 121.920179 
L 171.804181 103.554328 
L 172.139316 100.838959 
L 172.474451 133.550887 
L 172.809586 119.481548 
L 173.144721 120.437218 
L 173.479856 115.723642 
L 173.814992 131.098156 
L 174.150127 131.995172 
L 174.820397 116.411691 
L 175.155532 116.880405 
L 175.490667 117.733054 
L 175.825802 108.609997 
L 176.160938 109.437356 
L 176.496073 129.887557 
L 177.166343 102.526759 
L 177.501478 132.63717 
L 177.836613 113.376609 
L 178.171748 129.995837 
L 178.506883 139.826628 
L 178.842019 126.748414 
L 179.177154 130.920131 
L 179.512289 123.731222 
L 179.847424 136.19148 
L 180.517694 118.395933 
L 180.852829 128.040389 
L 181.187965 128.727511 
L 181.5231 126.846573 
L 181.858235 128.513872 
L 182.19337 129.38755 
L 182.86364 120.360949 
L 183.198775 122.37901 
L 183.53391 109.937259 
L 183.869046 130.737126 
L 184.204181 134.600738 
L 184.539316 122.865913 
L 184.874451 133.691625 
L 185.209586 134.130378 
L 185.544721 121.327321 
L 185.879856 143.326796 
L 186.214992 131.896957 
L 186.550127 133.829242 
L 186.885262 132.251716 
L 187.220397 125.030605 
L 187.555532 133.464902 
L 187.890667 131.335171 
L 188.225802 139.510205 
L 188.560938 130.097796 
L 188.896073 135.388002 
L 189.231208 137.202237 
L 189.901478 116.536995 
L 190.236613 148.537176 
L 190.571748 129.346313 
L 190.906883 147.91311 
L 191.242019 130.582714 
L 191.577154 124.295005 
L 191.912289 131.450123 
L 192.247424 135.485107 
L 192.582559 165.96 
L 192.917694 150.694699 
L 193.252829 150.77036 
L 193.587965 121.192004 
L 193.9231 136.985876 
L 194.258235 125.054876 
L 194.59337 150.197766 
L 194.928505 132.817166 
L 195.26364 156.10293 
L 195.598775 144.550834 
L 195.93391 140.464404 
L 196.269046 133.273599 
L 196.604181 134.295443 
L 196.939316 142.83021 
L 197.274451 132.934613 
L 197.609586 146.883545 
L 197.944721 130.064276 
L 198.279856 156.084085 
L 198.614992 124.197045 
L 198.950127 143.109513 
L 199.285262 141.784878 
L 199.620397 122.431869 
L 199.955532 137.522213 
L 200.290667 146.92009 
L 200.625802 162.851664 
L 200.960938 149.152681 
L 201.296073 142.418499 
L 201.631208 145.499733 
L 201.966343 130.554895 
L 202.301478 148.920358 
L 202.636613 120.427502 
L 202.971748 147.268289 
L 203.306883 135.779015 
L 203.642019 163.190479 
L 203.977154 142.645211 
L 204.312289 151.913176 
L 204.647424 137.662287 
L 204.982559 134.988568 
L 205.317694 139.198653 
L 205.652829 140.215415 
L 205.987965 130.404926 
L 206.3231 148.524668 
L 206.658235 137.063819 
L 206.99337 145.859008 
L 207.328505 128.846979 
L 207.66364 147.223547 
L 207.998775 149.48806 
L 208.33391 138.127773 
L 208.669046 158.62156 
L 209.004181 139.534382 
L 209.339316 138.720239 
L 209.674451 144.524073 
L 210.344721 151.979617 
L 210.679856 129.909159 
L 211.014992 150.882619 
L 211.350127 147.19493 
L 211.685262 155.453394 
L 212.020397 126.278551 
L 212.355532 143.48812 
L 212.690667 152.330512 
L 213.025802 152.416733 
L 213.360938 139.806139 
L 213.696073 151.973075 
L 214.031208 130.691848 
L 214.366343 133.540038 
L 214.701478 137.561638 
L 215.036613 131.916163 
L 215.371748 141.095359 
L 215.706883 139.468475 
L 216.042019 135.377132 
L 216.377154 148.200564 
L 216.712289 136.214618 
L 217.382559 124.954577 
L 217.717694 141.308361 
L 218.052829 130.100148 
L 218.387965 138.868873 
L 218.7231 152.428542 
L 219.058235 140.027292 
L 219.39337 156.726263 
L 219.728505 146.078077 
L 220.06364 148.287524 
L 220.398775 116.112513 
L 220.73391 159.613375 
L 221.069046 152.199097 
L 221.404181 137.904911 
L 221.739316 134.582313 
L 222.409586 145.063558 
L 222.744721 133.180469 
L 223.079856 133.674762 
L 223.414992 141.156865 
L 223.750127 132.234095 
L 224.085262 131.039225 
L 224.420397 131.185146 
L 224.755532 128.341837 
L 225.090667 139.292096 
L 225.760938 106.21396 
L 226.096073 136.082618 
L 226.431208 142.170649 
L 226.766343 118.85483 
L 227.101478 149.282428 
L 227.771748 126.531636 
L 228.106883 152.48412 
L 228.442019 134.512359 
L 228.777154 137.571657 
L 229.112289 138.642552 
L 229.447424 123.951086 
L 229.782559 147.077333 
L 230.117694 119.966662 
L 230.452829 124.192655 
L 230.787965 131.45389 
L 231.1231 132.490792 
L 231.458235 132.25974 
L 231.79337 142.808963 
L 232.128505 124.810447 
L 232.46364 140.002016 
L 232.798775 149.476386 
L 233.13391 123.13111 
L 233.469046 124.534926 
L 233.804181 129.965377 
L 234.139316 146.079181 
L 234.474451 147.263627 
L 234.809586 121.057086 
L 235.144721 157.318342 
L 235.479856 121.443865 
L 236.150127 137.39547 
L 236.485262 115.62515 
L 236.820397 134.11841 
L 237.155532 125.32357 
L 237.490667 121.976144 
L 237.825802 93.082849 
L 238.160938 144.564828 
L 238.496073 135.21542 
L 238.831208 129.765335 
L 239.166343 128.64623 
L 239.501478 131.98419 
L 239.836613 112.468571 
L 240.171748 119.656869 
L 240.506883 137.206239 
L 240.842019 129.209757 
L 241.177154 134.321206 
L 241.512289 134.638407 
L 242.517694 108.195537 
L 242.852829 123.754959 
L 243.187965 127.645556 
L 243.5231 105.624487 
L 243.858235 104.677191 
L 244.86364 128.345014 
L 245.198775 130.628848 
L 245.53391 110.859797 
L 245.869046 125.223556 
L 246.204181 124.873498 
L 246.539316 115.928678 
L 246.874451 140.644 
L 247.209586 119.446641 
L 247.544721 114.313897 
L 247.879856 116.866677 
L 248.214992 118.342913 
L 248.550127 94.570079 
L 248.885262 95.826992 
L 249.220397 102.111836 
L 249.555532 113.932132 
L 249.890667 103.128633 
L 250.225802 121.311656 
L 250.560938 98.353975 
L 250.896073 122.670446 
L 251.231208 92.115547 
L 251.566343 100.353684 
L 251.901478 113.405738 
L 252.236613 108.350762 
L 252.571748 111.02259 
L 252.906883 111.742866 
L 253.242019 106.461172 
L 253.577154 115.226086 
L 254.247424 106.156874 
L 254.582559 112.167486 
L 254.917694 106.872887 
L 255.252829 87.648385 
L 255.587965 107.974786 
L 255.9231 106.501204 
L 256.258235 111.489499 
L 256.59337 78.116342 
L 256.928505 80.374898 
L 257.26364 87.626144 
L 257.598775 100.755436 
L 257.93391 91.145526 
L 258.269046 90.193186 
L 258.604181 102.150613 
L 258.939316 90.235573 
L 259.609586 98.988922 
L 259.944721 106.173017 
L 260.279856 82.222598 
L 260.614992 102.360005 
L 260.950127 100.310118 
L 261.285262 91.513901 
L 261.620397 93.889015 
L 261.955532 105.943141 
L 262.290667 84.120955 
L 262.625802 90.498522 
L 262.960938 84.756394 
L 263.296073 75.20263 
L 263.966343 108.559536 
L 264.301478 107.552421 
L 264.636613 90.921789 
L 264.971748 88.929128 
L 265.306883 75.83077 
L 265.642019 79.206073 
L 265.977154 93.290378 
L 266.312289 91.89627 
L 266.647424 84.868841 
L 266.982559 98.773471 
L 267.317694 87.431696 
L 267.652829 88.106129 
L 267.987965 93.499595 
L 268.3231 72.646357 
L 268.658235 72.330163 
L 268.99337 73.218828 
L 269.328505 83.913522 
L 269.66364 80.242974 
L 269.998775 103.347429 
L 270.33391 89.338871 
L 270.669046 93.632437 
L 271.004181 75.178152 
L 271.339316 80.71372 
L 271.674451 71.383581 
L 272.009586 74.009475 
L 272.344721 80.599856 
L 272.679856 80.635624 
L 273.014992 56.481486 
L 273.350127 87.405923 
L 273.685262 89.623542 
L 274.020397 68.141117 
L 274.690667 78.560926 
L 275.025802 74.470937 
L 275.360937 77.828591 
L 275.696073 72.593031 
L 276.031208 71.528139 
L 276.366343 68.286039 
L 276.701478 75.155525 
L 277.036613 79.346863 
L 277.371748 73.557128 
L 277.706883 91.707818 
L 278.042019 75.238307 
L 278.712289 62.862113 
L 279.047424 63.438882 
L 279.382559 57.46427 
L 279.717694 68.573134 
L 280.052829 53.602818 
L 280.387965 56.914666 
L 280.7231 73.992437 
L 281.058235 73.11329 
L 281.39337 51.103979 
L 281.728505 53.555283 
L 282.06364 58.387982 
L 282.398775 71.155231 
L 282.73391 71.689166 
L 283.069046 62.126222 
L 283.404181 59.796103 
L 283.739316 71.114499 
L 284.074451 73.059615 
L 284.409586 64.607922 
L 284.744721 81.811912 
L 285.079856 59.231842 
L 285.750127 64.802886 
L 286.085262 49.074105 
L 286.420397 68.740962 
L 286.755532 61.925196 
L 287.090667 76.028116 
L 287.425802 59.12813 
L 287.760938 55.33451 
L 288.096073 46.275427 
L 288.431208 44.863218 
L 288.766343 51.000685 
L 289.101478 44.706381 
L 289.436613 76.901489 
L 289.771748 51.31729 
L 290.106883 51.585036 
L 290.442019 40.031563 
L 290.777154 59.669421 
L 291.112289 37.829662 
L 291.447424 60.647524 
L 291.782559 56.535393 
L 292.117694 57.347856 
L 292.452829 67.579939 
L 292.787965 47.874018 
L 293.1231 37.042486 
L 293.458235 50.566929 
L 293.79337 49.60681 
L 294.128505 65.386603 
L 294.46364 43.476764 
L 294.798775 49.606637 
L 295.13391 37.915195 
L 295.469046 64.969055 
L 295.804181 48.21428 
L 296.139316 69.760892 
L 296.474451 54.075142 
L 296.809586 54.099296 
L 297.144721 47.167052 
L 297.479856 54.171863 
L 297.814992 67.447111 
L 298.150127 48.04386 
L 298.485262 50.320882 
L 298.820397 40.802883 
L 299.155532 44.492105 
L 299.490667 54.500201 
L 299.825802 34.219014 
L 300.160938 72.134714 
L 300.496073 26.018329 
L 300.831208 47.067791 
L 301.166343 54.890773 
L 301.501478 43.156295 
L 301.836613 49.57519 
L 302.171748 51.772416 
L 302.506883 50.762892 
L 302.842019 50.97531 
L 303.177154 50.78006 
L 303.512289 56.506424 
L 303.847424 34.987216 
L 304.182559 46.184826 
L 304.517694 35.183616 
L 304.852829 57.756055 
L 305.187965 66.671651 
L 305.5231 35.235488 
L 305.858235 51.465048 
L 306.19337 45.530965 
L 306.528505 35.6391 
L 307.198775 57.509218 
L 307.53391 48.749458 
L 307.869046 56.150217 
L 308.204181 33.582257 
L 308.539316 41.898148 
L 308.874451 28.929865 
L 309.209586 42.581416 
L 309.544721 45.696576 
L 309.879856 21.22172 
L 310.214992 38.222281 
L 310.550127 36.990232 
L 310.885262 45.125735 
L 311.220397 49.845842 
L 311.555532 46.911853 
L 311.890667 47.883584 
L 312.225802 51.014153 
L 312.560938 62.583785 
L 312.896073 38.111355 
L 313.566343 50.726359 
L 314.236613 30.695837 
L 314.571748 27.526092 
L 314.906883 36.195733 
L 315.242019 54.635427 
L 315.577154 53.49339 
L 315.912289 45.44631 
L 316.247424 33.427175 
L 316.582559 39.391605 
L 317.252829 39.617286 
L 317.587965 61.641263 
L 317.9231 59.240695 
L 318.258235 47.296124 
L 318.59337 51.713124 
L 318.928505 39.269333 
L 319.26364 52.061825 
L 319.598775 34.288474 
L 319.93391 41.808645 
L 320.269046 45.663819 
L 320.604181 43.879307 
L 320.939316 36.908651 
L 321.274451 37.643937 
L 321.609586 38.053733 
L 321.944721 37.27842 
L 322.279856 38.187233 
L 322.614992 43.256339 
L 323.285262 37.096947 
L 323.620397 40.394114 
L 323.955532 54.376044 
L 324.290667 39.155653 
L 324.625802 63.094706 
L 325.296073 36.947046 
L 325.966343 65.483129 
L 326.301478 61.503147 
L 326.971748 30.769285 
L 327.306883 48.522911 
L 327.642019 55.030991 
L 327.977154 49.124832 
L 328.312289 50.48802 
L 328.647424 36.71575 
L 328.982559 41.883514 
L 329.317694 36.676299 
L 329.652829 45.390471 
L 329.987965 67.114198 
L 330.3231 70.340629 
L 330.658235 63.460012 
L 330.99337 45.109853 
L 331.328505 51.666831 
L 331.66364 49.405027 
L 331.998775 58.051704 
L 332.33391 70.985063 
L 332.669046 42.737519 
L 333.004181 44.610489 
L 333.339316 44.191611 
L 334.009586 56.807684 
L 334.344721 54.761983 
L 334.679856 44.628415 
L 335.014992 40.157734 
L 335.350127 50.598071 
L 335.685262 40.197866 
L 336.020397 58.375861 
L 336.355532 56.288826 
L 336.690667 48.293001 
L 337.025802 58.074844 
L 337.360937 62.048804 
L 337.696073 54.815162 
L 338.031208 43.271948 
L 338.366343 64.743172 
L 338.701478 54.64808 
L 339.036613 59.939645 
L 339.371748 57.205741 
L 339.706883 51.832918 
L 340.042019 77.252064 
L 340.377154 75.863542 
L 340.712289 61.62526 
L 341.047424 41.267176 
L 341.382559 67.51264 
L 341.717694 73.447717 
L 342.052829 59.066924 
L 342.387965 63.178671 
L 342.7231 76.909769 
L 343.058235 62.122601 
L 343.39337 62.67625 
L 343.728505 73.550339 
L 344.06364 66.994525 
L 344.398775 69.705974 
L 345.069046 51.625171 
L 345.404181 62.583967 
L 345.739316 56.904169 
L 346.074451 35.565424 
L 346.409586 78.187856 
L 346.744721 66.482526 
L 347.079856 44.435617 
L 347.414992 63.97423 
L 347.750127 59.206693 
L 348.085262 84.702772 
L 348.420397 70.156616 
L 348.755532 73.916011 
L 349.090667 68.662626 
L 349.425802 68.002878 
L 349.760938 87.211186 
L 350.096073 62.522622 
L 350.431208 77.970477 
L 350.766343 77.274031 
L 351.101478 64.233214 
L 351.436613 64.58284 
L 351.771748 72.722819 
L 352.106883 63.994264 
L 353.112289 80.47572 
L 353.447424 90.43015 
L 353.782559 60.218366 
L 354.117694 65.416679 
L 354.452829 77.647111 
L 354.787965 57.085668 
L 355.1231 68.573795 
L 355.458235 75.394516 
L 355.79337 77.365327 
L 356.128505 87.245891 
L 356.46364 86.330686 
L 356.798775 77.19253 
L 357.13391 98.874095 
L 357.469046 81.926241 
L 357.804181 87.557053 
L 358.139316 83.697755 
L 358.474451 89.59776 
L 358.809586 62.935449 
L 359.479856 81.824261 
L 359.814992 99.59029 
L 360.150127 61.65445 
L 360.485262 83.161088 
L 360.820397 76.88969 
L 361.155532 88.349219 
L 361.490667 83.502923 
L 361.825802 90.885173 
L 362.160938 82.394143 
L 362.496073 94.024428 
L 362.831208 95.642477 
L 363.166343 71.47114 
L 363.501478 90.957818 
L 363.836613 90.169811 
L 364.171748 81.053809 
L 364.506883 90.686575 
L 364.842019 78.849731 
L 365.512289 102.530127 
L 365.847424 88.984712 
L 366.182559 93.948204 
L 366.517694 87.2053 
L 366.852829 97.531114 
L 367.187965 95.77171 
L 367.5231 106.046696 
L 368.19337 105.562251 
L 368.528505 99.979437 
L 368.86364 96.991865 
L 369.198775 92.044315 
L 369.53391 109.817286 
L 369.869046 93.054669 
L 370.204181 95.98919 
L 370.539316 100.162112 
L 370.874451 91.227226 
L 371.209586 94.466571 
L 371.879856 97.539158 
L 372.214992 94.832719 
L 372.550127 113.824909 
L 372.885262 122.669688 
L 373.220397 100.296015 
L 373.555532 91.326951 
L 373.890667 106.830361 
L 374.225802 96.431489 
L 374.560938 119.492867 
L 375.231208 96.216237 
L 375.566343 108.758446 
L 375.901478 107.784437 
L 376.236613 123.408974 
L 376.571748 99.327579 
L 376.906883 124.847042 
L 377.242019 130.309189 
L 377.577154 106.132641 
L 377.912289 91.93451 
L 378.582559 121.680879 
L 379.252829 90.904151 
L 379.587965 104.770706 
L 379.9231 109.673691 
L 380.258235 106.11688 
L 380.928505 103.985315 
L 381.26364 125.825157 
L 381.598775 115.638588 
L 381.93391 115.562638 
L 382.269046 125.292713 
L 382.604181 104.331253 
L 382.939316 126.453514 
L 383.274451 112.680882 
L 383.609586 123.75288 
L 383.944721 123.883808 
L 384.279856 116.774921 
L 384.950127 120.564387 
L 385.285262 109.81788 
L 385.620397 123.805897 
L 385.955532 119.571717 
L 386.290667 113.463829 
L 386.625802 114.813049 
L 386.960938 123.13384 
L 386.960938 123.13384 
" clip-path="url(#p557c35164c)" style="fill: none; stroke: #1f77b4; stroke-width: 1.5; stroke-linecap: square"/>
   </g>
   <g id="patch_3">
    <path d="M 52.160938 173.52 
L 52.160938 7.2 
" style="fill: none; stroke: #000000; stroke-width: 0.8; stroke-linejoin: miter; stroke-linecap: square"/>
   </g>
   <g id="patch_4">
    <path d="M 386.960938 173.52 
L 386.960938 7.2 
" style="fill: none; stroke: #000000; stroke-width: 0.8; stroke-linejoin: miter; stroke-linecap: square"/>
   </g>
   <g id="patch_5">
    <path d="M 52.160938 173.52 
L 386.960938 173.52 
" style="fill: none; stroke: #000000; stroke-width: 0.8; stroke-linejoin: miter; stroke-linecap: square"/>
   </g>
   <g id="patch_6">
    <path d="M 52.160938 7.2 
L 386.960938 7.2 
" style="fill: none; stroke: #000000; stroke-width: 0.8; stroke-linejoin: miter; stroke-linecap: square"/>
   </g>
  </g>
 </g>
 <defs>
  <clipPath id="p557c35164c">
   <rect x="52.160938" y="7.2" width="334.8" height="166.32"/>
  </clipPath>
 </defs>
</svg>
