<?xml version="1.0" encoding="utf-8" standalone="no"?>
<!DOCTYPE svg PUBLIC "-//W3C//DTD SVG 1.1//EN"
  "http://www.w3.org/Graphics/SVG/1.1/DTD/svg11.dtd">
<svg xmlns:xlink="http://www.w3.org/1999/xlink" width="406.885938pt" height="211.07625pt" viewBox="0 0 406.885938 211.07625" xmlns="http://www.w3.org/2000/svg" version="1.1">
 <metadata>
  <rdf:RDF xmlns:dc="http://purl.org/dc/elements/1.1/" xmlns:cc="http://creativecommons.org/ns#" xmlns:rdf="http://www.w3.org/1999/02/22-rdf-syntax-ns#">
   <cc:Work>
    <dc:type rdf:resource="http://purl.org/dc/dcmitype/StillImage"/>
    <dc:date>2025-06-01T16:30:27.569881</dc:date>
    <dc:format>image/svg+xml</dc:format>
    <dc:creator>
     <cc:Agent>
      <dc:title>Matplotlib v3.7.2, https://matplotlib.org/</dc:title>
     </cc:Agent>
    </dc:creator>
   </cc:Work>
  </rdf:RDF>
 </metadata>
 <defs>
  <style type="text/css">*{stroke-linejoin: round; stroke-linecap: butt}</style>
 </defs>
 <g id="figure_1">
  <g id="patch_1">
   <path d="M 0 211.07625 
L 406.885938 211.07625 
L 406.885938 0 
L 0 0 
z
" style="fill: #ffffff"/>
  </g>
  <g id="axes_1">
   <g id="patch_2">
    <path d="M 52.160938 173.52 
L 386.960938 173.52 
L 386.960938 7.2 
L 52.160938 7.2 
z
" style="fill: #ffffff"/>
   </g>
   <g id="matplotlib.axis_1">
    <g id="xtick_1">
     <g id="line2d_1">
      <path d="M 118.852829 173.52 
L 118.852829 7.2 
" clip-path="url(#p5231c4b34f)" style="fill: none; stroke: #b0b0b0; stroke-width: 0.8; stroke-linecap: square"/>
     </g>
     <g id="line2d_2">
      <defs>
       <path id="m22ef990623" d="M 0 0 
L 0 3.5 
" style="stroke: #000000; stroke-width: 0.8"/>
      </defs>
      <g>
       <use xlink:href="#m22ef990623" x="118.852829" y="173.52" style="stroke: #000000; stroke-width: 0.8"/>
      </g>
     </g>
     <g id="text_1">
      <!-- 200 -->
      <g transform="translate(109.309079 188.118438) scale(0.1 -0.1)">
       <defs>
        <path id="DejaVuSans-32" d="M 1228 531 
L 3431 531 
L 3431 0 
L 469 0 
L 469 531 
Q 828 903 1448 1529 
Q 2069 2156 2228 2338 
Q 2531 2678 2651 2914 
Q 2772 3150 2772 3378 
Q 2772 3750 2511 3984 
Q 2250 4219 1831 4219 
Q 1534 4219 1204 4116 
Q 875 4013 500 3803 
L 500 4441 
Q 881 4594 1212 4672 
Q 1544 4750 1819 4750 
Q 2544 4750 2975 4387 
Q 3406 4025 3406 3419 
Q 3406 3131 3298 2873 
Q 3191 2616 2906 2266 
Q 2828 2175 2409 1742 
Q 1991 1309 1228 531 
z
" transform="scale(0.015625)"/>
        <path id="DejaVuSans-30" d="M 2034 4250 
Q 1547 4250 1301 3770 
Q 1056 3291 1056 2328 
Q 1056 1369 1301 889 
Q 1547 409 2034 409 
Q 2525 409 2770 889 
Q 3016 1369 3016 2328 
Q 3016 3291 2770 3770 
Q 2525 4250 2034 4250 
z
M 2034 4750 
Q 2819 4750 3233 4129 
Q 3647 3509 3647 2328 
Q 3647 1150 3233 529 
Q 2819 -91 2034 -91 
Q 1250 -91 836 529 
Q 422 1150 422 2328 
Q 422 3509 836 4129 
Q 1250 4750 2034 4750 
z
" transform="scale(0.015625)"/>
       </defs>
       <use xlink:href="#DejaVuSans-32"/>
       <use xlink:href="#DejaVuSans-30" x="63.623047"/>
       <use xlink:href="#DejaVuSans-30" x="127.246094"/>
      </g>
     </g>
    </g>
    <g id="xtick_2">
     <g id="line2d_3">
      <path d="M 185.879856 173.52 
L 185.879856 7.2 
" clip-path="url(#p5231c4b34f)" style="fill: none; stroke: #b0b0b0; stroke-width: 0.8; stroke-linecap: square"/>
     </g>
     <g id="line2d_4">
      <g>
       <use xlink:href="#m22ef990623" x="185.879856" y="173.52" style="stroke: #000000; stroke-width: 0.8"/>
      </g>
     </g>
     <g id="text_2">
      <!-- 400 -->
      <g transform="translate(176.336106 188.118438) scale(0.1 -0.1)">
       <defs>
        <path id="DejaVuSans-34" d="M 2419 4116 
L 825 1625 
L 2419 1625 
L 2419 4116 
z
M 2253 4666 
L 3047 4666 
L 3047 1625 
L 3713 1625 
L 3713 1100 
L 3047 1100 
L 3047 0 
L 2419 0 
L 2419 1100 
L 313 1100 
L 313 1709 
L 2253 4666 
z
" transform="scale(0.015625)"/>
       </defs>
       <use xlink:href="#DejaVuSans-34"/>
       <use xlink:href="#DejaVuSans-30" x="63.623047"/>
       <use xlink:href="#DejaVuSans-30" x="127.246094"/>
      </g>
     </g>
    </g>
    <g id="xtick_3">
     <g id="line2d_5">
      <path d="M 252.906883 173.52 
L 252.906883 7.2 
" clip-path="url(#p5231c4b34f)" style="fill: none; stroke: #b0b0b0; stroke-width: 0.8; stroke-linecap: square"/>
     </g>
     <g id="line2d_6">
      <g>
       <use xlink:href="#m22ef990623" x="252.906883" y="173.52" style="stroke: #000000; stroke-width: 0.8"/>
      </g>
     </g>
     <g id="text_3">
      <!-- 600 -->
      <g transform="translate(243.363133 188.118438) scale(0.1 -0.1)">
       <defs>
        <path id="DejaVuSans-36" d="M 2113 2584 
Q 1688 2584 1439 2293 
Q 1191 2003 1191 1497 
Q 1191 994 1439 701 
Q 1688 409 2113 409 
Q 2538 409 2786 701 
Q 3034 994 3034 1497 
Q 3034 2003 2786 2293 
Q 2538 2584 2113 2584 
z
M 3366 4563 
L 3366 3988 
Q 3128 4100 2886 4159 
Q 2644 4219 2406 4219 
Q 1781 4219 1451 3797 
Q 1122 3375 1075 2522 
Q 1259 2794 1537 2939 
Q 1816 3084 2150 3084 
Q 2853 3084 3261 2657 
Q 3669 2231 3669 1497 
Q 3669 778 3244 343 
Q 2819 -91 2113 -91 
Q 1303 -91 875 529 
Q 447 1150 447 2328 
Q 447 3434 972 4092 
Q 1497 4750 2381 4750 
Q 2619 4750 2861 4703 
Q 3103 4656 3366 4563 
z
" transform="scale(0.015625)"/>
       </defs>
       <use xlink:href="#DejaVuSans-36"/>
       <use xlink:href="#DejaVuSans-30" x="63.623047"/>
       <use xlink:href="#DejaVuSans-30" x="127.246094"/>
      </g>
     </g>
    </g>
    <g id="xtick_4">
     <g id="line2d_7">
      <path d="M 319.93391 173.52 
L 319.93391 7.2 
" clip-path="url(#p5231c4b34f)" style="fill: none; stroke: #b0b0b0; stroke-width: 0.8; stroke-linecap: square"/>
     </g>
     <g id="line2d_8">
      <g>
       <use xlink:href="#m22ef990623" x="319.93391" y="173.52" style="stroke: #000000; stroke-width: 0.8"/>
      </g>
     </g>
     <g id="text_4">
      <!-- 800 -->
      <g transform="translate(310.39016 188.118438) scale(0.1 -0.1)">
       <defs>
        <path id="DejaVuSans-38" d="M 2034 2216 
Q 1584 2216 1326 1975 
Q 1069 1734 1069 1313 
Q 1069 891 1326 650 
Q 1584 409 2034 409 
Q 2484 409 2743 651 
Q 3003 894 3003 1313 
Q 3003 1734 2745 1975 
Q 2488 2216 2034 2216 
z
M 1403 2484 
Q 997 2584 770 2862 
Q 544 3141 544 3541 
Q 544 4100 942 4425 
Q 1341 4750 2034 4750 
Q 2731 4750 3128 4425 
Q 3525 4100 3525 3541 
Q 3525 3141 3298 2862 
Q 3072 2584 2669 2484 
Q 3125 2378 3379 2068 
Q 3634 1759 3634 1313 
Q 3634 634 3220 271 
Q 2806 -91 2034 -91 
Q 1263 -91 848 271 
Q 434 634 434 1313 
Q 434 1759 690 2068 
Q 947 2378 1403 2484 
z
M 1172 3481 
Q 1172 3119 1398 2916 
Q 1625 2713 2034 2713 
Q 2441 2713 2670 2916 
Q 2900 3119 2900 3481 
Q 2900 3844 2670 4047 
Q 2441 4250 2034 4250 
Q 1625 4250 1398 4047 
Q 1172 3844 1172 3481 
z
" transform="scale(0.015625)"/>
       </defs>
       <use xlink:href="#DejaVuSans-38"/>
       <use xlink:href="#DejaVuSans-30" x="63.623047"/>
       <use xlink:href="#DejaVuSans-30" x="127.246094"/>
      </g>
     </g>
    </g>
    <g id="xtick_5">
     <g id="line2d_9">
      <path d="M 386.960938 173.52 
L 386.960938 7.2 
" clip-path="url(#p5231c4b34f)" style="fill: none; stroke: #b0b0b0; stroke-width: 0.8; stroke-linecap: square"/>
     </g>
     <g id="line2d_10">
      <g>
       <use xlink:href="#m22ef990623" x="386.960938" y="173.52" style="stroke: #000000; stroke-width: 0.8"/>
      </g>
     </g>
     <g id="text_5">
      <!-- 1000 -->
      <g transform="translate(374.235937 188.118438) scale(0.1 -0.1)">
       <defs>
        <path id="DejaVuSans-31" d="M 794 531 
L 1825 531 
L 1825 4091 
L 703 3866 
L 703 4441 
L 1819 4666 
L 2450 4666 
L 2450 531 
L 3481 531 
L 3481 0 
L 794 0 
L 794 531 
z
" transform="scale(0.015625)"/>
       </defs>
       <use xlink:href="#DejaVuSans-31"/>
       <use xlink:href="#DejaVuSans-30" x="63.623047"/>
       <use xlink:href="#DejaVuSans-30" x="127.246094"/>
       <use xlink:href="#DejaVuSans-30" x="190.869141"/>
      </g>
     </g>
    </g>
    <g id="text_6">
     <!-- time -->
     <g transform="translate(208.264844 201.796563) scale(0.1 -0.1)">
      <defs>
       <path id="DejaVuSans-74" d="M 1172 4494 
L 1172 3500 
L 2356 3500 
L 2356 3053 
L 1172 3053 
L 1172 1153 
Q 1172 725 1289 603 
Q 1406 481 1766 481 
L 2356 481 
L 2356 0 
L 1766 0 
Q 1100 0 847 248 
Q 594 497 594 1153 
L 594 3053 
L 172 3053 
L 172 3500 
L 594 3500 
L 594 4494 
L 1172 4494 
z
" transform="scale(0.015625)"/>
       <path id="DejaVuSans-69" d="M 603 3500 
L 1178 3500 
L 1178 0 
L 603 0 
L 603 3500 
z
M 603 4863 
L 1178 4863 
L 1178 4134 
L 603 4134 
L 603 4863 
z
" transform="scale(0.015625)"/>
       <path id="DejaVuSans-6d" d="M 3328 2828 
Q 3544 3216 3844 3400 
Q 4144 3584 4550 3584 
Q 5097 3584 5394 3201 
Q 5691 2819 5691 2113 
L 5691 0 
L 5113 0 
L 5113 2094 
Q 5113 2597 4934 2840 
Q 4756 3084 4391 3084 
Q 3944 3084 3684 2787 
Q 3425 2491 3425 1978 
L 3425 0 
L 2847 0 
L 2847 2094 
Q 2847 2600 2669 2842 
Q 2491 3084 2119 3084 
Q 1678 3084 1418 2786 
Q 1159 2488 1159 1978 
L 1159 0 
L 581 0 
L 581 3500 
L 1159 3500 
L 1159 2956 
Q 1356 3278 1631 3431 
Q 1906 3584 2284 3584 
Q 2666 3584 2933 3390 
Q 3200 3197 3328 2828 
z
" transform="scale(0.015625)"/>
       <path id="DejaVuSans-65" d="M 3597 1894 
L 3597 1613 
L 953 1613 
Q 991 1019 1311 708 
Q 1631 397 2203 397 
Q 2534 397 2845 478 
Q 3156 559 3463 722 
L 3463 178 
Q 3153 47 2828 -22 
Q 2503 -91 2169 -91 
Q 1331 -91 842 396 
Q 353 884 353 1716 
Q 353 2575 817 3079 
Q 1281 3584 2069 3584 
Q 2775 3584 3186 3129 
Q 3597 2675 3597 1894 
z
M 3022 2063 
Q 3016 2534 2758 2815 
Q 2500 3097 2075 3097 
Q 1594 3097 1305 2825 
Q 1016 2553 972 2059 
L 3022 2063 
z
" transform="scale(0.015625)"/>
      </defs>
      <use xlink:href="#DejaVuSans-74"/>
      <use xlink:href="#DejaVuSans-69" x="39.208984"/>
      <use xlink:href="#DejaVuSans-6d" x="66.992188"/>
      <use xlink:href="#DejaVuSans-65" x="164.404297"/>
     </g>
    </g>
   </g>
   <g id="matplotlib.axis_2">
    <g id="ytick_1">
     <g id="line2d_11">
      <path d="M 52.160938 167.133033 
L 386.960938 167.133033 
" clip-path="url(#p5231c4b34f)" style="fill: none; stroke: #b0b0b0; stroke-width: 0.8; stroke-linecap: square"/>
     </g>
     <g id="line2d_12">
      <defs>
       <path id="m235c1fc6e2" d="M 0 0 
L -3.5 0 
" style="stroke: #000000; stroke-width: 0.8"/>
      </defs>
      <g>
       <use xlink:href="#m235c1fc6e2" x="52.160938" y="167.133033" style="stroke: #000000; stroke-width: 0.8"/>
      </g>
     </g>
     <g id="text_7">
      <!-- −1.5 -->
      <g transform="translate(20.878125 170.932252) scale(0.1 -0.1)">
       <defs>
        <path id="DejaVuSans-2212" d="M 678 2272 
L 4684 2272 
L 4684 1741 
L 678 1741 
L 678 2272 
z
" transform="scale(0.015625)"/>
        <path id="DejaVuSans-2e" d="M 684 794 
L 1344 794 
L 1344 0 
L 684 0 
L 684 794 
z
" transform="scale(0.015625)"/>
        <path id="DejaVuSans-35" d="M 691 4666 
L 3169 4666 
L 3169 4134 
L 1269 4134 
L 1269 2991 
Q 1406 3038 1543 3061 
Q 1681 3084 1819 3084 
Q 2600 3084 3056 2656 
Q 3513 2228 3513 1497 
Q 3513 744 3044 326 
Q 2575 -91 1722 -91 
Q 1428 -91 1123 -41 
Q 819 9 494 109 
L 494 744 
Q 775 591 1075 516 
Q 1375 441 1709 441 
Q 2250 441 2565 725 
Q 2881 1009 2881 1497 
Q 2881 1984 2565 2268 
Q 2250 2553 1709 2553 
Q 1456 2553 1204 2497 
Q 953 2441 691 2322 
L 691 4666 
z
" transform="scale(0.015625)"/>
       </defs>
       <use xlink:href="#DejaVuSans-2212"/>
       <use xlink:href="#DejaVuSans-31" x="83.789062"/>
       <use xlink:href="#DejaVuSans-2e" x="147.412109"/>
       <use xlink:href="#DejaVuSans-35" x="179.199219"/>
      </g>
     </g>
    </g>
    <g id="ytick_2">
     <g id="line2d_13">
      <path d="M 52.160938 145.929545 
L 386.960938 145.929545 
" clip-path="url(#p5231c4b34f)" style="fill: none; stroke: #b0b0b0; stroke-width: 0.8; stroke-linecap: square"/>
     </g>
     <g id="line2d_14">
      <g>
       <use xlink:href="#m235c1fc6e2" x="52.160938" y="145.929545" style="stroke: #000000; stroke-width: 0.8"/>
      </g>
     </g>
     <g id="text_8">
      <!-- −1.0 -->
      <g transform="translate(20.878125 149.728764) scale(0.1 -0.1)">
       <use xlink:href="#DejaVuSans-2212"/>
       <use xlink:href="#DejaVuSans-31" x="83.789062"/>
       <use xlink:href="#DejaVuSans-2e" x="147.412109"/>
       <use xlink:href="#DejaVuSans-30" x="179.199219"/>
      </g>
     </g>
    </g>
    <g id="ytick_3">
     <g id="line2d_15">
      <path d="M 52.160938 124.726057 
L 386.960938 124.726057 
" clip-path="url(#p5231c4b34f)" style="fill: none; stroke: #b0b0b0; stroke-width: 0.8; stroke-linecap: square"/>
     </g>
     <g id="line2d_16">
      <g>
       <use xlink:href="#m235c1fc6e2" x="52.160938" y="124.726057" style="stroke: #000000; stroke-width: 0.8"/>
      </g>
     </g>
     <g id="text_9">
      <!-- −0.5 -->
      <g transform="translate(20.878125 128.525276) scale(0.1 -0.1)">
       <use xlink:href="#DejaVuSans-2212"/>
       <use xlink:href="#DejaVuSans-30" x="83.789062"/>
       <use xlink:href="#DejaVuSans-2e" x="147.412109"/>
       <use xlink:href="#DejaVuSans-35" x="179.199219"/>
      </g>
     </g>
    </g>
    <g id="ytick_4">
     <g id="line2d_17">
      <path d="M 52.160938 103.52257 
L 386.960938 103.52257 
" clip-path="url(#p5231c4b34f)" style="fill: none; stroke: #b0b0b0; stroke-width: 0.8; stroke-linecap: square"/>
     </g>
     <g id="line2d_18">
      <g>
       <use xlink:href="#m235c1fc6e2" x="52.160938" y="103.52257" style="stroke: #000000; stroke-width: 0.8"/>
      </g>
     </g>
     <g id="text_10">
      <!-- 0.0 -->
      <g transform="translate(29.257812 107.321788) scale(0.1 -0.1)">
       <use xlink:href="#DejaVuSans-30"/>
       <use xlink:href="#DejaVuSans-2e" x="63.623047"/>
       <use xlink:href="#DejaVuSans-30" x="95.410156"/>
      </g>
     </g>
    </g>
    <g id="ytick_5">
     <g id="line2d_19">
      <path d="M 52.160938 82.319082 
L 386.960938 82.319082 
" clip-path="url(#p5231c4b34f)" style="fill: none; stroke: #b0b0b0; stroke-width: 0.8; stroke-linecap: square"/>
     </g>
     <g id="line2d_20">
      <g>
       <use xlink:href="#m235c1fc6e2" x="52.160938" y="82.319082" style="stroke: #000000; stroke-width: 0.8"/>
      </g>
     </g>
     <g id="text_11">
      <!-- 0.5 -->
      <g transform="translate(29.257812 86.1183) scale(0.1 -0.1)">
       <use xlink:href="#DejaVuSans-30"/>
       <use xlink:href="#DejaVuSans-2e" x="63.623047"/>
       <use xlink:href="#DejaVuSans-35" x="95.410156"/>
      </g>
     </g>
    </g>
    <g id="ytick_6">
     <g id="line2d_21">
      <path d="M 52.160938 61.115594 
L 386.960938 61.115594 
" clip-path="url(#p5231c4b34f)" style="fill: none; stroke: #b0b0b0; stroke-width: 0.8; stroke-linecap: square"/>
     </g>
     <g id="line2d_22">
      <g>
       <use xlink:href="#m235c1fc6e2" x="52.160938" y="61.115594" style="stroke: #000000; stroke-width: 0.8"/>
      </g>
     </g>
     <g id="text_12">
      <!-- 1.0 -->
      <g transform="translate(29.257812 64.914813) scale(0.1 -0.1)">
       <use xlink:href="#DejaVuSans-31"/>
       <use xlink:href="#DejaVuSans-2e" x="63.623047"/>
       <use xlink:href="#DejaVuSans-30" x="95.410156"/>
      </g>
     </g>
    </g>
    <g id="ytick_7">
     <g id="line2d_23">
      <path d="M 52.160938 39.912106 
L 386.960938 39.912106 
" clip-path="url(#p5231c4b34f)" style="fill: none; stroke: #b0b0b0; stroke-width: 0.8; stroke-linecap: square"/>
     </g>
     <g id="line2d_24">
      <g>
       <use xlink:href="#m235c1fc6e2" x="52.160938" y="39.912106" style="stroke: #000000; stroke-width: 0.8"/>
      </g>
     </g>
     <g id="text_13">
      <!-- 1.5 -->
      <g transform="translate(29.257812 43.711325) scale(0.1 -0.1)">
       <use xlink:href="#DejaVuSans-31"/>
       <use xlink:href="#DejaVuSans-2e" x="63.623047"/>
       <use xlink:href="#DejaVuSans-35" x="95.410156"/>
      </g>
     </g>
    </g>
    <g id="ytick_8">
     <g id="line2d_25">
      <path d="M 52.160938 18.708618 
L 386.960938 18.708618 
" clip-path="url(#p5231c4b34f)" style="fill: none; stroke: #b0b0b0; stroke-width: 0.8; stroke-linecap: square"/>
     </g>
     <g id="line2d_26">
      <g>
       <use xlink:href="#m235c1fc6e2" x="52.160938" y="18.708618" style="stroke: #000000; stroke-width: 0.8"/>
      </g>
     </g>
     <g id="text_14">
      <!-- 2.0 -->
      <g transform="translate(29.257812 22.507837) scale(0.1 -0.1)">
       <use xlink:href="#DejaVuSans-32"/>
       <use xlink:href="#DejaVuSans-2e" x="63.623047"/>
       <use xlink:href="#DejaVuSans-30" x="95.410156"/>
      </g>
     </g>
    </g>
    <g id="text_15">
     <!-- x -->
     <g transform="translate(14.798438 93.319375) rotate(-90) scale(0.1 -0.1)">
      <defs>
       <path id="DejaVuSans-78" d="M 3513 3500 
L 2247 1797 
L 3578 0 
L 2900 0 
L 1881 1375 
L 863 0 
L 184 0 
L 1544 1831 
L 300 3500 
L 978 3500 
L 1906 2253 
L 2834 3500 
L 3513 3500 
z
" transform="scale(0.015625)"/>
      </defs>
      <use xlink:href="#DejaVuSans-78"/>
     </g>
    </g>
   </g>
   <g id="line2d_27">
    <path d="M 52.160938 99.326269 
L 52.496073 118.735151 
L 52.831208 95.615574 
L 53.166343 111.521353 
L 54.171748 93.124738 
L 54.506883 87.863161 
L 54.842019 98.579927 
L 55.177154 100.305499 
L 55.512289 82.171644 
L 55.847424 105.488186 
L 56.182559 95.352673 
L 56.517694 81.290373 
L 56.852829 96.110066 
L 57.187965 102.480349 
L 57.5231 89.20266 
L 57.858235 89.546898 
L 58.19337 81.90783 
L 58.528505 101.521637 
L 58.86364 94.925953 
L 59.198775 94.617437 
L 59.53391 102.495342 
L 59.869046 102.507593 
L 60.204181 73.345449 
L 60.539316 80.810768 
L 60.874451 97.297373 
L 61.209586 91.461015 
L 61.544721 100.776103 
L 61.879856 96.358413 
L 62.214992 72.929451 
L 62.550127 84.899054 
L 62.885262 82.261894 
L 63.220397 88.369442 
L 63.555532 74.788297 
L 63.890667 90.594776 
L 64.225802 78.219676 
L 64.896073 99.50937 
L 65.231208 81.758592 
L 65.566343 80.317623 
L 65.901478 88.611643 
L 66.236613 92.028454 
L 66.571748 79.540832 
L 66.906883 90.127016 
L 67.242019 89.477023 
L 67.577154 75.501808 
L 67.912289 96.691599 
L 68.247424 87.486678 
L 68.582559 67.899048 
L 68.917694 78.564249 
L 69.252829 98.580425 
L 69.587965 110.159589 
L 70.258235 79.449427 
L 70.59337 95.839341 
L 70.928505 80.853842 
L 71.26364 108.582177 
L 71.598775 83.130873 
L 71.93391 74.705205 
L 72.269046 103.093733 
L 72.604181 72.182785 
L 72.939316 74.237946 
L 73.274451 92.149769 
L 73.944721 72.672609 
L 74.279856 73.142952 
L 74.614992 76.434893 
L 75.285262 62.833174 
L 75.620397 77.224898 
L 75.955532 69.108805 
L 76.290667 80.881436 
L 76.625802 69.973659 
L 76.960938 85.547209 
L 77.296073 64.011531 
L 77.631208 75.748853 
L 77.966343 76.22897 
L 78.301478 60.303767 
L 78.636613 70.345988 
L 78.971748 75.738133 
L 79.306883 72.785036 
L 79.642019 77.461012 
L 79.977154 66.942068 
L 80.312289 61.584377 
L 80.647424 79.125142 
L 80.982559 74.638 
L 81.317694 52.5783 
L 81.652829 71.915817 
L 81.987965 50.722088 
L 82.3231 73.498059 
L 82.658235 68.602703 
L 82.99337 61.018815 
L 83.328505 69.052876 
L 83.66364 69.513025 
L 83.998775 51.350452 
L 84.33391 67.527142 
L 84.669046 74.426132 
L 85.004181 63.484566 
L 85.339316 62.057266 
L 85.674451 64.194765 
L 86.009586 70.249239 
L 86.344721 62.905278 
L 87.014992 75.060482 
L 87.350127 67.870521 
L 87.685262 69.450776 
L 88.020397 51.309889 
L 88.355532 69.759319 
L 88.690667 76.576935 
L 89.360938 59.142387 
L 89.696073 69.386354 
L 90.031208 59.064874 
L 90.701478 78.989339 
L 91.036613 62.204987 
L 91.371748 64.436399 
L 91.706883 52.305572 
L 92.042019 62.669678 
L 92.377154 64.173647 
L 92.712289 54.704354 
L 93.047424 59.991567 
L 93.382559 47.862898 
L 93.717694 52.590716 
L 94.052829 52.713171 
L 94.387965 83.3222 
L 95.058235 65.310095 
L 95.39337 78.814701 
L 96.06364 67.293549 
L 96.398775 43.72005 
L 96.73391 63.174261 
L 97.069046 67.927026 
L 97.404181 91.95686 
L 97.739316 69.811609 
L 98.074451 62.512109 
L 98.409586 60.191722 
L 98.744721 71.78449 
L 99.079856 62.001448 
L 99.414992 63.598042 
L 99.750127 68.710531 
L 100.085262 65.568168 
L 100.420397 47.924224 
L 100.755532 51.855756 
L 101.090667 53.318791 
L 101.425802 74.173706 
L 101.760938 60.80764 
L 102.096073 57.039799 
L 102.431208 65.935772 
L 102.766343 49.366478 
L 103.101478 57.355731 
L 103.436613 59.800219 
L 103.771748 77.973369 
L 104.106883 56.186964 
L 104.442019 54.824206 
L 104.777154 54.265433 
L 105.112289 64.0003 
L 105.447424 66.970136 
L 105.782559 58.39403 
L 106.117694 56.555167 
L 106.452829 74.418605 
L 106.787965 57.901542 
L 107.1231 63.543326 
L 107.458235 57.416111 
L 107.79337 64.293602 
L 108.128505 63.130376 
L 108.46364 52.13998 
L 108.798775 58.123252 
L 109.13391 52.717099 
L 109.469046 64.120854 
L 109.804181 70.440428 
L 110.139316 35.800828 
L 110.474451 81.680799 
L 110.809586 66.707118 
L 111.144721 62.806611 
L 111.479856 54.349927 
L 111.814992 71.650274 
L 112.150127 66.898772 
L 112.485262 69.073299 
L 112.820397 72.548147 
L 113.155532 54.527899 
L 113.490667 48.079892 
L 113.825802 77.169538 
L 114.160938 64.683899 
L 114.831208 66.115903 
L 115.166343 63.843616 
L 115.836613 75.113737 
L 116.171748 57.545805 
L 116.506883 66.572622 
L 116.842019 50.027646 
L 117.177154 68.315643 
L 117.512289 60.848583 
L 117.847424 67.198188 
L 118.182559 65.003834 
L 118.852829 58.895698 
L 119.187965 76.646518 
L 119.5231 69.208865 
L 119.858235 65.637471 
L 120.19337 68.038572 
L 120.528505 60.624749 
L 120.86364 58.276883 
L 121.198775 47.09294 
L 121.53391 65.183656 
L 121.869046 68.440006 
L 122.204181 53.328391 
L 122.874451 65.354402 
L 123.209586 65.598482 
L 123.544721 73.686726 
L 123.879856 69.964069 
L 124.214992 60.915095 
L 124.550127 61.999587 
L 124.885262 78.594098 
L 125.220397 66.850914 
L 125.555532 66.367877 
L 125.890667 71.893993 
L 126.560938 54.939178 
L 126.896073 63.126706 
L 127.231208 82.610813 
L 127.566343 77.243871 
L 127.901478 83.961775 
L 128.236613 69.659657 
L 128.571748 63.448496 
L 128.906883 63.042621 
L 129.242019 72.302224 
L 129.577154 66.017999 
L 129.912289 76.942087 
L 130.247424 55.708555 
L 130.582559 76.820497 
L 130.917694 80.491288 
L 131.252829 73.829659 
L 131.587965 72.669697 
L 131.9231 63.793773 
L 132.258235 65.82318 
L 132.59337 83.18502 
L 133.26364 75.038297 
L 133.598775 84.120933 
L 133.93391 86.891441 
L 134.269046 87.864873 
L 134.604181 76.647772 
L 134.939316 69.566384 
L 135.274451 82.978429 
L 135.609586 67.90658 
L 135.944721 64.846331 
L 136.279856 79.101863 
L 136.950127 76.28193 
L 137.285262 84.769189 
L 137.620397 79.497862 
L 137.955532 91.630966 
L 138.290667 84.796281 
L 138.625802 64.888323 
L 138.960938 65.072773 
L 139.631208 89.106321 
L 139.966343 90.688104 
L 140.301478 86.467628 
L 140.636613 93.036263 
L 140.971748 88.221862 
L 141.306883 92.565513 
L 141.642019 76.84589 
L 141.977154 90.332066 
L 142.312289 86.615999 
L 142.982559 99.276988 
L 143.317694 83.737065 
L 143.652829 84.575856 
L 143.987965 99.585165 
L 144.3231 81.341954 
L 144.658235 101.285215 
L 144.99337 101.679265 
L 145.328505 91.390005 
L 145.66364 86.724147 
L 145.998775 94.301626 
L 146.669046 87.208991 
L 147.004181 86.091608 
L 147.674451 90.122102 
L 148.009586 85.091457 
L 148.679856 97.265311 
L 149.014992 70.826194 
L 149.350127 96.056751 
L 149.685262 95.072592 
L 150.020397 82.974962 
L 150.690667 102.859971 
L 151.025802 104.342516 
L 151.360938 97.443386 
L 151.696073 94.012941 
L 152.031208 88.533627 
L 152.701478 100.813839 
L 153.036613 99.794845 
L 153.371748 97.767237 
L 153.706883 102.512411 
L 154.042019 111.695219 
L 154.377154 97.942485 
L 154.712289 94.633226 
L 155.047424 97.209363 
L 155.382559 107.054448 
L 155.717694 95.642129 
L 156.052829 97.142394 
L 156.387965 108.941417 
L 156.7231 98.381053 
L 157.058235 112.841485 
L 157.728505 99.76419 
L 158.06364 102.194908 
L 158.398775 102.433489 
L 158.73391 93.534492 
L 159.069046 116.611413 
L 159.404181 108.176077 
L 159.739316 110.327937 
L 160.074451 106.788043 
L 160.409586 85.094725 
L 160.744721 106.170517 
L 161.414992 100.579959 
L 161.750127 104.214852 
L 162.085262 122.732258 
L 162.420397 91.801965 
L 162.755532 119.320905 
L 163.090667 106.952925 
L 163.425802 106.529969 
L 163.760938 115.225583 
L 164.096073 107.572066 
L 164.431208 106.540462 
L 164.766343 107.4412 
L 165.101478 104.648742 
L 165.436613 128.820481 
L 165.771748 133.248008 
L 166.106883 124.444285 
L 166.442019 110.518413 
L 166.777154 120.38553 
L 167.112289 122.114551 
L 167.447424 130.246598 
L 167.782559 127.834223 
L 168.117694 129.428614 
L 168.452829 103.549711 
L 168.787965 113.598876 
L 169.1231 118.331422 
L 169.458235 107.820967 
L 169.79337 129.765494 
L 170.128505 109.984931 
L 170.46364 115.078439 
L 170.798775 127.346124 
L 171.13391 128.692336 
L 171.469046 128.048713 
L 171.804181 112.238633 
L 172.139316 109.901133 
L 172.474451 138.060904 
L 172.809586 125.949439 
L 173.144721 126.772119 
L 173.479856 122.714479 
L 173.814992 135.949493 
L 174.150127 136.72168 
L 174.820397 123.30678 
L 175.155532 123.710268 
L 175.490667 124.444263 
L 175.825802 116.590762 
L 176.160938 117.302986 
L 176.496073 134.907359 
L 177.166343 111.35406 
L 177.501478 137.274339 
L 177.836613 120.694057 
L 178.171748 135.000571 
L 178.506883 143.46332 
L 178.842019 132.205056 
L 179.177154 135.796241 
L 179.512289 129.607733 
L 179.847424 140.334035 
L 180.517694 125.014897 
L 180.852829 133.317241 
L 181.187965 133.908744 
L 181.5231 132.289555 
L 181.858235 133.724835 
L 182.19337 134.476933 
L 182.86364 126.706463 
L 183.198775 128.443694 
L 183.53391 117.733323 
L 183.869046 135.638703 
L 184.204181 138.964659 
L 184.539316 128.862839 
L 184.874451 138.182057 
L 185.209586 138.559754 
L 185.544721 127.538357 
L 185.879856 146.476408 
L 186.214992 136.637133 
L 186.550127 138.300523 
L 186.885262 136.942524 
L 187.220397 130.726295 
L 187.555532 137.986884 
L 187.890667 136.153525 
L 188.225802 143.19093 
L 188.560938 135.088342 
L 188.896073 139.642368 
L 189.231208 141.204136 
L 189.901478 123.414647 
L 190.236613 150.961718 
L 190.571748 134.441434 
L 190.906883 150.424495 
L 191.242019 135.505778 
L 191.577154 130.09306 
L 191.912289 136.25248 
L 192.247424 139.72596 
L 192.582559 165.96 
L 192.917694 152.819001 
L 193.252829 152.884134 
L 193.587965 127.42187 
L 193.9231 141.017884 
L 194.258235 130.747189 
L 194.59337 152.391221 
L 194.928505 137.429287 
L 195.26364 157.474629 
L 195.598775 147.530111 
L 195.93391 144.012343 
L 196.269046 137.822203 
L 196.604181 138.701849 
L 196.939316 146.048926 
L 197.274451 137.53039 
L 197.609586 149.538204 
L 197.944721 135.059486 
L 198.279856 157.458407 
L 198.614992 130.008733 
L 198.950127 146.289362 
L 199.285262 145.149062 
L 199.620397 128.489196 
L 199.955532 141.479585 
L 200.290667 149.569663 
L 200.625802 163.284217 
L 200.960938 151.491569 
L 201.296073 145.694509 
L 201.631208 148.346962 
L 201.966343 135.481831 
L 202.301478 151.291576 
L 202.636613 126.763755 
L 202.971748 149.869408 
L 203.306883 139.978968 
L 203.642019 163.575883 
L 203.977154 145.889672 
L 204.312289 153.867917 
L 204.647424 141.600166 
L 204.982559 139.298519 
L 205.317694 142.922733 
L 205.652829 143.798003 
L 205.987965 135.352732 
L 206.3231 150.95095 
L 206.658235 141.08498 
L 206.99337 148.65624 
L 207.328505 134.011587 
L 207.66364 149.830891 
L 207.998775 151.780278 
L 208.33391 142.000875 
L 208.669046 159.642769 
L 209.004181 143.211742 
L 209.339316 142.510895 
L 209.674451 147.507074 
L 210.344721 153.925112 
L 210.679856 134.925955 
L 211.014992 152.980771 
L 211.350127 149.806257 
L 211.685262 156.915482 
L 212.020397 131.800578 
L 212.355532 146.615282 
L 212.690667 154.227177 
L 213.025802 154.301399 
L 213.360938 143.445682 
L 213.696073 153.919481 
L 214.031208 135.599726 
L 214.366343 138.051565 
L 214.701478 141.513524 
L 215.036613 136.653666 
L 215.371748 144.555496 
L 215.706883 143.155007 
L 216.042019 139.633011 
L 216.377154 150.671947 
L 216.712289 140.353953 
L 217.382559 130.660847 
L 217.717694 144.738857 
L 218.052829 135.090366 
L 218.387965 142.638845 
L 218.7231 154.311565 
L 219.058235 143.636059 
L 219.39337 158.01122 
L 219.728505 148.844824 
L 220.06364 150.746806 
L 220.398775 123.049235 
L 220.73391 160.496565 
L 221.069046 154.114049 
L 221.404181 141.809026 
L 221.739316 138.948798 
L 222.409586 147.971484 
L 222.744721 137.742033 
L 223.079856 138.167541 
L 223.414992 144.608442 
L 223.750127 136.927356 
L 224.085262 135.898763 
L 224.420397 136.024377 
L 224.755532 133.57674 
L 225.090667 143.003173 
L 225.760938 114.528154 
L 226.096073 140.240322 
L 226.431208 145.48115 
L 226.766343 125.409934 
L 227.101478 151.603261 
L 227.771748 132.018444 
L 228.106883 154.359409 
L 228.442019 138.888579 
L 228.777154 141.522148 
L 229.112289 142.444018 
L 229.447424 129.797001 
L 229.782559 149.705024 
L 230.117694 126.367045 
L 230.452829 130.004954 
L 230.787965 136.255723 
L 231.1231 137.148331 
L 231.458235 136.949432 
L 231.79337 146.030636 
L 232.128505 130.536775 
L 232.46364 143.614301 
L 232.798775 151.770228 
L 233.13391 129.091132 
L 233.469046 130.299595 
L 233.804181 134.97435 
L 234.139316 148.845774 
L 234.474451 149.865394 
L 234.809586 127.305727 
L 235.144721 158.520906 
L 235.479856 127.638682 
L 236.150127 141.370479 
L 236.485262 122.629693 
L 236.820397 138.549451 
L 237.155532 130.978492 
L 237.490667 128.09689 
L 237.825802 103.224355 
L 238.160938 147.542157 
L 238.496073 139.493803 
L 238.831208 134.802146 
L 239.166343 133.838774 
L 239.501478 136.712227 
L 239.836613 119.91238 
L 240.171748 126.100362 
L 240.506883 141.207582 
L 240.842019 134.323881 
L 241.177154 138.724026 
L 241.512289 138.997086 
L 242.517694 116.233977 
L 242.852829 129.628167 
L 243.187965 132.977352 
L 243.5231 114.020711 
L 243.858235 113.20524 
L 244.86364 133.579474 
L 245.198775 135.545493 
L 245.53391 118.527482 
L 245.869046 130.892395 
L 246.204181 130.591051 
L 246.539316 122.890983 
L 246.874451 144.166947 
L 247.209586 125.91939 
L 247.544721 121.500913 
L 247.879856 123.69845 
L 248.214992 124.969256 
L 248.550127 104.504623 
L 248.885262 105.586625 
L 249.220397 110.996877 
L 249.555532 121.172274 
L 249.890667 111.872178 
L 250.225802 127.524872 
L 250.560938 107.761956 
L 250.896073 128.694573 
L 251.231208 102.391661 
L 251.566343 109.483388 
L 251.901478 120.719133 
L 252.236613 116.367601 
L 252.571748 118.66762 
L 252.906883 119.287663 
L 253.242019 114.740965 
L 253.577154 122.286162 
L 254.247424 114.479013 
L 254.582559 119.653194 
L 254.917694 115.095386 
L 255.252829 98.546145 
L 255.587965 116.043946 
L 255.9231 114.775425 
L 256.258235 119.069555 
L 256.59337 90.34057 
L 256.928505 92.284828 
L 257.26364 98.526998 
L 257.598775 109.829232 
L 257.93391 101.556627 
L 258.269046 100.736813 
L 258.604181 111.030258 
L 258.939316 100.773302 
L 259.609586 108.308545 
L 259.944721 114.492908 
L 260.279856 93.875404 
L 260.614992 111.210512 
L 260.950127 109.445885 
L 261.285262 101.87374 
L 261.620397 103.918335 
L 261.955532 114.295022 
L 262.290667 95.509588 
L 262.625802 100.99966 
L 262.960938 96.0566 
L 263.296073 87.832327 
L 263.966343 116.547323 
L 264.301478 115.680357 
L 264.636613 101.364026 
L 264.971748 99.648661 
L 265.306883 88.373056 
L 265.642019 91.278655 
L 265.977154 103.403004 
L 266.312289 102.202898 
L 266.647424 96.153399 
L 266.982559 108.123076 
L 267.317694 98.359609 
L 267.652829 98.940189 
L 267.987965 103.583107 
L 268.3231 85.631783 
L 268.658235 85.35959 
L 268.99337 86.124589 
L 269.328505 95.331021 
L 269.66364 92.171263 
L 269.998775 112.060527 
L 270.33391 100.001384 
L 270.669046 103.697462 
L 271.004181 87.811255 
L 271.339316 92.5765 
L 271.674451 84.544733 
L 272.009586 86.80521 
L 272.344721 92.478481 
L 272.679856 92.509272 
L 273.014992 71.716398 
L 273.350127 98.337423 
L 273.685262 100.246441 
L 274.020397 81.753487 
L 274.690667 90.723287 
L 275.025802 87.202456 
L 275.360937 90.092862 
L 275.696073 85.585877 
L 276.031208 84.669174 
L 276.366343 81.878241 
L 276.701478 87.791777 
L 277.036613 91.399854 
L 277.371748 86.415812 
L 277.706883 102.040671 
L 278.042019 87.863039 
L 278.712289 77.209103 
L 279.047424 77.70561 
L 279.382559 72.562418 
L 279.717694 82.125385 
L 280.052829 69.238322 
L 280.387965 72.089297 
L 280.7231 86.790544 
L 281.058235 86.033738 
L 281.39337 67.087219 
L 281.728505 69.197402 
L 282.06364 73.357587 
L 282.398775 84.34816 
L 282.73391 84.807793 
L 283.069046 76.575618 
L 283.404181 74.569756 
L 283.739316 84.313096 
L 284.074451 85.987532 
L 284.409586 78.711967 
L 284.744721 93.521869 
L 285.079856 74.084017 
L 285.750127 78.879801 
L 286.085262 65.33982 
L 286.420397 82.269858 
L 286.755532 76.402567 
L 287.090667 88.54294 
L 287.425802 73.994738 
L 287.760938 70.729033 
L 288.096073 62.930603 
L 288.431208 61.714916 
L 288.766343 66.998299 
L 289.101478 61.579903 
L 289.436613 89.294775 
L 289.771748 67.270845 
L 290.106883 67.501332 
L 290.442019 57.555628 
L 290.777154 74.460703 
L 291.112289 55.660141 
L 291.447424 75.302694 
L 291.782559 71.762803 
L 292.117694 72.462204 
L 292.452829 81.270402 
L 292.787965 64.306735 
L 293.1231 54.982507 
L 293.458235 66.624904 
L 293.79337 65.798394 
L 294.128505 79.382288 
L 294.46364 60.521398 
L 294.798775 65.798245 
L 295.13391 55.733771 
L 295.469046 79.022846 
L 295.804181 64.599647 
L 296.139316 83.147856 
L 296.474451 69.644918 
L 296.809586 69.66571 
L 297.144721 63.69815 
L 297.479856 69.728179 
L 297.814992 81.156058 
L 298.150127 64.452942 
L 298.485262 66.413096 
L 298.820397 58.219612 
L 299.155532 61.395445 
L 299.490667 70.010826 
L 299.825802 52.551947 
L 300.160938 85.191339 
L 300.496073 45.492461 
L 300.831208 63.612702 
L 301.166343 70.347047 
L 301.501478 60.245525 
L 301.836613 65.771174 
L 302.171748 67.662637 
L 302.506883 66.793597 
L 302.842019 66.976455 
L 303.177154 66.808376 
L 303.512289 71.737865 
L 303.847424 53.213247 
L 304.182559 62.852609 
L 304.517694 53.382316 
L 304.852829 72.813598 
L 305.187965 80.48851 
L 305.5231 53.42697 
L 305.858235 67.398042 
L 306.19337 62.289739 
L 306.528505 53.774416 
L 307.198775 72.601111 
L 307.53391 65.06035 
L 307.869046 71.431228 
L 308.204181 52.0038 
L 308.539316 59.162461 
L 308.874451 47.99883 
L 309.209586 59.750646 
L 309.544721 62.432304 
L 309.879856 41.363343 
L 310.214992 55.998123 
L 310.550127 54.937525 
L 310.885262 61.9409 
L 311.220397 66.004163 
L 311.555532 63.478464 
L 311.890667 64.31497 
L 312.225802 67.009893 
L 312.560938 76.969507 
L 312.896073 55.902634 
L 313.566343 66.762148 
L 314.236613 49.519052 
L 314.571748 46.790405 
L 314.906883 54.253588 
L 315.242019 70.127234 
L 315.577154 69.144122 
L 315.912289 62.216864 
L 316.247424 51.8703 
L 316.582559 57.004726 
L 317.252829 57.199001 
L 317.587965 76.158146 
L 317.9231 74.091638 
L 318.258235 63.80926 
L 318.59337 67.611596 
L 318.928505 56.899469 
L 319.26364 67.911772 
L 319.598775 52.611741 
L 319.93391 59.085414 
L 320.269046 62.404105 
L 320.604181 60.867924 
L 320.939316 54.867297 
L 321.274451 55.500262 
L 321.609586 55.853031 
L 321.944721 55.185609 
L 322.279856 55.967953 
L 322.614992 60.331647 
L 323.285262 55.02939 
L 323.620397 57.867727 
L 323.955532 69.903947 
L 324.290667 56.801609 
L 324.625802 77.409329 
L 325.296073 54.900349 
L 325.966343 79.465382 
L 326.301478 76.03925 
L 326.971748 49.582278 
L 327.306883 64.865329 
L 327.642019 70.467752 
L 327.977154 65.383487 
L 328.312289 66.556976 
L 328.647424 54.70124 
L 328.982559 59.149864 
L 329.317694 54.667279 
L 329.652829 62.168796 
L 329.987965 80.869473 
L 330.3231 83.646917 
L 330.658235 77.723799 
L 330.99337 61.927228 
L 331.328505 67.571745 
L 331.66364 65.624691 
L 331.998775 73.068105 
L 332.33391 84.201672 
L 332.669046 59.885026 
L 333.004181 61.497355 
L 333.339316 61.136768 
L 334.009586 71.997202 
L 334.344721 70.236179 
L 334.679856 61.512787 
L 335.014992 57.664241 
L 335.350127 66.651712 
L 335.685262 57.698789 
L 336.020397 73.347153 
L 336.355532 71.550548 
L 336.690667 64.667414 
L 337.025802 73.088026 
L 337.360937 76.508974 
L 337.696073 70.281957 
L 338.031208 60.345084 
L 338.366343 78.828396 
L 338.701478 70.138126 
L 339.036613 74.693323 
L 339.371748 72.339866 
L 339.706883 67.714719 
L 340.042019 89.596564 
L 340.377154 88.401268 
L 340.712289 76.14437 
L 341.047424 58.619294 
L 341.382559 81.212468 
L 341.717694 86.321626 
L 342.052829 73.942049 
L 342.387965 77.481609 
L 342.7231 89.301903 
L 343.058235 76.572501 
L 343.39337 77.049105 
L 343.728505 86.409968 
L 344.06364 80.766453 
L 344.398775 83.10058 
L 345.069046 67.535882 
L 345.404181 76.969664 
L 345.739316 72.080261 
L 346.074451 53.710992 
L 346.409586 90.402132 
L 346.744721 80.325704 
L 347.079856 61.346818 
L 347.414992 78.166459 
L 347.750127 74.062368 
L 348.085262 96.01044 
L 348.420397 83.488512 
L 348.755532 86.724753 
L 349.090667 82.202423 
L 349.425802 81.634485 
L 349.760938 98.169786 
L 350.096073 76.916856 
L 350.431208 90.215004 
L 350.766343 89.615475 
L 351.101478 78.389403 
L 351.436613 78.690376 
L 351.771748 85.697604 
L 352.106883 78.183705 
L 353.112289 92.37162 
L 353.447424 100.940802 
L 353.782559 74.933258 
L 354.117694 79.408179 
L 354.452829 89.936637 
L 354.787965 72.236502 
L 355.1231 82.125954 
L 355.458235 87.99751 
L 355.79337 89.694066 
L 356.128505 98.199661 
L 356.46364 97.411816 
L 356.798775 89.545315 
L 357.13391 108.209697 
L 357.469046 93.620288 
L 357.804181 98.467523 
L 358.139316 95.14528 
L 358.474451 100.224247 
L 358.809586 77.272234 
L 359.479856 93.532499 
L 359.814992 108.826227 
L 360.150127 76.169497 
L 360.485262 94.683295 
L 360.820397 89.284618 
L 361.155532 99.149451 
L 361.490667 94.977561 
L 361.825802 101.332504 
L 362.160938 94.023077 
L 362.496073 104.034905 
L 362.831208 105.427787 
L 363.166343 84.620108 
L 363.501478 101.39504 
L 363.836613 100.716692 
L 364.171748 92.869263 
L 364.506883 101.161543 
L 364.842019 90.971902 
L 365.512289 111.35696 
L 365.847424 99.69651 
L 366.182559 103.969288 
L 366.517694 98.164719 
L 366.852829 107.053603 
L 367.187965 105.539036 
L 367.5231 114.384166 
L 368.19337 113.967136 
L 368.528505 109.161221 
L 368.86364 106.589396 
L 369.198775 102.330341 
L 369.53391 117.630045 
L 369.869046 103.200096 
L 370.204181 105.726252 
L 370.539316 109.318475 
L 370.874451 101.626958 
L 371.209586 104.415519 
L 371.879856 107.060528 
L 372.214992 104.730715 
L 372.550127 121.079971 
L 372.885262 128.693921 
L 373.220397 109.433744 
L 373.555532 101.712805 
L 373.890667 115.058778 
L 374.225802 106.107001 
L 374.560938 125.959183 
L 375.231208 105.921704 
L 375.566343 116.718552 
L 375.901478 115.880086 
L 376.236613 129.330328 
L 376.571748 108.600075 
L 376.906883 130.568277 
L 377.242019 135.270317 
L 377.577154 114.458152 
L 377.912289 102.235817 
L 378.582559 127.842714 
L 379.252829 101.348841 
L 379.587965 113.285742 
L 379.9231 117.506433 
L 380.258235 114.444584 
L 380.928505 112.609645 
L 381.26364 131.410278 
L 381.598775 122.641261 
L 381.93391 122.575881 
L 382.269046 130.951929 
L 382.604181 112.907443 
L 382.939316 131.951193 
L 383.274451 120.095146 
L 383.609586 129.626377 
L 383.944721 129.739085 
L 384.279856 123.619464 
L 384.950127 126.881592 
L 385.285262 117.630557 
L 385.620397 129.672017 
L 385.955532 126.02706 
L 386.290667 120.76914 
L 386.625802 121.930604 
L 386.960938 129.093482 
L 386.960938 129.093482 
" clip-path="url(#p5231c4b34f)" style="fill: none; stroke: #1f77b4; stroke-width: 1.5; stroke-linecap: square"/>
   </g>
   <g id="line2d_28">
    <path d="M 53.501478 105.900906 
L 53.836613 107.550204 
L 54.171748 100.857244 
L 54.506883 100.043025 
L 54.842019 94.538141 
L 55.512289 90.505283 
L 55.847424 89.072521 
L 56.182559 94.675382 
L 56.852829 88.281452 
L 57.187965 93.13382 
L 57.5231 88.972113 
L 57.858235 88.115974 
L 58.19337 92.519327 
L 58.528505 88.199212 
L 58.86364 87.342658 
L 59.198775 86.800082 
L 59.53391 90.22932 
L 59.869046 95.282474 
L 60.204181 94.465962 
L 60.539316 90.380521 
L 60.874451 88.765128 
L 61.544721 80.634394 
L 61.879856 89.249874 
L 62.214992 92.620547 
L 62.550127 87.495774 
L 62.885262 87.333745 
L 63.220397 80.327392 
L 63.555532 78.847609 
L 63.890667 78.501601 
L 64.225802 81.285969 
L 64.560938 78.580281 
L 64.896073 80.537036 
L 65.231208 84.780615 
L 65.566343 83.002742 
L 65.901478 85.588339 
L 66.236613 84.872219 
L 66.571748 81.068816 
L 66.906883 81.199622 
L 67.242019 85.102413 
L 67.577154 83.752057 
L 67.912289 79.807884 
L 68.247424 85.484787 
L 68.917694 78.172237 
L 69.252829 80.506416 
L 69.587965 79.099016 
L 70.59337 93.199114 
L 70.928505 93.195196 
L 71.26364 83.064883 
L 71.598775 88.413446 
L 71.93391 87.265196 
L 72.269046 84.56201 
L 72.604181 90.199719 
L 72.939316 77.907539 
L 73.274451 78.817095 
L 73.609586 82.520038 
L 73.944721 75.983667 
L 74.279856 76.897072 
L 74.614992 77.466716 
L 75.285262 68.908534 
L 75.620397 66.551073 
L 75.955532 68.693024 
L 76.290667 65.817298 
L 76.625802 70.473958 
L 76.960938 69.995695 
L 77.296073 74.187256 
L 77.631208 70.05396 
L 77.966343 71.266121 
L 78.301478 71.511817 
L 78.636613 64.960647 
L 78.971748 67.699401 
L 79.306883 67.47146 
L 79.642019 66.761988 
L 79.977154 70.905243 
L 80.312289 69.009726 
L 80.647424 65.937018 
L 80.982559 68.73063 
L 81.317694 67.060739 
L 81.652829 62.622368 
L 81.987965 67.096682 
L 82.3231 58.029603 
L 82.658235 61.676551 
L 82.99337 62.680092 
L 83.328505 60.795189 
L 83.66364 65.132406 
L 83.998775 63.882502 
L 84.33391 58.777394 
L 84.669046 62.149325 
L 85.004181 62.966953 
L 85.339316 61.198334 
L 85.674451 63.582474 
L 86.679856 61.458584 
L 87.350127 66.292406 
L 87.685262 65.097602 
L 88.020397 67.020077 
L 88.355532 61.500002 
L 88.690667 62.549792 
L 89.025802 64.003563 
L 89.360938 63.197164 
L 90.031208 65.091743 
L 90.366343 59.931257 
L 90.701478 62.008808 
L 91.036613 66.357726 
L 91.371748 63.266513 
L 91.706883 65.386662 
L 92.042019 60.368849 
L 92.377154 58.170105 
L 92.712289 58.114461 
L 93.047424 55.41878 
L 93.382559 57.842339 
L 93.717694 53.221052 
L 94.052829 51.632326 
L 94.387965 50.781154 
L 94.7231 59.464567 
L 95.39337 65.800775 
L 95.728505 71.959712 
L 96.06364 68.613039 
L 96.398775 67.505432 
L 96.73391 60.830995 
L 97.069046 59.733741 
L 97.404181 57.902396 
L 97.739316 66.336731 
L 98.074451 68.674582 
L 98.409586 69.308181 
L 98.744721 67.309726 
L 99.414992 60.610073 
L 99.750127 61.676222 
L 100.085262 63.556561 
L 100.420397 61.822973 
L 100.755532 57.492062 
L 101.090667 55.776817 
L 101.425802 52.04588 
L 101.760938 56.379475 
L 102.096073 56.748482 
L 102.431208 58.738074 
L 102.766343 61.741377 
L 103.101478 54.602136 
L 103.436613 55.350195 
L 103.771748 55.43745 
L 104.106883 60.435847 
L 104.442019 58.792074 
L 104.777154 59.294521 
L 105.447424 55.385971 
L 105.782559 57.69432 
L 106.117694 57.805901 
L 106.452829 58.442176 
L 106.787965 62.078086 
L 107.1231 58.101838 
L 107.458235 60.990475 
L 108.128505 58.579944 
L 108.46364 59.128566 
L 108.798775 55.923927 
L 109.13391 56.907391 
L 109.469046 53.501763 
L 109.804181 55.306709 
L 110.139316 59.027788 
L 110.474451 51.290982 
L 110.809586 63.360569 
L 111.144721 59.73085 
L 111.479856 60.588305 
L 111.814992 62.341776 
L 112.150127 61.835487 
L 112.485262 60.728327 
L 112.820397 63.297254 
L 113.155532 66.864492 
L 113.825802 57.602895 
L 114.160938 61.62416 
L 114.496073 57.792873 
L 115.166343 64.903003 
L 115.501478 61.825907 
L 115.836613 63.393196 
L 116.171748 65.764359 
L 116.506883 62.357361 
L 116.842019 64.406494 
L 117.177154 58.125861 
L 117.512289 59.326744 
L 117.847424 58.068898 
L 118.517694 62.078799 
L 118.852829 60.533283 
L 119.187965 59.944532 
L 119.5231 63.611699 
L 119.858235 63.156039 
L 120.528505 66.502004 
L 120.86364 62.251372 
L 121.198775 59.980936 
L 121.53391 54.922233 
L 122.204181 57.288793 
L 122.539316 55.464379 
L 122.874451 58.720142 
L 123.209586 58.821476 
L 123.544721 58.330449 
L 123.879856 63.690729 
L 124.214992 65.266801 
L 124.550127 63.839547 
L 124.885262 63.353358 
L 125.220397 65.588804 
L 125.555532 63.414694 
L 126.225802 67.655129 
L 126.560938 63.057185 
L 126.896073 60.316664 
L 127.231208 60.312437 
L 127.901478 66.650405 
L 128.236613 74.356364 
L 128.571748 73.898171 
L 129.242019 66.278395 
L 129.912289 62.799885 
L 130.247424 67.400676 
L 130.582559 63.168672 
L 130.917694 67.259802 
L 131.252829 69.152637 
L 131.587965 68.817943 
L 131.9231 72.143043 
L 132.59337 65.714243 
L 132.928505 68.949338 
L 133.26364 69.723806 
L 133.598775 72.437906 
L 133.93391 76.968157 
L 134.269046 77.374265 
L 134.604181 79.526496 
L 134.939316 80.141987 
L 135.274451 77.015242 
L 135.609586 75.96775 
L 135.944721 69.743994 
L 136.279856 67.722972 
L 136.614992 70.74562 
L 136.950127 69.020373 
L 137.285262 71.330043 
L 137.620397 76.108968 
L 137.955532 75.438654 
L 138.290667 79.863707 
L 138.625802 80.807553 
L 138.960938 76.386059 
L 139.296073 73.798074 
L 139.631208 70.057332 
L 139.966343 71.373754 
L 140.971748 86.719427 
L 141.306883 85.938617 
L 141.642019 86.902439 
L 141.977154 84.278111 
L 142.312289 84.653206 
L 142.647424 82.470561 
L 142.982559 83.220558 
L 143.317694 88.113494 
L 143.652829 87.175062 
L 143.987965 88.162959 
L 144.3231 88.493203 
L 144.658235 82.882839 
L 144.99337 89.563686 
L 145.328505 91.02775 
L 145.66364 90.353078 
L 145.998775 93.501909 
L 146.33391 91.165147 
L 146.669046 86.896036 
L 147.004181 86.709424 
L 147.339316 86.789248 
L 147.674451 84.914318 
L 148.009586 84.272383 
L 148.344721 83.920093 
L 148.679856 85.782391 
L 149.014992 86.902842 
L 149.350127 82.394477 
L 149.685262 87.645451 
L 150.020397 84.530568 
L 150.355532 82.640397 
L 150.690667 89.789219 
L 151.025802 89.017918 
L 151.360938 90.956664 
L 151.696073 96.007562 
L 152.031208 97.41745 
L 152.701478 91.219727 
L 153.036613 90.531655 
L 153.371748 91.843318 
L 153.706883 95.255114 
L 154.042019 97.258078 
L 154.377154 101.055908 
L 154.712289 100.576118 
L 155.382559 98.429787 
L 155.717694 95.411658 
L 156.052829 94.673175 
L 156.7231 99.524079 
L 157.058235 96.650085 
L 157.39337 103.264059 
L 157.728505 106.209655 
L 158.06364 102.552293 
L 158.398775 103.585696 
L 159.069046 96.686449 
L 159.404181 101.996202 
L 160.409586 109.569928 
L 160.744721 99.942604 
L 161.079856 100.495276 
L 161.414992 96.448156 
L 161.750127 95.636447 
L 162.420397 107.204355 
L 162.755532 104.245445 
L 163.090667 107.801107 
L 163.425802 110.000701 
L 163.760938 106.318772 
L 164.096073 110.15555 
L 164.766343 108.490931 
L 165.101478 108.30435 
L 165.436613 106.262267 
L 165.771748 110.254366 
L 166.106883 117.129696 
L 166.442019 121.201152 
L 166.777154 120.688168 
L 167.112289 117.579802 
L 167.447424 116.624986 
L 167.782559 118.313946 
L 168.117694 121.840345 
L 168.452829 123.229538 
L 168.787965 120.096861 
L 169.1231 114.574572 
L 169.458235 113.594703 
L 169.79337 110.909791 
L 170.128505 114.325074 
L 170.46364 115.6885 
L 170.798775 113.677374 
L 171.13391 116.787317 
L 171.469046 118.258528 
L 171.804181 121.585186 
L 172.139316 120.897525 
L 172.474451 116.224131 
L 172.809586 117.329458 
L 173.479856 122.200305 
L 173.814992 123.503712 
L 174.150127 122.882254 
L 174.485262 126.044926 
L 174.820397 126.72673 
L 175.155532 125.825923 
L 175.825802 120.997936 
L 176.496073 117.231889 
L 177.166343 120.827924 
L 177.501478 118.951238 
L 177.836613 120.693382 
L 178.171748 120.990611 
L 178.506883 122.428376 
L 178.842019 128.20703 
L 179.177154 128.6803 
L 179.512289 130.006228 
L 180.182559 128.195294 
L 180.517694 129.017954 
L 180.852829 126.462471 
L 181.5231 125.963149 
L 181.858235 126.422006 
L 182.19337 127.635408 
L 182.528505 127.951898 
L 182.86364 127.513576 
L 183.53391 124.763176 
L 183.869046 122.08598 
L 184.204181 121.883222 
L 184.539316 125.677542 
L 184.874451 126.521449 
L 185.209586 128.752785 
L 185.544721 130.036481 
L 185.879856 128.408491 
L 186.550127 131.690689 
L 186.885262 131.077864 
L 187.220397 132.421731 
L 187.555532 129.749653 
L 187.890667 129.277207 
L 188.225802 129.601376 
L 188.896073 132.031363 
L 189.231208 131.588106 
L 189.566343 132.712682 
L 189.901478 131.382095 
L 190.236613 128.530225 
L 190.571748 129.257307 
L 190.906883 130.972069 
L 191.577154 135.824131 
L 191.912289 131.153997 
L 192.247424 130.440142 
L 192.582559 129.386359 
L 192.917694 135.580081 
L 193.252829 137.705445 
L 193.587965 138.929952 
L 193.9231 139.558124 
L 194.258235 134.129264 
L 194.59337 131.382772 
L 194.928505 131.161529 
L 195.93391 140.288598 
L 196.269046 136.425515 
L 196.604181 137.904293 
L 196.939316 134.126292 
L 197.609586 133.684491 
L 197.944721 134.879358 
L 198.279856 135.304663 
L 198.614992 136.216347 
L 198.950127 136.180768 
L 199.285262 133.992768 
L 199.620397 136.454636 
L 199.955532 131.567587 
L 200.290667 132.036792 
L 200.625802 133.724898 
L 200.960938 138.475229 
L 201.296073 138.740954 
L 201.631208 139.581113 
L 201.966343 141.760645 
L 202.301478 137.422088 
L 202.636613 136.139527 
L 203.306883 132.619116 
L 204.312289 139.434193 
L 204.647424 139.173941 
L 204.982559 141.706892 
L 205.317694 136.846129 
L 206.3231 133.709259 
L 206.99337 135.961244 
L 207.66364 136.315062 
L 207.998775 134.816917 
L 208.33391 137.987097 
L 208.669046 135.173908 
L 209.004181 140.651109 
L 209.339316 139.360317 
L 209.674451 137.186533 
L 210.009586 138.625187 
L 210.344721 137.902587 
L 210.679856 139.40897 
L 211.014992 136.86174 
L 211.685262 139.520492 
L 212.690667 136.567109 
L 213.025802 138.343099 
L 213.360938 137.194895 
L 213.696073 138.369445 
L 214.031208 141.236864 
L 214.366343 138.448548 
L 214.701478 134.601215 
L 215.036613 134.081982 
L 215.371748 131.811662 
L 215.706883 132.843442 
L 216.042019 134.429135 
L 216.377154 134.147491 
L 216.712289 136.036171 
L 217.047424 136.454525 
L 217.717694 131.673281 
L 218.052829 130.290035 
L 218.7231 131.523598 
L 219.058235 136.015154 
L 219.39337 135.659002 
L 219.728505 140.180624 
L 220.06364 141.054628 
L 221.069046 135.213423 
L 221.404181 139.621239 
L 221.739316 133.216774 
L 222.074451 139.173231 
L 222.409586 135.951553 
L 222.744721 135.555533 
L 223.079856 135.384628 
L 223.414992 134.186465 
L 223.750127 134.130354 
L 224.420397 132.039575 
L 224.755532 131.36198 
L 225.090667 129.580152 
L 225.425802 130.369699 
L 225.760938 130.134051 
L 226.096073 125.157073 
L 226.431208 124.42553 
L 226.766343 127.529636 
L 227.101478 127.429698 
L 227.436613 132.018876 
L 227.771748 134.410986 
L 228.106883 131.288215 
L 228.442019 135.111897 
L 228.777154 135.346761 
L 229.112289 134.443247 
L 229.447424 135.895924 
L 229.782559 132.064738 
L 230.117694 132.544744 
L 230.452829 131.866062 
L 230.787965 127.749663 
L 231.1231 128.577133 
L 231.458235 127.494113 
L 231.79337 129.441704 
L 232.128505 132.081863 
L 232.46364 132.057309 
L 232.798775 131.659952 
L 233.13391 135.208635 
L 233.469046 131.784027 
L 233.804181 131.110719 
L 234.139316 129.262322 
L 234.474451 129.614308 
L 234.809586 134.679469 
L 235.144721 132.498274 
L 235.479856 135.88935 
L 235.814992 135.222542 
L 236.150127 130.299951 
L 236.485262 132.152905 
L 236.820397 127.418736 
L 237.155532 127.316219 
L 237.490667 128.06724 
L 237.825802 125.496587 
L 238.160938 121.564833 
L 238.496073 120.597468 
L 238.831208 126.303449 
L 239.166343 127.723442 
L 239.501478 131.625973 
L 239.836613 129.709901 
L 240.506883 123.521876 
L 241.177154 126.639645 
L 241.847424 131.62911 
L 242.182559 130.096104 
L 242.517694 127.643477 
L 242.852829 123.055347 
L 243.187965 120.52343 
L 243.5231 122.199267 
L 243.858235 120.987816 
L 244.528505 116.352856 
L 244.86364 116.080039 
L 245.53391 124.714382 
L 245.869046 124.657641 
L 246.204181 123.697047 
L 246.539316 124.206473 
L 246.874451 122.434161 
L 247.209586 125.817498 
L 247.544721 127.110483 
L 247.879856 124.062139 
L 248.214992 123.170199 
L 248.885262 116.882108 
L 249.220397 111.994747 
L 249.555532 109.608825 
L 249.890667 109.82636 
L 250.560938 115.250114 
L 250.896073 115.891575 
L 251.231208 115.782454 
L 251.566343 115.536099 
L 251.901478 110.311689 
L 252.236613 112.533242 
L 252.571748 112.076402 
L 253.242019 116.170805 
L 253.577154 115.311263 
L 253.912289 115.816496 
L 254.247424 116.539211 
L 254.582559 115.515566 
L 254.917694 115.75234 
L 255.252829 115.057443 
L 255.587965 111.283051 
L 255.9231 109.655632 
L 256.258235 110.47906 
L 256.59337 111.882224 
L 256.928505 110.323697 
L 257.26364 102.486175 
L 257.93391 93.185823 
L 258.269046 97.614129 
L 258.604181 100.439269 
L 258.939316 105.014172 
L 259.274451 102.071566 
L 259.609586 102.85254 
L 259.944721 105.724179 
L 260.279856 107.194103 
L 260.614992 104.630266 
L 260.950127 105.645456 
L 261.285262 107.273383 
L 261.620397 102.976804 
L 261.955532 106.041194 
L 262.290667 106.777224 
L 262.625802 102.614613 
L 262.960938 101.568336 
L 263.296073 99.266654 
L 263.631208 92.818079 
L 263.966343 94.610776 
L 264.301478 97.632818 
L 264.636613 106.82165 
L 264.971748 109.666771 
L 265.306883 107.263905 
L 265.977154 93.507636 
L 266.312289 92.081404 
L 266.647424 91.384151 
L 266.982559 95.014106 
L 267.317694 100.064337 
L 267.652829 98.365077 
L 267.987965 97.563902 
L 268.3231 99.715311 
L 268.658235 93.851079 
L 268.99337 91.831222 
L 269.66364 84.220262 
L 269.998775 85.335102 
L 270.33391 92.629267 
L 271.004181 99.813296 
L 271.339316 98.645668 
L 272.009586 89.476784 
L 272.344721 85.159494 
L 272.679856 85.655312 
L 273.014992 84.895331 
L 273.350127 82.330393 
L 273.685262 86.931125 
L 274.020397 84.764899 
L 274.355532 84.293842 
L 274.690667 90.10722 
L 275.360937 82.582178 
L 275.696073 85.469859 
L 276.031208 85.146816 
L 276.701478 82.301547 
L 277.036613 81.699435 
L 277.371748 82.241071 
L 277.706883 83.012127 
L 278.042019 88.474149 
L 278.712289 87.024296 
L 279.047424 84.72335 
L 279.382559 77.702713 
L 279.717694 73.111697 
L 280.052829 74.177565 
L 280.387965 70.932762 
L 280.7231 70.594062 
L 281.058235 74.53261 
L 281.39337 74.610742 
L 281.728505 73.479574 
L 282.06364 74.321389 
L 282.398775 70.279162 
L 282.73391 71.025024 
L 283.069046 74.312461 
L 283.739316 76.639097 
L 284.409586 76.402812 
L 284.744721 76.633453 
L 285.079856 82.433095 
L 285.414992 78.577716 
L 285.750127 77.679755 
L 286.085262 77.13955 
L 286.420397 69.28521 
L 286.755532 73.027761 
L 287.090667 71.645327 
L 287.425802 75.95767 
L 287.760938 75.668987 
L 288.096073 73.840387 
L 288.431208 70.06351 
L 288.766343 63.888363 
L 289.101478 62.687842 
L 289.436613 60.05536 
L 289.771748 69.092209 
L 290.106883 66.72536 
L 290.442019 68.641756 
L 290.777154 66.011599 
L 291.112289 64.588568 
L 291.447424 59.637751 
L 291.782559 64.652455 
L 292.452829 66.43513 
L 292.787965 72.069195 
L 293.458235 64.302446 
L 293.79337 63.937448 
L 294.128505 59.945281 
L 294.46364 65.311788 
L 294.798775 63.791994 
L 295.13391 65.066881 
L 295.469046 61.335449 
L 295.804181 64.167909 
L 296.139316 62.370298 
L 296.474451 69.667937 
L 296.809586 69.624009 
L 297.144721 68.706891 
L 297.479856 67.442761 
L 297.814992 65.252762 
L 298.150127 68.386571 
L 298.485262 65.612301 
L 298.820397 67.157905 
L 299.490667 59.833538 
L 299.825802 61.479631 
L 300.160938 56.796579 
L 300.496073 66.877416 
L 300.831208 57.895476 
L 301.501478 62.997318 
L 301.836613 57.395915 
L 302.171748 62.30265 
L 302.506883 62.911279 
L 302.842019 62.181192 
L 303.177154 63.679228 
L 303.512289 63.862493 
L 303.847424 65.173713 
L 304.182559 60.497456 
L 304.517694 61.131349 
L 304.852829 56.687318 
L 305.187965 59.690599 
L 305.5231 64.850016 
L 305.858235 60.678047 
L 306.19337 65.928629 
L 306.528505 62.148865 
L 306.86364 56.194441 
L 307.198775 59.208859 
L 307.53391 60.641457 
L 307.869046 60.699871 
L 308.204181 65.522761 
L 308.539316 60.871741 
L 308.874451 59.345696 
L 309.209586 54.029087 
L 309.544721 53.283601 
L 309.879856 54.884141 
L 310.214992 49.429077 
L 310.550127 53.133706 
L 310.885262 51.052114 
L 311.220397 52.572562 
L 311.555532 57.390334 
L 311.890667 58.895324 
L 312.225802 61.043161 
L 312.560938 62.2823 
L 312.896073 65.599298 
L 313.231208 61.746415 
L 313.566343 62.326011 
L 313.901478 62.128091 
L 314.236613 57.007289 
L 314.571748 55.397356 
L 314.906883 52.148099 
L 315.242019 49.993174 
L 315.912289 58.097804 
L 316.247424 61.024437 
L 316.582559 59.576026 
L 316.917694 57.348431 
L 317.252829 54.36395 
L 317.587965 53.46721 
L 317.9231 60.63988 
L 318.258235 63.32823 
L 318.59337 64.480721 
L 318.928505 67.09848 
L 319.26364 61.665902 
L 319.598775 61.748414 
L 319.93391 57.378747 
L 320.269046 56.975016 
L 320.604181 57.743356 
L 320.939316 56.266115 
L 321.274451 56.237376 
L 321.609586 55.670823 
L 322.279856 52.848425 
L 322.614992 53.182131 
L 322.950127 54.558226 
L 323.620397 54.483564 
L 323.955532 55.143928 
L 324.290667 58.228832 
L 324.625802 56.526231 
L 324.960938 64.425315 
L 325.296073 64.020607 
L 325.631208 60.604356 
L 325.966343 64.623498 
L 326.301478 65.189788 
L 326.636613 67.301877 
L 326.971748 67.290475 
L 327.306883 62.394015 
L 327.977154 59.104674 
L 328.312289 60.137205 
L 328.647424 63.768191 
L 328.982559 60.403569 
L 329.317694 58.743316 
L 329.652829 55.630405 
L 329.987965 55.712756 
L 330.658235 67.743185 
L 330.99337 72.812459 
L 331.328505 71.987546 
L 331.66364 69.223503 
L 331.998775 64.622196 
L 332.33391 64.64374 
L 332.669046 70.08817 
L 333.004181 66.010841 
L 333.339316 66.28291 
L 334.009586 59.806952 
L 334.344721 62.728689 
L 334.679856 64.443206 
L 335.014992 63.881796 
L 335.350127 61.857275 
L 335.685262 61.391487 
L 336.020397 57.54719 
L 336.355532 62.371471 
L 336.690667 64.073466 
L 337.025802 63.678358 
L 337.360937 67.693494 
L 337.696073 68.243337 
L 338.031208 67.532655 
L 338.366343 66.01673 
L 338.701478 69.005975 
L 339.036613 66.073759 
L 339.371748 68.601528 
L 339.706883 70.160476 
L 340.042019 67.547042 
L 340.377154 73.884221 
L 341.047424 76.334073 
L 342.052829 71.741224 
L 342.387965 71.513285 
L 342.7231 76.428951 
L 343.058235 78.177942 
L 343.39337 74.830564 
L 344.06364 78.870191 
L 344.398775 76.025805 
L 344.73391 78.202258 
L 345.069046 77.69736 
L 345.404181 72.947256 
L 345.739316 72.537422 
L 346.074451 69.248979 
L 346.409586 63.260856 
L 346.744721 72.015914 
L 347.414992 67.836392 
L 347.750127 74.873282 
L 348.085262 69.540799 
L 348.420397 75.637512 
L 348.755532 77.787066 
L 349.090667 82.294394 
L 349.425802 83.933869 
L 349.760938 80.095205 
L 350.096073 83.284554 
L 350.431208 80.106028 
L 350.766343 84.724461 
L 351.101478 84.812509 
L 351.436613 79.867398 
L 351.771748 81.439312 
L 352.106883 79.685371 
L 352.442019 75.900335 
L 353.112289 79.834841 
L 353.447424 81.124238 
L 353.782559 86.705755 
L 354.117694 85.259312 
L 354.452829 85.162282 
L 354.787965 83.226835 
L 355.1231 74.314974 
L 355.458235 78.007237 
L 355.79337 78.96243 
L 356.128505 79.069476 
L 356.46364 85.39567 
L 356.798775 88.895569 
L 357.13391 90.628004 
L 357.469046 95.363706 
L 357.804181 92.725446 
L 358.139316 95.204795 
L 358.474451 96.11914 
L 358.809586 93.669222 
L 359.144721 89.814524 
L 359.814992 85.474193 
L 360.150127 86.411657 
L 360.485262 86.747738 
L 360.820397 92.577412 
L 361.155532 88.568335 
L 361.490667 86.349409 
L 361.825802 90.516545 
L 362.160938 92.877964 
L 362.496073 94.026267 
L 362.831208 95.643432 
L 363.166343 98.136786 
L 363.501478 94.348887 
L 363.836613 97.473265 
L 364.171748 93.789997 
L 364.506883 91.449546 
L 364.842019 96.65307 
L 365.177154 93.163526 
L 365.512289 94.322095 
L 365.847424 98.663525 
L 366.182559 98.977921 
L 366.517694 103.06828 
L 367.187965 99.808734 
L 367.5231 102.214997 
L 368.19337 109.957449 
L 368.528505 111.273388 
L 368.86364 111.748827 
L 369.53391 107.54556 
L 370.204181 107.963114 
L 370.539316 106.930821 
L 370.874451 107.964265 
L 371.209586 104.056669 
L 371.879856 104.374613 
L 372.214992 103.742794 
L 372.550127 104.814169 
L 372.885262 108.590953 
L 373.220397 114.130106 
L 373.555532 115.624053 
L 374.560938 108.429598 
L 374.896073 111.086783 
L 375.231208 114.694782 
L 375.566343 112.428893 
L 375.901478 112.824189 
L 376.236613 112.24514 
L 376.571748 115.189251 
L 376.906883 116.57745 
L 377.242019 117.2046 
L 377.577154 122.089167 
L 377.912289 120.669263 
L 378.582559 113.261948 
L 378.917694 113.691294 
L 379.252829 115.321177 
L 379.587965 113.773041 
L 379.9231 111.259024 
L 380.258235 110.711329 
L 380.59337 111.452052 
L 380.928505 113.053937 
L 381.26364 112.731727 
L 381.598775 115.031738 
L 381.93391 118.420312 
L 382.269046 119.431512 
L 382.604181 122.08461 
L 382.939316 119.935632 
L 383.274451 119.738882 
L 383.609586 120.944788 
L 383.944721 120.291217 
L 384.279856 123.437642 
L 384.614992 122.334036 
L 384.950127 122.490594 
L 385.285262 122.128937 
L 385.620397 120.319575 
L 385.955532 120.364911 
L 386.290667 121.56245 
L 386.625802 120.444113 
L 386.960938 120.406258 
L 386.960938 120.406258 
" clip-path="url(#p5231c4b34f)" style="fill: none; stroke-dasharray: 5.55,2.4; stroke-dashoffset: 0; stroke: #bf00bf; stroke-width: 1.5"/>
   </g>
   <g id="line2d_29">
    <path d="M 254.582559 115.515566 
L 254.917694 115.048177 
L 255.587965 113.114665 
L 255.9231 112.740684 
L 256.928505 111.204742 
L 258.269046 109.808368 
L 259.609586 108.849192 
L 260.950127 108.194462 
L 262.625802 107.660267 
L 264.636613 107.27969 
L 267.317694 107.016976 
L 269.998775 106.759378 
L 271.339316 106.426176 
L 272.344721 105.97817 
L 273.350127 105.233989 
L 274.020397 104.481299 
L 274.690667 103.425705 
L 275.360937 101.945284 
L 276.031208 99.869072 
L 276.701478 97.533698 
L 278.042019 93.034076 
L 280.387965 84.67064 
L 281.728505 79.015306 
L 284.409586 67.024116 
L 286.085262 60.65454 
L 287.760938 55.045588 
L 289.436613 50.106716 
L 291.112289 45.757561 
L 292.787965 41.927737 
L 294.798775 37.930679 
L 296.809586 34.4993 
L 298.820397 31.553528 
L 300.831208 29.024646 
L 302.842019 26.853656 
L 304.852829 24.989906 
L 307.198775 23.146206 
L 309.544721 21.607886 
L 311.890667 20.34858 
L 314.571748 19.190065 
L 317.252829 18.271344 
L 320.269046 17.463041 
L 323.955532 16.722682 
L 327.977154 16.143526 
L 333.004181 15.652666 
L 339.371748 15.271021 
L 348.085262 14.996012 
L 361.155532 14.830451 
L 386.960938 14.76 
L 386.960938 14.76 
" clip-path="url(#p5231c4b34f)" style="fill: none; stroke-dasharray: 9.6,2.4,1.5,2.4; stroke-dashoffset: 0; stroke: #008000; stroke-width: 1.5"/>
   </g>
   <g id="patch_3">
    <path d="M 52.160938 173.52 
L 52.160938 7.2 
" style="fill: none; stroke: #000000; stroke-width: 0.8; stroke-linejoin: miter; stroke-linecap: square"/>
   </g>
   <g id="patch_4">
    <path d="M 386.960938 173.52 
L 386.960938 7.2 
" style="fill: none; stroke: #000000; stroke-width: 0.8; stroke-linejoin: miter; stroke-linecap: square"/>
   </g>
   <g id="patch_5">
    <path d="M 52.160938 173.52 
L 386.960938 173.52 
" style="fill: none; stroke: #000000; stroke-width: 0.8; stroke-linejoin: miter; stroke-linecap: square"/>
   </g>
   <g id="patch_6">
    <path d="M 52.160938 7.2 
L 386.960938 7.2 
" style="fill: none; stroke: #000000; stroke-width: 0.8; stroke-linejoin: miter; stroke-linecap: square"/>
   </g>
   <g id="legend_1">
    <g id="patch_7">
     <path d="M 164.40625 59.234375 
L 274.715625 59.234375 
Q 276.715625 59.234375 276.715625 57.234375 
L 276.715625 14.2 
Q 276.715625 12.2 274.715625 12.2 
L 164.40625 12.2 
Q 162.40625 12.2 162.40625 14.2 
L 162.40625 57.234375 
Q 162.40625 59.234375 164.40625 59.234375 
z
" style="fill: #ffffff; opacity: 0.8; stroke: #cccccc; stroke-linejoin: miter"/>
    </g>
    <g id="line2d_30">
     <path d="M 166.40625 20.298438 
L 176.40625 20.298438 
L 186.40625 20.298438 
" style="fill: none; stroke: #1f77b4; stroke-width: 1.5; stroke-linecap: square"/>
    </g>
    <g id="text_16">
     <!-- data -->
     <g transform="translate(194.40625 23.798438) scale(0.1 -0.1)">
      <defs>
       <path id="DejaVuSans-64" d="M 2906 2969 
L 2906 4863 
L 3481 4863 
L 3481 0 
L 2906 0 
L 2906 525 
Q 2725 213 2448 61 
Q 2172 -91 1784 -91 
Q 1150 -91 751 415 
Q 353 922 353 1747 
Q 353 2572 751 3078 
Q 1150 3584 1784 3584 
Q 2172 3584 2448 3432 
Q 2725 3281 2906 2969 
z
M 947 1747 
Q 947 1113 1208 752 
Q 1469 391 1925 391 
Q 2381 391 2643 752 
Q 2906 1113 2906 1747 
Q 2906 2381 2643 2742 
Q 2381 3103 1925 3103 
Q 1469 3103 1208 2742 
Q 947 2381 947 1747 
z
" transform="scale(0.015625)"/>
       <path id="DejaVuSans-61" d="M 2194 1759 
Q 1497 1759 1228 1600 
Q 959 1441 959 1056 
Q 959 750 1161 570 
Q 1363 391 1709 391 
Q 2188 391 2477 730 
Q 2766 1069 2766 1631 
L 2766 1759 
L 2194 1759 
z
M 3341 1997 
L 3341 0 
L 2766 0 
L 2766 531 
Q 2569 213 2275 61 
Q 1981 -91 1556 -91 
Q 1019 -91 701 211 
Q 384 513 384 1019 
Q 384 1609 779 1909 
Q 1175 2209 1959 2209 
L 2766 2209 
L 2766 2266 
Q 2766 2663 2505 2880 
Q 2244 3097 1772 3097 
Q 1472 3097 1187 3025 
Q 903 2953 641 2809 
L 641 3341 
Q 956 3463 1253 3523 
Q 1550 3584 1831 3584 
Q 2591 3584 2966 3190 
Q 3341 2797 3341 1997 
z
" transform="scale(0.015625)"/>
      </defs>
      <use xlink:href="#DejaVuSans-64"/>
      <use xlink:href="#DejaVuSans-61" x="63.476562"/>
      <use xlink:href="#DejaVuSans-74" x="124.755859"/>
      <use xlink:href="#DejaVuSans-61" x="163.964844"/>
     </g>
    </g>
    <g id="line2d_31">
     <path d="M 166.40625 34.976563 
L 176.40625 34.976563 
L 186.40625 34.976563 
" style="fill: none; stroke-dasharray: 5.55,2.4; stroke-dashoffset: 0; stroke: #bf00bf; stroke-width: 1.5"/>
    </g>
    <g id="text_17">
     <!-- 1-step preds -->
     <g transform="translate(194.40625 38.476563) scale(0.1 -0.1)">
      <defs>
       <path id="DejaVuSans-2d" d="M 313 2009 
L 1997 2009 
L 1997 1497 
L 313 1497 
L 313 2009 
z
" transform="scale(0.015625)"/>
       <path id="DejaVuSans-73" d="M 2834 3397 
L 2834 2853 
Q 2591 2978 2328 3040 
Q 2066 3103 1784 3103 
Q 1356 3103 1142 2972 
Q 928 2841 928 2578 
Q 928 2378 1081 2264 
Q 1234 2150 1697 2047 
L 1894 2003 
Q 2506 1872 2764 1633 
Q 3022 1394 3022 966 
Q 3022 478 2636 193 
Q 2250 -91 1575 -91 
Q 1294 -91 989 -36 
Q 684 19 347 128 
L 347 722 
Q 666 556 975 473 
Q 1284 391 1588 391 
Q 1994 391 2212 530 
Q 2431 669 2431 922 
Q 2431 1156 2273 1281 
Q 2116 1406 1581 1522 
L 1381 1569 
Q 847 1681 609 1914 
Q 372 2147 372 2553 
Q 372 3047 722 3315 
Q 1072 3584 1716 3584 
Q 2034 3584 2315 3537 
Q 2597 3491 2834 3397 
z
" transform="scale(0.015625)"/>
       <path id="DejaVuSans-70" d="M 1159 525 
L 1159 -1331 
L 581 -1331 
L 581 3500 
L 1159 3500 
L 1159 2969 
Q 1341 3281 1617 3432 
Q 1894 3584 2278 3584 
Q 2916 3584 3314 3078 
Q 3713 2572 3713 1747 
Q 3713 922 3314 415 
Q 2916 -91 2278 -91 
Q 1894 -91 1617 61 
Q 1341 213 1159 525 
z
M 3116 1747 
Q 3116 2381 2855 2742 
Q 2594 3103 2138 3103 
Q 1681 3103 1420 2742 
Q 1159 2381 1159 1747 
Q 1159 1113 1420 752 
Q 1681 391 2138 391 
Q 2594 391 2855 752 
Q 3116 1113 3116 1747 
z
" transform="scale(0.015625)"/>
       <path id="DejaVuSans-20" transform="scale(0.015625)"/>
       <path id="DejaVuSans-72" d="M 2631 2963 
Q 2534 3019 2420 3045 
Q 2306 3072 2169 3072 
Q 1681 3072 1420 2755 
Q 1159 2438 1159 1844 
L 1159 0 
L 581 0 
L 581 3500 
L 1159 3500 
L 1159 2956 
Q 1341 3275 1631 3429 
Q 1922 3584 2338 3584 
Q 2397 3584 2469 3576 
Q 2541 3569 2628 3553 
L 2631 2963 
z
" transform="scale(0.015625)"/>
      </defs>
      <use xlink:href="#DejaVuSans-31"/>
      <use xlink:href="#DejaVuSans-2d" x="63.623047"/>
      <use xlink:href="#DejaVuSans-73" x="99.707031"/>
      <use xlink:href="#DejaVuSans-74" x="151.806641"/>
      <use xlink:href="#DejaVuSans-65" x="191.015625"/>
      <use xlink:href="#DejaVuSans-70" x="252.539062"/>
      <use xlink:href="#DejaVuSans-20" x="316.015625"/>
      <use xlink:href="#DejaVuSans-70" x="347.802734"/>
      <use xlink:href="#DejaVuSans-72" x="411.279297"/>
      <use xlink:href="#DejaVuSans-65" x="450.142578"/>
      <use xlink:href="#DejaVuSans-64" x="511.666016"/>
      <use xlink:href="#DejaVuSans-73" x="575.142578"/>
     </g>
    </g>
    <g id="line2d_32">
     <path d="M 166.40625 49.654688 
L 176.40625 49.654688 
L 186.40625 49.654688 
" style="fill: none; stroke-dasharray: 9.6,2.4,1.5,2.4; stroke-dashoffset: 0; stroke: #008000; stroke-width: 1.5"/>
    </g>
    <g id="text_18">
     <!-- multistep preds -->
     <g transform="translate(194.40625 53.154688) scale(0.1 -0.1)">
      <defs>
       <path id="DejaVuSans-75" d="M 544 1381 
L 544 3500 
L 1119 3500 
L 1119 1403 
Q 1119 906 1312 657 
Q 1506 409 1894 409 
Q 2359 409 2629 706 
Q 2900 1003 2900 1516 
L 2900 3500 
L 3475 3500 
L 3475 0 
L 2900 0 
L 2900 538 
Q 2691 219 2414 64 
Q 2138 -91 1772 -91 
Q 1169 -91 856 284 
Q 544 659 544 1381 
z
M 1991 3584 
L 1991 3584 
z
" transform="scale(0.015625)"/>
       <path id="DejaVuSans-6c" d="M 603 4863 
L 1178 4863 
L 1178 0 
L 603 0 
L 603 4863 
z
" transform="scale(0.015625)"/>
      </defs>
      <use xlink:href="#DejaVuSans-6d"/>
      <use xlink:href="#DejaVuSans-75" x="97.412109"/>
      <use xlink:href="#DejaVuSans-6c" x="160.791016"/>
      <use xlink:href="#DejaVuSans-74" x="188.574219"/>
      <use xlink:href="#DejaVuSans-69" x="227.783203"/>
      <use xlink:href="#DejaVuSans-73" x="255.566406"/>
      <use xlink:href="#DejaVuSans-74" x="307.666016"/>
      <use xlink:href="#DejaVuSans-65" x="346.875"/>
      <use xlink:href="#DejaVuSans-70" x="408.398438"/>
      <use xlink:href="#DejaVuSans-20" x="471.875"/>
      <use xlink:href="#DejaVuSans-70" x="503.662109"/>
      <use xlink:href="#DejaVuSans-72" x="567.138672"/>
      <use xlink:href="#DejaVuSans-65" x="606.001953"/>
      <use xlink:href="#DejaVuSans-64" x="667.525391"/>
      <use xlink:href="#DejaVuSans-73" x="731.001953"/>
     </g>
    </g>
   </g>
  </g>
 </g>
 <defs>
  <clipPath id="p5231c4b34f">
   <rect x="52.160938" y="7.2" width="334.8" height="166.32"/>
  </clipPath>
 </defs>
</svg>
