<?xml version="1.0" encoding="utf-8" standalone="no"?>
<!DOCTYPE svg PUBLIC "-//W3C//DTD SVG 1.1//EN"
  "http://www.w3.org/Graphics/SVG/1.1/DTD/svg11.dtd">
<svg xmlns:xlink="http://www.w3.org/1999/xlink" width="245.120313pt" height="183.35625pt" viewBox="0 0 245.120313 183.35625" xmlns="http://www.w3.org/2000/svg" version="1.1">
 <metadata>
  <rdf:RDF xmlns:dc="http://purl.org/dc/elements/1.1/" xmlns:cc="http://creativecommons.org/ns#" xmlns:rdf="http://www.w3.org/1999/02/22-rdf-syntax-ns#">
   <cc:Work>
    <dc:type rdf:resource="http://purl.org/dc/dcmitype/StillImage"/>
    <dc:date>2025-06-08T17:21:22.181295</dc:date>
    <dc:format>image/svg+xml</dc:format>
    <dc:creator>
     <cc:Agent>
      <dc:title>Matplotlib v3.7.2, https://matplotlib.org/</dc:title>
     </cc:Agent>
    </dc:creator>
   </cc:Work>
  </rdf:RDF>
 </metadata>
 <defs>
  <style type="text/css">*{stroke-linejoin: round; stroke-linecap: butt}</style>
 </defs>
 <g id="figure_1">
  <g id="patch_1">
   <path d="M 0 183.35625 
L 245.120313 183.35625 
L 245.120313 0 
L 0 0 
z
" style="fill: #ffffff"/>
  </g>
  <g id="axes_1">
   <g id="patch_2">
    <path d="M 42.620312 145.8 
L 237.920313 145.8 
L 237.920313 7.2 
L 42.620312 7.2 
z
" style="fill: #ffffff"/>
   </g>
   <g id="matplotlib.axis_1">
    <g id="xtick_1">
     <g id="line2d_1">
      <defs>
       <path id="m91e5d7f6cd" d="M 0 0 
L 0 3.5 
" style="stroke: #000000; stroke-width: 0.8"/>
      </defs>
      <g>
       <use xlink:href="#m91e5d7f6cd" x="88.393794" y="145.8" style="stroke: #000000; stroke-width: 0.8"/>
      </g>
     </g>
     <g id="text_1">
      <!-- −4 -->
      <g transform="translate(81.0227 160.398438) scale(0.1 -0.1)">
       <defs>
        <path id="DejaVuSans-2212" d="M 678 2272 
L 4684 2272 
L 4684 1741 
L 678 1741 
L 678 2272 
z
" transform="scale(0.015625)"/>
        <path id="DejaVuSans-34" d="M 2419 4116 
L 825 1625 
L 2419 1625 
L 2419 4116 
z
M 2253 4666 
L 3047 4666 
L 3047 1625 
L 3713 1625 
L 3713 1100 
L 3047 1100 
L 3047 0 
L 2419 0 
L 2419 1100 
L 313 1100 
L 313 1709 
L 2253 4666 
z
" transform="scale(0.015625)"/>
       </defs>
       <use xlink:href="#DejaVuSans-2212"/>
       <use xlink:href="#DejaVuSans-34" x="83.789062"/>
      </g>
     </g>
    </g>
    <g id="xtick_2">
     <g id="line2d_2">
      <g>
       <use xlink:href="#m91e5d7f6cd" x="149.425102" y="145.8" style="stroke: #000000; stroke-width: 0.8"/>
      </g>
     </g>
     <g id="text_2">
      <!-- −2 -->
      <g transform="translate(142.054008 160.398438) scale(0.1 -0.1)">
       <defs>
        <path id="DejaVuSans-32" d="M 1228 531 
L 3431 531 
L 3431 0 
L 469 0 
L 469 531 
Q 828 903 1448 1529 
Q 2069 2156 2228 2338 
Q 2531 2678 2651 2914 
Q 2772 3150 2772 3378 
Q 2772 3750 2511 3984 
Q 2250 4219 1831 4219 
Q 1534 4219 1204 4116 
Q 875 4013 500 3803 
L 500 4441 
Q 881 4594 1212 4672 
Q 1544 4750 1819 4750 
Q 2544 4750 2975 4387 
Q 3406 4025 3406 3419 
Q 3406 3131 3298 2873 
Q 3191 2616 2906 2266 
Q 2828 2175 2409 1742 
Q 1991 1309 1228 531 
z
" transform="scale(0.015625)"/>
       </defs>
       <use xlink:href="#DejaVuSans-2212"/>
       <use xlink:href="#DejaVuSans-32" x="83.789062"/>
      </g>
     </g>
    </g>
    <g id="xtick_3">
     <g id="line2d_3">
      <g>
       <use xlink:href="#m91e5d7f6cd" x="210.45641" y="145.8" style="stroke: #000000; stroke-width: 0.8"/>
      </g>
     </g>
     <g id="text_3">
      <!-- 0 -->
      <g transform="translate(207.27516 160.398438) scale(0.1 -0.1)">
       <defs>
        <path id="DejaVuSans-30" d="M 2034 4250 
Q 1547 4250 1301 3770 
Q 1056 3291 1056 2328 
Q 1056 1369 1301 889 
Q 1547 409 2034 409 
Q 2525 409 2770 889 
Q 3016 1369 3016 2328 
Q 3016 3291 2770 3770 
Q 2525 4250 2034 4250 
z
M 2034 4750 
Q 2819 4750 3233 4129 
Q 3647 3509 3647 2328 
Q 3647 1150 3233 529 
Q 2819 -91 2034 -91 
Q 1250 -91 836 529 
Q 422 1150 422 2328 
Q 422 3509 836 4129 
Q 1250 4750 2034 4750 
z
" transform="scale(0.015625)"/>
       </defs>
       <use xlink:href="#DejaVuSans-30"/>
      </g>
     </g>
    </g>
    <g id="text_4">
     <!-- x1 -->
     <g transform="translate(134.129687 174.076563) scale(0.1 -0.1)">
      <defs>
       <path id="DejaVuSans-78" d="M 3513 3500 
L 2247 1797 
L 3578 0 
L 2900 0 
L 1881 1375 
L 863 0 
L 184 0 
L 1544 1831 
L 300 3500 
L 978 3500 
L 1906 2253 
L 2834 3500 
L 3513 3500 
z
" transform="scale(0.015625)"/>
       <path id="DejaVuSans-31" d="M 794 531 
L 1825 531 
L 1825 4091 
L 703 3866 
L 703 4441 
L 1819 4666 
L 2450 4666 
L 2450 531 
L 3481 531 
L 3481 0 
L 794 0 
L 794 531 
z
" transform="scale(0.015625)"/>
      </defs>
      <use xlink:href="#DejaVuSans-78"/>
      <use xlink:href="#DejaVuSans-31" x="59.179688"/>
     </g>
    </g>
   </g>
   <g id="matplotlib.axis_2">
    <g id="ytick_1">
     <g id="line2d_4">
      <defs>
       <path id="ma10d7055f6" d="M 0 0 
L -3.5 0 
" style="stroke: #000000; stroke-width: 0.8"/>
      </defs>
      <g>
       <use xlink:href="#ma10d7055f6" x="42.620312" y="145.8" style="stroke: #000000; stroke-width: 0.8"/>
      </g>
     </g>
     <g id="text_5">
      <!-- −3 -->
      <g transform="translate(20.878125 149.599219) scale(0.1 -0.1)">
       <defs>
        <path id="DejaVuSans-33" d="M 2597 2516 
Q 3050 2419 3304 2112 
Q 3559 1806 3559 1356 
Q 3559 666 3084 287 
Q 2609 -91 1734 -91 
Q 1441 -91 1130 -33 
Q 819 25 488 141 
L 488 750 
Q 750 597 1062 519 
Q 1375 441 1716 441 
Q 2309 441 2620 675 
Q 2931 909 2931 1356 
Q 2931 1769 2642 2001 
Q 2353 2234 1838 2234 
L 1294 2234 
L 1294 2753 
L 1863 2753 
Q 2328 2753 2575 2939 
Q 2822 3125 2822 3475 
Q 2822 3834 2567 4026 
Q 2313 4219 1838 4219 
Q 1578 4219 1281 4162 
Q 984 4106 628 3988 
L 628 4550 
Q 988 4650 1302 4700 
Q 1616 4750 1894 4750 
Q 2613 4750 3031 4423 
Q 3450 4097 3450 3541 
Q 3450 3153 3228 2886 
Q 3006 2619 2597 2516 
z
" transform="scale(0.015625)"/>
       </defs>
       <use xlink:href="#DejaVuSans-2212"/>
       <use xlink:href="#DejaVuSans-33" x="83.789062"/>
      </g>
     </g>
    </g>
    <g id="ytick_2">
     <g id="line2d_5">
      <g>
       <use xlink:href="#ma10d7055f6" x="42.620312" y="114.371429" style="stroke: #000000; stroke-width: 0.8"/>
      </g>
     </g>
     <g id="text_6">
      <!-- −2 -->
      <g transform="translate(20.878125 118.170647) scale(0.1 -0.1)">
       <use xlink:href="#DejaVuSans-2212"/>
       <use xlink:href="#DejaVuSans-32" x="83.789062"/>
      </g>
     </g>
    </g>
    <g id="ytick_3">
     <g id="line2d_6">
      <g>
       <use xlink:href="#ma10d7055f6" x="42.620312" y="82.942857" style="stroke: #000000; stroke-width: 0.8"/>
      </g>
     </g>
     <g id="text_7">
      <!-- −1 -->
      <g transform="translate(20.878125 86.742076) scale(0.1 -0.1)">
       <use xlink:href="#DejaVuSans-2212"/>
       <use xlink:href="#DejaVuSans-31" x="83.789062"/>
      </g>
     </g>
    </g>
    <g id="ytick_4">
     <g id="line2d_7">
      <g>
       <use xlink:href="#ma10d7055f6" x="42.620312" y="51.514286" style="stroke: #000000; stroke-width: 0.8"/>
      </g>
     </g>
     <g id="text_8">
      <!-- 0 -->
      <g transform="translate(29.257812 55.313504) scale(0.1 -0.1)">
       <use xlink:href="#DejaVuSans-30"/>
      </g>
     </g>
    </g>
    <g id="ytick_5">
     <g id="line2d_8">
      <g>
       <use xlink:href="#ma10d7055f6" x="42.620312" y="20.085714" style="stroke: #000000; stroke-width: 0.8"/>
      </g>
     </g>
     <g id="text_9">
      <!-- 1 -->
      <g transform="translate(29.257812 23.884933) scale(0.1 -0.1)">
       <use xlink:href="#DejaVuSans-31"/>
      </g>
     </g>
    </g>
    <g id="text_10">
     <!-- x2 -->
     <g transform="translate(14.798437 82.640625) rotate(-90) scale(0.1 -0.1)">
      <use xlink:href="#DejaVuSans-78"/>
      <use xlink:href="#DejaVuSans-32" x="59.179688"/>
     </g>
    </g>
   </g>
   <g id="line2d_9">
    <path d="M 57.87814 114.371429 
L 70.084401 13.8 
L 81.314162 74.142857 
L 91.645542 37.937143 
L 101.150411 59.660571 
L 109.894891 46.626514 
L 117.939813 54.446949 
L 125.34114 49.754688 
L 132.150362 52.570044 
L 138.414846 50.880831 
L 144.178171 51.894359 
L 149.48043 51.286242 
L 154.358509 51.651112 
L 158.846341 51.43219 
L 162.975146 51.563543 
L 166.773647 51.484731 
L 170.268268 51.532018 
L 173.48332 51.503646 
L 176.441167 51.520669 
L 179.162386 51.510455 
L 181.665908 51.516584 
" clip-path="url(#p63a571a7b0)" style="fill: none; stroke: #ff7f0e; stroke-width: 1.5; stroke-linecap: square"/>
    <defs>
     <path id="m89956e535f" d="M 0 3 
C 0.795609 3 1.55874 2.683901 2.12132 2.12132 
C 2.683901 1.55874 3 0.795609 3 0 
C 3 -0.795609 2.683901 -1.55874 2.12132 -2.12132 
C 1.55874 -2.683901 0.795609 -3 0 -3 
C -0.795609 -3 -1.55874 -2.683901 -2.12132 -2.12132 
C -2.683901 -1.55874 -3 -0.795609 -3 0 
C -3 0.795609 -2.683901 1.55874 -2.12132 2.12132 
C -1.55874 2.683901 -0.795609 3 0 3 
z
" style="stroke: #ff7f0e"/>
    </defs>
    <g clip-path="url(#p63a571a7b0)">
     <use xlink:href="#m89956e535f" x="57.87814" y="114.371429" style="fill: #ff7f0e; stroke: #ff7f0e"/>
     <use xlink:href="#m89956e535f" x="70.084401" y="13.8" style="fill: #ff7f0e; stroke: #ff7f0e"/>
     <use xlink:href="#m89956e535f" x="81.314162" y="74.142857" style="fill: #ff7f0e; stroke: #ff7f0e"/>
     <use xlink:href="#m89956e535f" x="91.645542" y="37.937143" style="fill: #ff7f0e; stroke: #ff7f0e"/>
     <use xlink:href="#m89956e535f" x="101.150411" y="59.660571" style="fill: #ff7f0e; stroke: #ff7f0e"/>
     <use xlink:href="#m89956e535f" x="109.894891" y="46.626514" style="fill: #ff7f0e; stroke: #ff7f0e"/>
     <use xlink:href="#m89956e535f" x="117.939813" y="54.446949" style="fill: #ff7f0e; stroke: #ff7f0e"/>
     <use xlink:href="#m89956e535f" x="125.34114" y="49.754688" style="fill: #ff7f0e; stroke: #ff7f0e"/>
     <use xlink:href="#m89956e535f" x="132.150362" y="52.570044" style="fill: #ff7f0e; stroke: #ff7f0e"/>
     <use xlink:href="#m89956e535f" x="138.414846" y="50.880831" style="fill: #ff7f0e; stroke: #ff7f0e"/>
     <use xlink:href="#m89956e535f" x="144.178171" y="51.894359" style="fill: #ff7f0e; stroke: #ff7f0e"/>
     <use xlink:href="#m89956e535f" x="149.48043" y="51.286242" style="fill: #ff7f0e; stroke: #ff7f0e"/>
     <use xlink:href="#m89956e535f" x="154.358509" y="51.651112" style="fill: #ff7f0e; stroke: #ff7f0e"/>
     <use xlink:href="#m89956e535f" x="158.846341" y="51.43219" style="fill: #ff7f0e; stroke: #ff7f0e"/>
     <use xlink:href="#m89956e535f" x="162.975146" y="51.563543" style="fill: #ff7f0e; stroke: #ff7f0e"/>
     <use xlink:href="#m89956e535f" x="166.773647" y="51.484731" style="fill: #ff7f0e; stroke: #ff7f0e"/>
     <use xlink:href="#m89956e535f" x="170.268268" y="51.532018" style="fill: #ff7f0e; stroke: #ff7f0e"/>
     <use xlink:href="#m89956e535f" x="173.48332" y="51.503646" style="fill: #ff7f0e; stroke: #ff7f0e"/>
     <use xlink:href="#m89956e535f" x="176.441167" y="51.520669" style="fill: #ff7f0e; stroke: #ff7f0e"/>
     <use xlink:href="#m89956e535f" x="179.162386" y="51.510455" style="fill: #ff7f0e; stroke: #ff7f0e"/>
     <use xlink:href="#m89956e535f" x="181.665908" y="51.516584" style="fill: #ff7f0e; stroke: #ff7f0e"/>
    </g>
   </g>
   <g id="PathCollection_1"/>
   <g id="PathCollection_2">
    <path d="M 97.100384 23.228688 
L 94.496875 23.820176 
L 91.445312 24.531943 
L 88.39375 25.262198 
L 85.342187 26.010939 
L 83.907937 26.371542 
L 82.290625 26.832389 
L 79.239062 27.72287 
L 76.1875 28.634301 
L 73.307067 29.514397 
L 73.135937 29.574728 
L 70.084375 30.674735 
L 67.032812 31.798917 
L 64.751933 32.657251 
L 63.98125 33.000003 
L 60.929687 34.385727 
L 57.878125 35.800016 
L 57.877938 35.800105 
L 54.826562 37.563504 
L 52.485908 38.942959 
L 51.775 39.481636 
L 48.723437 41.838794 
L 48.409625 42.085813 
L 45.671875 45.102878 
L 45.559826 45.228667 
L 43.880101 48.371521 
L 43.320215 51.514376 
L 43.880168 54.65723 
L 45.559953 57.800084 
L 45.671875 57.925728 
L 48.409823 60.942938 
L 48.723437 61.189798 
L 51.775 63.54692 
L 52.486176 64.085792 
L 54.826562 65.465071 
L 57.878125 67.228555 
L 57.878287 67.228646 
L 60.929687 68.642847 
L 63.98125 70.028557 
L 64.75237 70.371501 
L 67.032812 71.229663 
L 70.084375 72.353833 
L 73.135937 73.45383 
L 73.307615 73.514355 
L 76.1875 74.394276 
L 79.239062 75.305702 
L 82.290625 76.196176 
L 83.908608 76.657209 
L 85.342187 77.01764 
L 88.39375 77.766376 
L 91.445312 78.496627 
L 94.496875 79.208387 
L 97.10122 79.800063 
L 97.548437 79.89097 
L 100.6 80.494728 
L 103.651562 81.081944 
L 106.703125 81.652619 
L 109.754687 82.206752 
L 112.80625 82.744345 
L 113.969193 82.942917 
L 115.857812 83.234686 
L 118.909375 83.691147 
L 121.960937 84.132643 
L 125.0125 84.559173 
L 128.064062 84.970736 
L 131.115625 85.367334 
L 134.167187 85.748967 
L 136.970225 86.085771 
L 137.21875 86.113037 
L 140.270312 86.434154 
L 143.321875 86.741607 
L 146.373437 87.035395 
L 149.425 87.31552 
L 152.476562 87.581979 
L 155.528125 87.834774 
L 158.579687 88.073904 
L 161.63125 88.29937 
L 164.682812 88.511172 
L 167.734375 88.709308 
L 170.785937 88.89378 
L 173.8375 89.064587 
L 176.889062 89.22173 
L 177.035715 89.228625 
L 179.940625 89.354282 
L 182.992188 89.473711 
L 186.04375 89.580569 
L 189.095312 89.674854 
L 192.146875 89.75657 
L 195.198437 89.825712 
L 198.25 89.882285 
L 201.301562 89.926285 
L 204.353125 89.957714 
L 207.404687 89.976572 
L 210.45625 89.982858 
L 213.507812 89.976573 
L 216.559375 89.957717 
L 219.610937 89.92629 
L 222.6625 89.88229 
L 225.714062 89.82572 
L 228.765625 89.756577 
L 231.817187 89.674865 
L 234.86875 89.58058 
L 237.920312 89.473723 
" clip-path="url(#p63a571a7b0)" style="fill: none; stroke: #1f77b4; stroke-width: 1.5"/>
   </g>
   <g id="PathCollection_3">
    <path d="M 42.620312 89.825715 
L 45.671875 90.510858 
L 48.723437 91.183426 
L 51.775 91.843423 
L 54.263921 92.37148 
L 54.826562 92.482009 
L 57.878125 93.06984 
L 60.929687 93.646027 
L 63.98125 94.210577 
L 67.032812 94.763487 
L 70.084375 95.304753 
L 71.291907 95.514334 
L 73.135937 95.812313 
L 76.1875 96.294577 
L 79.239062 96.766005 
L 82.290625 97.226596 
L 85.342187 97.676348 
L 88.39375 98.115263 
L 91.445312 98.543341 
L 92.277949 98.657188 
L 94.496875 98.941009 
L 97.548437 99.321192 
L 100.6 99.691237 
L 103.651562 100.051145 
L 106.703125 100.400912 
L 109.754687 100.740543 
L 112.80625 101.070036 
L 115.857812 101.389391 
L 118.909375 101.698607 
L 119.944344 101.800042 
L 121.960937 101.985706 
L 125.0125 102.257136 
L 128.064062 102.51904 
L 131.115625 102.771421 
L 134.167187 103.014278 
L 137.21875 103.247611 
L 140.270312 103.471422 
L 143.321875 103.685707 
L 146.373437 103.890469 
L 149.425 104.085706 
L 152.476562 104.271421 
L 155.528125 104.447612 
L 158.579687 104.614278 
L 161.63125 104.771423 
L 164.682812 104.919041 
L 165.209954 104.942896 
L 167.734375 105.050609 
L 170.785937 105.171833 
L 173.8375 105.284078 
L 176.889062 105.387345 
L 179.940625 105.48163 
L 182.992188 105.566936 
L 186.04375 105.643263 
L 189.095312 105.71061 
L 192.146875 105.768977 
L 195.198437 105.818365 
L 198.25 105.858775 
L 201.301562 105.890203 
L 204.353125 105.912653 
L 207.404687 105.926123 
L 210.45625 105.930613 
L 213.507812 105.926123 
L 216.559375 105.912655 
L 219.610937 105.890205 
L 222.6625 105.858779 
L 225.714062 105.818369 
L 228.765625 105.768983 
L 231.817187 105.710616 
L 234.86875 105.64327 
L 237.920312 105.566945 
" clip-path="url(#p63a571a7b0)" style="fill: none; stroke: #1f77b4; stroke-width: 1.5"/>
   </g>
   <g id="PathCollection_4">
    <path d="M 42.620312 105.818369 
L 45.671875 106.307754 
L 48.723437 106.788161 
L 51.775 107.259587 
L 54.826562 107.722037 
L 57.274129 108.08575 
L 57.878125 108.170654 
L 60.929687 108.591117 
L 63.98125 109.003086 
L 67.032812 109.406558 
L 70.084375 109.80154 
L 73.135937 110.188025 
L 76.1875 110.566015 
L 79.239062 110.935513 
L 81.716563 111.228604 
L 82.290625 111.293034 
L 85.342187 111.627467 
L 88.39375 111.953841 
L 91.445312 112.272154 
L 94.496875 112.582409 
L 97.548437 112.884608 
L 100.6 113.178746 
L 103.651562 113.464827 
L 106.703125 113.742849 
L 109.754687 114.01281 
L 112.80625 114.274716 
L 113.969225 114.371459 
L 115.857812 114.520898 
L 118.909375 114.754695 
L 121.960937 114.980827 
L 125.0125 115.199295 
L 128.064062 115.410097 
L 131.115625 115.613231 
L 134.167187 115.808703 
L 137.21875 115.996507 
L 140.270312 116.176646 
L 143.321875 116.34912 
L 146.373437 116.51393 
L 149.425 116.67107 
L 152.476562 116.820549 
L 155.528125 116.96236 
L 158.579687 117.096506 
L 161.63125 117.222986 
L 164.682812 117.341802 
L 167.734375 117.452953 
L 169.543734 117.514313 
L 170.785937 117.55448 
L 173.8375 117.64584 
L 176.889062 117.729893 
L 179.940625 117.806637 
L 182.992188 117.876075 
L 186.04375 117.938199 
L 189.095312 117.993018 
L 192.146875 118.040528 
L 195.198437 118.080726 
L 198.25 118.113616 
L 201.301562 118.1392 
L 204.353125 118.15747 
L 207.404687 118.168434 
L 210.45625 118.17209 
L 213.507812 118.168438 
L 216.559375 118.157473 
L 219.610937 118.1392 
L 222.6625 118.113619 
L 225.714062 118.080729 
L 228.765625 118.040531 
L 231.817187 117.993025 
L 234.86875 117.938206 
L 237.920312 117.876079 
" clip-path="url(#p63a571a7b0)" style="fill: none; stroke: #1f77b4; stroke-width: 1.5"/>
   </g>
   <g id="PathCollection_5">
    <path d="M 42.620312 118.080726 
L 45.671875 118.479066 
L 48.723437 118.870097 
L 51.775 119.253817 
L 54.826562 119.630228 
L 57.878125 119.99933 
L 60.929687 120.361124 
L 63.478147 120.657167 
L 63.98125 120.713012 
L 67.032812 121.044759 
L 70.084375 121.369519 
L 73.135937 121.687299 
L 76.1875 121.998091 
L 79.239062 122.3019 
L 82.290625 122.598726 
L 85.342187 122.888567 
L 88.39375 123.171422 
L 91.445312 123.447297 
L 94.496875 123.716184 
L 95.473695 123.800021 
L 97.548437 123.970511 
L 100.6 124.214584 
L 103.651562 124.45197 
L 106.703125 124.68267 
L 109.754687 124.90668 
L 112.80625 125.124007 
L 115.857812 125.334644 
L 118.909375 125.538595 
L 121.960937 125.735859 
L 125.0125 125.926437 
L 128.064062 126.110329 
L 131.115625 126.28753 
L 134.167187 126.458046 
L 137.21875 126.621878 
L 140.270312 126.779021 
L 143.321875 126.929477 
L 143.606261 126.942875 
L 146.373437 127.067925 
L 149.425 127.19941 
L 152.476562 127.324485 
L 155.528125 127.443142 
L 158.579687 127.555387 
L 161.63125 127.661218 
L 164.682812 127.760635 
L 167.734375 127.853639 
L 170.785937 127.940229 
L 173.8375 128.020403 
L 176.889062 128.094163 
L 179.940625 128.161512 
L 182.992188 128.222445 
L 186.04375 128.276962 
L 189.095312 128.325068 
L 192.146875 128.366761 
L 195.198437 128.402036 
L 198.25 128.430899 
L 201.301562 128.453351 
L 204.353125 128.469383 
L 207.404687 128.479005 
L 210.45625 128.482213 
L 213.507812 128.479008 
L 216.559375 128.469386 
L 219.610937 128.453351 
L 222.6625 128.430902 
L 225.714062 128.402039 
L 228.765625 128.366764 
L 231.817187 128.325074 
L 234.86875 128.276968 
L 237.920312 128.222449 
" clip-path="url(#p63a571a7b0)" style="fill: none; stroke: #1f77b4; stroke-width: 1.5"/>
   </g>
   <g id="PathCollection_6">
    <path d="M 42.620312 128.402039 
L 45.671875 128.7516 
L 48.723437 129.094749 
L 51.775 129.431482 
L 54.826562 129.761802 
L 57.878125 130.085711 
L 57.878301 130.085729 
L 60.929687 130.390751 
L 63.98125 130.689631 
L 67.032812 130.982349 
L 70.084375 131.268902 
L 73.135937 131.549296 
L 76.1875 131.823525 
L 79.239062 132.091592 
L 82.290625 132.353497 
L 85.342187 132.60924 
L 88.39375 132.858818 
L 91.445312 133.102237 
L 93.070381 133.228583 
L 94.496875 133.335306 
L 97.548437 133.557677 
L 100.6 133.774119 
L 103.651562 133.984631 
L 106.703125 134.189214 
L 109.754687 134.387865 
L 112.80625 134.580588 
L 115.857812 134.76738 
L 118.909375 134.948242 
L 121.960937 135.123175 
L 125.0125 135.292178 
L 128.064062 135.455251 
L 131.115625 135.612393 
L 134.167187 135.763604 
L 137.21875 135.90889 
L 140.270312 136.048242 
L 143.321875 136.181666 
L 146.373437 136.30916 
L 147.936803 136.371438 
L 149.425 136.428565 
L 152.476562 136.539995 
L 155.528125 136.645709 
L 158.579687 136.745708 
L 161.63125 136.839994 
L 164.682812 136.928566 
L 167.734375 137.011424 
L 170.785937 137.088568 
L 173.8375 137.159995 
L 176.889062 137.225709 
L 179.940625 137.28571 
L 182.992188 137.339997 
L 186.04375 137.388566 
L 189.095312 137.431424 
L 192.146875 137.468569 
L 195.198437 137.499996 
L 198.25 137.52571 
L 201.301562 137.545713 
L 204.353125 137.559996 
L 207.404687 137.568568 
L 210.45625 137.571426 
L 213.507812 137.568571 
L 216.559375 137.559999 
L 219.610937 137.545713 
L 222.6625 137.525713 
L 225.714062 137.499999 
L 228.765625 137.468571 
L 231.817187 137.43143 
L 234.86875 137.388572 
L 237.920312 137.34 
" clip-path="url(#p63a571a7b0)" style="fill: none; stroke: #1f77b4; stroke-width: 1.5"/>
   </g>
   <g id="PathCollection_7">
    <path d="M 42.620312 137.499998 
L 45.671875 137.811426 
L 48.723437 138.117139 
L 51.775 138.417141 
L 54.826562 138.711424 
L 57.878125 138.999995 
L 60.929687 139.282854 
L 63.477997 139.514292 
L 63.98125 139.558394 
L 67.032812 139.820296 
L 70.084375 140.076688 
L 73.135937 140.327564 
L 76.1875 140.572926 
L 79.239062 140.812776 
L 82.290625 141.047112 
L 85.342187 141.275934 
L 88.39375 141.499244 
L 91.445312 141.717037 
L 94.496875 141.929316 
L 97.548437 142.136085 
L 100.6 142.337338 
L 103.651562 142.53308 
L 105.641848 142.657146 
L 106.703125 142.721059 
L 109.754687 142.899513 
L 112.80625 143.072633 
L 115.857812 143.240433 
L 118.909375 143.402901 
L 121.960937 143.560043 
L 125.0125 143.711857 
L 128.064062 143.858347 
L 131.115625 143.999513 
L 134.167187 144.135345 
L 137.21875 144.265853 
L 140.270312 144.391037 
L 143.321875 144.510892 
L 146.373437 144.625418 
L 149.425 144.73462 
L 152.476562 144.838493 
L 155.528125 144.937042 
L 158.579687 145.030262 
L 161.63125 145.118158 
L 164.682812 145.200725 
L 167.734375 145.277963 
L 170.785937 145.349877 
L 173.8375 145.416462 
L 176.889062 145.477723 
L 179.940625 145.533655 
L 182.992188 145.584258 
L 186.04375 145.629537 
L 189.095312 145.669492 
L 192.146875 145.704113 
L 195.198437 145.733415 
L 198.25 145.757383 
L 201.301562 145.776027 
L 204.353125 145.789347 
L 207.404687 145.797338 
L 210.45625 145.8 
" clip-path="url(#p63a571a7b0)" style="fill: none; stroke: #1f77b4; stroke-width: 1.5"/>
    <path d="M 210.45625 145.8 
L 213.507812 145.797338 
L 216.559375 145.789347 
L 219.610937 145.776032 
L 222.6625 145.757388 
L 225.714062 145.733415 
L 228.765625 145.704118 
L 231.817187 145.669492 
L 234.86875 145.629542 
L 237.920312 145.584263 
" clip-path="url(#p63a571a7b0)" style="fill: none; stroke: #1f77b4; stroke-width: 1.5"/>
   </g>
   <g id="PathCollection_8">
    <path d="M 42.620312 145.733415 
L 43.320206 145.8 
" clip-path="url(#p63a571a7b0)" style="fill: none; stroke: #1f77b4; stroke-width: 1.5"/>
   </g>
   <g id="PathCollection_9"/>
   <g id="patch_3">
    <path d="M 42.620312 145.8 
L 42.620312 7.2 
" style="fill: none; stroke: #000000; stroke-width: 0.8; stroke-linejoin: miter; stroke-linecap: square"/>
   </g>
   <g id="patch_4">
    <path d="M 237.920313 145.8 
L 237.920313 7.2 
" style="fill: none; stroke: #000000; stroke-width: 0.8; stroke-linejoin: miter; stroke-linecap: square"/>
   </g>
   <g id="patch_5">
    <path d="M 42.620312 145.8 
L 237.920312 145.8 
" style="fill: none; stroke: #000000; stroke-width: 0.8; stroke-linejoin: miter; stroke-linecap: square"/>
   </g>
   <g id="patch_6">
    <path d="M 42.620312 7.2 
L 237.920312 7.2 
" style="fill: none; stroke: #000000; stroke-width: 0.8; stroke-linejoin: miter; stroke-linecap: square"/>
   </g>
  </g>
 </g>
 <defs>
  <clipPath id="p63a571a7b0">
   <rect x="42.620312" y="7.2" width="195.3" height="138.6"/>
  </clipPath>
 </defs>
</svg>
