<?xml version="1.0" encoding="utf-8" standalone="no"?>
<!DOCTYPE svg PUBLIC "-//W3C//DTD SVG 1.1//EN"
  "http://www.w3.org/Graphics/SVG/1.1/DTD/svg11.dtd">
<svg xmlns:xlink="http://www.w3.org/1999/xlink" width="264.207812pt" height="183.35625pt" viewBox="0 0 264.207812 183.35625" xmlns="http://www.w3.org/2000/svg" version="1.1">
 <metadata>
  <rdf:RDF xmlns:dc="http://purl.org/dc/elements/1.1/" xmlns:cc="http://creativecommons.org/ns#" xmlns:rdf="http://www.w3.org/1999/02/22-rdf-syntax-ns#">
   <cc:Work>
    <dc:type rdf:resource="http://purl.org/dc/dcmitype/StillImage"/>
    <dc:date>2025-06-08T17:21:22.237460</dc:date>
    <dc:format>image/svg+xml</dc:format>
    <dc:creator>
     <cc:Agent>
      <dc:title>Matplotlib v3.7.2, https://matplotlib.org/</dc:title>
     </cc:Agent>
    </dc:creator>
   </cc:Work>
  </rdf:RDF>
 </metadata>
 <defs>
  <style type="text/css">*{stroke-linejoin: round; stroke-linecap: butt}</style>
 </defs>
 <g id="figure_1">
  <g id="patch_1">
   <path d="M 0 183.35625 
L 264.207812 183.35625 
L 264.207812 0 
L 0 0 
z
" style="fill: #ffffff"/>
  </g>
  <g id="axes_1">
   <g id="patch_2">
    <path d="M 61.707813 145.8 
L 257.007812 145.8 
L 257.007812 7.2 
L 61.707813 7.2 
z
" style="fill: #ffffff"/>
   </g>
   <g id="matplotlib.axis_1">
    <g id="xtick_1">
     <g id="line2d_1">
      <defs>
       <path id="m15e0cf27be" d="M 0 0 
L 0 3.5 
" style="stroke: #000000; stroke-width: 0.8"/>
      </defs>
      <g>
       <use xlink:href="#m15e0cf27be" x="107.481294" y="145.8" style="stroke: #000000; stroke-width: 0.8"/>
      </g>
     </g>
     <g id="text_1">
      <!-- −4 -->
      <g transform="translate(100.1102 160.398438) scale(0.1 -0.1)">
       <defs>
        <path id="DejaVuSans-2212" d="M 678 2272 
L 4684 2272 
L 4684 1741 
L 678 1741 
L 678 2272 
z
" transform="scale(0.015625)"/>
        <path id="DejaVuSans-34" d="M 2419 4116 
L 825 1625 
L 2419 1625 
L 2419 4116 
z
M 2253 4666 
L 3047 4666 
L 3047 1625 
L 3713 1625 
L 3713 1100 
L 3047 1100 
L 3047 0 
L 2419 0 
L 2419 1100 
L 313 1100 
L 313 1709 
L 2253 4666 
z
" transform="scale(0.015625)"/>
       </defs>
       <use xlink:href="#DejaVuSans-2212"/>
       <use xlink:href="#DejaVuSans-34" x="83.789062"/>
      </g>
     </g>
    </g>
    <g id="xtick_2">
     <g id="line2d_2">
      <g>
       <use xlink:href="#m15e0cf27be" x="168.512602" y="145.8" style="stroke: #000000; stroke-width: 0.8"/>
      </g>
     </g>
     <g id="text_2">
      <!-- −2 -->
      <g transform="translate(161.141508 160.398438) scale(0.1 -0.1)">
       <defs>
        <path id="DejaVuSans-32" d="M 1228 531 
L 3431 531 
L 3431 0 
L 469 0 
L 469 531 
Q 828 903 1448 1529 
Q 2069 2156 2228 2338 
Q 2531 2678 2651 2914 
Q 2772 3150 2772 3378 
Q 2772 3750 2511 3984 
Q 2250 4219 1831 4219 
Q 1534 4219 1204 4116 
Q 875 4013 500 3803 
L 500 4441 
Q 881 4594 1212 4672 
Q 1544 4750 1819 4750 
Q 2544 4750 2975 4387 
Q 3406 4025 3406 3419 
Q 3406 3131 3298 2873 
Q 3191 2616 2906 2266 
Q 2828 2175 2409 1742 
Q 1991 1309 1228 531 
z
" transform="scale(0.015625)"/>
       </defs>
       <use xlink:href="#DejaVuSans-2212"/>
       <use xlink:href="#DejaVuSans-32" x="83.789062"/>
      </g>
     </g>
    </g>
    <g id="xtick_3">
     <g id="line2d_3">
      <g>
       <use xlink:href="#m15e0cf27be" x="229.54391" y="145.8" style="stroke: #000000; stroke-width: 0.8"/>
      </g>
     </g>
     <g id="text_3">
      <!-- 0 -->
      <g transform="translate(226.36266 160.398438) scale(0.1 -0.1)">
       <defs>
        <path id="DejaVuSans-30" d="M 2034 4250 
Q 1547 4250 1301 3770 
Q 1056 3291 1056 2328 
Q 1056 1369 1301 889 
Q 1547 409 2034 409 
Q 2525 409 2770 889 
Q 3016 1369 3016 2328 
Q 3016 3291 2770 3770 
Q 2525 4250 2034 4250 
z
M 2034 4750 
Q 2819 4750 3233 4129 
Q 3647 3509 3647 2328 
Q 3647 1150 3233 529 
Q 2819 -91 2034 -91 
Q 1250 -91 836 529 
Q 422 1150 422 2328 
Q 422 3509 836 4129 
Q 1250 4750 2034 4750 
z
" transform="scale(0.015625)"/>
       </defs>
       <use xlink:href="#DejaVuSans-30"/>
      </g>
     </g>
    </g>
    <g id="text_4">
     <!-- x1 -->
     <g transform="translate(153.217188 174.076563) scale(0.1 -0.1)">
      <defs>
       <path id="DejaVuSans-78" d="M 3513 3500 
L 2247 1797 
L 3578 0 
L 2900 0 
L 1881 1375 
L 863 0 
L 184 0 
L 1544 1831 
L 300 3500 
L 978 3500 
L 1906 2253 
L 2834 3500 
L 3513 3500 
z
" transform="scale(0.015625)"/>
       <path id="DejaVuSans-31" d="M 794 531 
L 1825 531 
L 1825 4091 
L 703 3866 
L 703 4441 
L 1819 4666 
L 2450 4666 
L 2450 531 
L 3481 531 
L 3481 0 
L 794 0 
L 794 531 
z
" transform="scale(0.015625)"/>
      </defs>
      <use xlink:href="#DejaVuSans-78"/>
      <use xlink:href="#DejaVuSans-31" x="59.179688"/>
     </g>
    </g>
   </g>
   <g id="matplotlib.axis_2">
    <g id="ytick_1">
     <g id="line2d_4">
      <defs>
       <path id="mf86d0a26b3" d="M 0 0 
L -3.5 0 
" style="stroke: #000000; stroke-width: 0.8"/>
      </defs>
      <g>
       <use xlink:href="#mf86d0a26b3" x="61.707813" y="109.923469" style="stroke: #000000; stroke-width: 0.8"/>
      </g>
     </g>
     <g id="text_5">
      <!-- −1000 -->
      <g transform="translate(20.878125 113.722687) scale(0.1 -0.1)">
       <use xlink:href="#DejaVuSans-2212"/>
       <use xlink:href="#DejaVuSans-31" x="83.789062"/>
       <use xlink:href="#DejaVuSans-30" x="147.412109"/>
       <use xlink:href="#DejaVuSans-30" x="211.035156"/>
       <use xlink:href="#DejaVuSans-30" x="274.658203"/>
      </g>
     </g>
    </g>
    <g id="ytick_2">
     <g id="line2d_5">
      <g>
       <use xlink:href="#mf86d0a26b3" x="61.707813" y="66" style="stroke: #000000; stroke-width: 0.8"/>
      </g>
     </g>
     <g id="text_6">
      <!-- 0 -->
      <g transform="translate(48.345313 69.799219) scale(0.1 -0.1)">
       <use xlink:href="#DejaVuSans-30"/>
      </g>
     </g>
    </g>
    <g id="ytick_3">
     <g id="line2d_6">
      <g>
       <use xlink:href="#mf86d0a26b3" x="61.707813" y="22.076531" style="stroke: #000000; stroke-width: 0.8"/>
      </g>
     </g>
     <g id="text_7">
      <!-- 1000 -->
      <g transform="translate(29.257812 25.87575) scale(0.1 -0.1)">
       <use xlink:href="#DejaVuSans-31"/>
       <use xlink:href="#DejaVuSans-30" x="63.623047"/>
       <use xlink:href="#DejaVuSans-30" x="127.246094"/>
       <use xlink:href="#DejaVuSans-30" x="190.869141"/>
      </g>
     </g>
    </g>
    <g id="text_8">
     <!-- x2 -->
     <g transform="translate(14.798438 82.640625) rotate(-90) scale(0.1 -0.1)">
      <use xlink:href="#DejaVuSans-78"/>
      <use xlink:href="#DejaVuSans-32" x="59.179688"/>
     </g>
    </g>
   </g>
   <g id="line2d_7">
    <path d="M 76.96564 66.087847 
L 95.275032 65.877014 
L 111.387297 66.17218 
L 125.566091 65.758948 
L 138.043429 66.337473 
L 149.023487 65.527538 
L 158.685938 66.661447 
L 167.188894 65.073975 
L 174.671496 67.296435 
L 181.256186 64.18499 
L 187.050713 68.541014 
L 192.149896 62.442581 
L 196.637178 70.980387 
L 200.585986 59.027459 
L 204.060937 75.761558 
L 207.118894 52.333819 
L 209.809896 85.132653 
L 212.177977 39.214286 
L 214.261889 103.5 
L 216.095732 13.5 
L 217.709513 139.5 
" clip-path="url(#pbce308e1e0)" style="fill: none; stroke: #ff7f0e; stroke-width: 1.5; stroke-linecap: square"/>
    <defs>
     <path id="m7eacdac64c" d="M 0 3 
C 0.795609 3 1.55874 2.683901 2.12132 2.12132 
C 2.683901 1.55874 3 0.795609 3 0 
C 3 -0.795609 2.683901 -1.55874 2.12132 -2.12132 
C 1.55874 -2.683901 0.795609 -3 0 -3 
C -0.795609 -3 -1.55874 -2.683901 -2.12132 -2.12132 
C -2.683901 -1.55874 -3 -0.795609 -3 0 
C -3 0.795609 -2.683901 1.55874 -2.12132 2.12132 
C -1.55874 2.683901 -0.795609 3 0 3 
z
" style="stroke: #ff7f0e"/>
    </defs>
    <g clip-path="url(#pbce308e1e0)">
     <use xlink:href="#m7eacdac64c" x="76.96564" y="66.087847" style="fill: #ff7f0e; stroke: #ff7f0e"/>
     <use xlink:href="#m7eacdac64c" x="95.275032" y="65.877014" style="fill: #ff7f0e; stroke: #ff7f0e"/>
     <use xlink:href="#m7eacdac64c" x="111.387297" y="66.17218" style="fill: #ff7f0e; stroke: #ff7f0e"/>
     <use xlink:href="#m7eacdac64c" x="125.566091" y="65.758948" style="fill: #ff7f0e; stroke: #ff7f0e"/>
     <use xlink:href="#m7eacdac64c" x="138.043429" y="66.337473" style="fill: #ff7f0e; stroke: #ff7f0e"/>
     <use xlink:href="#m7eacdac64c" x="149.023487" y="65.527538" style="fill: #ff7f0e; stroke: #ff7f0e"/>
     <use xlink:href="#m7eacdac64c" x="158.685938" y="66.661447" style="fill: #ff7f0e; stroke: #ff7f0e"/>
     <use xlink:href="#m7eacdac64c" x="167.188894" y="65.073975" style="fill: #ff7f0e; stroke: #ff7f0e"/>
     <use xlink:href="#m7eacdac64c" x="174.671496" y="67.296435" style="fill: #ff7f0e; stroke: #ff7f0e"/>
     <use xlink:href="#m7eacdac64c" x="181.256186" y="64.18499" style="fill: #ff7f0e; stroke: #ff7f0e"/>
     <use xlink:href="#m7eacdac64c" x="187.050713" y="68.541014" style="fill: #ff7f0e; stroke: #ff7f0e"/>
     <use xlink:href="#m7eacdac64c" x="192.149896" y="62.442581" style="fill: #ff7f0e; stroke: #ff7f0e"/>
     <use xlink:href="#m7eacdac64c" x="196.637178" y="70.980387" style="fill: #ff7f0e; stroke: #ff7f0e"/>
     <use xlink:href="#m7eacdac64c" x="200.585986" y="59.027459" style="fill: #ff7f0e; stroke: #ff7f0e"/>
     <use xlink:href="#m7eacdac64c" x="204.060937" y="75.761558" style="fill: #ff7f0e; stroke: #ff7f0e"/>
     <use xlink:href="#m7eacdac64c" x="207.118894" y="52.333819" style="fill: #ff7f0e; stroke: #ff7f0e"/>
     <use xlink:href="#m7eacdac64c" x="209.809896" y="85.132653" style="fill: #ff7f0e; stroke: #ff7f0e"/>
     <use xlink:href="#m7eacdac64c" x="212.177977" y="39.214286" style="fill: #ff7f0e; stroke: #ff7f0e"/>
     <use xlink:href="#m7eacdac64c" x="214.261889" y="103.5" style="fill: #ff7f0e; stroke: #ff7f0e"/>
     <use xlink:href="#m7eacdac64c" x="216.095732" y="13.5" style="fill: #ff7f0e; stroke: #ff7f0e"/>
     <use xlink:href="#m7eacdac64c" x="217.709513" y="139.5" style="fill: #ff7f0e; stroke: #ff7f0e"/>
    </g>
   </g>
   <g id="PathCollection_1"/>
   <g id="PathCollection_2">
    <path d="M 116.187884 65.960469 
L 113.584375 65.961296 
L 110.532813 65.96229 
L 107.48125 65.963311 
L 104.429688 65.964357 
L 102.995437 65.964861 
L 101.378125 65.965505 
L 98.326563 65.96675 
L 95.275 65.968024 
L 92.394567 65.969254 
L 92.223438 65.969338 
L 89.171875 65.970875 
L 86.120313 65.972446 
L 83.839433 65.973646 
L 83.06875 65.974125 
L 80.017188 65.976062 
L 76.965625 65.978038 
L 76.965438 65.978038 
L 73.914062 65.980503 
L 71.573408 65.982431 
L 70.8625 65.983184 
L 67.810937 65.986478 
L 67.497125 65.986823 
L 64.759375 65.99104 
L 64.647326 65.991215 
L 62.967601 65.995608 
L 62.407715 66 
L 62.967668 66.004392 
L 64.647453 66.008785 
L 64.759375 66.00896 
L 67.497323 66.013177 
L 67.810937 66.013522 
L 70.8625 66.016816 
L 71.573676 66.017569 
L 73.914062 66.019497 
L 76.965625 66.021962 
L 76.965787 66.021962 
L 80.017188 66.023938 
L 83.06875 66.025875 
L 83.83987 66.026354 
L 86.120313 66.027554 
L 89.171875 66.029125 
L 92.223438 66.030662 
L 92.395115 66.030747 
L 95.275 66.031976 
L 98.326563 66.03325 
L 101.378125 66.034495 
L 102.996108 66.035139 
L 104.429688 66.035643 
L 107.48125 66.036689 
L 110.532813 66.03771 
L 113.584375 66.038704 
L 116.18872 66.039531 
L 116.635938 66.039658 
L 119.6875 66.040502 
L 122.739063 66.041323 
L 125.790625 66.04212 
L 128.842188 66.042895 
L 131.89375 66.043646 
L 133.056693 66.043924 
L 134.945312 66.044331 
L 137.996875 66.044969 
L 141.048438 66.045586 
L 144.1 66.046182 
L 147.151563 66.046758 
L 150.203125 66.047312 
L 153.254687 66.047845 
L 156.057725 66.048316 
L 156.30625 66.048354 
L 159.357813 66.048803 
L 162.409375 66.049232 
L 165.460938 66.049643 
L 168.5125 66.050035 
L 171.564063 66.050407 
L 174.615625 66.05076 
L 177.667188 66.051094 
L 180.71875 66.05141 
L 183.770313 66.051706 
L 186.821875 66.051982 
L 189.873438 66.05224 
L 192.925 66.052479 
L 195.976563 66.052699 
L 196.123215 66.052708 
L 199.028125 66.052884 
L 202.079688 66.053051 
L 205.13125 66.0532 
L 208.182813 66.053332 
L 211.234375 66.053446 
L 214.285938 66.053543 
L 217.3375 66.053622 
L 220.389063 66.053683 
L 223.440625 66.053727 
L 226.492188 66.053754 
L 229.54375 66.053762 
L 232.595313 66.053754 
L 235.646875 66.053727 
L 238.698438 66.053683 
L 241.75 66.053622 
L 244.801563 66.053543 
L 247.853125 66.053446 
L 250.904688 66.053332 
L 253.95625 66.0532 
L 257.007812 66.053051 
" clip-path="url(#pbce308e1e0)" style="fill: none; stroke: #1f77b4; stroke-width: 1.5"/>
   </g>
   <g id="PathCollection_3">
    <path d="M 61.707813 66.053543 
L 64.759375 66.0545 
L 67.810937 66.05544 
L 70.8625 66.056363 
L 73.351421 66.057101 
L 73.914062 66.057255 
L 76.965625 66.058077 
L 80.017188 66.058882 
L 83.06875 66.059671 
L 86.120313 66.060444 
L 89.171875 66.0612 
L 90.379407 66.061493 
L 92.223438 66.061909 
L 95.275 66.062583 
L 98.326563 66.063242 
L 101.378125 66.063886 
L 104.429688 66.064514 
L 107.48125 66.065128 
L 110.532813 66.065726 
L 111.365449 66.065885 
L 113.584375 66.066282 
L 116.635938 66.066813 
L 119.6875 66.06733 
L 122.739063 66.067833 
L 125.790625 66.068322 
L 128.842188 66.068797 
L 131.89375 66.069257 
L 134.945312 66.069704 
L 137.996875 66.070136 
L 139.031844 66.070278 
L 141.048438 66.070537 
L 144.1 66.070916 
L 147.151563 66.071282 
L 150.203125 66.071635 
L 153.254688 66.071975 
L 156.30625 66.072301 
L 159.357813 66.072613 
L 162.409375 66.072913 
L 165.460938 66.073199 
L 168.5125 66.073472 
L 171.564063 66.073732 
L 174.615625 66.073978 
L 177.667188 66.074211 
L 180.71875 66.07443 
L 183.770313 66.074637 
L 184.297454 66.07467 
L 186.821875 66.07482 
L 189.873438 66.07499 
L 192.925 66.075147 
L 195.976563 66.075291 
L 199.028125 66.075423 
L 202.079688 66.075542 
L 205.13125 66.075649 
L 208.182813 66.075743 
L 211.234375 66.075824 
L 214.285938 66.075893 
L 217.3375 66.07595 
L 220.389063 66.075994 
L 223.440625 66.076025 
L 226.492188 66.076044 
L 229.54375 66.07605 
L 232.595313 66.076044 
L 235.646875 66.076025 
L 238.698438 66.075994 
L 241.75 66.07595 
L 244.801563 66.075893 
L 247.853125 66.075824 
L 250.904688 66.075743 
L 253.95625 66.075649 
L 257.007812 66.075542 
" clip-path="url(#pbce308e1e0)" style="fill: none; stroke: #1f77b4; stroke-width: 1.5"/>
   </g>
   <g id="PathCollection_4">
    <path d="M 61.707813 66.075893 
L 64.759375 66.076577 
L 67.810937 66.077249 
L 70.8625 66.077908 
L 73.914062 66.078554 
L 76.361629 66.079062 
L 76.965625 66.079181 
L 80.017188 66.079769 
L 83.06875 66.080344 
L 86.120313 66.080908 
L 89.171875 66.08146 
L 92.223438 66.082 
L 95.275 66.082529 
L 98.326563 66.083045 
L 100.804063 66.083455 
L 101.378125 66.083545 
L 104.429688 66.084012 
L 107.48125 66.084468 
L 110.532813 66.084913 
L 113.584375 66.085347 
L 116.635938 66.085769 
L 119.6875 66.08618 
L 122.739063 66.08658 
L 125.790625 66.086968 
L 128.842188 66.087346 
L 131.89375 66.087712 
L 133.056725 66.087847 
L 134.945312 66.088056 
L 137.996875 66.088383 
L 141.048438 66.088699 
L 144.1 66.089004 
L 147.151563 66.089299 
L 150.203125 66.089582 
L 153.254688 66.089856 
L 156.30625 66.090118 
L 159.357813 66.09037 
L 162.409375 66.090611 
L 165.460938 66.090841 
L 168.5125 66.091061 
L 171.564063 66.09127 
L 174.615625 66.091468 
L 177.667188 66.091655 
L 180.71875 66.091832 
L 183.770313 66.091998 
L 186.821875 66.092154 
L 188.631234 66.092239 
L 189.873438 66.092295 
L 192.925 66.092423 
L 195.976563 66.092541 
L 199.028125 66.092648 
L 202.079688 66.092745 
L 205.13125 66.092832 
L 208.182813 66.092908 
L 211.234375 66.092975 
L 214.285938 66.093031 
L 217.3375 66.093077 
L 220.389063 66.093113 
L 223.440625 66.093138 
L 226.492188 66.093153 
L 229.54375 66.093159 
L 232.595313 66.093154 
L 235.646875 66.093138 
L 238.698438 66.093113 
L 241.75 66.093077 
L 244.801563 66.093031 
L 247.853125 66.092975 
L 250.904688 66.092908 
L 253.95625 66.092832 
L 257.007812 66.092745 
" clip-path="url(#pbce308e1e0)" style="fill: none; stroke: #1f77b4; stroke-width: 1.5"/>
   </g>
   <g id="PathCollection_5">
    <path d="M 61.707813 66.093031 
L 64.759375 66.093588 
L 67.810937 66.094134 
L 70.8625 66.09467 
L 73.914062 66.095196 
L 76.965625 66.095712 
L 80.017188 66.096218 
L 82.565647 66.096632 
L 83.06875 66.09671 
L 86.120313 66.097173 
L 89.171875 66.097627 
L 92.223438 66.098071 
L 95.275 66.098506 
L 98.326563 66.09893 
L 101.378125 66.099345 
L 104.429688 66.09975 
L 107.48125 66.100145 
L 110.532813 66.100531 
L 113.584375 66.100907 
L 114.561195 66.101024 
L 116.635938 66.101262 
L 119.6875 66.101603 
L 122.739063 66.101935 
L 125.790625 66.102258 
L 128.842188 66.102571 
L 131.89375 66.102874 
L 134.945312 66.103169 
L 137.996875 66.103454 
L 141.048438 66.103729 
L 144.1 66.103996 
L 147.151563 66.104253 
L 150.203125 66.1045 
L 153.254687 66.104739 
L 156.30625 66.104968 
L 159.357813 66.105187 
L 162.409375 66.105398 
L 162.693761 66.105416 
L 165.460938 66.105591 
L 168.5125 66.105775 
L 171.564063 66.10595 
L 174.615625 66.106116 
L 177.667188 66.106272 
L 180.71875 66.10642 
L 183.770313 66.106559 
L 186.821875 66.106689 
L 189.873438 66.10681 
L 192.925 66.106922 
L 195.976563 66.107025 
L 199.028125 66.107119 
L 202.079688 66.107205 
L 205.13125 66.107281 
L 208.182813 66.107348 
L 211.234375 66.107406 
L 214.285938 66.107456 
L 217.3375 66.107496 
L 220.389063 66.107527 
L 223.440625 66.10755 
L 226.492188 66.107563 
L 229.54375 66.107568 
L 232.595313 66.107563 
L 235.646875 66.10755 
L 238.698438 66.107527 
L 241.75 66.107496 
L 244.801563 66.107456 
L 247.853125 66.107406 
L 250.904688 66.107348 
L 253.95625 66.107281 
L 257.007812 66.107205 
" clip-path="url(#pbce308e1e0)" style="fill: none; stroke: #1f77b4; stroke-width: 1.5"/>
   </g>
   <g id="PathCollection_6">
    <path d="M 61.707813 66.107456 
L 64.759375 66.107944 
L 67.810937 66.108424 
L 70.8625 66.108894 
L 73.914062 66.109356 
L 76.965625 66.109809 
L 76.965801 66.109809 
L 80.017188 66.110235 
L 83.06875 66.110653 
L 86.120313 66.111062 
L 89.171875 66.111462 
L 92.223438 66.111854 
L 95.275 66.112237 
L 98.326563 66.112612 
L 101.378125 66.112978 
L 104.429688 66.113335 
L 107.48125 66.113684 
L 110.532813 66.114024 
L 112.157881 66.114201 
L 113.584375 66.11435 
L 116.635938 66.114661 
L 119.6875 66.114963 
L 122.739063 66.115258 
L 125.790625 66.115544 
L 128.842188 66.115821 
L 131.89375 66.116091 
L 134.945312 66.116352 
L 137.996875 66.116604 
L 141.048438 66.116849 
L 144.1 66.117085 
L 147.151563 66.117313 
L 150.203125 66.117533 
L 153.254688 66.117744 
L 156.30625 66.117947 
L 159.357813 66.118142 
L 162.409375 66.118328 
L 165.460938 66.118506 
L 167.024303 66.118593 
L 168.5125 66.118673 
L 171.564063 66.118829 
L 174.615625 66.118977 
L 177.667188 66.119116 
L 180.71875 66.119248 
L 183.770313 66.119372 
L 186.821875 66.119488 
L 189.873438 66.119596 
L 192.925 66.119695 
L 195.976563 66.119787 
L 199.028125 66.119871 
L 202.079688 66.119947 
L 205.13125 66.120015 
L 208.182813 66.120075 
L 211.234375 66.120127 
L 214.285938 66.120171 
L 217.3375 66.120207 
L 220.389063 66.120235 
L 223.440625 66.120254 
L 226.492188 66.120266 
L 229.54375 66.12027 
L 232.595313 66.120266 
L 235.646875 66.120254 
L 238.698438 66.120235 
L 241.75 66.120207 
L 244.801563 66.120171 
L 247.853125 66.120127 
L 250.904688 66.120075 
L 253.95625 66.120015 
L 257.007812 66.119947 
" clip-path="url(#pbce308e1e0)" style="fill: none; stroke: #1f77b4; stroke-width: 1.5"/>
   </g>
   <g id="PathCollection_7">
    <path d="M 61.707813 66.120171 
L 64.759375 66.120606 
L 67.810937 66.121033 
L 70.8625 66.121452 
L 73.914062 66.121864 
L 76.965625 66.122267 
L 80.017188 66.122662 
L 82.565497 66.122986 
L 83.06875 66.123047 
L 86.120313 66.123413 
L 89.171875 66.123772 
L 92.223438 66.124122 
L 95.275 66.124465 
L 98.326563 66.1248 
L 101.378125 66.125128 
L 104.429688 66.125448 
L 107.48125 66.12576 
L 110.532813 66.126064 
L 113.584375 66.126361 
L 116.635938 66.12665 
L 119.6875 66.126931 
L 122.739063 66.127205 
L 124.729348 66.127378 
L 125.790625 66.127467 
L 128.842188 66.127717 
L 131.89375 66.127959 
L 134.945312 66.128193 
L 137.996875 66.12842 
L 141.048438 66.12864 
L 144.1 66.128852 
L 147.151563 66.129057 
L 150.203125 66.129254 
L 153.254688 66.129444 
L 156.30625 66.129626 
L 159.357813 66.129801 
L 162.409375 66.129969 
L 165.460938 66.130129 
L 168.5125 66.130281 
L 171.564063 66.130427 
L 174.615625 66.130564 
L 177.667188 66.130695 
L 180.71875 66.130817 
L 183.770313 66.130933 
L 186.821875 66.131041 
L 189.873438 66.131141 
L 192.925 66.131234 
L 195.976563 66.13132 
L 199.028125 66.131398 
L 202.079688 66.131469 
L 205.13125 66.131532 
L 208.182813 66.131588 
L 211.234375 66.131636 
L 214.285938 66.131677 
L 217.3375 66.131711 
L 220.389063 66.131737 
L 223.440625 66.131756 
L 226.492188 66.131767 
L 229.54375 66.13177 
" clip-path="url(#pbce308e1e0)" style="fill: none; stroke: #1f77b4; stroke-width: 1.5"/>
    <path d="M 229.54375 66.13177 
L 232.595313 66.131767 
L 235.646875 66.131756 
L 238.698438 66.131737 
L 241.75 66.131711 
L 244.801563 66.131677 
L 247.853125 66.131636 
L 250.904688 66.131588 
L 253.95625 66.131532 
L 257.007812 66.131469 
" clip-path="url(#pbce308e1e0)" style="fill: none; stroke: #1f77b4; stroke-width: 1.5"/>
   </g>
   <g id="PathCollection_8">
    <path d="M 61.707813 66.131677 
L 62.407706 66.13177 
" clip-path="url(#pbce308e1e0)" style="fill: none; stroke: #1f77b4; stroke-width: 1.5"/>
   </g>
   <g id="PathCollection_9"/>
   <g id="patch_3">
    <path d="M 61.707813 145.8 
L 61.707813 7.2 
" style="fill: none; stroke: #000000; stroke-width: 0.8; stroke-linejoin: miter; stroke-linecap: square"/>
   </g>
   <g id="patch_4">
    <path d="M 257.007812 145.8 
L 257.007812 7.2 
" style="fill: none; stroke: #000000; stroke-width: 0.8; stroke-linejoin: miter; stroke-linecap: square"/>
   </g>
   <g id="patch_5">
    <path d="M 61.707813 145.8 
L 257.007812 145.8 
" style="fill: none; stroke: #000000; stroke-width: 0.8; stroke-linejoin: miter; stroke-linecap: square"/>
   </g>
   <g id="patch_6">
    <path d="M 61.707813 7.2 
L 257.007812 7.2 
" style="fill: none; stroke: #000000; stroke-width: 0.8; stroke-linejoin: miter; stroke-linecap: square"/>
   </g>
  </g>
 </g>
 <defs>
  <clipPath id="pbce308e1e0">
   <rect x="61.707813" y="7.2" width="195.3" height="138.6"/>
  </clipPath>
 </defs>
</svg>
