<?xml version="1.0" encoding="utf-8" standalone="no"?>
<!DOCTYPE svg PUBLIC "-//W3C//DTD SVG 1.1//EN"
  "http://www.w3.org/Graphics/SVG/1.1/DTD/svg11.dtd">
<svg xmlns:xlink="http://www.w3.org/1999/xlink" width="539.503125pt" height="197.398125pt" viewBox="0 0 539.503125 197.398125" xmlns="http://www.w3.org/2000/svg" version="1.1">
 <metadata>
  <rdf:RDF xmlns:dc="http://purl.org/dc/elements/1.1/" xmlns:cc="http://creativecommons.org/ns#" xmlns:rdf="http://www.w3.org/1999/02/22-rdf-syntax-ns#">
   <cc:Work>
    <dc:type rdf:resource="http://purl.org/dc/dcmitype/StillImage"/>
    <dc:date>2025-06-08T12:29:51.559342</dc:date>
    <dc:format>image/svg+xml</dc:format>
    <dc:creator>
     <cc:Agent>
      <dc:title>Matplotlib v3.7.2, https://matplotlib.org/</dc:title>
     </cc:Agent>
    </dc:creator>
   </cc:Work>
  </rdf:RDF>
 </metadata>
 <defs>
  <style type="text/css">*{stroke-linejoin: round; stroke-linecap: butt}</style>
 </defs>
 <g id="figure_1">
  <g id="patch_1">
   <path d="M 0 197.398125 
L 539.503125 197.398125 
L 539.503125 0 
L 0 0 
z
" style="fill: #ffffff"/>
  </g>
  <g id="axes_1">
   <g id="patch_2">
    <path d="M 30.103125 173.52 
L 177.809007 173.52 
L 177.809007 7.2 
L 30.103125 7.2 
z
" style="fill: #ffffff"/>
   </g>
   <g id="matplotlib.axis_1">
    <g id="xtick_1">
     <g id="line2d_1">
      <path d="M 36.817029 173.52 
L 36.817029 7.2 
" clip-path="url(#p3cdfcc5cdf)" style="fill: none; stroke: #b0b0b0; stroke-width: 0.8; stroke-linecap: square"/>
     </g>
     <g id="line2d_2">
      <defs>
       <path id="mf88229f855" d="M 0 0 
L 0 3.5 
" style="stroke: #000000; stroke-width: 0.8"/>
      </defs>
      <g>
       <use xlink:href="#mf88229f855" x="36.817029" y="173.52" style="stroke: #000000; stroke-width: 0.8"/>
      </g>
     </g>
     <g id="text_1">
      <!-- −2 -->
      <g transform="translate(29.445935 188.118438) scale(0.1 -0.1)">
       <defs>
        <path id="DejaVuSans-2212" d="M 678 2272 
L 4684 2272 
L 4684 1741 
L 678 1741 
L 678 2272 
z
" transform="scale(0.015625)"/>
        <path id="DejaVuSans-32" d="M 1228 531 
L 3431 531 
L 3431 0 
L 469 0 
L 469 531 
Q 828 903 1448 1529 
Q 2069 2156 2228 2338 
Q 2531 2678 2651 2914 
Q 2772 3150 2772 3378 
Q 2772 3750 2511 3984 
Q 2250 4219 1831 4219 
Q 1534 4219 1204 4116 
Q 875 4013 500 3803 
L 500 4441 
Q 881 4594 1212 4672 
Q 1544 4750 1819 4750 
Q 2544 4750 2975 4387 
Q 3406 4025 3406 3419 
Q 3406 3131 3298 2873 
Q 3191 2616 2906 2266 
Q 2828 2175 2409 1742 
Q 1991 1309 1228 531 
z
" transform="scale(0.015625)"/>
       </defs>
       <use xlink:href="#DejaVuSans-2212"/>
       <use xlink:href="#DejaVuSans-32" x="83.789062"/>
      </g>
     </g>
    </g>
    <g id="xtick_2">
     <g id="line2d_3">
      <path d="M 104.124399 173.52 
L 104.124399 7.2 
" clip-path="url(#p3cdfcc5cdf)" style="fill: none; stroke: #b0b0b0; stroke-width: 0.8; stroke-linecap: square"/>
     </g>
     <g id="line2d_4">
      <g>
       <use xlink:href="#mf88229f855" x="104.124399" y="173.52" style="stroke: #000000; stroke-width: 0.8"/>
      </g>
     </g>
     <g id="text_2">
      <!-- 0 -->
      <g transform="translate(100.943149 188.118438) scale(0.1 -0.1)">
       <defs>
        <path id="DejaVuSans-30" d="M 2034 4250 
Q 1547 4250 1301 3770 
Q 1056 3291 1056 2328 
Q 1056 1369 1301 889 
Q 1547 409 2034 409 
Q 2525 409 2770 889 
Q 3016 1369 3016 2328 
Q 3016 3291 2770 3770 
Q 2525 4250 2034 4250 
z
M 2034 4750 
Q 2819 4750 3233 4129 
Q 3647 3509 3647 2328 
Q 3647 1150 3233 529 
Q 2819 -91 2034 -91 
Q 1250 -91 836 529 
Q 422 1150 422 2328 
Q 422 3509 836 4129 
Q 1250 4750 2034 4750 
z
" transform="scale(0.015625)"/>
       </defs>
       <use xlink:href="#DejaVuSans-30"/>
      </g>
     </g>
    </g>
    <g id="xtick_3">
     <g id="line2d_5">
      <path d="M 171.431769 173.52 
L 171.431769 7.2 
" clip-path="url(#p3cdfcc5cdf)" style="fill: none; stroke: #b0b0b0; stroke-width: 0.8; stroke-linecap: square"/>
     </g>
     <g id="line2d_6">
      <g>
       <use xlink:href="#mf88229f855" x="171.431769" y="173.52" style="stroke: #000000; stroke-width: 0.8"/>
      </g>
     </g>
     <g id="text_3">
      <!-- 2 -->
      <g transform="translate(168.250519 188.118438) scale(0.1 -0.1)">
       <use xlink:href="#DejaVuSans-32"/>
      </g>
     </g>
    </g>
   </g>
   <g id="matplotlib.axis_2">
    <g id="ytick_1">
     <g id="line2d_7">
      <path d="M 30.103125 165.96 
L 177.809007 165.96 
" clip-path="url(#p3cdfcc5cdf)" style="fill: none; stroke: #b0b0b0; stroke-width: 0.8; stroke-linecap: square"/>
     </g>
     <g id="line2d_8">
      <defs>
       <path id="m9a1be2096f" d="M 0 0 
L -3.5 0 
" style="stroke: #000000; stroke-width: 0.8"/>
      </defs>
      <g>
       <use xlink:href="#m9a1be2096f" x="30.103125" y="165.96" style="stroke: #000000; stroke-width: 0.8"/>
      </g>
     </g>
     <g id="text_4">
      <!-- 0.0 -->
      <g transform="translate(7.2 169.759219) scale(0.1 -0.1)">
       <defs>
        <path id="DejaVuSans-2e" d="M 684 794 
L 1344 794 
L 1344 0 
L 684 0 
L 684 794 
z
" transform="scale(0.015625)"/>
       </defs>
       <use xlink:href="#DejaVuSans-30"/>
       <use xlink:href="#DejaVuSans-2e" x="63.623047"/>
       <use xlink:href="#DejaVuSans-30" x="95.410156"/>
      </g>
     </g>
    </g>
    <g id="ytick_2">
     <g id="line2d_9">
      <path d="M 30.103125 128.16 
L 177.809007 128.16 
" clip-path="url(#p3cdfcc5cdf)" style="fill: none; stroke: #b0b0b0; stroke-width: 0.8; stroke-linecap: square"/>
     </g>
     <g id="line2d_10">
      <g>
       <use xlink:href="#m9a1be2096f" x="30.103125" y="128.16" style="stroke: #000000; stroke-width: 0.8"/>
      </g>
     </g>
     <g id="text_5">
      <!-- 0.5 -->
      <g transform="translate(7.2 131.959219) scale(0.1 -0.1)">
       <defs>
        <path id="DejaVuSans-35" d="M 691 4666 
L 3169 4666 
L 3169 4134 
L 1269 4134 
L 1269 2991 
Q 1406 3038 1543 3061 
Q 1681 3084 1819 3084 
Q 2600 3084 3056 2656 
Q 3513 2228 3513 1497 
Q 3513 744 3044 326 
Q 2575 -91 1722 -91 
Q 1428 -91 1123 -41 
Q 819 9 494 109 
L 494 744 
Q 775 591 1075 516 
Q 1375 441 1709 441 
Q 2250 441 2565 725 
Q 2881 1009 2881 1497 
Q 2881 1984 2565 2268 
Q 2250 2553 1709 2553 
Q 1456 2553 1204 2497 
Q 953 2441 691 2322 
L 691 4666 
z
" transform="scale(0.015625)"/>
       </defs>
       <use xlink:href="#DejaVuSans-30"/>
       <use xlink:href="#DejaVuSans-2e" x="63.623047"/>
       <use xlink:href="#DejaVuSans-35" x="95.410156"/>
      </g>
     </g>
    </g>
    <g id="ytick_3">
     <g id="line2d_11">
      <path d="M 30.103125 90.36 
L 177.809007 90.36 
" clip-path="url(#p3cdfcc5cdf)" style="fill: none; stroke: #b0b0b0; stroke-width: 0.8; stroke-linecap: square"/>
     </g>
     <g id="line2d_12">
      <g>
       <use xlink:href="#m9a1be2096f" x="30.103125" y="90.36" style="stroke: #000000; stroke-width: 0.8"/>
      </g>
     </g>
     <g id="text_6">
      <!-- 1.0 -->
      <g transform="translate(7.2 94.159219) scale(0.1 -0.1)">
       <defs>
        <path id="DejaVuSans-31" d="M 794 531 
L 1825 531 
L 1825 4091 
L 703 3866 
L 703 4441 
L 1819 4666 
L 2450 4666 
L 2450 531 
L 3481 531 
L 3481 0 
L 794 0 
L 794 531 
z
" transform="scale(0.015625)"/>
       </defs>
       <use xlink:href="#DejaVuSans-31"/>
       <use xlink:href="#DejaVuSans-2e" x="63.623047"/>
       <use xlink:href="#DejaVuSans-30" x="95.410156"/>
      </g>
     </g>
    </g>
    <g id="ytick_4">
     <g id="line2d_13">
      <path d="M 30.103125 52.56 
L 177.809007 52.56 
" clip-path="url(#p3cdfcc5cdf)" style="fill: none; stroke: #b0b0b0; stroke-width: 0.8; stroke-linecap: square"/>
     </g>
     <g id="line2d_14">
      <g>
       <use xlink:href="#m9a1be2096f" x="30.103125" y="52.56" style="stroke: #000000; stroke-width: 0.8"/>
      </g>
     </g>
     <g id="text_7">
      <!-- 1.5 -->
      <g transform="translate(7.2 56.359219) scale(0.1 -0.1)">
       <use xlink:href="#DejaVuSans-31"/>
       <use xlink:href="#DejaVuSans-2e" x="63.623047"/>
       <use xlink:href="#DejaVuSans-35" x="95.410156"/>
      </g>
     </g>
    </g>
    <g id="ytick_5">
     <g id="line2d_15">
      <path d="M 30.103125 14.76 
L 177.809007 14.76 
" clip-path="url(#p3cdfcc5cdf)" style="fill: none; stroke: #b0b0b0; stroke-width: 0.8; stroke-linecap: square"/>
     </g>
     <g id="line2d_16">
      <g>
       <use xlink:href="#m9a1be2096f" x="30.103125" y="14.76" style="stroke: #000000; stroke-width: 0.8"/>
      </g>
     </g>
     <g id="text_8">
      <!-- 2.0 -->
      <g transform="translate(7.2 18.559219) scale(0.1 -0.1)">
       <use xlink:href="#DejaVuSans-32"/>
       <use xlink:href="#DejaVuSans-2e" x="63.623047"/>
       <use xlink:href="#DejaVuSans-30" x="95.410156"/>
      </g>
     </g>
    </g>
   </g>
   <g id="line2d_17">
    <path d="M 36.817029 14.76 
L 40.855467 32.359662 
L 44.557369 47.536344 
L 48.259271 61.798276 
L 51.961173 75.145449 
L 55.326538 86.485438 
L 58.691903 97.069437 
L 62.057268 106.897432 
L 65.086097 115.096252 
L 68.114926 122.682709 
L 71.143755 129.656808 
L 73.836047 135.34193 
L 76.528339 140.54321 
L 79.220631 145.260653 
L 81.912924 149.494256 
L 84.268679 152.80176 
L 86.624435 155.738824 
L 88.980191 158.305449 
L 90.99941 160.210574 
L 93.018629 161.84354 
L 95.037848 163.204346 
L 97.057067 164.292993 
L 99.076287 165.10948 
L 101.095506 165.653808 
L 102.778188 165.899514 
L 104.460871 165.956221 
L 106.143554 165.823929 
L 107.826236 165.502637 
L 109.845455 164.867607 
L 111.864675 163.960417 
L 113.883894 162.781068 
L 115.903113 161.329559 
L 117.922332 159.605891 
L 119.941551 157.610063 
L 122.297307 154.937618 
L 124.653063 151.894735 
L 127.008818 148.48141 
L 129.364574 144.697649 
L 132.056866 139.919749 
L 134.749159 134.658011 
L 137.441451 128.912435 
L 140.133743 122.683016 
L 143.162572 115.096586 
L 146.191401 106.897793 
L 149.220229 98.086647 
L 152.585595 87.578269 
L 155.95096 76.313911 
L 159.316325 64.293544 
L 163.018227 50.197978 
L 166.720129 35.187635 
L 170.422031 19.262542 
L 171.095104 16.26879 
L 171.095104 16.26879 
" clip-path="url(#p3cdfcc5cdf)" style="fill: none; stroke: #1f77b4; stroke-width: 1.5; stroke-linecap: square"/>
   </g>
   <g id="line2d_18">
    <path d="M 53.643871 80.91 
L 137.778084 128.16 
" clip-path="url(#p3cdfcc5cdf)" style="fill: none; stroke-dasharray: 5.55,2.4; stroke-dashoffset: 0; stroke: #bf00bf; stroke-width: 1.5"/>
   </g>
   <g id="patch_3">
    <path d="M 30.103125 173.52 
L 30.103125 7.2 
" style="fill: none; stroke: #000000; stroke-width: 0.8; stroke-linejoin: miter; stroke-linecap: square"/>
   </g>
   <g id="patch_4">
    <path d="M 177.809007 173.52 
L 177.809007 7.2 
" style="fill: none; stroke: #000000; stroke-width: 0.8; stroke-linejoin: miter; stroke-linecap: square"/>
   </g>
   <g id="patch_5">
    <path d="M 30.103125 173.52 
L 177.809007 173.52 
" style="fill: none; stroke: #000000; stroke-width: 0.8; stroke-linejoin: miter; stroke-linecap: square"/>
   </g>
   <g id="patch_6">
    <path d="M 30.103125 7.2 
L 177.809007 7.2 
" style="fill: none; stroke: #000000; stroke-width: 0.8; stroke-linejoin: miter; stroke-linecap: square"/>
   </g>
  </g>
  <g id="axes_2">
   <g id="patch_7">
    <path d="M 207.350184 173.52 
L 355.056066 173.52 
L 355.056066 7.2 
L 207.350184 7.2 
z
" style="fill: #ffffff"/>
   </g>
   <g id="matplotlib.axis_3">
    <g id="xtick_4">
     <g id="line2d_19">
      <path d="M 214.064088 173.52 
L 214.064088 7.2 
" clip-path="url(#p086a3ea6af)" style="fill: none; stroke: #b0b0b0; stroke-width: 0.8; stroke-linecap: square"/>
     </g>
     <g id="line2d_20">
      <g>
       <use xlink:href="#mf88229f855" x="214.064088" y="173.52" style="stroke: #000000; stroke-width: 0.8"/>
      </g>
     </g>
     <g id="text_9">
      <!-- −2 -->
      <g transform="translate(206.692994 188.118438) scale(0.1 -0.1)">
       <use xlink:href="#DejaVuSans-2212"/>
       <use xlink:href="#DejaVuSans-32" x="83.789062"/>
      </g>
     </g>
    </g>
    <g id="xtick_5">
     <g id="line2d_21">
      <path d="M 281.371457 173.52 
L 281.371457 7.2 
" clip-path="url(#p086a3ea6af)" style="fill: none; stroke: #b0b0b0; stroke-width: 0.8; stroke-linecap: square"/>
     </g>
     <g id="line2d_22">
      <g>
       <use xlink:href="#mf88229f855" x="281.371457" y="173.52" style="stroke: #000000; stroke-width: 0.8"/>
      </g>
     </g>
     <g id="text_10">
      <!-- 0 -->
      <g transform="translate(278.190207 188.118438) scale(0.1 -0.1)">
       <use xlink:href="#DejaVuSans-30"/>
      </g>
     </g>
    </g>
    <g id="xtick_6">
     <g id="line2d_23">
      <path d="M 348.678827 173.52 
L 348.678827 7.2 
" clip-path="url(#p086a3ea6af)" style="fill: none; stroke: #b0b0b0; stroke-width: 0.8; stroke-linecap: square"/>
     </g>
     <g id="line2d_24">
      <g>
       <use xlink:href="#mf88229f855" x="348.678827" y="173.52" style="stroke: #000000; stroke-width: 0.8"/>
      </g>
     </g>
     <g id="text_11">
      <!-- 2 -->
      <g transform="translate(345.497577 188.118438) scale(0.1 -0.1)">
       <use xlink:href="#DejaVuSans-32"/>
      </g>
     </g>
    </g>
   </g>
   <g id="matplotlib.axis_4">
    <g id="ytick_6">
     <g id="line2d_25">
      <path d="M 207.350184 165.96 
L 355.056066 165.96 
" clip-path="url(#p086a3ea6af)" style="fill: none; stroke: #b0b0b0; stroke-width: 0.8; stroke-linecap: square"/>
     </g>
     <g id="line2d_26">
      <g>
       <use xlink:href="#m9a1be2096f" x="207.350184" y="165.96" style="stroke: #000000; stroke-width: 0.8"/>
      </g>
     </g>
     <g id="text_12">
      <!-- −1.0 -->
      <g transform="translate(176.067371 169.759219) scale(0.1 -0.1)">
       <use xlink:href="#DejaVuSans-2212"/>
       <use xlink:href="#DejaVuSans-31" x="83.789062"/>
       <use xlink:href="#DejaVuSans-2e" x="147.412109"/>
       <use xlink:href="#DejaVuSans-30" x="179.199219"/>
      </g>
     </g>
    </g>
    <g id="ytick_7">
     <g id="line2d_27">
      <path d="M 207.350184 128.16 
L 355.056066 128.16 
" clip-path="url(#p086a3ea6af)" style="fill: none; stroke: #b0b0b0; stroke-width: 0.8; stroke-linecap: square"/>
     </g>
     <g id="line2d_28">
      <g>
       <use xlink:href="#m9a1be2096f" x="207.350184" y="128.16" style="stroke: #000000; stroke-width: 0.8"/>
      </g>
     </g>
     <g id="text_13">
      <!-- −0.5 -->
      <g transform="translate(176.067371 131.959219) scale(0.1 -0.1)">
       <use xlink:href="#DejaVuSans-2212"/>
       <use xlink:href="#DejaVuSans-30" x="83.789062"/>
       <use xlink:href="#DejaVuSans-2e" x="147.412109"/>
       <use xlink:href="#DejaVuSans-35" x="179.199219"/>
      </g>
     </g>
    </g>
    <g id="ytick_8">
     <g id="line2d_29">
      <path d="M 207.350184 90.36 
L 355.056066 90.36 
" clip-path="url(#p086a3ea6af)" style="fill: none; stroke: #b0b0b0; stroke-width: 0.8; stroke-linecap: square"/>
     </g>
     <g id="line2d_30">
      <g>
       <use xlink:href="#m9a1be2096f" x="207.350184" y="90.36" style="stroke: #000000; stroke-width: 0.8"/>
      </g>
     </g>
     <g id="text_14">
      <!-- 0.0 -->
      <g transform="translate(184.447059 94.159219) scale(0.1 -0.1)">
       <use xlink:href="#DejaVuSans-30"/>
       <use xlink:href="#DejaVuSans-2e" x="63.623047"/>
       <use xlink:href="#DejaVuSans-30" x="95.410156"/>
      </g>
     </g>
    </g>
    <g id="ytick_9">
     <g id="line2d_31">
      <path d="M 207.350184 52.56 
L 355.056066 52.56 
" clip-path="url(#p086a3ea6af)" style="fill: none; stroke: #b0b0b0; stroke-width: 0.8; stroke-linecap: square"/>
     </g>
     <g id="line2d_32">
      <g>
       <use xlink:href="#m9a1be2096f" x="207.350184" y="52.56" style="stroke: #000000; stroke-width: 0.8"/>
      </g>
     </g>
     <g id="text_15">
      <!-- 0.5 -->
      <g transform="translate(184.447059 56.359219) scale(0.1 -0.1)">
       <use xlink:href="#DejaVuSans-30"/>
       <use xlink:href="#DejaVuSans-2e" x="63.623047"/>
       <use xlink:href="#DejaVuSans-35" x="95.410156"/>
      </g>
     </g>
    </g>
    <g id="ytick_10">
     <g id="line2d_33">
      <path d="M 207.350184 14.76 
L 355.056066 14.76 
" clip-path="url(#p086a3ea6af)" style="fill: none; stroke: #b0b0b0; stroke-width: 0.8; stroke-linecap: square"/>
     </g>
     <g id="line2d_34">
      <g>
       <use xlink:href="#m9a1be2096f" x="207.350184" y="14.76" style="stroke: #000000; stroke-width: 0.8"/>
      </g>
     </g>
     <g id="text_16">
      <!-- 1.0 -->
      <g transform="translate(184.447059 18.559219) scale(0.1 -0.1)">
       <use xlink:href="#DejaVuSans-31"/>
       <use xlink:href="#DejaVuSans-2e" x="63.623047"/>
       <use xlink:href="#DejaVuSans-30" x="95.410156"/>
      </g>
     </g>
    </g>
   </g>
   <g id="line2d_35">
    <path d="M 214.064088 14.76 
L 214.737161 14.909175 
L 215.410234 15.356127 
L 216.083307 16.099081 
L 216.75638 17.135099 
L 217.765989 19.2294 
L 218.775599 21.955065 
L 219.785209 25.287884 
L 221.131355 30.624246 
L 222.477501 36.902679 
L 224.160183 45.923359 
L 226.179403 58.17101 
L 228.871695 76.19386 
L 235.938962 124.681532 
L 237.958181 136.695642 
L 239.640864 145.469911 
L 240.98701 151.521577 
L 242.333156 156.608684 
L 243.342766 159.74217 
L 244.352375 162.259807 
L 245.361985 164.139256 
L 246.035058 165.029204 
L 246.708131 165.62447 
L 247.381204 165.922689 
L 248.054277 165.922698 
L 248.72735 165.624511 
L 249.400423 165.029276 
L 250.073496 164.139364 
L 250.746569 162.958272 
L 251.756179 160.651202 
L 252.765788 157.720211 
L 253.775398 154.19134 
L 255.121544 148.610976 
L 256.46769 142.111975 
L 258.150373 132.85375 
L 260.169592 120.384667 
L 262.861884 102.186774 
L 269.256078 58.171429 
L 271.275297 45.923746 
L 272.95798 36.903008 
L 274.304126 30.62453 
L 275.650272 25.288114 
L 276.996418 20.977915 
L 278.006028 18.460261 
L 279.015638 16.580789 
L 279.688711 15.690832 
L 280.361784 15.095561 
L 281.034857 14.797315 
L 281.70793 14.797293 
L 282.381003 15.095475 
L 283.054076 15.690692 
L 283.727149 16.580591 
L 284.400222 17.761665 
L 285.409832 20.068722 
L 286.419441 22.999686 
L 287.429051 26.528543 
L 288.775197 32.108879 
L 290.121343 38.607868 
L 291.804026 47.866065 
L 293.823245 60.33513 
L 296.515537 78.533009 
L 302.909731 122.548382 
L 304.92895 134.796082 
L 306.611633 143.816844 
L 307.957779 150.09533 
L 309.303925 155.431769 
L 310.650071 159.741995 
L 311.659681 162.259672 
L 312.66929 164.139166 
L 313.342363 165.029132 
L 314.015437 165.624425 
L 314.68851 165.922676 
L 315.361583 165.922716 
L 316.034656 165.624552 
L 316.707729 165.029344 
L 317.380802 164.139459 
L 318.053875 162.958389 
L 319.063484 160.651364 
L 320.073094 157.720409 
L 321.082704 154.191579 
L 322.42885 148.611269 
L 323.774996 142.112294 
L 325.457678 132.854111 
L 327.476898 120.385084 
L 330.16919 102.187197 
L 336.563384 58.171825 
L 338.582603 45.924089 
L 340.265286 36.903319 
L 341.611432 30.624796 
L 342.957578 25.288348 
L 344.303724 20.978095 
L 345.313334 18.460391 
L 346.322943 16.580888 
L 346.996016 15.690904 
L 347.669089 15.095597 
L 348.342162 14.797338 
L 348.342162 14.797338 
" clip-path="url(#p086a3ea6af)" style="fill: none; stroke: #1f77b4; stroke-width: 1.5; stroke-linecap: square"/>
   </g>
   <g id="line2d_36">
    <path d="M 230.89093 90.359999 
L 315.025142 165.96 
" clip-path="url(#p086a3ea6af)" style="fill: none; stroke-dasharray: 5.55,2.4; stroke-dashoffset: 0; stroke: #bf00bf; stroke-width: 1.5"/>
   </g>
   <g id="patch_8">
    <path d="M 207.350184 173.52 
L 207.350184 7.2 
" style="fill: none; stroke: #000000; stroke-width: 0.8; stroke-linejoin: miter; stroke-linecap: square"/>
   </g>
   <g id="patch_9">
    <path d="M 355.056066 173.52 
L 355.056066 7.2 
" style="fill: none; stroke: #000000; stroke-width: 0.8; stroke-linejoin: miter; stroke-linecap: square"/>
   </g>
   <g id="patch_10">
    <path d="M 207.350184 173.52 
L 355.056066 173.52 
" style="fill: none; stroke: #000000; stroke-width: 0.8; stroke-linejoin: miter; stroke-linecap: square"/>
   </g>
   <g id="patch_11">
    <path d="M 207.350184 7.2 
L 355.056066 7.2 
" style="fill: none; stroke: #000000; stroke-width: 0.8; stroke-linejoin: miter; stroke-linecap: square"/>
   </g>
  </g>
  <g id="axes_3">
   <g id="patch_12">
    <path d="M 384.597243 173.52 
L 532.303125 173.52 
L 532.303125 7.2 
L 384.597243 7.2 
z
" style="fill: #ffffff"/>
   </g>
   <g id="matplotlib.axis_5">
    <g id="xtick_7">
     <g id="line2d_37">
      <path d="M 391.311146 173.52 
L 391.311146 7.2 
" clip-path="url(#p9b29c038b1)" style="fill: none; stroke: #b0b0b0; stroke-width: 0.8; stroke-linecap: square"/>
     </g>
     <g id="line2d_38">
      <g>
       <use xlink:href="#mf88229f855" x="391.311146" y="173.52" style="stroke: #000000; stroke-width: 0.8"/>
      </g>
     </g>
     <g id="text_17">
      <!-- −2 -->
      <g transform="translate(383.940053 188.118438) scale(0.1 -0.1)">
       <use xlink:href="#DejaVuSans-2212"/>
       <use xlink:href="#DejaVuSans-32" x="83.789062"/>
      </g>
     </g>
    </g>
    <g id="xtick_8">
     <g id="line2d_39">
      <path d="M 458.618516 173.52 
L 458.618516 7.2 
" clip-path="url(#p9b29c038b1)" style="fill: none; stroke: #b0b0b0; stroke-width: 0.8; stroke-linecap: square"/>
     </g>
     <g id="line2d_40">
      <g>
       <use xlink:href="#mf88229f855" x="458.618516" y="173.52" style="stroke: #000000; stroke-width: 0.8"/>
      </g>
     </g>
     <g id="text_18">
      <!-- 0 -->
      <g transform="translate(455.437266 188.118438) scale(0.1 -0.1)">
       <use xlink:href="#DejaVuSans-30"/>
      </g>
     </g>
    </g>
    <g id="xtick_9">
     <g id="line2d_41">
      <path d="M 525.925886 173.52 
L 525.925886 7.2 
" clip-path="url(#p9b29c038b1)" style="fill: none; stroke: #b0b0b0; stroke-width: 0.8; stroke-linecap: square"/>
     </g>
     <g id="line2d_42">
      <g>
       <use xlink:href="#mf88229f855" x="525.925886" y="173.52" style="stroke: #000000; stroke-width: 0.8"/>
      </g>
     </g>
     <g id="text_19">
      <!-- 2 -->
      <g transform="translate(522.744636 188.118438) scale(0.1 -0.1)">
       <use xlink:href="#DejaVuSans-32"/>
      </g>
     </g>
    </g>
   </g>
   <g id="matplotlib.axis_6">
    <g id="ytick_11">
     <g id="line2d_43">
      <path d="M 384.597243 157.411435 
L 532.303125 157.411435 
" clip-path="url(#p9b29c038b1)" style="fill: none; stroke: #b0b0b0; stroke-width: 0.8; stroke-linecap: square"/>
     </g>
     <g id="line2d_44">
      <g>
       <use xlink:href="#m9a1be2096f" x="384.597243" y="157.411435" style="stroke: #000000; stroke-width: 0.8"/>
      </g>
     </g>
     <g id="text_20">
      <!-- 0.5 -->
      <g transform="translate(361.694118 161.210654) scale(0.1 -0.1)">
       <use xlink:href="#DejaVuSans-30"/>
       <use xlink:href="#DejaVuSans-2e" x="63.623047"/>
       <use xlink:href="#DejaVuSans-35" x="95.410156"/>
      </g>
     </g>
    </g>
    <g id="ytick_12">
     <g id="line2d_45">
      <path d="M 384.597243 125.060053 
L 532.303125 125.060053 
" clip-path="url(#p9b29c038b1)" style="fill: none; stroke: #b0b0b0; stroke-width: 0.8; stroke-linecap: square"/>
     </g>
     <g id="line2d_46">
      <g>
       <use xlink:href="#m9a1be2096f" x="384.597243" y="125.060053" style="stroke: #000000; stroke-width: 0.8"/>
      </g>
     </g>
     <g id="text_21">
      <!-- 1.0 -->
      <g transform="translate(361.694118 128.859271) scale(0.1 -0.1)">
       <use xlink:href="#DejaVuSans-31"/>
       <use xlink:href="#DejaVuSans-2e" x="63.623047"/>
       <use xlink:href="#DejaVuSans-30" x="95.410156"/>
      </g>
     </g>
    </g>
    <g id="ytick_13">
     <g id="line2d_47">
      <path d="M 384.597243 92.70867 
L 532.303125 92.70867 
" clip-path="url(#p9b29c038b1)" style="fill: none; stroke: #b0b0b0; stroke-width: 0.8; stroke-linecap: square"/>
     </g>
     <g id="line2d_48">
      <g>
       <use xlink:href="#m9a1be2096f" x="384.597243" y="92.70867" style="stroke: #000000; stroke-width: 0.8"/>
      </g>
     </g>
     <g id="text_22">
      <!-- 1.5 -->
      <g transform="translate(361.694118 96.507889) scale(0.1 -0.1)">
       <use xlink:href="#DejaVuSans-31"/>
       <use xlink:href="#DejaVuSans-2e" x="63.623047"/>
       <use xlink:href="#DejaVuSans-35" x="95.410156"/>
      </g>
     </g>
    </g>
    <g id="ytick_14">
     <g id="line2d_49">
      <path d="M 384.597243 60.357288 
L 532.303125 60.357288 
" clip-path="url(#p9b29c038b1)" style="fill: none; stroke: #b0b0b0; stroke-width: 0.8; stroke-linecap: square"/>
     </g>
     <g id="line2d_50">
      <g>
       <use xlink:href="#m9a1be2096f" x="384.597243" y="60.357288" style="stroke: #000000; stroke-width: 0.8"/>
      </g>
     </g>
     <g id="text_23">
      <!-- 2.0 -->
      <g transform="translate(361.694118 64.156506) scale(0.1 -0.1)">
       <use xlink:href="#DejaVuSans-32"/>
       <use xlink:href="#DejaVuSans-2e" x="63.623047"/>
       <use xlink:href="#DejaVuSans-30" x="95.410156"/>
      </g>
     </g>
    </g>
    <g id="ytick_15">
     <g id="line2d_51">
      <path d="M 384.597243 28.005905 
L 532.303125 28.005905 
" clip-path="url(#p9b29c038b1)" style="fill: none; stroke: #b0b0b0; stroke-width: 0.8; stroke-linecap: square"/>
     </g>
     <g id="line2d_52">
      <g>
       <use xlink:href="#m9a1be2096f" x="384.597243" y="28.005905" style="stroke: #000000; stroke-width: 0.8"/>
      </g>
     </g>
     <g id="text_24">
      <!-- 2.5 -->
      <g transform="translate(361.694118 31.805124) scale(0.1 -0.1)">
       <use xlink:href="#DejaVuSans-32"/>
       <use xlink:href="#DejaVuSans-2e" x="63.623047"/>
       <use xlink:href="#DejaVuSans-35" x="95.410156"/>
      </g>
     </g>
    </g>
   </g>
   <g id="line2d_53">
    <path d="M 391.311146 165.96 
L 398.041877 163.456638 
L 404.436071 160.834997 
L 410.493729 158.110744 
L 416.214849 155.302666 
L 421.93597 152.245466 
L 427.320555 149.12076 
L 432.705139 145.735808 
L 437.753187 142.306802 
L 442.801235 138.610736 
L 447.849283 134.626806 
L 452.560795 130.628993 
L 457.272306 126.341314 
L 461.983817 121.742734 
L 466.358792 117.174585 
L 470.733767 112.29963 
L 475.108742 107.097281 
L 479.483717 101.545557 
L 483.858692 95.620971 
L 488.233667 89.298508 
L 492.272105 83.086143 
L 496.310543 76.489639 
L 500.348982 69.485216 
L 504.38742 62.047683 
L 508.425858 54.150222 
L 512.464297 45.764401 
L 516.502735 36.860054 
L 520.541173 27.40508 
L 524.579612 17.365463 
L 525.589221 14.76 
L 525.589221 14.76 
" clip-path="url(#p9b29c038b1)" style="fill: none; stroke: #1f77b4; stroke-width: 1.5; stroke-linecap: square"/>
   </g>
   <g id="line2d_54">
    <path d="M 408.137989 159.199394 
L 492.272201 83.085996 
" clip-path="url(#p9b29c038b1)" style="fill: none; stroke-dasharray: 5.55,2.4; stroke-dashoffset: 0; stroke: #bf00bf; stroke-width: 1.5"/>
   </g>
   <g id="patch_13">
    <path d="M 384.597243 173.52 
L 384.597243 7.2 
" style="fill: none; stroke: #000000; stroke-width: 0.8; stroke-linejoin: miter; stroke-linecap: square"/>
   </g>
   <g id="patch_14">
    <path d="M 532.303125 173.52 
L 532.303125 7.2 
" style="fill: none; stroke: #000000; stroke-width: 0.8; stroke-linejoin: miter; stroke-linecap: square"/>
   </g>
   <g id="patch_15">
    <path d="M 384.597243 173.52 
L 532.303125 173.52 
" style="fill: none; stroke: #000000; stroke-width: 0.8; stroke-linejoin: miter; stroke-linecap: square"/>
   </g>
   <g id="patch_16">
    <path d="M 384.597243 7.2 
L 532.303125 7.2 
" style="fill: none; stroke: #000000; stroke-width: 0.8; stroke-linejoin: miter; stroke-linecap: square"/>
   </g>
  </g>
 </g>
 <defs>
  <clipPath id="p3cdfcc5cdf">
   <rect x="30.103125" y="7.2" width="147.705882" height="166.32"/>
  </clipPath>
  <clipPath id="p086a3ea6af">
   <rect x="207.350184" y="7.2" width="147.705882" height="166.32"/>
  </clipPath>
  <clipPath id="p9b29c038b1">
   <rect x="384.597243" y="7.2" width="147.705882" height="166.32"/>
  </clipPath>
 </defs>
</svg>
