<?xml version="1.0" encoding="utf-8" standalone="no"?>
<!DOCTYPE svg PUBLIC "-//W3C//DTD SVG 1.1//EN"
  "http://www.w3.org/Graphics/SVG/1.1/DTD/svg11.dtd">
<svg xmlns:xlink="http://www.w3.org/1999/xlink" width="245.120313pt" height="183.35625pt" viewBox="0 0 245.120313 183.35625" xmlns="http://www.w3.org/2000/svg" version="1.1">
 <metadata>
  <rdf:RDF xmlns:dc="http://purl.org/dc/elements/1.1/" xmlns:cc="http://creativecommons.org/ns#" xmlns:rdf="http://www.w3.org/1999/02/22-rdf-syntax-ns#">
   <cc:Work>
    <dc:type rdf:resource="http://purl.org/dc/dcmitype/StillImage"/>
    <dc:date>2025-06-08T12:36:52.722412</dc:date>
    <dc:format>image/svg+xml</dc:format>
    <dc:creator>
     <cc:Agent>
      <dc:title>Matplotlib v3.7.2, https://matplotlib.org/</dc:title>
     </cc:Agent>
    </dc:creator>
   </cc:Work>
  </rdf:RDF>
 </metadata>
 <defs>
  <style type="text/css">*{stroke-linejoin: round; stroke-linecap: butt}</style>
 </defs>
 <g id="figure_1">
  <g id="patch_1">
   <path d="M 0 183.35625 
L 245.120313 183.35625 
L 245.120313 0 
L 0 0 
z
" style="fill: #ffffff"/>
  </g>
  <g id="axes_1">
   <g id="patch_2">
    <path d="M 42.620312 145.8 
L 237.920313 145.8 
L 237.920313 7.2 
L 42.620312 7.2 
z
" style="fill: #ffffff"/>
   </g>
   <g id="matplotlib.axis_1">
    <g id="xtick_1">
     <g id="line2d_1">
      <defs>
       <path id="m6c58abc78b" d="M 0 0 
L 0 3.5 
" style="stroke: #000000; stroke-width: 0.8"/>
      </defs>
      <g>
       <use xlink:href="#m6c58abc78b" x="88.393794" y="145.8" style="stroke: #000000; stroke-width: 0.8"/>
      </g>
     </g>
     <g id="text_1">
      <!-- −4 -->
      <g transform="translate(81.0227 160.398438) scale(0.1 -0.1)">
       <defs>
        <path id="DejaVuSans-2212" d="M 678 2272 
L 4684 2272 
L 4684 1741 
L 678 1741 
L 678 2272 
z
" transform="scale(0.015625)"/>
        <path id="DejaVuSans-34" d="M 2419 4116 
L 825 1625 
L 2419 1625 
L 2419 4116 
z
M 2253 4666 
L 3047 4666 
L 3047 1625 
L 3713 1625 
L 3713 1100 
L 3047 1100 
L 3047 0 
L 2419 0 
L 2419 1100 
L 313 1100 
L 313 1709 
L 2253 4666 
z
" transform="scale(0.015625)"/>
       </defs>
       <use xlink:href="#DejaVuSans-2212"/>
       <use xlink:href="#DejaVuSans-34" x="83.789062"/>
      </g>
     </g>
    </g>
    <g id="xtick_2">
     <g id="line2d_2">
      <g>
       <use xlink:href="#m6c58abc78b" x="149.425102" y="145.8" style="stroke: #000000; stroke-width: 0.8"/>
      </g>
     </g>
     <g id="text_2">
      <!-- −2 -->
      <g transform="translate(142.054008 160.398438) scale(0.1 -0.1)">
       <defs>
        <path id="DejaVuSans-32" d="M 1228 531 
L 3431 531 
L 3431 0 
L 469 0 
L 469 531 
Q 828 903 1448 1529 
Q 2069 2156 2228 2338 
Q 2531 2678 2651 2914 
Q 2772 3150 2772 3378 
Q 2772 3750 2511 3984 
Q 2250 4219 1831 4219 
Q 1534 4219 1204 4116 
Q 875 4013 500 3803 
L 500 4441 
Q 881 4594 1212 4672 
Q 1544 4750 1819 4750 
Q 2544 4750 2975 4387 
Q 3406 4025 3406 3419 
Q 3406 3131 3298 2873 
Q 3191 2616 2906 2266 
Q 2828 2175 2409 1742 
Q 1991 1309 1228 531 
z
" transform="scale(0.015625)"/>
       </defs>
       <use xlink:href="#DejaVuSans-2212"/>
       <use xlink:href="#DejaVuSans-32" x="83.789062"/>
      </g>
     </g>
    </g>
    <g id="xtick_3">
     <g id="line2d_3">
      <g>
       <use xlink:href="#m6c58abc78b" x="210.45641" y="145.8" style="stroke: #000000; stroke-width: 0.8"/>
      </g>
     </g>
     <g id="text_3">
      <!-- 0 -->
      <g transform="translate(207.27516 160.398438) scale(0.1 -0.1)">
       <defs>
        <path id="DejaVuSans-30" d="M 2034 4250 
Q 1547 4250 1301 3770 
Q 1056 3291 1056 2328 
Q 1056 1369 1301 889 
Q 1547 409 2034 409 
Q 2525 409 2770 889 
Q 3016 1369 3016 2328 
Q 3016 3291 2770 3770 
Q 2525 4250 2034 4250 
z
M 2034 4750 
Q 2819 4750 3233 4129 
Q 3647 3509 3647 2328 
Q 3647 1150 3233 529 
Q 2819 -91 2034 -91 
Q 1250 -91 836 529 
Q 422 1150 422 2328 
Q 422 3509 836 4129 
Q 1250 4750 2034 4750 
z
" transform="scale(0.015625)"/>
       </defs>
       <use xlink:href="#DejaVuSans-30"/>
      </g>
     </g>
    </g>
    <g id="text_4">
     <!-- x1 -->
     <g transform="translate(134.129687 174.076563) scale(0.1 -0.1)">
      <defs>
       <path id="DejaVuSans-78" d="M 3513 3500 
L 2247 1797 
L 3578 0 
L 2900 0 
L 1881 1375 
L 863 0 
L 184 0 
L 1544 1831 
L 300 3500 
L 978 3500 
L 1906 2253 
L 2834 3500 
L 3513 3500 
z
" transform="scale(0.015625)"/>
       <path id="DejaVuSans-31" d="M 794 531 
L 1825 531 
L 1825 4091 
L 703 3866 
L 703 4441 
L 1819 4666 
L 2450 4666 
L 2450 531 
L 3481 531 
L 3481 0 
L 794 0 
L 794 531 
z
" transform="scale(0.015625)"/>
      </defs>
      <use xlink:href="#DejaVuSans-78"/>
      <use xlink:href="#DejaVuSans-31" x="59.179688"/>
     </g>
    </g>
   </g>
   <g id="matplotlib.axis_2">
    <g id="ytick_1">
     <g id="line2d_4">
      <defs>
       <path id="mdf8689104d" d="M 0 0 
L -3.5 0 
" style="stroke: #000000; stroke-width: 0.8"/>
      </defs>
      <g>
       <use xlink:href="#mdf8689104d" x="42.620312" y="145.8" style="stroke: #000000; stroke-width: 0.8"/>
      </g>
     </g>
     <g id="text_5">
      <!-- −3 -->
      <g transform="translate(20.878125 149.599219) scale(0.1 -0.1)">
       <defs>
        <path id="DejaVuSans-33" d="M 2597 2516 
Q 3050 2419 3304 2112 
Q 3559 1806 3559 1356 
Q 3559 666 3084 287 
Q 2609 -91 1734 -91 
Q 1441 -91 1130 -33 
Q 819 25 488 141 
L 488 750 
Q 750 597 1062 519 
Q 1375 441 1716 441 
Q 2309 441 2620 675 
Q 2931 909 2931 1356 
Q 2931 1769 2642 2001 
Q 2353 2234 1838 2234 
L 1294 2234 
L 1294 2753 
L 1863 2753 
Q 2328 2753 2575 2939 
Q 2822 3125 2822 3475 
Q 2822 3834 2567 4026 
Q 2313 4219 1838 4219 
Q 1578 4219 1281 4162 
Q 984 4106 628 3988 
L 628 4550 
Q 988 4650 1302 4700 
Q 1616 4750 1894 4750 
Q 2613 4750 3031 4423 
Q 3450 4097 3450 3541 
Q 3450 3153 3228 2886 
Q 3006 2619 2597 2516 
z
" transform="scale(0.015625)"/>
       </defs>
       <use xlink:href="#DejaVuSans-2212"/>
       <use xlink:href="#DejaVuSans-33" x="83.789062"/>
      </g>
     </g>
    </g>
    <g id="ytick_2">
     <g id="line2d_5">
      <g>
       <use xlink:href="#mdf8689104d" x="42.620312" y="110.261505" style="stroke: #000000; stroke-width: 0.8"/>
      </g>
     </g>
     <g id="text_6">
      <!-- −2 -->
      <g transform="translate(20.878125 114.060723) scale(0.1 -0.1)">
       <use xlink:href="#DejaVuSans-2212"/>
       <use xlink:href="#DejaVuSans-32" x="83.789062"/>
      </g>
     </g>
    </g>
    <g id="ytick_3">
     <g id="line2d_6">
      <g>
       <use xlink:href="#mdf8689104d" x="42.620312" y="74.723009" style="stroke: #000000; stroke-width: 0.8"/>
      </g>
     </g>
     <g id="text_7">
      <!-- −1 -->
      <g transform="translate(20.878125 78.522228) scale(0.1 -0.1)">
       <use xlink:href="#DejaVuSans-2212"/>
       <use xlink:href="#DejaVuSans-31" x="83.789062"/>
      </g>
     </g>
    </g>
    <g id="ytick_4">
     <g id="line2d_7">
      <g>
       <use xlink:href="#mdf8689104d" x="42.620312" y="39.184514" style="stroke: #000000; stroke-width: 0.8"/>
      </g>
     </g>
     <g id="text_8">
      <!-- 0 -->
      <g transform="translate(29.257812 42.983732) scale(0.1 -0.1)">
       <use xlink:href="#DejaVuSans-30"/>
      </g>
     </g>
    </g>
    <g id="text_9">
     <!-- x2 -->
     <g transform="translate(14.798437 82.640625) rotate(-90) scale(0.1 -0.1)">
      <use xlink:href="#DejaVuSans-78"/>
      <use xlink:href="#DejaVuSans-32" x="59.179688"/>
     </g>
    </g>
   </g>
   <g id="line2d_8">
    <path d="M 57.87814 110.261505 
L 85.988174 82.959633 
L 109.042256 68.083327 
L 123.931011 55.65464 
L 139.707288 49.89602 
L 149.879386 49.123778 
L 161.89463 42.204445 
L 169.657917 41.072696 
L 171.733125 40.768919 
L 181.356851 38.603845 
L 181.910361 39.453512 
L 188.289752 39.792244 
L 189.694103 40.243628 
L 190.934716 39.570729 
L 193.722851 40.332767 
L 194.432468 41.147689 
L 194.366925 40.011812 
L 194.867007 40.25977 
L 197.501908 39.366077 
L 198.735579 40.483769 
L 200.97955 37.975913 
L 205.533965 38.182906 
L 204.445951 35.554091 
L 207.360336 34.619002 
L 207.204765 33.701569 
L 207.394048 33.739429 
L 207.714659 35.812466 
L 209.445828 34.497755 
L 209.572969 35.717246 
L 209.11717 34.294516 
L 207.690806 32.315004 
L 206.284679 34.326698 
L 204.357998 35.154889 
L 202.8778 38.066068 
L 201.908267 35.637762 
L 202.925997 33.701319 
L 205.638168 34.159717 
L 205.672404 34.884612 
L 205.647584 35.015068 
L 203.345112 36.392425 
L 204.818949 38.388842 
L 202.72638 38.650296 
L 200.963236 37.177136 
L 200.555585 37.060658 
L 204.010472 36.544737 
L 205.024868 40.192663 
L 206.677638 39.157407 
L 206.936377 39.847996 
L 206.676492 39.679277 
L 206.763816 35.043123 
L 208.08504 35.615297 
" clip-path="url(#p92b62d1e4d)" style="fill: none; stroke: #ff7f0e; stroke-width: 1.5; stroke-linecap: square"/>
    <defs>
     <path id="mf5df4ad9fa" d="M 0 3 
C 0.795609 3 1.55874 2.683901 2.12132 2.12132 
C 2.683901 1.55874 3 0.795609 3 0 
C 3 -0.795609 2.683901 -1.55874 2.12132 -2.12132 
C 1.55874 -2.683901 0.795609 -3 0 -3 
C -0.795609 -3 -1.55874 -2.683901 -2.12132 -2.12132 
C -2.683901 -1.55874 -3 -0.795609 -3 0 
C -3 0.795609 -2.683901 1.55874 -2.12132 2.12132 
C -1.55874 2.683901 -0.795609 3 0 3 
z
" style="stroke: #ff7f0e"/>
    </defs>
    <g clip-path="url(#p92b62d1e4d)">
     <use xlink:href="#mf5df4ad9fa" x="57.87814" y="110.261505" style="fill: #ff7f0e; stroke: #ff7f0e"/>
     <use xlink:href="#mf5df4ad9fa" x="85.988174" y="82.959633" style="fill: #ff7f0e; stroke: #ff7f0e"/>
     <use xlink:href="#mf5df4ad9fa" x="109.042256" y="68.083327" style="fill: #ff7f0e; stroke: #ff7f0e"/>
     <use xlink:href="#mf5df4ad9fa" x="123.931011" y="55.65464" style="fill: #ff7f0e; stroke: #ff7f0e"/>
     <use xlink:href="#mf5df4ad9fa" x="139.707288" y="49.89602" style="fill: #ff7f0e; stroke: #ff7f0e"/>
     <use xlink:href="#mf5df4ad9fa" x="149.879386" y="49.123778" style="fill: #ff7f0e; stroke: #ff7f0e"/>
     <use xlink:href="#mf5df4ad9fa" x="161.89463" y="42.204445" style="fill: #ff7f0e; stroke: #ff7f0e"/>
     <use xlink:href="#mf5df4ad9fa" x="169.657917" y="41.072696" style="fill: #ff7f0e; stroke: #ff7f0e"/>
     <use xlink:href="#mf5df4ad9fa" x="171.733125" y="40.768919" style="fill: #ff7f0e; stroke: #ff7f0e"/>
     <use xlink:href="#mf5df4ad9fa" x="181.356851" y="38.603845" style="fill: #ff7f0e; stroke: #ff7f0e"/>
     <use xlink:href="#mf5df4ad9fa" x="181.910361" y="39.453512" style="fill: #ff7f0e; stroke: #ff7f0e"/>
     <use xlink:href="#mf5df4ad9fa" x="188.289752" y="39.792244" style="fill: #ff7f0e; stroke: #ff7f0e"/>
     <use xlink:href="#mf5df4ad9fa" x="189.694103" y="40.243628" style="fill: #ff7f0e; stroke: #ff7f0e"/>
     <use xlink:href="#mf5df4ad9fa" x="190.934716" y="39.570729" style="fill: #ff7f0e; stroke: #ff7f0e"/>
     <use xlink:href="#mf5df4ad9fa" x="193.722851" y="40.332767" style="fill: #ff7f0e; stroke: #ff7f0e"/>
     <use xlink:href="#mf5df4ad9fa" x="194.432468" y="41.147689" style="fill: #ff7f0e; stroke: #ff7f0e"/>
     <use xlink:href="#mf5df4ad9fa" x="194.366925" y="40.011812" style="fill: #ff7f0e; stroke: #ff7f0e"/>
     <use xlink:href="#mf5df4ad9fa" x="194.867007" y="40.25977" style="fill: #ff7f0e; stroke: #ff7f0e"/>
     <use xlink:href="#mf5df4ad9fa" x="197.501908" y="39.366077" style="fill: #ff7f0e; stroke: #ff7f0e"/>
     <use xlink:href="#mf5df4ad9fa" x="198.735579" y="40.483769" style="fill: #ff7f0e; stroke: #ff7f0e"/>
     <use xlink:href="#mf5df4ad9fa" x="200.97955" y="37.975913" style="fill: #ff7f0e; stroke: #ff7f0e"/>
     <use xlink:href="#mf5df4ad9fa" x="205.533965" y="38.182906" style="fill: #ff7f0e; stroke: #ff7f0e"/>
     <use xlink:href="#mf5df4ad9fa" x="204.445951" y="35.554091" style="fill: #ff7f0e; stroke: #ff7f0e"/>
     <use xlink:href="#mf5df4ad9fa" x="207.360336" y="34.619002" style="fill: #ff7f0e; stroke: #ff7f0e"/>
     <use xlink:href="#mf5df4ad9fa" x="207.204765" y="33.701569" style="fill: #ff7f0e; stroke: #ff7f0e"/>
     <use xlink:href="#mf5df4ad9fa" x="207.394048" y="33.739429" style="fill: #ff7f0e; stroke: #ff7f0e"/>
     <use xlink:href="#mf5df4ad9fa" x="207.714659" y="35.812466" style="fill: #ff7f0e; stroke: #ff7f0e"/>
     <use xlink:href="#mf5df4ad9fa" x="209.445828" y="34.497755" style="fill: #ff7f0e; stroke: #ff7f0e"/>
     <use xlink:href="#mf5df4ad9fa" x="209.572969" y="35.717246" style="fill: #ff7f0e; stroke: #ff7f0e"/>
     <use xlink:href="#mf5df4ad9fa" x="209.11717" y="34.294516" style="fill: #ff7f0e; stroke: #ff7f0e"/>
     <use xlink:href="#mf5df4ad9fa" x="207.690806" y="32.315004" style="fill: #ff7f0e; stroke: #ff7f0e"/>
     <use xlink:href="#mf5df4ad9fa" x="206.284679" y="34.326698" style="fill: #ff7f0e; stroke: #ff7f0e"/>
     <use xlink:href="#mf5df4ad9fa" x="204.357998" y="35.154889" style="fill: #ff7f0e; stroke: #ff7f0e"/>
     <use xlink:href="#mf5df4ad9fa" x="202.8778" y="38.066068" style="fill: #ff7f0e; stroke: #ff7f0e"/>
     <use xlink:href="#mf5df4ad9fa" x="201.908267" y="35.637762" style="fill: #ff7f0e; stroke: #ff7f0e"/>
     <use xlink:href="#mf5df4ad9fa" x="202.925997" y="33.701319" style="fill: #ff7f0e; stroke: #ff7f0e"/>
     <use xlink:href="#mf5df4ad9fa" x="205.638168" y="34.159717" style="fill: #ff7f0e; stroke: #ff7f0e"/>
     <use xlink:href="#mf5df4ad9fa" x="205.672404" y="34.884612" style="fill: #ff7f0e; stroke: #ff7f0e"/>
     <use xlink:href="#mf5df4ad9fa" x="205.647584" y="35.015068" style="fill: #ff7f0e; stroke: #ff7f0e"/>
     <use xlink:href="#mf5df4ad9fa" x="203.345112" y="36.392425" style="fill: #ff7f0e; stroke: #ff7f0e"/>
     <use xlink:href="#mf5df4ad9fa" x="204.818949" y="38.388842" style="fill: #ff7f0e; stroke: #ff7f0e"/>
     <use xlink:href="#mf5df4ad9fa" x="202.72638" y="38.650296" style="fill: #ff7f0e; stroke: #ff7f0e"/>
     <use xlink:href="#mf5df4ad9fa" x="200.963236" y="37.177136" style="fill: #ff7f0e; stroke: #ff7f0e"/>
     <use xlink:href="#mf5df4ad9fa" x="200.555585" y="37.060658" style="fill: #ff7f0e; stroke: #ff7f0e"/>
     <use xlink:href="#mf5df4ad9fa" x="204.010472" y="36.544737" style="fill: #ff7f0e; stroke: #ff7f0e"/>
     <use xlink:href="#mf5df4ad9fa" x="205.024868" y="40.192663" style="fill: #ff7f0e; stroke: #ff7f0e"/>
     <use xlink:href="#mf5df4ad9fa" x="206.677638" y="39.157407" style="fill: #ff7f0e; stroke: #ff7f0e"/>
     <use xlink:href="#mf5df4ad9fa" x="206.936377" y="39.847996" style="fill: #ff7f0e; stroke: #ff7f0e"/>
     <use xlink:href="#mf5df4ad9fa" x="206.676492" y="39.679277" style="fill: #ff7f0e; stroke: #ff7f0e"/>
     <use xlink:href="#mf5df4ad9fa" x="206.763816" y="35.043123" style="fill: #ff7f0e; stroke: #ff7f0e"/>
     <use xlink:href="#mf5df4ad9fa" x="208.08504" y="35.615297" style="fill: #ff7f0e; stroke: #ff7f0e"/>
    </g>
   </g>
   <g id="PathCollection_1"/>
   <g id="PathCollection_2">
    <path d="M 133.389344 7.2 
L 131.35498 10.753846 
L 131.115625 11.227728 
L 129.618657 14.307692 
L 128.121673 17.861538 
L 128.064062 18.023174 
L 126.898963 21.415385 
L 125.900279 24.969231 
L 125.123527 28.523077 
L 125.0125 29.234243 
L 124.584276 32.076923 
L 124.263066 35.630769 
L 124.155999 39.184615 
L 124.263077 42.738462 
L 124.5843 46.292308 
L 125.0125 49.134764 
L 125.123564 49.846154 
L 125.900331 53.4 
L 126.899026 56.953846 
L 128.064062 60.345842 
L 128.12175 60.507692 
L 129.618751 64.061538 
L 131.115625 67.141291 
L 131.355089 67.615385 
L 133.389469 71.169231 
L 134.167187 72.384816 
L 135.724244 74.723077 
L 137.21875 76.753658 
L 138.387577 78.276923 
L 140.270312 80.517217 
L 141.423279 81.830769 
L 143.321875 83.820765 
L 144.883296 85.384615 
L 146.373437 86.76652 
L 148.829738 88.938462 
L 149.425 89.428512 
L 152.476562 91.81817 
L 153.383962 92.492308 
L 155.528125 93.982506 
L 158.579687 95.988712 
L 158.672355 96.046154 
L 161.63125 97.76912 
L 164.682812 99.438355 
L 164.998699 99.6 
L 167.734375 100.919901 
L 170.785937 102.290672 
L 172.86123 103.153846 
L 173.8375 103.537956 
L 176.889062 104.642535 
L 179.940625 105.651063 
L 182.992188 106.563541 
L 183.530983 106.707692 
L 186.04375 107.345492 
L 189.095312 108.028926 
L 192.146875 108.621238 
L 195.198437 109.122425 
L 198.25 109.532488 
L 201.301562 109.851427 
L 204.353125 110.079242 
L 207.404687 110.215932 
L 210.45625 110.261499 
L 213.507812 110.215941 
L 216.559375 110.07926 
L 219.610937 109.851457 
L 222.6625 109.532527 
L 225.714062 109.122472 
L 228.765625 108.621295 
L 231.817187 108.028993 
L 234.86875 107.345567 
L 237.381838 106.707692 
L 237.920312 106.563628 
" clip-path="url(#p92b62d1e4d)" style="fill: none; stroke: #1f77b4; stroke-width: 1.5"/>
   </g>
   <g id="PathCollection_3">
    <path d="M 94.740998 7.2 
L 94.496875 7.827147 
L 93.387221 10.753846 
L 92.198306 14.307692 
L 91.445312 16.904784 
L 91.174936 17.861538 
L 90.325141 21.415385 
L 89.62985 24.969231 
L 89.089074 28.523077 
L 88.702806 32.076923 
L 88.471043 35.630769 
L 88.393794 39.184615 
L 88.471051 42.738462 
L 88.702821 46.292308 
L 89.089097 49.846154 
L 89.629885 53.4 
L 90.325182 56.953846 
L 91.174988 60.507692 
L 91.445312 61.464257 
L 92.198367 64.061538 
L 93.387292 67.615385 
L 94.496875 70.54187 
L 94.741083 71.169231 
L 96.28721 74.723077 
L 97.548437 77.345973 
L 98.008352 78.276923 
L 99.931252 81.830769 
L 100.6 82.96785 
L 102.061404 85.384615 
L 103.651562 87.819517 
L 104.403491 88.938462 
L 106.703125 92.124531 
L 106.976501 92.492308 
L 109.754687 95.988701 
L 109.801743 96.046154 
L 112.80625 99.492182 
L 112.903238 99.6 
L 115.857812 102.696807 
L 116.308159 103.153846 
L 118.909375 105.651027 
L 120.04737 106.707692 
L 121.960937 108.393385 
L 124.156044 110.261538 
L 125.0125 110.954872 
L 128.064062 113.338548 
L 128.69754 113.815385 
L 131.115625 115.550892 
L 133.748473 117.369231 
L 134.167187 117.645557 
L 137.21875 119.580429 
L 139.426399 120.923077 
L 140.270312 121.414488 
L 143.321875 123.115799 
L 145.876809 124.476923 
L 146.373437 124.730699 
L 149.425 126.217512 
L 152.476562 127.631797 
L 153.383944 128.030769 
L 155.528125 128.936587 
L 158.579687 130.156047 
L 161.63125 131.305823 
L 162.418915 131.584615 
L 164.682812 132.355681 
L 167.734375 133.327963 
L 170.785937 134.23319 
L 173.8375 135.071362 
L 174.103036 135.138462 
L 176.889062 135.81688 
L 179.940625 136.495346 
L 182.992188 137.109194 
L 186.04375 137.658426 
L 189.095312 138.143046 
L 192.146875 138.563049 
L 193.256765 138.692308 
L 195.198437 138.910502 
L 198.25 139.191073 
L 201.301562 139.409294 
L 204.353125 139.565167 
L 207.404687 139.658693 
L 210.45625 139.68987 
L 213.507812 139.658699 
L 216.559375 139.56518 
L 219.610937 139.409314 
L 222.6625 139.191099 
L 225.714062 138.910535 
L 227.656043 138.692308 
L 228.765625 138.563086 
L 231.817187 138.143094 
L 234.86875 137.65848 
L 237.920312 137.109255 
" clip-path="url(#p92b62d1e4d)" style="fill: none; stroke: #1f77b4; stroke-width: 1.5"/>
   </g>
   <g id="PathCollection_4">
    <path d="M 66.101267 7.2 
L 65.009133 10.753846 
L 64.045483 14.307692 
L 63.98125 14.581021 
L 63.22622 17.861538 
L 62.534122 21.415385 
L 61.967852 24.969231 
L 61.527429 28.523077 
L 61.21284 32.076923 
L 61.024086 35.630769 
L 60.961172 39.184615 
L 61.024092 42.738462 
L 61.212852 46.292308 
L 61.527447 49.846154 
L 61.967882 53.4 
L 62.534158 56.953846 
L 63.226262 60.507692 
L 63.98125 63.788003 
L 64.045532 64.061538 
L 65.009188 67.615385 
L 66.101328 71.169231 
L 67.032812 73.881235 
L 67.328175 74.723077 
L 68.7063 78.276923 
L 70.084375 81.521615 
L 70.218564 81.830769 
L 71.895247 85.384615 
L 73.135937 87.819547 
L 73.71888 88.938462 
L 75.707544 92.492308 
L 76.1875 93.294678 
L 77.871188 96.046154 
L 79.239062 98.146048 
L 80.208452 99.6 
L 82.290625 102.544515 
L 82.731888 103.153846 
L 85.342187 106.563523 
L 85.455283 106.707692 
L 88.39375 110.261452 
L 88.393824 110.261538 
L 91.445312 113.685272 
L 91.56429 113.815385 
L 94.496875 116.873262 
L 94.985206 117.369231 
L 97.548437 119.856846 
L 98.67718 120.923077 
L 100.6 122.66212 
L 102.663111 124.476923 
L 103.651562 125.310919 
L 106.703125 127.813113 
L 106.976492 128.030769 
L 109.754687 130.156041 
L 111.679604 131.584615 
L 112.80625 132.3892 
L 115.857812 134.501392 
L 116.80839 135.138462 
L 118.909375 136.495323 
L 121.960938 138.401476 
L 122.442865 138.692308 
L 125.0125 140.188612 
L 128.064062 141.903189 
L 128.697498 142.246154 
L 131.115625 143.511034 
L 134.167187 145.047021 
L 135.724197 145.8 
" clip-path="url(#p92b62d1e4d)" style="fill: none; stroke: #1f77b4; stroke-width: 1.5"/>
   </g>
   <g id="PathCollection_5">
    <path d="M 42.620312 72.384955 
L 43.320235 74.723077 
L 44.49607 78.276923 
L 45.671875 81.521672 
L 45.785977 81.830769 
L 47.211943 85.384615 
L 48.723437 88.872585 
L 48.752529 88.938462 
L 50.43816 92.492308 
L 51.775 95.12895 
L 52.249073 96.046154 
L 54.204437 99.6 
L 54.826562 100.66609 
L 56.307063 103.153846 
L 57.878125 105.651082 
L 58.556292 106.707692 
L 60.929687 110.215897 
L 60.961202 110.261538 
L 63.540869 113.815385 
L 63.98125 114.393854 
L 66.294061 117.369231 
L 67.032812 118.277376 
L 69.231293 120.923077 
L 70.084375 121.906003 
L 72.364711 124.476923 
L 73.135937 125.310938 
L 75.707533 128.030769 
L 76.1875 128.518498 
L 79.239062 131.549713 
L 79.275026 131.584615 
L 82.290625 134.400817 
L 83.099532 135.138462 
L 85.342187 137.109186 
L 87.188249 138.692308 
L 88.39375 139.689831 
L 91.445312 142.152588 
L 91.56426 142.246154 
L 94.496875 144.474796 
L 96.287181 145.8 
" clip-path="url(#p92b62d1e4d)" style="fill: none; stroke: #1f77b4; stroke-width: 1.5"/>
   </g>
   <g id="PathCollection_6">
    <path d="M 42.620312 117.64561 
L 44.944003 120.923077 
L 45.671875 121.906022 
L 47.611209 124.476923 
L 48.723437 125.89118 
L 50.438149 128.030769 
L 51.775 129.633454 
L 53.434124 131.584615 
L 54.826562 133.160354 
L 56.609185 135.138462 
L 57.878125 136.495356 
L 59.974177 138.692308 
L 60.929687 139.658674 
L 63.540845 142.246154 
L 63.98125 142.667772 
L 67.032812 145.52892 
L 67.32815 145.8 
" clip-path="url(#p92b62d1e4d)" style="fill: none; stroke: #1f77b4; stroke-width: 1.5"/>
   </g>
   <g id="PathCollection_7">
    <path d="M 42.620312 145.047067 
L 43.320215 145.8 
" clip-path="url(#p92b62d1e4d)" style="fill: none; stroke: #1f77b4; stroke-width: 1.5"/>
   </g>
   <g id="PathCollection_8"/>
   <g id="patch_3">
    <path d="M 42.620312 145.8 
L 42.620312 7.2 
" style="fill: none; stroke: #000000; stroke-width: 0.8; stroke-linejoin: miter; stroke-linecap: square"/>
   </g>
   <g id="patch_4">
    <path d="M 237.920313 145.8 
L 237.920313 7.2 
" style="fill: none; stroke: #000000; stroke-width: 0.8; stroke-linejoin: miter; stroke-linecap: square"/>
   </g>
   <g id="patch_5">
    <path d="M 42.620312 145.8 
L 237.920312 145.8 
" style="fill: none; stroke: #000000; stroke-width: 0.8; stroke-linejoin: miter; stroke-linecap: square"/>
   </g>
   <g id="patch_6">
    <path d="M 42.620312 7.2 
L 237.920312 7.2 
" style="fill: none; stroke: #000000; stroke-width: 0.8; stroke-linejoin: miter; stroke-linecap: square"/>
   </g>
  </g>
 </g>
 <defs>
  <clipPath id="p92b62d1e4d">
   <rect x="42.620312" y="7.2" width="195.3" height="138.6"/>
  </clipPath>
 </defs>
</svg>
