<?xml version="1.0" encoding="utf-8" standalone="no"?>
<!DOCTYPE svg PUBLIC "-//W3C//DTD SVG 1.1//EN"
  "http://www.w3.org/Graphics/SVG/1.1/DTD/svg11.dtd">
<svg xmlns:xlink="http://www.w3.org/1999/xlink" width="238.965625pt" height="183.35625pt" viewBox="0 0 238.965625 183.35625" xmlns="http://www.w3.org/2000/svg" version="1.1">
 <metadata>
  <rdf:RDF xmlns:dc="http://purl.org/dc/elements/1.1/" xmlns:cc="http://creativecommons.org/ns#" xmlns:rdf="http://www.w3.org/1999/02/22-rdf-syntax-ns#">
   <cc:Work>
    <dc:type rdf:resource="http://purl.org/dc/dcmitype/StillImage"/>
    <dc:date>2025-08-06T11:53:57.377787</dc:date>
    <dc:format>image/svg+xml</dc:format>
    <dc:creator>
     <cc:Agent>
      <dc:title>Matplotlib v3.7.2, https://matplotlib.org/</dc:title>
     </cc:Agent>
    </dc:creator>
   </cc:Work>
  </rdf:RDF>
 </metadata>
 <defs>
  <style type="text/css">*{stroke-linejoin: round; stroke-linecap: butt}</style>
 </defs>
 <g id="figure_1">
  <g id="patch_1">
   <path d="M 0 183.35625 
L 238.965625 183.35625 
L 238.965625 0 
L 0 0 
z
" style="fill: #ffffff"/>
  </g>
  <g id="axes_1">
   <g id="patch_2">
    <path d="M 30.103125 145.8 
L 225.403125 145.8 
L 225.403125 7.2 
L 30.103125 7.2 
z
" style="fill: #ffffff"/>
   </g>
   <g id="matplotlib.axis_1">
    <g id="xtick_1">
     <g id="line2d_1">
      <path d="M 30.103125 145.8 
L 30.103125 7.2 
" clip-path="url(#paf58e397f8)" style="fill: none; stroke: #b0b0b0; stroke-width: 0.8; stroke-linecap: square"/>
     </g>
     <g id="line2d_2">
      <defs>
       <path id="m915c21cad0" d="M 0 0 
L 0 3.5 
" style="stroke: #000000; stroke-width: 0.8"/>
      </defs>
      <g>
       <use xlink:href="#m915c21cad0" x="30.103125" y="145.8" style="stroke: #000000; stroke-width: 0.8"/>
      </g>
     </g>
     <g id="text_1">
      <!-- 0 -->
      <g transform="translate(26.921875 160.398438) scale(0.1 -0.1)">
       <defs>
        <path id="DejaVuSans-30" d="M 2034 4250 
Q 1547 4250 1301 3770 
Q 1056 3291 1056 2328 
Q 1056 1369 1301 889 
Q 1547 409 2034 409 
Q 2525 409 2770 889 
Q 3016 1369 3016 2328 
Q 3016 3291 2770 3770 
Q 2525 4250 2034 4250 
z
M 2034 4750 
Q 2819 4750 3233 4129 
Q 3647 3509 3647 2328 
Q 3647 1150 3233 529 
Q 2819 -91 2034 -91 
Q 1250 -91 836 529 
Q 422 1150 422 2328 
Q 422 3509 836 4129 
Q 1250 4750 2034 4750 
z
" transform="scale(0.015625)"/>
       </defs>
       <use xlink:href="#DejaVuSans-30"/>
      </g>
     </g>
    </g>
    <g id="xtick_2">
     <g id="line2d_3">
      <path d="M 62.653125 145.8 
L 62.653125 7.2 
" clip-path="url(#paf58e397f8)" style="fill: none; stroke: #b0b0b0; stroke-width: 0.8; stroke-linecap: square"/>
     </g>
     <g id="line2d_4">
      <g>
       <use xlink:href="#m915c21cad0" x="62.653125" y="145.8" style="stroke: #000000; stroke-width: 0.8"/>
      </g>
     </g>
     <g id="text_2">
      <!-- 5 -->
      <g transform="translate(59.471875 160.398438) scale(0.1 -0.1)">
       <defs>
        <path id="DejaVuSans-35" d="M 691 4666 
L 3169 4666 
L 3169 4134 
L 1269 4134 
L 1269 2991 
Q 1406 3038 1543 3061 
Q 1681 3084 1819 3084 
Q 2600 3084 3056 2656 
Q 3513 2228 3513 1497 
Q 3513 744 3044 326 
Q 2575 -91 1722 -91 
Q 1428 -91 1123 -41 
Q 819 9 494 109 
L 494 744 
Q 775 591 1075 516 
Q 1375 441 1709 441 
Q 2250 441 2565 725 
Q 2881 1009 2881 1497 
Q 2881 1984 2565 2268 
Q 2250 2553 1709 2553 
Q 1456 2553 1204 2497 
Q 953 2441 691 2322 
L 691 4666 
z
" transform="scale(0.015625)"/>
       </defs>
       <use xlink:href="#DejaVuSans-35"/>
      </g>
     </g>
    </g>
    <g id="xtick_3">
     <g id="line2d_5">
      <path d="M 95.203125 145.8 
L 95.203125 7.2 
" clip-path="url(#paf58e397f8)" style="fill: none; stroke: #b0b0b0; stroke-width: 0.8; stroke-linecap: square"/>
     </g>
     <g id="line2d_6">
      <g>
       <use xlink:href="#m915c21cad0" x="95.203125" y="145.8" style="stroke: #000000; stroke-width: 0.8"/>
      </g>
     </g>
     <g id="text_3">
      <!-- 10 -->
      <g transform="translate(88.840625 160.398438) scale(0.1 -0.1)">
       <defs>
        <path id="DejaVuSans-31" d="M 794 531 
L 1825 531 
L 1825 4091 
L 703 3866 
L 703 4441 
L 1819 4666 
L 2450 4666 
L 2450 531 
L 3481 531 
L 3481 0 
L 794 0 
L 794 531 
z
" transform="scale(0.015625)"/>
       </defs>
       <use xlink:href="#DejaVuSans-31"/>
       <use xlink:href="#DejaVuSans-30" x="63.623047"/>
      </g>
     </g>
    </g>
    <g id="xtick_4">
     <g id="line2d_7">
      <path d="M 127.753125 145.8 
L 127.753125 7.2 
" clip-path="url(#paf58e397f8)" style="fill: none; stroke: #b0b0b0; stroke-width: 0.8; stroke-linecap: square"/>
     </g>
     <g id="line2d_8">
      <g>
       <use xlink:href="#m915c21cad0" x="127.753125" y="145.8" style="stroke: #000000; stroke-width: 0.8"/>
      </g>
     </g>
     <g id="text_4">
      <!-- 15 -->
      <g transform="translate(121.390625 160.398438) scale(0.1 -0.1)">
       <use xlink:href="#DejaVuSans-31"/>
       <use xlink:href="#DejaVuSans-35" x="63.623047"/>
      </g>
     </g>
    </g>
    <g id="xtick_5">
     <g id="line2d_9">
      <path d="M 160.303125 145.8 
L 160.303125 7.2 
" clip-path="url(#paf58e397f8)" style="fill: none; stroke: #b0b0b0; stroke-width: 0.8; stroke-linecap: square"/>
     </g>
     <g id="line2d_10">
      <g>
       <use xlink:href="#m915c21cad0" x="160.303125" y="145.8" style="stroke: #000000; stroke-width: 0.8"/>
      </g>
     </g>
     <g id="text_5">
      <!-- 20 -->
      <g transform="translate(153.940625 160.398438) scale(0.1 -0.1)">
       <defs>
        <path id="DejaVuSans-32" d="M 1228 531 
L 3431 531 
L 3431 0 
L 469 0 
L 469 531 
Q 828 903 1448 1529 
Q 2069 2156 2228 2338 
Q 2531 2678 2651 2914 
Q 2772 3150 2772 3378 
Q 2772 3750 2511 3984 
Q 2250 4219 1831 4219 
Q 1534 4219 1204 4116 
Q 875 4013 500 3803 
L 500 4441 
Q 881 4594 1212 4672 
Q 1544 4750 1819 4750 
Q 2544 4750 2975 4387 
Q 3406 4025 3406 3419 
Q 3406 3131 3298 2873 
Q 3191 2616 2906 2266 
Q 2828 2175 2409 1742 
Q 1991 1309 1228 531 
z
" transform="scale(0.015625)"/>
       </defs>
       <use xlink:href="#DejaVuSans-32"/>
       <use xlink:href="#DejaVuSans-30" x="63.623047"/>
      </g>
     </g>
    </g>
    <g id="xtick_6">
     <g id="line2d_11">
      <path d="M 192.853125 145.8 
L 192.853125 7.2 
" clip-path="url(#paf58e397f8)" style="fill: none; stroke: #b0b0b0; stroke-width: 0.8; stroke-linecap: square"/>
     </g>
     <g id="line2d_12">
      <g>
       <use xlink:href="#m915c21cad0" x="192.853125" y="145.8" style="stroke: #000000; stroke-width: 0.8"/>
      </g>
     </g>
     <g id="text_6">
      <!-- 25 -->
      <g transform="translate(186.490625 160.398438) scale(0.1 -0.1)">
       <use xlink:href="#DejaVuSans-32"/>
       <use xlink:href="#DejaVuSans-35" x="63.623047"/>
      </g>
     </g>
    </g>
    <g id="xtick_7">
     <g id="line2d_13">
      <path d="M 225.403125 145.8 
L 225.403125 7.2 
" clip-path="url(#paf58e397f8)" style="fill: none; stroke: #b0b0b0; stroke-width: 0.8; stroke-linecap: square"/>
     </g>
     <g id="line2d_14">
      <g>
       <use xlink:href="#m915c21cad0" x="225.403125" y="145.8" style="stroke: #000000; stroke-width: 0.8"/>
      </g>
     </g>
     <g id="text_7">
      <!-- 30 -->
      <g transform="translate(219.040625 160.398438) scale(0.1 -0.1)">
       <defs>
        <path id="DejaVuSans-33" d="M 2597 2516 
Q 3050 2419 3304 2112 
Q 3559 1806 3559 1356 
Q 3559 666 3084 287 
Q 2609 -91 1734 -91 
Q 1441 -91 1130 -33 
Q 819 25 488 141 
L 488 750 
Q 750 597 1062 519 
Q 1375 441 1716 441 
Q 2309 441 2620 675 
Q 2931 909 2931 1356 
Q 2931 1769 2642 2001 
Q 2353 2234 1838 2234 
L 1294 2234 
L 1294 2753 
L 1863 2753 
Q 2328 2753 2575 2939 
Q 2822 3125 2822 3475 
Q 2822 3834 2567 4026 
Q 2313 4219 1838 4219 
Q 1578 4219 1281 4162 
Q 984 4106 628 3988 
L 628 4550 
Q 988 4650 1302 4700 
Q 1616 4750 1894 4750 
Q 2613 4750 3031 4423 
Q 3450 4097 3450 3541 
Q 3450 3153 3228 2886 
Q 3006 2619 2597 2516 
z
" transform="scale(0.015625)"/>
       </defs>
       <use xlink:href="#DejaVuSans-33"/>
       <use xlink:href="#DejaVuSans-30" x="63.623047"/>
      </g>
     </g>
    </g>
    <g id="text_8">
     <!-- epoch -->
     <g transform="translate(112.525 174.076563) scale(0.1 -0.1)">
      <defs>
       <path id="DejaVuSans-65" d="M 3597 1894 
L 3597 1613 
L 953 1613 
Q 991 1019 1311 708 
Q 1631 397 2203 397 
Q 2534 397 2845 478 
Q 3156 559 3463 722 
L 3463 178 
Q 3153 47 2828 -22 
Q 2503 -91 2169 -91 
Q 1331 -91 842 396 
Q 353 884 353 1716 
Q 353 2575 817 3079 
Q 1281 3584 2069 3584 
Q 2775 3584 3186 3129 
Q 3597 2675 3597 1894 
z
M 3022 2063 
Q 3016 2534 2758 2815 
Q 2500 3097 2075 3097 
Q 1594 3097 1305 2825 
Q 1016 2553 972 2059 
L 3022 2063 
z
" transform="scale(0.015625)"/>
       <path id="DejaVuSans-70" d="M 1159 525 
L 1159 -1331 
L 581 -1331 
L 581 3500 
L 1159 3500 
L 1159 2969 
Q 1341 3281 1617 3432 
Q 1894 3584 2278 3584 
Q 2916 3584 3314 3078 
Q 3713 2572 3713 1747 
Q 3713 922 3314 415 
Q 2916 -91 2278 -91 
Q 1894 -91 1617 61 
Q 1341 213 1159 525 
z
M 3116 1747 
Q 3116 2381 2855 2742 
Q 2594 3103 2138 3103 
Q 1681 3103 1420 2742 
Q 1159 2381 1159 1747 
Q 1159 1113 1420 752 
Q 1681 391 2138 391 
Q 2594 391 2855 752 
Q 3116 1113 3116 1747 
z
" transform="scale(0.015625)"/>
       <path id="DejaVuSans-6f" d="M 1959 3097 
Q 1497 3097 1228 2736 
Q 959 2375 959 1747 
Q 959 1119 1226 758 
Q 1494 397 1959 397 
Q 2419 397 2687 759 
Q 2956 1122 2956 1747 
Q 2956 2369 2687 2733 
Q 2419 3097 1959 3097 
z
M 1959 3584 
Q 2709 3584 3137 3096 
Q 3566 2609 3566 1747 
Q 3566 888 3137 398 
Q 2709 -91 1959 -91 
Q 1206 -91 779 398 
Q 353 888 353 1747 
Q 353 2609 779 3096 
Q 1206 3584 1959 3584 
z
" transform="scale(0.015625)"/>
       <path id="DejaVuSans-63" d="M 3122 3366 
L 3122 2828 
Q 2878 2963 2633 3030 
Q 2388 3097 2138 3097 
Q 1578 3097 1268 2742 
Q 959 2388 959 1747 
Q 959 1106 1268 751 
Q 1578 397 2138 397 
Q 2388 397 2633 464 
Q 2878 531 3122 666 
L 3122 134 
Q 2881 22 2623 -34 
Q 2366 -91 2075 -91 
Q 1284 -91 818 406 
Q 353 903 353 1747 
Q 353 2603 823 3093 
Q 1294 3584 2113 3584 
Q 2378 3584 2631 3529 
Q 2884 3475 3122 3366 
z
" transform="scale(0.015625)"/>
       <path id="DejaVuSans-68" d="M 3513 2113 
L 3513 0 
L 2938 0 
L 2938 2094 
Q 2938 2591 2744 2837 
Q 2550 3084 2163 3084 
Q 1697 3084 1428 2787 
Q 1159 2491 1159 1978 
L 1159 0 
L 581 0 
L 581 4863 
L 1159 4863 
L 1159 2956 
Q 1366 3272 1645 3428 
Q 1925 3584 2291 3584 
Q 2894 3584 3203 3211 
Q 3513 2838 3513 2113 
z
" transform="scale(0.015625)"/>
      </defs>
      <use xlink:href="#DejaVuSans-65"/>
      <use xlink:href="#DejaVuSans-70" x="61.523438"/>
      <use xlink:href="#DejaVuSans-6f" x="125"/>
      <use xlink:href="#DejaVuSans-63" x="186.181641"/>
      <use xlink:href="#DejaVuSans-68" x="241.162109"/>
     </g>
    </g>
   </g>
   <g id="matplotlib.axis_2">
    <g id="ytick_1">
     <g id="line2d_15">
      <path d="M 30.103125 124.576956 
L 225.403125 124.576956 
" clip-path="url(#paf58e397f8)" style="fill: none; stroke: #b0b0b0; stroke-width: 0.8; stroke-linecap: square"/>
     </g>
     <g id="line2d_16">
      <defs>
       <path id="m1a08d31028" d="M 0 0 
L -3.5 0 
" style="stroke: #000000; stroke-width: 0.8"/>
      </defs>
      <g>
       <use xlink:href="#m1a08d31028" x="30.103125" y="124.576956" style="stroke: #000000; stroke-width: 0.8"/>
      </g>
     </g>
     <g id="text_9">
      <!-- 0.5 -->
      <g transform="translate(7.2 128.376175) scale(0.1 -0.1)">
       <defs>
        <path id="DejaVuSans-2e" d="M 684 794 
L 1344 794 
L 1344 0 
L 684 0 
L 684 794 
z
" transform="scale(0.015625)"/>
       </defs>
       <use xlink:href="#DejaVuSans-30"/>
       <use xlink:href="#DejaVuSans-2e" x="63.623047"/>
       <use xlink:href="#DejaVuSans-35" x="95.410156"/>
      </g>
     </g>
    </g>
    <g id="ytick_2">
     <g id="line2d_17">
      <path d="M 30.103125 93.547884 
L 225.403125 93.547884 
" clip-path="url(#paf58e397f8)" style="fill: none; stroke: #b0b0b0; stroke-width: 0.8; stroke-linecap: square"/>
     </g>
     <g id="line2d_18">
      <g>
       <use xlink:href="#m1a08d31028" x="30.103125" y="93.547884" style="stroke: #000000; stroke-width: 0.8"/>
      </g>
     </g>
     <g id="text_10">
      <!-- 1.0 -->
      <g transform="translate(7.2 97.347103) scale(0.1 -0.1)">
       <use xlink:href="#DejaVuSans-31"/>
       <use xlink:href="#DejaVuSans-2e" x="63.623047"/>
       <use xlink:href="#DejaVuSans-30" x="95.410156"/>
      </g>
     </g>
    </g>
    <g id="ytick_3">
     <g id="line2d_19">
      <path d="M 30.103125 62.518813 
L 225.403125 62.518813 
" clip-path="url(#paf58e397f8)" style="fill: none; stroke: #b0b0b0; stroke-width: 0.8; stroke-linecap: square"/>
     </g>
     <g id="line2d_20">
      <g>
       <use xlink:href="#m1a08d31028" x="30.103125" y="62.518813" style="stroke: #000000; stroke-width: 0.8"/>
      </g>
     </g>
     <g id="text_11">
      <!-- 1.5 -->
      <g transform="translate(7.2 66.318031) scale(0.1 -0.1)">
       <use xlink:href="#DejaVuSans-31"/>
       <use xlink:href="#DejaVuSans-2e" x="63.623047"/>
       <use xlink:href="#DejaVuSans-35" x="95.410156"/>
      </g>
     </g>
    </g>
    <g id="ytick_4">
     <g id="line2d_21">
      <path d="M 30.103125 31.489741 
L 225.403125 31.489741 
" clip-path="url(#paf58e397f8)" style="fill: none; stroke: #b0b0b0; stroke-width: 0.8; stroke-linecap: square"/>
     </g>
     <g id="line2d_22">
      <g>
       <use xlink:href="#m1a08d31028" x="30.103125" y="31.489741" style="stroke: #000000; stroke-width: 0.8"/>
      </g>
     </g>
     <g id="text_12">
      <!-- 2.0 -->
      <g transform="translate(7.2 35.28896) scale(0.1 -0.1)">
       <use xlink:href="#DejaVuSans-32"/>
       <use xlink:href="#DejaVuSans-2e" x="63.623047"/>
       <use xlink:href="#DejaVuSans-30" x="95.410156"/>
      </g>
     </g>
    </g>
   </g>
   <g id="line2d_23">
    <path d="M 31.460529 13.5 
L 32.845636 13.751227 
L 34.230742 14.028037 
L 35.615848 14.422624 
L 37.970529 20.810794 
L 39.355636 26.271965 
L 40.740742 36.48381 
L 42.125848 47.51983 
L 44.480529 92.653148 
L 45.865636 94.366294 
L 47.250742 95.485375 
L 48.635848 96.4178 
L 50.990529 99.213411 
L 52.375636 100.767705 
L 53.760742 101.438018 
L 55.145848 102.067471 
L 57.500529 103.490188 
L 58.885636 104.762524 
L 60.270742 105.22085 
L 61.655848 105.723506 
L 64.010529 106.535501 
L 65.395636 107.571201 
L 66.780742 107.91979 
L 68.165848 108.360103 
L 70.520529 108.984927 
L 71.905636 109.805853 
L 73.290742 110.124355 
L 74.675848 110.512996 
L 77.030529 111.342726 
L 78.415636 111.848666 
L 79.800742 112.059037 
L 81.185848 112.409272 
L 83.540529 113.374477 
L 84.925636 113.632847 
L 86.310742 113.764627 
L 87.695848 114.097179 
L 90.050529 115.029655 
L 91.435636 115.188789 
L 92.820742 115.282429 
L 94.205848 115.594035 
L 96.560529 116.453797 
L 97.945636 116.541961 
L 99.330742 116.630589 
L 100.715848 116.93133 
L 103.070529 117.785817 
L 104.455636 117.796187 
L 105.840742 117.868358 
L 107.225848 118.145125 
L 109.580529 118.891702 
L 110.965636 118.899018 
L 112.350742 118.97167 
L 113.735848 119.224318 
L 116.090529 119.930486 
L 117.475636 119.926751 
L 118.860742 119.986857 
L 120.245848 120.21127 
L 122.600529 120.907436 
L 123.985636 120.887964 
L 125.370742 120.935074 
L 126.755848 121.132846 
L 129.110529 121.789397 
L 130.495636 121.776178 
L 131.880742 121.821702 
L 133.265848 121.996907 
L 135.620529 122.625582 
L 137.005636 122.609062 
L 138.390742 122.645961 
L 139.775848 122.80182 
L 142.130529 123.391407 
L 143.515636 123.363471 
L 144.900742 123.411335 
L 146.285848 123.552664 
L 148.640529 124.090357 
L 150.025636 124.069403 
L 151.410742 124.135644 
L 152.795848 124.271487 
L 155.150529 124.747292 
L 156.535636 124.735276 
L 157.920742 124.803192 
L 159.305848 124.927714 
L 161.660529 125.360651 
L 163.045636 125.350254 
L 164.430742 125.428621 
L 165.815848 125.542946 
L 168.170529 125.920429 
L 169.555636 125.915972 
L 170.940742 125.997375 
L 172.325848 126.111318 
L 174.680529 126.437587 
L 176.065636 126.446043 
L 177.450742 126.532881 
L 178.835848 126.645234 
L 181.190529 126.933424 
L 182.575636 126.943125 
L 183.960742 127.035183 
L 185.345848 127.147683 
L 187.700529 127.393881 
L 189.085636 127.408001 
L 190.470742 127.505139 
L 191.855848 127.619904 
L 194.210529 127.835135 
L 195.595636 127.864211 
L 196.980742 127.956927 
L 198.365848 128.069114 
L 200.720529 128.244841 
L 202.105636 128.287472 
L 203.490742 128.378333 
L 204.875848 128.491267 
L 207.230529 128.647154 
L 208.615636 128.698835 
L 210.000742 128.779853 
L 211.385848 128.889201 
L 213.740529 128.996179 
L 215.125636 129.08801 
L 216.510742 129.166364 
L 217.895848 129.269963 
L 220.250529 129.327966 
L 221.635636 129.445047 
L 223.020742 129.524625 
L 224.405848 129.627956 
" clip-path="url(#paf58e397f8)" style="fill: none; stroke: #1f77b4; stroke-width: 1.5; stroke-linecap: square"/>
   </g>
   <g id="line2d_24">
    <path d="M 31.460529 139.5 
L 32.845636 138.83336 
L 34.230742 138.546502 
L 35.615848 138.331562 
L 37.970529 134.763218 
L 39.355636 132.959654 
L 40.740742 129.759781 
L 42.125848 126.837472 
L 44.480529 116.393038 
L 45.865636 115.852454 
L 47.250742 115.531658 
L 48.635848 115.207631 
L 50.990529 114.124037 
L 52.375636 113.60527 
L 53.760742 113.391945 
L 55.145848 113.115593 
L 57.500529 112.47077 
L 58.885636 112.177448 
L 60.270742 111.968163 
L 61.655848 111.755647 
L 64.010529 111.166579 
L 65.395636 111.004161 
L 66.780742 110.872449 
L 68.165848 110.682962 
L 70.520529 110.303583 
L 71.905636 110.192072 
L 73.290742 110.054704 
L 74.675848 109.875721 
L 77.030529 109.508463 
L 78.415636 109.363014 
L 79.800742 109.245039 
L 81.185848 109.109691 
L 83.540529 108.824854 
L 84.925636 108.730312 
L 86.310742 108.616377 
L 87.695848 108.487897 
L 90.050529 108.160638 
L 91.435636 108.104882 
L 92.820742 108.015189 
L 94.205848 107.885497 
L 96.560529 107.564298 
L 97.945636 107.515815 
L 99.330742 107.449555 
L 100.715848 107.340064 
L 103.070529 107.021289 
L 104.455636 107.011592 
L 105.840742 106.927555 
L 107.225848 106.851599 
L 109.580529 106.64797 
L 110.965636 106.567974 
L 112.350742 106.489593 
L 113.735848 106.433434 
L 116.090529 106.201928 
L 117.475636 106.058903 
L 118.860742 106.025773 
L 120.245848 105.964361 
L 122.600529 105.789823 
L 123.985636 105.624981 
L 125.370742 105.610436 
L 126.755848 105.557105 
L 129.110529 105.479532 
L 130.495636 105.321962 
L 131.880742 105.290449 
L 133.265848 105.234693 
L 135.620529 105.038337 
L 137.005636 104.924403 
L 138.390742 104.900969 
L 139.775848 104.850466 
L 142.130529 104.669867 
L 143.515636 104.514722 
L 144.900742 104.492096 
L 146.285848 104.458966 
L 148.640529 104.32079 
L 150.025636 104.170493 
L 151.410742 104.1511 
L 152.795848 104.108677 
L 155.150529 104.044437 
L 156.535636 103.935351 
L 157.920742 103.908685 
L 159.305848 103.85293 
L 161.660529 103.802023 
L 163.045636 103.685664 
L 164.430742 103.643645 
L 165.815848 103.576577 
L 168.170529 103.622636 
L 169.555636 103.474763 
L 170.940742 103.435169 
L 172.325848 103.359616 
L 174.680529 103.317194 
L 176.065636 103.208107 
L 177.450742 103.171745 
L 178.835848 103.111141 
L 181.190529 103.089324 
L 182.575636 103.038417 
L 183.960742 103.008519 
L 185.345848 102.943875 
L 187.700529 102.95842 
L 189.085636 102.90024 
L 190.470742 102.845293 
L 191.855848 102.777821 
L 194.210529 102.78873 
L 195.595636 102.764488 
L 196.980742 102.720854 
L 198.365848 102.634796 
L 200.720529 102.614191 
L 202.105636 102.58995 
L 203.490742 102.56086 
L 204.875848 102.473591 
L 207.230529 102.478439 
L 208.615636 102.444501 
L 210.000742 102.42834 
L 211.385848 102.320869 
L 213.740529 102.352383 
L 215.125636 102.323294 
L 216.510742 102.331374 
L 217.895848 102.211783 
L 220.250529 102.216631 
L 221.635636 102.165724 
L 223.020742 102.181077 
L 224.405848 102.079667 
" clip-path="url(#paf58e397f8)" style="fill: none; stroke-dasharray: 5.55,2.4; stroke-dashoffset: 0; stroke: #bf00bf; stroke-width: 1.5"/>
   </g>
   <g id="line2d_25">
    <path d="M 36.613125 136.132182 
L 43.123125 119.128251 
L 49.633125 116.205312 
L 56.143125 114.194629 
L 62.653125 112.785909 
L 69.163125 111.68748 
L 75.673125 110.58905 
L 82.183125 109.86297 
L 88.693125 109.124478 
L 95.203125 108.652836 
L 101.713125 108.081901 
L 108.223125 107.666112 
L 114.733125 107.213087 
L 121.243125 106.865562 
L 127.753125 106.493213 
L 134.263125 106.20154 
L 140.773125 105.841602 
L 147.283125 105.463048 
L 153.793125 105.158963 
L 160.303125 104.947965 
L 166.813125 104.687321 
L 173.323125 104.482529 
L 179.833125 104.246708 
L 186.343125 103.967447 
L 192.853125 103.837124 
L 199.363125 103.489599 
L 205.873125 103.247572 
L 212.383125 103.204131 
L 218.893125 103.067603 
L 225.403125 102.962105 
" clip-path="url(#paf58e397f8)" style="fill: none; stroke-dasharray: 9.6,2.4,1.5,2.4; stroke-dashoffset: 0; stroke: #008000; stroke-width: 1.5"/>
   </g>
   <g id="patch_3">
    <path d="M 30.103125 145.8 
L 30.103125 7.2 
" style="fill: none; stroke: #000000; stroke-width: 0.8; stroke-linejoin: miter; stroke-linecap: square"/>
   </g>
   <g id="patch_4">
    <path d="M 225.403125 145.8 
L 225.403125 7.2 
" style="fill: none; stroke: #000000; stroke-width: 0.8; stroke-linejoin: miter; stroke-linecap: square"/>
   </g>
   <g id="patch_5">
    <path d="M 30.103125 145.8 
L 225.403125 145.8 
" style="fill: none; stroke: #000000; stroke-width: 0.8; stroke-linejoin: miter; stroke-linecap: square"/>
   </g>
   <g id="patch_6">
    <path d="M 30.103125 7.2 
L 225.403125 7.2 
" style="fill: none; stroke: #000000; stroke-width: 0.8; stroke-linejoin: miter; stroke-linecap: square"/>
   </g>
   <g id="legend_1">
    <g id="patch_7">
     <path d="M 140.634375 59.234375 
L 218.403125 59.234375 
Q 220.403125 59.234375 220.403125 57.234375 
L 220.403125 14.2 
Q 220.403125 12.2 218.403125 12.2 
L 140.634375 12.2 
Q 138.634375 12.2 138.634375 14.2 
L 138.634375 57.234375 
Q 138.634375 59.234375 140.634375 59.234375 
z
" style="fill: #ffffff; opacity: 0.8; stroke: #cccccc; stroke-linejoin: miter"/>
    </g>
    <g id="line2d_26">
     <path d="M 142.634375 20.298438 
L 152.634375 20.298438 
L 162.634375 20.298438 
" style="fill: none; stroke: #1f77b4; stroke-width: 1.5; stroke-linecap: square"/>
    </g>
    <g id="text_13">
     <!-- train loss -->
     <g transform="translate(170.634375 23.798438) scale(0.1 -0.1)">
      <defs>
       <path id="DejaVuSans-74" d="M 1172 4494 
L 1172 3500 
L 2356 3500 
L 2356 3053 
L 1172 3053 
L 1172 1153 
Q 1172 725 1289 603 
Q 1406 481 1766 481 
L 2356 481 
L 2356 0 
L 1766 0 
Q 1100 0 847 248 
Q 594 497 594 1153 
L 594 3053 
L 172 3053 
L 172 3500 
L 594 3500 
L 594 4494 
L 1172 4494 
z
" transform="scale(0.015625)"/>
       <path id="DejaVuSans-72" d="M 2631 2963 
Q 2534 3019 2420 3045 
Q 2306 3072 2169 3072 
Q 1681 3072 1420 2755 
Q 1159 2438 1159 1844 
L 1159 0 
L 581 0 
L 581 3500 
L 1159 3500 
L 1159 2956 
Q 1341 3275 1631 3429 
Q 1922 3584 2338 3584 
Q 2397 3584 2469 3576 
Q 2541 3569 2628 3553 
L 2631 2963 
z
" transform="scale(0.015625)"/>
       <path id="DejaVuSans-61" d="M 2194 1759 
Q 1497 1759 1228 1600 
Q 959 1441 959 1056 
Q 959 750 1161 570 
Q 1363 391 1709 391 
Q 2188 391 2477 730 
Q 2766 1069 2766 1631 
L 2766 1759 
L 2194 1759 
z
M 3341 1997 
L 3341 0 
L 2766 0 
L 2766 531 
Q 2569 213 2275 61 
Q 1981 -91 1556 -91 
Q 1019 -91 701 211 
Q 384 513 384 1019 
Q 384 1609 779 1909 
Q 1175 2209 1959 2209 
L 2766 2209 
L 2766 2266 
Q 2766 2663 2505 2880 
Q 2244 3097 1772 3097 
Q 1472 3097 1187 3025 
Q 903 2953 641 2809 
L 641 3341 
Q 956 3463 1253 3523 
Q 1550 3584 1831 3584 
Q 2591 3584 2966 3190 
Q 3341 2797 3341 1997 
z
" transform="scale(0.015625)"/>
       <path id="DejaVuSans-69" d="M 603 3500 
L 1178 3500 
L 1178 0 
L 603 0 
L 603 3500 
z
M 603 4863 
L 1178 4863 
L 1178 4134 
L 603 4134 
L 603 4863 
z
" transform="scale(0.015625)"/>
       <path id="DejaVuSans-6e" d="M 3513 2113 
L 3513 0 
L 2938 0 
L 2938 2094 
Q 2938 2591 2744 2837 
Q 2550 3084 2163 3084 
Q 1697 3084 1428 2787 
Q 1159 2491 1159 1978 
L 1159 0 
L 581 0 
L 581 3500 
L 1159 3500 
L 1159 2956 
Q 1366 3272 1645 3428 
Q 1925 3584 2291 3584 
Q 2894 3584 3203 3211 
Q 3513 2838 3513 2113 
z
" transform="scale(0.015625)"/>
       <path id="DejaVuSans-20" transform="scale(0.015625)"/>
       <path id="DejaVuSans-6c" d="M 603 4863 
L 1178 4863 
L 1178 0 
L 603 0 
L 603 4863 
z
" transform="scale(0.015625)"/>
       <path id="DejaVuSans-73" d="M 2834 3397 
L 2834 2853 
Q 2591 2978 2328 3040 
Q 2066 3103 1784 3103 
Q 1356 3103 1142 2972 
Q 928 2841 928 2578 
Q 928 2378 1081 2264 
Q 1234 2150 1697 2047 
L 1894 2003 
Q 2506 1872 2764 1633 
Q 3022 1394 3022 966 
Q 3022 478 2636 193 
Q 2250 -91 1575 -91 
Q 1294 -91 989 -36 
Q 684 19 347 128 
L 347 722 
Q 666 556 975 473 
Q 1284 391 1588 391 
Q 1994 391 2212 530 
Q 2431 669 2431 922 
Q 2431 1156 2273 1281 
Q 2116 1406 1581 1522 
L 1381 1569 
Q 847 1681 609 1914 
Q 372 2147 372 2553 
Q 372 3047 722 3315 
Q 1072 3584 1716 3584 
Q 2034 3584 2315 3537 
Q 2597 3491 2834 3397 
z
" transform="scale(0.015625)"/>
      </defs>
      <use xlink:href="#DejaVuSans-74"/>
      <use xlink:href="#DejaVuSans-72" x="39.208984"/>
      <use xlink:href="#DejaVuSans-61" x="80.322266"/>
      <use xlink:href="#DejaVuSans-69" x="141.601562"/>
      <use xlink:href="#DejaVuSans-6e" x="169.384766"/>
      <use xlink:href="#DejaVuSans-20" x="232.763672"/>
      <use xlink:href="#DejaVuSans-6c" x="264.550781"/>
      <use xlink:href="#DejaVuSans-6f" x="292.333984"/>
      <use xlink:href="#DejaVuSans-73" x="353.515625"/>
      <use xlink:href="#DejaVuSans-73" x="405.615234"/>
     </g>
    </g>
    <g id="line2d_27">
     <path d="M 142.634375 34.976563 
L 152.634375 34.976563 
L 162.634375 34.976563 
" style="fill: none; stroke-dasharray: 5.55,2.4; stroke-dashoffset: 0; stroke: #bf00bf; stroke-width: 1.5"/>
    </g>
    <g id="text_14">
     <!-- train acc -->
     <g transform="translate(170.634375 38.476563) scale(0.1 -0.1)">
      <use xlink:href="#DejaVuSans-74"/>
      <use xlink:href="#DejaVuSans-72" x="39.208984"/>
      <use xlink:href="#DejaVuSans-61" x="80.322266"/>
      <use xlink:href="#DejaVuSans-69" x="141.601562"/>
      <use xlink:href="#DejaVuSans-6e" x="169.384766"/>
      <use xlink:href="#DejaVuSans-20" x="232.763672"/>
      <use xlink:href="#DejaVuSans-61" x="264.550781"/>
      <use xlink:href="#DejaVuSans-63" x="325.830078"/>
      <use xlink:href="#DejaVuSans-63" x="380.810547"/>
     </g>
    </g>
    <g id="line2d_28">
     <path d="M 142.634375 49.654688 
L 152.634375 49.654688 
L 162.634375 49.654688 
" style="fill: none; stroke-dasharray: 9.6,2.4,1.5,2.4; stroke-dashoffset: 0; stroke: #008000; stroke-width: 1.5"/>
    </g>
    <g id="text_15">
     <!-- test acc -->
     <g transform="translate(170.634375 53.154688) scale(0.1 -0.1)">
      <use xlink:href="#DejaVuSans-74"/>
      <use xlink:href="#DejaVuSans-65" x="39.208984"/>
      <use xlink:href="#DejaVuSans-73" x="100.732422"/>
      <use xlink:href="#DejaVuSans-74" x="152.832031"/>
      <use xlink:href="#DejaVuSans-20" x="192.041016"/>
      <use xlink:href="#DejaVuSans-61" x="223.828125"/>
      <use xlink:href="#DejaVuSans-63" x="285.107422"/>
      <use xlink:href="#DejaVuSans-63" x="340.087891"/>
     </g>
    </g>
   </g>
  </g>
 </g>
 <defs>
  <clipPath id="paf58e397f8">
   <rect x="30.103125" y="7.2" width="195.3" height="138.6"/>
  </clipPath>
 </defs>
</svg>
